999
dxflib 3.26.4.0
  0
SECTION
  2
HEADER
  9
$ACADVER
  1
AC1015
  9
$HANDSEED
  5
FFFF
  9
$ANGBASE
 50
0.0
  9
$ANGDIR
 70
0
  9
$ATTMODE
 70
0
  9
$AUNITS
 70
0
  9
$AUPREC
 70
2
  9
$CECOLOR
 62
256
  9
$CELTSCALE
 40
1.0
  9
$CHAMFERA
 40
0.0
  9
$CHAMFERB
 40
0.0
  9
$CHAMFERC
 40
0.0
  9
$CHAMFERD
 40
0.0
  9
$CMLJUST
 70
0
  9
$CMLSCALE
 40
20.0
  9
$DIMADEC
 70
0
  9
$DIMALT
 70
0
  9
$DIMALTD
 70
3
  9
$DIMALTF
 40
0.03937
  9
$DIMALTRND
 40
0.0
  9
$DIMALTTD
 70
3
  9
$DIMALTTZ
 70
0
  9
$DIMALTU
 70
2
  9
$DIMALTZ
 70
0
  9
$DIMAPOST
  1

  9
$DIMASZ
 40
0.15
  9
$DIMATFIT
 70
0
  9
$DIMAUNIT
 70
0
  9
$DIMAZIN
 70
2
  9
$DIMBLK
  1
0
  9
$DIMBLK1
  1
0
  9
$DIMBLK2
  1
0
  9
$DIMCEN
 40
2.5
  9
$DIMCLRD
 70
0
  9
$DIMCLRE
 70
0
  9
$DIMDEC
 70
3
  9
$DIMDLE
 40
0.0
  9
$DIMDLI
 40
0.3
  9
$DIMDSEP
 70
46
  9
$DIMEXE
 40
0.075
  9
$DIMEXO
 40
0.0375
  9
$DIMFRAC
 70
0
  9
$DIMGAP
 40
0.0375
  9
$DIMJUST
 70
0
  9
$DIMLDRBLK
  1
STANDARD
  9
$DIMLFAC
 40
1.0
  9
$DIMLIM
 70
0
  9
$DIMLUNIT
 70
2
  9
$DIMLWD
 70
-2
  9
$DIMLWE
 70
-2
  9
$DIMPOST
  1

  9
$DIMRND
 40
0.0
  9
$DIMSAH
 70
0
  9
$DIMSCALE
 40
25.3999999999999986
  9
$DIMSD1
 70
0
  9
$DIMSD2
 70
0
  9
$DIMSE1
 70
0
  9
$DIMSE2
 70
0
  9
$DIMSOXD
 70
0
  9
$DIMTAD
 70
1
  9
$DIMTDEC
 70
2
  9
$DIMTFAC
 40
1.0
  9
$DIMTIH
 70
0
  9
$DIMTIX
 70
0
  9
$DIMTM
 40
0.0
  9
$DIMTOFL
 70
1
  9
$DIMTOH
 70
0
  9
$DIMTOL
 70
0
  9
$DIMTOLJ
 70
0
  9
$DIMTP
 40
0.0
  9
$DIMTSZ
 40
0.0
  9
$DIMTVP
 40
0.0
  9
$DIMTXSTY
  7
STANDARD
  9
$DIMTXT
 40
0.15
  9
$DIMTZIN
 70
8
  9
$DIMUPT
 70
0
  9
$DIMZIN
 70
8
  9
$DISPSILH
 70
0
  9
$DWGCODEPAGE
  3
ANSI_1252
  9
$ELEVATION
 40
0.0
  9
$EXTMAX
 10
13.7799999999999994
 20
6.7300000000000004
 30
0.0
  9
$EXTMIN
 10
0.0
 20
0.0
 30
0.0
  9
$FILLETRAD
 40
0.0
  9
$FILLMODE
 70
1
  9
$INSBASE
 10
0.0
 20
0.0
 30
0.0
  9
$INSUNITS
 70
4
  9
$LIMCHECK
 70
0
  9
$LIMMAX
 10
420.0
 20
297.0
  9
$LIMMIN
 10
0.0
 20
0.0
  9
$LTSCALE
 40
1.0
  9
$LUNITS
 70
2
  9
$LUPREC
 70
4
  9
$MAXACTVP
 70
64
  9
$MEASUREMENT
 70
0
  9
$MIRRTEXT
 70
0
  9
$ORTHOMODE
 70
0
  9
$PDMODE
 70
0
  9
$PDSIZE
 40
0.0
  9
$PELEVATION
 40
0.0
  9
$PEXTMAX
 10
0.0
 20
0.0
 30
0.0
  9
$PEXTMIN
 10
0.0
 20
0.0
 30
0.0
  9
$PINSBASE
 10
0.0
 20
0.0
 30
0.0
  9
$PLIMCHECK
 70
0
  9
$PLIMMAX
 10
210.0
 20
297.0
  9
$PLIMMIN
 10
0.0
 20
0.0
  9
$PLINEGEN
 70
0
  9
$PLINEWID
 40
0.0
  9
$PROXYGRAPHICS
 70
1
  9
$PSLTSCALE
 70
1
  9
$PUCSNAME
  2

  9
$PUCSORG
 10
0.0
 20
0.0
 30
0.0
  9
$PUCSXDIR
 10
1.0
 20
0.0
 30
0.0
  9
$PUCSYDIR
 10
0.0
 20
1.0
 30
0.0
  9
$QTEXTMODE
 70
0
  9
$REGENMODE
 70
1
  9
$SHADEDGE
 70
3
  9
$SHADEDIF
 70
70
  9
$SKETCHINC
 40
1.0
  9
$SKPOLY
 70
0
  9
$SPLFRAME
 70
0
  9
$SPLINESEGS
 70
8
  9
$SPLINETYPE
 70
2
  9
$SURFTAB1
 70
6
  9
$SURFTAB2
 70
6
  9
$SURFTYPE
 70
6
  9
$SURFU
 70
6
  9
$SURFV
 70
6
  9
$TEXTSIZE
 40
2.5
  9
$TEXTSTYLE
  7
STANDARD
  9
$THICKNESS
 40
0.0
  9
$TILEMODE
 70
1
  9
$TRACEWID
 40
15.6799999999999997
  9
$TREEDEPTH
 70
3020
  9
$UCSNAME
  2

  9
$UCSORG
 10
0.0
 20
0.0
 30
0.0
  9
$UCSXDIR
 10
1.0
 20
0.0
 30
0.0
  9
$UCSYDIR
 10
0.0
 20
1.0
 30
0.0
  9
$UNITMODE
 70
0
  9
$USERI1
 70
0
  9
$USERI2
 70
0
  9
$USERI3
 70
0
  9
$USERI4
 70
0
  9
$USERI5
 70
0
  9
$USERR1
 40
0.0
  9
$USERR2
 40
0.0
  9
$USERR3
 40
0.0
  9
$USERR4
 40
0.0
  9
$USERR5
 40
0.0
  9
$USRTIMER
 70
1
  9
$VISRETAIN
 70
1
  0
ENDSEC
  0
SECTION
  2
TABLES
  0
TABLE
  2
VPORT
  5
8
100
AcDbSymbolTable
 70
1
  0
VPORT
  5
30
100
AcDbSymbolTableRecord
100
AcDbViewportTableRecord
  2
*Active
 70
0
 10
0.0
 20
0.0
 11
1.0
 21
1.0
 12
286.3055555555554861
 22
148.5
 13
0.0
 23
0.0
 14
10.0
 24
10.0
 15
10.0
 25
10.0
 16
0.0
 26
0.0
 36
1.0
 17
0.0
 27
0.0
 37
0.0
 40
297.0
 41
1.92798353909465
 42
50.0
 43
0.0
 44
0.0
 50
0.0
 51
0.0
 71
0
 72
100
 73
1
 74
3
 75
1
 76
1
 77
0
 78
0
281
0
 65
1
110
0.0
120
0.0
130
0.0
111
1.0
121
0.0
131
0.0
112
0.0
122
1.0
132
0.0
 79
0
146
0.0
  0
ENDTAB
  0
TABLE
  2
LTYPE
  5
5
100
AcDbSymbolTable
 70
47
  0
LTYPE
  5
16
100
AcDbSymbolTableRecord
100
AcDbLinetypeTableRecord
  2
Continuous
 70
0
  3
Solid line
 72
65
 73
0
 40
0.0
  0
LTYPE
  5
31
100
AcDbSymbolTableRecord
100
AcDbLinetypeTableRecord
  2
BORDER
 70
0
  3
Border __ __ . __ __ . __ __ . __ __ . __ __ .
 72
65
 73
6
 40
44.4499999999999957
 49
12.6999999999999993
 74
0
 49
-6.3499999999999996
 74
0
 49
12.6999999999999993
 74
0
 49
-6.2999999999999998
 74
0
 49
0.1
 74
0
 49
-6.2999999999999998
 74
0
  0
LTYPE
  5
32
100
AcDbSymbolTableRecord
100
AcDbLinetypeTableRecord
  2
DOTTINY
 70
0
  3
Dot (.15x) .....................................
 72
65
 73
2
 40
0.9525
 49
0.1
 74
0
 49
-0.8525
 74
0
  0
LTYPE
  5
33
100
AcDbSymbolTableRecord
100
AcDbLinetypeTableRecord
  2
ACAD_ISO07W100
 70
0
  3
ISO dot . . . . . . . . . . . . . . . . . . . . 
 72
65
 73
2
 40
3.0
 49
0.1
 74
0
 49
-2.8999999999999999
 74
0
  0
LTYPE
  5
34
100
AcDbSymbolTableRecord
100
AcDbLinetypeTableRecord
  2
DIVIDETINY
 70
0
  3
Divide (.15x) __..__..__..__..__..__..__..__.._
 72
65
 73
6
 40
4.7625000000000002
 49
1.905
 74
0
 49
-0.9025
 74
0
 49
0.1
 74
0
 49
-0.8524999999999999
 74
0
 49
0.1
 74
0
 49
-0.9025
 74
0
  0
LTYPE
  5
35
100
AcDbSymbolTableRecord
100
AcDbLinetypeTableRecord
  2
DASHED2
 70
0
  3
Dashed (.5x) _ _ _ _ _ _ _ _ _ _ _ _ _ _ _ _ _
 72
65
 73
2
 40
9.5249999999999986
 49
6.3499999999999996
 74
0
 49
-3.1749999999999998
 74
0
  0
LTYPE
  5
36
100
AcDbSymbolTableRecord
100
AcDbLinetypeTableRecord
  2
DASHEDTINY
 70
0
  3
Dashed (.15x) _ _ _ _ _ _ _ _ _ _ _ _ _ _ _ _ _
 72
65
 73
2
 40
2.8574999999999999
 49
1.905
 74
0
 49
-0.9525
 74
0
  0
LTYPE
  5
37
100
AcDbSymbolTableRecord
100
AcDbLinetypeTableRecord
  2
PHANTOMX2
 70
0
  3
Phantom (2x) ____________    ____    ____   _
 72
65
 73
6
 40
127.0000000000000142
 49
63.5
 74
0
 49
-12.6999999999999993
 74
0
 49
12.6999999999999993
 74
0
 49
-12.6999999999999993
 74
0
 49
12.6999999999999993
 74
0
 49
-12.6999999999999993
 74
0
  0
LTYPE
  5
38
100
AcDbSymbolTableRecord
100
AcDbLinetypeTableRecord
  2
DIVIDEX2
 70
0
  3
Divide (2x) ________  .  .  ________  .  .  _
 72
65
 73
6
 40
63.5
 49
25.3999999999999986
 74
0
 49
-12.6499999999999986
 74
0
 49
0.1
 74
0
 49
-12.5999999999999979
 74
0
 49
0.1
 74
0
 49
-12.6499999999999986
 74
0
  0
LTYPE
  5
39
100
AcDbSymbolTableRecord
100
AcDbLinetypeTableRecord
  2
CENTER2
 70
0
  3
Center (.5x) ___ _ ___ _ ___ _ ___ _ ___ _ ___
 72
65
 73
4
 40
28.5750000000000028
 49
19.0500000000000007
 74
0
 49
-3.1749999999999998
 74
0
 49
3.1749999999999998
 74
0
 49
-3.1749999999999998
 74
0
  0
LTYPE
  5
3A
100
AcDbSymbolTableRecord
100
AcDbLinetypeTableRecord
  2
CENTER
 70
0
  3
Center ____ _ ____ _ ____ _ ____ _ ____ _ ____
 72
65
 73
4
 40
50.8000000000000043
 49
31.75
 74
0
 49
-6.3499999999999996
 74
0
 49
6.3499999999999996
 74
0
 49
-6.3499999999999996
 74
0
  0
LTYPE
  5
3B
100
AcDbSymbolTableRecord
100
AcDbLinetypeTableRecord
  2
DOT2
 70
0
  3
Dot (.5x) .....................................
 72
65
 73
2
 40
3.1749999999999998
 49
0.1
 74
0
 49
-3.0749999999999997
 74
0
  0
LTYPE
  5
3C
100
AcDbSymbolTableRecord
100
AcDbLinetypeTableRecord
  2
ACAD_ISO14W100
 70
0
  3
ISO dash triple-dot __ . . . __ . . . __ . . . _
 72
65
 73
8
 40
24.0000000000000036
 49
12.0
 74
0
 49
-2.9500000000000002
 74
0
 49
0.1
 74
0
 49
-2.9000000000000004
 74
0
 49
0.1
 74
0
 49
-2.9000000000000004
 74
0
 49
0.1
 74
0
 49
-2.9500000000000002
 74
0
  0
LTYPE
  5
3D
100
AcDbSymbolTableRecord
100
AcDbLinetypeTableRecord
  2
CENTERTINY
 70
0
  3
Center (.15x) ___ _ ___ _ ___ _ ___ _ ___ _ ___
 72
65
 73
4
 40
7.6199999999999992
 49
4.7625000000000002
 74
0
 49
-0.9525
 74
0
 49
0.9525
 74
0
 49
-0.9525
 74
0
  0
LTYPE
  5
3E
100
AcDbSymbolTableRecord
100
AcDbLinetypeTableRecord
  2
ACAD_ISO05W100
 70
0
  3
ISO long-dash double-dot ____ .. ____ .. ____ . 
 72
65
 73
6
 40
33.0000000000000071
 49
24.0
 74
0
 49
-2.9500000000000002
 74
0
 49
0.1
 74
0
 49
-2.9000000000000004
 74
0
 49
0.1
 74
0
 49
-2.9500000000000002
 74
0
  0
LTYPE
  5
3F
100
AcDbSymbolTableRecord
100
AcDbLinetypeTableRecord
  2
DASHDOTX2
 70
0
  3
Dash dot (2x) ____  .  ____  .  ____  .  ___
 72
65
 73
4
 40
50.7999999999999972
 49
25.3999999999999986
 74
0
 49
-12.6499999999999986
 74
0
 49
0.1
 74
0
 49
-12.6499999999999986
 74
0
  0
LTYPE
  5
40
100
AcDbSymbolTableRecord
100
AcDbLinetypeTableRecord
  2
DASHED
 70
0
  3
Dashed _ _ _ _ _ _ _ _ _ _ _ _ _ _ _ _ _
 72
65
 73
2
 40
19.0499999999999972
 49
12.6999999999999993
 74
0
 49
-6.3499999999999996
 74
0
  0
LTYPE
  5
41
100
AcDbSymbolTableRecord
100
AcDbLinetypeTableRecord
  2
DASHEDX2
 70
0
  3
Dashed (2x) ____  ____  ____  ____  ____  ___
 72
65
 73
2
 40
38.0999999999999943
 49
25.3999999999999986
 74
0
 49
-12.6999999999999993
 74
0
  0
LTYPE
  5
42
100
AcDbSymbolTableRecord
100
AcDbLinetypeTableRecord
  2
CENTERX2
 70
0
  3
Center (2x) ________  __  ________  __  _____
 72
65
 73
4
 40
101.6000000000000085
 49
63.5
 74
0
 49
-12.6999999999999993
 74
0
 49
12.6999999999999993
 74
0
 49
-12.6999999999999993
 74
0
  0
LTYPE
  5
43
100
AcDbSymbolTableRecord
100
AcDbLinetypeTableRecord
  2
DASHDOT2
 70
0
  3
Dash dot (.5x) _._._._._._._._._._._._._._._.
 72
65
 73
4
 40
12.6999999999999993
 49
6.3499999999999996
 74
0
 49
-3.125
 74
0
 49
0.1
 74
0
 49
-3.125
 74
0
  0
LTYPE
  5
15
100
AcDbSymbolTableRecord
100
AcDbLinetypeTableRecord
  2
ByLayer
 70
0
  3

 72
65
 73
0
 40
0.0
  0
LTYPE
  5
44
100
AcDbSymbolTableRecord
100
AcDbLinetypeTableRecord
  2
ACAD_ISO08W100
 70
0
  3
ISO long-dash short-dash ____ __ ____ __ ____ _
 72
65
 73
4
 40
36.0
 49
24.0
 74
0
 49
-3.0
 74
0
 49
6.0
 74
0
 49
-3.0
 74
0
  0
LTYPE
  5
45
100
AcDbSymbolTableRecord
100
AcDbLinetypeTableRecord
  2
DOTX2
 70
0
  3
Dot (2x) .  .  .  .  .  .  .  .  .  .  .  .  .
 72
65
 73
2
 40
12.6999999999999993
 49
0.1
 74
0
 49
-12.5999999999999996
 74
0
  0
LTYPE
  5
46
100
AcDbSymbolTableRecord
100
AcDbLinetypeTableRecord
  2
ACAD_ISO12W100
 70
0
  3
ISO dash double-dot __ . . __ . . __ . . __ . . 
 72
65
 73
6
 40
21.0
 49
12.0
 74
0
 49
-2.9500000000000002
 74
0
 49
0.1
 74
0
 49
-2.9000000000000004
 74
0
 49
0.1
 74
0
 49
-2.9500000000000002
 74
0
  0
LTYPE
  5
47
100
AcDbSymbolTableRecord
100
AcDbLinetypeTableRecord
  2
PHANTOM
 70
0
  3
Phantom ______  __  __  ______  __  __  ______ 
 72
65
 73
6
 40
63.5000000000000071
 49
31.75
 74
0
 49
-6.3499999999999996
 74
0
 49
6.3499999999999996
 74
0
 49
-6.3499999999999996
 74
0
 49
6.3499999999999996
 74
0
 49
-6.3499999999999996
 74
0
  0
LTYPE
  5
48
100
AcDbSymbolTableRecord
100
AcDbLinetypeTableRecord
  2
ACAD_ISO03W100
 70
0
  3
ISO dash space __    __    __    __    __    __
 72
65
 73
2
 40
30.0
 49
12.0
 74
0
 49
-18.0
 74
0
  0
LTYPE
  5
49
100
AcDbSymbolTableRecord
100
AcDbLinetypeTableRecord
  2
HIDDENX2
 70
0
  3
Hidden (2x) ____ ____ ____ ____ ____ ____ ____ 
 72
65
 73
2
 40
19.0499999999999972
 49
12.6999999999999993
 74
0
 49
-6.3499999999999996
 74
0
  0
LTYPE
  5
4A
100
AcDbSymbolTableRecord
100
AcDbLinetypeTableRecord
  2
ACAD_ISO11W100
 70
0
  3
ISO double-dash dot __ __ . __ __ . __ __ . __ _
 72
65
 73
6
 40
33.0
 49
12.0
 74
0
 49
-3.0
 74
0
 49
12.0
 74
0
 49
-2.9500000000000002
 74
0
 49
0.1
 74
0
 49
-2.9500000000000002
 74
0
  0
LTYPE
  5
14
100
AcDbSymbolTableRecord
100
AcDbLinetypeTableRecord
  2
ByBlock
 70
0
  3

 72
65
 73
0
 40
0.0
  0
LTYPE
  5
4B
100
AcDbSymbolTableRecord
100
AcDbLinetypeTableRecord
  2
DIVIDE2
 70
0
  3
Divide (.5x) __..__..__..__..__..__..__..__.._
 72
65
 73
6
 40
15.8749999999999982
 49
6.3499999999999996
 74
0
 49
-3.125
 74
0
 49
0.1
 74
0
 49
-3.0750000000000002
 74
0
 49
0.1
 74
0
 49
-3.125
 74
0
  0
LTYPE
  5
4C
100
AcDbSymbolTableRecord
100
AcDbLinetypeTableRecord
  2
ACAD_ISO10W100
 70
0
  3
ISO dash dot __ . __ . __ . __ . __ . __ . __ . 
 72
65
 73
4
 40
18.0
 49
12.0
 74
0
 49
-2.9500000000000002
 74
0
 49
0.1
 74
0
 49
-2.9500000000000002
 74
0
  0
LTYPE
  5
4D
100
AcDbSymbolTableRecord
100
AcDbLinetypeTableRecord
  2
ACAD_ISO06W100
 70
0
  3
ISO long-dash triple-dot ____ ... ____ ... ____
 72
65
 73
8
 40
36.0000000000000071
 49
24.0
 74
0
 49
-2.9500000000000002
 74
0
 49
0.1
 74
0
 49
-2.9000000000000004
 74
0
 49
0.1
 74
0
 49
-2.9000000000000004
 74
0
 49
0.1
 74
0
 49
-2.9500000000000002
 74
0
  0
LTYPE
  5
4E
100
AcDbSymbolTableRecord
100
AcDbLinetypeTableRecord
  2
HIDDEN
 70
0
  3
Hidden __ __ __ __ __ __ __ __ __ __ __ __ __ __
 72
65
 73
2
 40
9.5249999999999986
 49
6.3499999999999996
 74
0
 49
-3.1749999999999998
 74
0
  0
LTYPE
  5
4F
100
AcDbSymbolTableRecord
100
AcDbLinetypeTableRecord
  2
PHANTOM2
 70
0
  3
Phantom (.5x) ___ _ _ ___ _ _ ___ _ _ ___ _ _
 72
65
 73
6
 40
31.7500000000000036
 49
15.875
 74
0
 49
-3.1749999999999998
 74
0
 49
3.1749999999999998
 74
0
 49
-3.1749999999999998
 74
0
 49
3.1749999999999998
 74
0
 49
-3.1749999999999998
 74
0
  0
LTYPE
  5
50
100
AcDbSymbolTableRecord
100
AcDbLinetypeTableRecord
  2
ACAD_ISO09W100
 70
0
  3
ISO long-dash double-short-dash ____ __ __ ____
 72
65
 73
6
 40
45.0
 49
24.0
 74
0
 49
-3.0
 74
0
 49
6.0
 74
0
 49
-3.0
 74
0
 49
6.0
 74
0
 49
-3.0
 74
0
  0
LTYPE
  5
51
100
AcDbSymbolTableRecord
100
AcDbLinetypeTableRecord
  2
ACAD_ISO02W100
 70
0
  3
ISO dash __ __ __ __ __ __ __ __ __ __ __ __ __
 72
65
 73
2
 40
15.0
 49
12.0
 74
0
 49
-3.0
 74
0
  0
LTYPE
  5
52
100
AcDbSymbolTableRecord
100
AcDbLinetypeTableRecord
  2
BORDER2
 70
0
  3
Border (.5x) __.__.__.__.__.__.__.__.__.__.__.
 72
65
 73
6
 40
22.2250000000000014
 49
6.3499999999999996
 74
0
 49
-3.1749999999999998
 74
0
 49
6.3499999999999996
 74
0
 49
-3.125
 74
0
 49
0.1
 74
0
 49
-3.125
 74
0
  0
LTYPE
  5
53
100
AcDbSymbolTableRecord
100
AcDbLinetypeTableRecord
  2
ACAD_ISO13W100
 70
0
  3
ISO double-dash double-dot __ __ . . __ __ . . _
 72
65
 73
8
 40
36.0000000000000071
 49
12.0
 74
0
 49
-3.0
 74
0
 49
12.0
 74
0
 49
-2.9500000000000002
 74
0
 49
0.1
 74
0
 49
-2.9000000000000004
 74
0
 49
0.1
 74
0
 49
-2.9500000000000002
 74
0
  0
LTYPE
  5
54
100
AcDbSymbolTableRecord
100
AcDbLinetypeTableRecord
  2
HIDDEN2
 70
0
  3
Hidden (.5x) _ _ _ _ _ _ _ _ _ _ _ _ _ _ _ _ _ 
 72
65
 73
2
 40
4.7624999999999993
 49
3.1749999999999998
 74
0
 49
-1.5874999999999999
 74
0
  0
LTYPE
  5
55
100
AcDbSymbolTableRecord
100
AcDbLinetypeTableRecord
  2
DASHDOTTINY
 70
0
  3
Dash dot (.15x) _._._._._._._._._._._._._._._.
 72
65
 73
4
 40
3.8100000000000001
 49
1.905
 74
0
 49
-0.9025
 74
0
 49
0.1
 74
0
 49
-0.9025
 74
0
  0
LTYPE
  5
56
100
AcDbSymbolTableRecord
100
AcDbLinetypeTableRecord
  2
ACAD_ISO04W100
 70
0
  3
ISO long-dash dot ____ . ____ . ____ . ____ . _
 72
65
 73
4
 40
30.0
 49
24.0
 74
0
 49
-2.9500000000000002
 74
0
 49
0.1
 74
0
 49
-2.9500000000000002
 74
0
  0
LTYPE
  5
57
100
AcDbSymbolTableRecord
100
AcDbLinetypeTableRecord
  2
BORDERX2
 70
0
  3
Border (2x) ____  ____  .  ____  ____  .  ___
 72
65
 73
6
 40
88.8999999999999773
 49
25.3999999999999986
 74
0
 49
-12.6999999999999993
 74
0
 49
25.3999999999999986
 74
0
 49
-12.6499999999999986
 74
0
 49
0.1
 74
0
 49
-12.6499999999999986
 74
0
  0
LTYPE
  5
58
100
AcDbSymbolTableRecord
100
AcDbLinetypeTableRecord
  2
DOT
 70
0
  3
Dot . . . . . . . . . . . . . . . . . . . . . .
 72
65
 73
2
 40
6.3499999999999996
 49
0.1
 74
0
 49
-6.25
 74
0
  0
LTYPE
  5
59
100
AcDbSymbolTableRecord
100
AcDbLinetypeTableRecord
  2
BORDERTINY
 70
0
  3
Border (.15x) __.__.__.__.__.__.__.__.__.__.__.
 72
65
 73
6
 40
6.6674999999999995
 49
1.905
 74
0
 49
-0.9525
 74
0
 49
1.905
 74
0
 49
-0.9025
 74
0
 49
0.1
 74
0
 49
-0.9025
 74
0
  0
LTYPE
  5
5A
100
AcDbSymbolTableRecord
100
AcDbLinetypeTableRecord
  2
DASHDOT
 70
0
  3
Dash dot __ . __ . __ . __ . __ . __ . __ . __
 72
65
 73
4
 40
25.4000000000000021
 49
12.6999999999999993
 74
0
 49
-6.2999999999999998
 74
0
 49
0.1
 74
0
 49
-6.2999999999999998
 74
0
  0
LTYPE
  5
5B
100
AcDbSymbolTableRecord
100
AcDbLinetypeTableRecord
  2
DIVIDE
 70
0
  3
Divide ____ . . ____ . . ____ . . ____ . . ____
 72
65
 73
6
 40
31.7500000000000036
 49
12.6999999999999993
 74
0
 49
-6.2999999999999998
 74
0
 49
0.1
 74
0
 49
-6.25
 74
0
 49
0.1
 74
0
 49
-6.2999999999999998
 74
0
  0
LTYPE
  5
5C
100
AcDbSymbolTableRecord
100
AcDbLinetypeTableRecord
  2
ACAD_ISO15W100
 70
0
  3
ISO double-dash triple-dot __ __ . . . __ __ . .
 72
65
 73
10
 40
39.0000000000000071
 49
12.0
 74
0
 49
-3.0
 74
0
 49
12.0
 74
0
 49
-2.9500000000000002
 74
0
 49
0.1
 74
0
 49
-2.9000000000000004
 74
0
 49
0.1
 74
0
 49
-2.9000000000000004
 74
0
 49
0.1
 74
0
 49
-2.9500000000000002
 74
0
  0
ENDTAB
  0
TABLE
  2
LAYER
  5
2
100
AcDbSymbolTable
 70
8
  0
LAYER
  5
10
100
AcDbSymbolTableRecord
100
AcDbLayerTableRecord
  2
0
 70
4
 62
7
420
16777215
  6
Continuous
370
25
390
F
  0
LAYER
  5
5D
100
AcDbSymbolTableRecord
100
AcDbLayerTableRecord
  2
Outline Dimensions
 70
4
 62
6
420
16711935
  6
Continuous
370
25
390
F
  0
LAYER
  5
5E
100
AcDbSymbolTableRecord
100
AcDbLayerTableRecord
  2
Title
 70
0
 62
7
420
0
  6
Continuous
370
25
390
F
  0
LAYER
  5
5F
100
AcDbSymbolTableRecord
100
AcDbLayerTableRecord
  2
Hole Dimensions
 70
4
 62
6
420
16711935
  6
Continuous
370
13
390
F
  0
LAYER
  5
60
100
AcDbSymbolTableRecord
100
AcDbLayerTableRecord
  2
Image
 70
4
 62
7
420
0
  6
Continuous
370
25
390
F
  0
LAYER
  5
61
100
AcDbSymbolTableRecord
100
AcDbLayerTableRecord
  2
Pads
 70
0
 62
1
420
16711680
  6
Continuous
370
13
390
F
  0
LAYER
  5
62
100
AcDbSymbolTableRecord
100
AcDbLayerTableRecord
  2
Pad Dimensions
 70
0
 62
6
420
16711935
  6
Continuous
370
13
390
F
  0
LAYER
  5
63
100
AcDbSymbolTableRecord
100
AcDbLayerTableRecord
  2
Outline
 70
4
 62
2
420
16776960
  6
Continuous
370
13
390
F
  0
ENDTAB
  0
TABLE
  2
STYLE
  5
3
100
AcDbSymbolTable
 70
9
  0
STYLE
  5
64
100
AcDbSymbolTableRecord
100
AcDbTextStyleTableRecord
  2
Standard
 70
0
 40
0.0
 41
1.0
 50
0.0
 71
0
 42
2.5
  3

  4

1001
ACAD
1000
txt
1071
0
  0
STYLE
  5
65
100
AcDbSymbolTableRecord
100
AcDbTextStyleTableRecord
  2
textstyle0
 70
0
 40
0.0
 41
1.0
 50
0.0
 71
0
 42
2.0
  3

  4

1001
ACAD
1000
Liberation Sans
1071
0
  0
STYLE
  5
66
100
AcDbSymbolTableRecord
100
AcDbTextStyleTableRecord
  2
textstyle1
 70
0
 40
0.0
 41
1.0
 50
0.0
 71
0
 42
2.0
  3

  4

1001
ACAD
1000
Liberation Sans
1071
0
  0
STYLE
  5
67
100
AcDbSymbolTableRecord
100
AcDbTextStyleTableRecord
  2
textstyle2
 70
0
 40
0.0
 41
1.0
 50
0.0
 71
0
 42
1.5
  3

  4

1001
ACAD
1000
Liberation Sans
1071
0
  0
STYLE
  5
68
100
AcDbSymbolTableRecord
100
AcDbTextStyleTableRecord
  2
textstyle3
 70
0
 40
0.0
 41
1.0
 50
0.0
 71
0
 42
2.0
  3

  4

1001
ACAD
1000
Liberation Sans
1071
0
  0
STYLE
  5
69
100
AcDbSymbolTableRecord
100
AcDbTextStyleTableRecord
  2
textstyle4
 70
0
 40
0.0
 41
1.0
 50
0.0
 71
0
 42
2.5
  3

  4

1001
ACAD
1000
Liberation Sans
1071
0
  0
STYLE
  5
6A
100
AcDbSymbolTableRecord
100
AcDbTextStyleTableRecord
  2
textstyle5
 70
0
 40
0.0
 41
1.0
 50
0.0
 71
0
 42
2.0
  3

  4

1001
ACAD
1000
Liberation Sans
1071
0
  0
STYLE
  5
6B
100
AcDbSymbolTableRecord
100
AcDbTextStyleTableRecord
  2
textstyle6
 70
0
 40
0.0
 41
1.0
 50
0.0
 71
0
 42
2.5
  3

  4

1001
ACAD
1000
Liberation Sans
1071
0
  0
STYLE
  5
6C
100
AcDbSymbolTableRecord
100
AcDbTextStyleTableRecord
  2
textstyle7
 70
0
 40
0.0
 41
1.0
 50
0.0
 71
0
 42
2.0
  3

  4

1001
ACAD
1000
Liberation Sans
1071
0
  0
ENDTAB
  0
TABLE
  2
VIEW
  5
6
100
AcDbSymbolTable
 70
0
  0
ENDTAB
  0
TABLE
  2
UCS
  5
7
100
AcDbSymbolTable
 70
0
  0
ENDTAB
  0
TABLE
  2
APPID
  5
9
100
AcDbSymbolTable
 70
1
  0
APPID
  5
12
100
AcDbSymbolTableRecord
100
AcDbRegAppTableRecord
  2
ACAD
 70
0
  0
APPID
  5
6D
100
AcDbSymbolTableRecord
100
AcDbRegAppTableRecord
  2
QCAD
 70
0
  0
ENDTAB
  0
TABLE
  2
DIMSTYLE
  5
A
100
AcDbSymbolTable
 70
1
100
AcDbDimStyleTable
 71
0
  0
DIMSTYLE
105
27
100
AcDbSymbolTableRecord
100
AcDbDimStyleTableRecord
  2
Standard
 41
0.15
 42
0.0375
 43
3.75
 44
0.075
 70
0
 73
0
 74
0
 77
1
 78
8
140
0.15
141
2.5
143
0.03937007874016
147
0.0375
171
3
172
1
271
2
272
2
274
3
278
44
283
0
284
8
340
64
  0
ENDTAB
  0
TABLE
  2
BLOCK_RECORD
  5
1
100
AcDbSymbolTable
 70
1
  0
BLOCK_RECORD
  5
1F
100
AcDbSymbolTableRecord
100
AcDbBlockTableRecord
  2
*Model_Space
340
22
  0
BLOCK_RECORD
  5
1B
100
AcDbSymbolTableRecord
100
AcDbBlockTableRecord
  2
*Paper_Space
340
1E
  0
BLOCK_RECORD
  5
23
100
AcDbSymbolTableRecord
100
AcDbBlockTableRecord
  2
*Paper_Space0
340
26
  0
BLOCK_RECORD
  5
6E
100
AcDbSymbolTableRecord
100
AcDbBlockTableRecord
  2
Switch Angled
340
0
  0
BLOCK_RECORD
  5
6F
100
AcDbSymbolTableRecord
100
AcDbBlockTableRecord
  2
Small Hole
340
0
  0
BLOCK_RECORD
  5
70
100
AcDbSymbolTableRecord
100
AcDbBlockTableRecord
  2
Rectangular Hole
340
0
  0
BLOCK_RECORD
  5
71
100
AcDbSymbolTableRecord
100
AcDbBlockTableRecord
  2
Large Cutout
340
0
  0
BLOCK_RECORD
  5
72
100
AcDbSymbolTableRecord
100
AcDbBlockTableRecord
  2
Large Hole
340
0
  0
BLOCK_RECORD
  5
73
100
AcDbSymbolTableRecord
100
AcDbBlockTableRecord
  2
Oval Hole
340
0
  0
BLOCK_RECORD
  5
74
100
AcDbSymbolTableRecord
100
AcDbBlockTableRecord
  2
LED
340
0
  0
BLOCK_RECORD
  5
75
100
AcDbSymbolTableRecord
100
AcDbBlockTableRecord
  2
Switch Vertical
340
0
  0
ENDTAB
  0
ENDSEC
  0
SECTION
  2
BLOCKS
  0
BLOCK
  5
20
100
AcDbEntity
  8
0
100
AcDbBlockBegin
  2
*Model_Space
 70
0
 10
0.0
 20
0.0
 30
0.0
  3
*Model_Space
  1

  0
ENDBLK
  5
21
100
AcDbEntity
  8
0
100
AcDbBlockEnd
  0
BLOCK
  5
1C
100
AcDbEntity
 67
1
  8
0
100
AcDbBlockBegin
  2
*Paper_Space
 70
0
 10
0.0
 20
0.0
 30
0.0
  3
*Paper_Space
  1

  0
ENDBLK
  5
1D
100
AcDbEntity
 67
1
  8
0
100
AcDbBlockEnd
  0
BLOCK
  5
24
100
AcDbEntity
  8
0
100
AcDbBlockBegin
  2
*Paper_Space0
 70
0
 10
0.0
 20
0.0
 30
0.0
  3
*Paper_Space0
  1

  0
ENDBLK
  5
25
100
AcDbEntity
  8
0
100
AcDbBlockEnd
  0
BLOCK
  5
76
100
AcDbEntity
  8
0
100
AcDbBlockBegin
  2
Switch Angled
 70
0
 10
0.0
 20
0.0
 30
0.0
  3
Switch Angled
  1

  0
INSERT
  5
77
100
AcDbEntity
  8
Pads
 62
256
370
-1
 48
1.0
  6
ByLayer
100
AcDbBlockReference
  2
Switch Vertical
 10
0.0
 20
0.0
 30
0.0
 50
135.0
  0
ENDBLK
  5
78
100
AcDbEntity
  8
0
100
AcDbBlockEnd
  0
BLOCK
  5
79
100
AcDbEntity
  8
0
100
AcDbBlockBegin
  2
Small Hole
 70
0
 10
0.0
 20
0.0
 30
0.0
  3
Small Hole
  1

  0
CIRCLE
  5
7A
100
AcDbEntity
  8
Outline
 62
256
370
-1
 48
1.0
  6
ByLayer
100
AcDbCircle
 10
0.0
 20
0.0
 30
0.0
 40
1.5
  0
ENDBLK
  5
7B
100
AcDbEntity
  8
0
100
AcDbBlockEnd
  0
BLOCK
  5
7C
100
AcDbEntity
  8
0
100
AcDbBlockBegin
  2
Rectangular Hole
 70
0
 10
0.0
 20
0.0
 30
0.0
  3
Rectangular Hole
  1

  0
LINE
  5
7D
100
AcDbEntity
  8
Outline
 62
256
370
-1
 48
1.0
  6
ByLayer
100
AcDbLine
 10
-3.0
 20
5.0
 30
0.0
 11
3.0
 21
5.0
 31
0.0
  0
LINE
  5
7E
100
AcDbEntity
  8
Outline
 62
256
370
-1
 48
1.0
  6
ByLayer
100
AcDbLine
 10
3.0
 20
5.0
 30
0.0
 11
3.0
 21
-5.0
 31
0.0
  0
LINE
  5
7F
100
AcDbEntity
  8
Outline
 62
256
370
-1
 48
1.0
  6
ByLayer
100
AcDbLine
 10
3.0
 20
-5.0
 30
0.0
 11
-3.0
 21
-5.0
 31
0.0
  0
LINE
  5
80
100
AcDbEntity
  8
Outline
 62
256
370
-1
 48
1.0
  6
ByLayer
100
AcDbLine
 10
-3.0
 20
-5.0
 30
0.0
 11
-3.0
 21
5.0
 31
0.0
  0
ENDBLK
  5
81
100
AcDbEntity
  8
0
100
AcDbBlockEnd
  0
BLOCK
  5
82
100
AcDbEntity
  8
0
100
AcDbBlockBegin
  2
Large Cutout
 70
0
 10
0.0
 20
0.0
 30
0.0
  3
Large Cutout
  1

  0
LINE
  5
83
100
AcDbEntity
  8
Outline
 62
256
370
-1
 48
1.0
  6
ByLayer
100
AcDbLine
 10
0.0
 20
-3.0
 30
0.0
 11
0.0000000000000001
 21
-1.0
 31
0.0
  0
LINE
  5
84
100
AcDbEntity
  8
Outline
 62
256
370
-1
 48
1.0
  6
ByLayer
100
AcDbLine
 10
-6.5
 20
-3.0
 30
0.0
 11
-6.5000000000000098
 21
-1.0
 31
0.0
  0
ARC
  5
85
100
AcDbEntity
  8
Outline
 62
256
370
-1
 48
1.0
  6
ByLayer
100
AcDbCircle
 10
-3.2499999999999858
 20
-3.0
 30
0.0
 40
3.25
100
AcDbArc
 50
180.0
 51
0.0
  0
ENDBLK
  5
86
100
AcDbEntity
  8
0
100
AcDbBlockEnd
  0
BLOCK
  5
87
100
AcDbEntity
  8
0
100
AcDbBlockBegin
  2
Large Hole
 70
0
 10
0.0
 20
0.0
 30
0.0
  3
Large Hole
  1

  0
CIRCLE
  5
88
100
AcDbEntity
  8
Outline
 62
256
370
-1
 48
1.0
  6
ByLayer
100
AcDbCircle
 10
0.0
 20
0.0
 30
0.0
 40
3.25
  0
ENDBLK
  5
89
100
AcDbEntity
  8
0
100
AcDbBlockEnd
  0
BLOCK
  5
8A
100
AcDbEntity
  8
0
100
AcDbBlockBegin
  2
Oval Hole
 70
0
 10
0.0
 20
0.0
 30
0.0
  3
Oval Hole
  1

  0
ARC
  5
8B
100
AcDbEntity
  8
Outline
 62
256
370
-1
 48
1.0
  6
ByLayer
100
AcDbCircle
 10
0.8999999999999999
 20
0.0
 30
0.0
 40
3.25
100
AcDbArc
 50
269.9999999999999432
 51
90.0
  0
ARC
  5
8C
100
AcDbEntity
  8
Outline
 62
256
370
-1
 48
1.0
  6
ByLayer
100
AcDbCircle
 10
-0.9000000000000008
 20
0.0
 30
0.0
 40
3.25
100
AcDbArc
 50
90.0
 51
269.9999999999999432
  0
LINE
  5
8D
100
AcDbEntity
  8
Outline
 62
256
370
-1
 48
1.0
  6
ByLayer
100
AcDbLine
 10
-0.9000000000000008
 20
3.25
 30
0.0
 11
0.9000000000000035
 21
3.25
 31
0.0
  0
LINE
  5
8E
100
AcDbEntity
  8
Outline
 62
256
370
-1
 48
1.0
  6
ByLayer
100
AcDbLine
 10
0.8999999999999999
 20
-3.2499999999999996
 30
0.0
 11
-0.8999999999999972
 21
-3.2499999999999978
 31
0.0
  0
ENDBLK
  5
8F
100
AcDbEntity
  8
0
100
AcDbBlockEnd
  0
BLOCK
  5
90
100
AcDbEntity
  8
0
100
AcDbBlockBegin
  2
LED
 70
0
 10
0.0
 20
0.0
 30
0.0
  3
LED
  1

  0
LINE
  5
91
100
AcDbEntity
  8
Pads
 62
256
370
-1
 48
1.0
  6
ByLayer
100
AcDbLine
 10
-2.0
 20
0.5000000000000142
 30
0.0
 11
2.0
 21
0.5000000000000142
 31
0.0
  0
LINE
  5
92
100
AcDbEntity
  8
Pads
 62
256
370
-1
 48
1.0
  6
ByLayer
100
AcDbLine
 10
2.0
 20
0.5000000000000142
 30
0.0
 11
2.0
 21
3.3000000000000256
 31
0.0
  0
LINE
  5
93
100
AcDbEntity
  8
Pads
 62
256
370
-1
 48
1.0
  6
ByLayer
100
AcDbLine
 10
2.0
 20
3.3000000000000256
 30
0.0
 11
-2.0
 21
3.3000000000000256
 31
0.0
  0
LINE
  5
94
100
AcDbEntity
  8
Pads
 62
256
370
-1
 48
1.0
  6
ByLayer
100
AcDbLine
 10
-2.0
 20
3.3000000000000256
 30
0.0
 11
-2.0
 21
0.5000000000000142
 31
0.0
  0
LINE
  5
95
100
AcDbEntity
  8
Pads
 62
256
370
-1
 48
1.0
  6
ByLayer
100
AcDbLine
 10
-2.0
 20
-3.2999999999999972
 30
0.0
 11
2.0
 21
-3.2999999999999972
 31
0.0
  0
LINE
  5
96
100
AcDbEntity
  8
Pads
 62
256
370
-1
 48
1.0
  6
ByLayer
100
AcDbLine
 10
2.0
 20
-3.2999999999999972
 30
0.0
 11
2.0
 21
-0.4999999999999858
 31
0.0
  0
LINE
  5
97
100
AcDbEntity
  8
Pads
 62
256
370
-1
 48
1.0
  6
ByLayer
100
AcDbLine
 10
2.0
 20
-0.4999999999999858
 30
0.0
 11
-2.0
 21
-0.4999999999999858
 31
0.0
  0
LINE
  5
98
100
AcDbEntity
  8
Pads
 62
256
370
-1
 48
1.0
  6
ByLayer
100
AcDbLine
 10
-2.0
 20
-0.4999999999999858
 30
0.0
 11
-2.0
 21
-3.2999999999999972
 31
0.0
  0
ENDBLK
  5
99
100
AcDbEntity
  8
0
100
AcDbBlockEnd
  0
BLOCK
  5
9A
100
AcDbEntity
  8
0
100
AcDbBlockBegin
  2
Switch Vertical
 70
0
 10
0.0
 20
0.0
 30
0.0
  3
Switch Vertical
  1

  0
LINE
  5
9B
100
AcDbEntity
  8
Pads
 62
256
370
-1
 48
1.0
  6
ByLayer
100
AcDbLine
 10
-1.75
 20
4.7500000000000284
 30
0.0
 11
1.75
 21
4.7500000000000284
 31
0.0
  0
LINE
  5
9C
100
AcDbEntity
  8
Pads
 62
256
370
-1
 48
1.0
  6
ByLayer
100
AcDbLine
 10
-1.75
 20
-2.2499999999999725
 30
0.0
 11
1.7500000000000004
 21
-2.2499999999999725
 31
0.0
  0
LINE
  5
9D
100
AcDbEntity
  8
Pads
 62
256
370
-1
 48
1.0
  6
ByLayer
100
AcDbLine
 10
1.75
 20
4.7500000000000284
 30
0.0
 11
1.75
 21
2.2500000000000284
 31
0.0
  0
LINE
  5
9E
100
AcDbEntity
  8
Pads
 62
256
370
-1
 48
1.0
  6
ByLayer
100
AcDbLine
 10
1.7500000000000004
 20
-2.2499999999999725
 30
0.0
 11
1.7500000000000004
 21
-4.7499999999999716
 31
0.0
  0
LINE
  5
9F
100
AcDbEntity
  8
Pads
 62
256
370
-1
 48
1.0
  6
ByLayer
100
AcDbLine
 10
1.7500000000000036
 20
2.2500000000000142
 30
0.0
 11
-1.7499999999999964
 21
2.2500000000000142
 31
0.0
  0
LINE
  5
A0
100
AcDbEntity
  8
Pads
 62
256
370
-1
 48
1.0
  6
ByLayer
100
AcDbLine
 10
1.750000000000004
 20
-4.7499999999999858
 30
0.0
 11
-1.7499999999999964
 21
-4.7499999999999858
 31
0.0
  0
LINE
  5
A1
100
AcDbEntity
  8
Pads
 62
256
370
-1
 48
1.0
  6
ByLayer
100
AcDbLine
 10
-1.75
 20
2.2500000000000284
 30
0.0
 11
-1.75
 21
4.7500000000000284
 31
0.0
  0
LINE
  5
A2
100
AcDbEntity
  8
Pads
 62
256
370
-1
 48
1.0
  6
ByLayer
100
AcDbLine
 10
-1.75
 20
-4.7499999999999716
 30
0.0
 11
-1.75
 21
-2.2499999999999725
 31
0.0
  0
ENDBLK
  5
A3
100
AcDbEntity
  8
0
100
AcDbBlockEnd
  0
ENDSEC
  0
SECTION
  2
ENTITIES
  0
IMAGE
  5
A4
100
AcDbEntity
  8
Image
 62
256
370
-1
 48
1.0
  6
ByLayer
100
AcDbRasterImage
 90
0
 10
-0.0000000000000102
 20
0.0
 30
0.0
 11
0.0846637639090469
 21
0.0
 31
0.0
 12
0.0
 22
0.0846637639090469
 32
0.0
 13
349.0
 23
156.0
340
A5
 70
15
280
0
281
50
282
50
283
0
  0
IMAGE
  5
A6
100
AcDbEntity
  8
0
 62
256
370
-1
 48
1.0
  6
ByLayer
100
AcDbRasterImage
 90
0
 10
-0.0000000000000102
 20
0.0
 30
0.0
 11
0.0846637789066273
 21
0.0
 31
0.0
 12
0.0
 22
0.0846637789066273
 32
0.0
 13
0.0
 23
0.0
340
A7
 70
15
280
0
281
50
282
50
283
0
  0
LINE
  5
A8
100
AcDbEntity
  8
Outline
 62
256
370
-1
 48
1.0
  6
ByLayer
100
AcDbLine
 10
-0.0000000000000102
 20
1.0
 30
0.0
 11
-0.0000000000000102
 21
113.0
 31
0.0
  0
LINE
  5
A9
100
AcDbEntity
  8
Outline
 62
256
370
-1
 48
1.0
  6
ByLayer
100
AcDbLine
 10
74.2499999999999574
 20
120.0
 30
0.0
 11
122.7499999999999574
 21
120.0
 31
0.0
  0
LINE
  5
AA
100
AcDbEntity
  8
Outline
 62
256
370
-1
 48
1.0
  6
ByLayer
100
AcDbLine
 10
131.25
 20
120.0
 30
0.0
 11
170.75
 21
120.0
 31
0.0
  0
LINE
  5
AB
100
AcDbEntity
  8
Outline
 62
256
370
-1
 48
1.0
  6
ByLayer
100
AcDbLine
 10
179.25
 20
120.0
 30
0.0
 11
227.5
 21
120.0
 31
0.0
  0
LINE
  5
AC
100
AcDbEntity
  8
Outline
 62
256
370
-1
 48
1.0
  6
ByLayer
100
AcDbLine
 10
8.4999999999999876
 20
120.0
 30
0.0
 11
65.7499999999999432
 21
120.0
 31
0.0
  0
LINE
  5
AD
100
AcDbEntity
  8
Outline
 62
256
370
-1
 48
1.0
  6
ByLayer
100
AcDbLine
 10
235.0
 20
119.0
 30
0.0
 11
235.0
 21
170.0
 31
0.0
  0
LINE
  5
AE
100
AcDbEntity
  8
Outline
 62
256
370
-1
 48
1.0
  6
ByLayer
100
AcDbLine
 10
0.9999999999999898
 20
0.0
 30
0.0
 11
349.0
 21
0.0
 31
0.0
  0
LINE
  5
AF
100
AcDbEntity
  8
Outline
 62
256
370
-1
 48
1.0
  6
ByLayer
100
AcDbLine
 10
350.0
 20
0.9999999999999982
 30
0.0
 11
350.0
 21
112.4999999999999716
 31
0.0
  0
LINE
  5
B0
100
AcDbEntity
  8
Outline
 62
256
370
-1
 48
1.0
  6
ByLayer
100
AcDbLine
 10
339.9999999999999432
 20
120.0
 30
0.0
 11
319.75
 21
120.0
 31
0.0
  0
LINE
  5
B1
100
AcDbEntity
  8
Outline
 62
256
370
-1
 48
1.0
  6
ByLayer
100
AcDbLine
 10
298.5
 20
150.2636399587724156
 30
0.0
 11
298.5
 21
170.0
 31
0.0
  0
LINE
  5
B2
100
AcDbEntity
  8
Outline
 62
256
370
-1
 48
1.0
  6
ByLayer
100
AcDbLine
 10
298.5
 20
170.0
 30
0.0
 11
235.0
 21
170.0
 31
0.0
  0
LINE
  5
B3
100
AcDbEntity
  8
Outline
 62
256
370
-1
 48
1.0
  6
ByLayer
100
AcDbLine
 10
298.6299778141514025
 20
149.7706273867915456
 30
0.0
 11
315.6200221858485975
 21
120.2293726132083407
 31
0.0
  0
INSERT
  5
B4
100
AcDbEntity
  8
Outline
 62
256
370
-1
 48
1.0
  6
ByLayer
100
AcDbBlockReference
  2
Large Hole
 10
4.4999999999999902
 20
12.1999999999999993
 30
0.0
  0
INSERT
  5
B5
100
AcDbEntity
  8
Outline
 62
256
370
-1
 48
1.0
  6
ByLayer
100
AcDbBlockReference
  2
Small Hole
 10
175.0
 20
97.75
 30
0.0
  0
INSERT
  5
B6
100
AcDbEntity
  8
Outline
 62
256
370
-1
 48
1.0
  6
ByLayer
100
AcDbBlockReference
  2
Small Hole
 10
313.5
 20
100.5
 30
0.0
  0
INSERT
  5
B7
100
AcDbEntity
  8
Outline
 62
256
370
-1
 48
1.0
  6
ByLayer
100
AcDbBlockReference
  2
Small Hole
 10
9.4999999999999893
 20
21.1999999999999993
 30
0.0
  0
INSERT
  5
B8
100
AcDbEntity
  8
Outline
 62
256
370
-1
 48
1.0
  6
ByLayer
100
AcDbBlockReference
  2
Oval Hole
 10
17.4999999999999893
 20
12.1999999999999993
 30
0.0
  0
INSERT
  5
B9
100
AcDbEntity
  8
Outline
 62
256
370
-1
 48
1.0
  6
ByLayer
100
AcDbBlockReference
  2
Large Hole
 10
45.9999999999999929
 20
12.0
 30
0.0
  0
INSERT
  5
BA
100
AcDbEntity
  8
Outline
 62
256
370
-1
 48
1.0
  6
ByLayer
100
AcDbBlockReference
  2
Large Hole
 10
98.4999999999999858
 20
12.0
 30
0.0
  0
INSERT
  5
BB
100
AcDbEntity
  8
Outline
 62
256
370
-1
 48
1.0
  6
ByLayer
100
AcDbBlockReference
  2
Large Hole
 10
170.0
 20
12.0
 30
0.0
  0
INSERT
  5
BC
100
AcDbEntity
  8
Outline
 62
256
370
-1
 48
1.0
  6
ByLayer
100
AcDbBlockReference
  2
Large Hole
 10
232.0
 20
12.0
 30
0.0
  0
INSERT
  5
BD
100
AcDbEntity
  8
Outline
 62
256
370
-1
 48
1.0
  6
ByLayer
100
AcDbBlockReference
  2
Large Hole
 10
293.0
 20
12.0
 30
0.0
  0
INSERT
  5
BE
100
AcDbEntity
  8
Outline
 62
256
370
-1
 48
1.0
  6
ByLayer
100
AcDbBlockReference
  2
Large Hole
 10
344.5
 20
12.0
 30
0.0
  0
DIMENSION
  5
BF
100
AcDbEntity
  8
Hole Dimensions
 62
256
370
-1
 48
1.0
  6
ByLayer
100
AcDbDimension
 10
4.5
 20
28.0
 30
0.0
 11
7.0
 21
30.8575000000000017
 31
0.0
 70
0
 71
8
 72
2
 74
0
 75
0
 41
1.0
 42
0.0
  1

  3
Standard
100
AcDbAlignedDimension
 13
4.5
 23
12.1999999999999993
 33
0.0
 14
9.5
 24
21.1999999999999993
 34
0.0
 50
0.0
100
AcDbRotatedDimension
1001
ACAD
1000
DSTYLE
1002
{
1070
144
1040
1.0
1070
40
1040
25.3999999999999986
1002
}
  0
DIMENSION
  5
C0
100
AcDbEntity
  8
Hole Dimensions
 62
256
370
-1
 48
1.0
  6
ByLayer
100
AcDbDimension
 10
9.5
 20
28.0
 30
0.0
 11
13.5
 21
30.8575000000000017
 31
0.0
 70
0
 71
8
 72
2
 74
0
 75
0
 41
1.0
 42
0.0
  1

  3
Standard
100
AcDbAlignedDimension
 13
9.5
 23
21.1999999999999993
 33
0.0
 14
17.5
 24
12.1999999999999993
 34
0.0
 50
0.0
100
AcDbRotatedDimension
1001
ACAD
1000
DSTYLE
1002
{
1070
144
1040
1.0
1070
40
1040
25.3999999999999986
1002
}
  0
DIMENSION
  5
C1
100
AcDbEntity
  8
Hole Dimensions
 62
256
370
-1
 48
1.0
  6
ByLayer
100
AcDbDimension
 10
17.5
 20
28.0
 30
0.0
 11
31.75
 21
30.8575000000000017
 31
0.0
 70
0
 71
8
 72
2
 74
0
 75
0
 41
1.0
 42
0.0
  1

  3
Standard
100
AcDbAlignedDimension
 13
17.5
 23
12.1999999999999993
 33
0.0
 14
46.0
 24
12.0
 34
0.0
 50
0.0
100
AcDbRotatedDimension
1001
ACAD
1000
DSTYLE
1002
{
1070
144
1040
1.0
1070
40
1040
25.3999999999999986
1002
}
  0
DIMENSION
  5
C2
100
AcDbEntity
  8
Hole Dimensions
 62
256
370
-1
 48
1.0
  6
ByLayer
100
AcDbDimension
 10
46.0
 20
28.0
 30
0.0
 11
72.25
 21
30.8575000000000017
 31
0.0
 70
0
 71
8
 72
2
 74
0
 75
0
 41
1.0
 42
0.0
  1

  3
Standard
100
AcDbAlignedDimension
 13
46.0
 23
12.0
 33
0.0
 14
98.5
 24
12.0
 34
0.0
 50
0.0
100
AcDbRotatedDimension
1001
ACAD
1000
DSTYLE
1002
{
1070
144
1040
1.0
1070
40
1040
25.3999999999999986
1002
}
  0
DIMENSION
  5
C3
100
AcDbEntity
  8
Hole Dimensions
 62
256
370
-1
 48
1.0
  6
ByLayer
100
AcDbDimension
 10
98.5
 20
28.0
 30
0.0
 11
105.25
 21
30.8575000000000017
 31
0.0
 70
0
 71
8
 72
2
 74
0
 75
0
 41
1.0
 42
0.0
  1

  3
Standard
100
AcDbAlignedDimension
 13
98.5
 23
12.0
 33
0.0
 14
112.0
 24
16.0
 34
0.0
 50
0.0
100
AcDbRotatedDimension
1001
ACAD
1000
DSTYLE
1002
{
1070
144
1040
1.0
1070
40
1040
25.3999999999999986
1002
}
  0
DIMENSION
  5
C4
100
AcDbEntity
  8
Hole Dimensions
 62
256
370
-1
 48
1.0
  6
ByLayer
100
AcDbDimension
 10
112.0
 20
28.0
 30
0.0
 11
141.0
 21
30.8575000000000017
 31
0.0
 70
0
 71
8
 72
2
 74
0
 75
0
 41
1.0
 42
0.0
  1

  3
Standard
100
AcDbAlignedDimension
 13
112.0
 23
16.0
 33
0.0
 14
170.0
 24
12.0
 34
0.0
 50
0.0
100
AcDbRotatedDimension
1001
ACAD
1000
DSTYLE
1002
{
1070
144
1040
1.0
1070
40
1040
25.3999999999999986
1002
}
  0
DIMENSION
  5
C5
100
AcDbEntity
  8
Hole Dimensions
 62
256
370
-1
 48
1.0
  6
ByLayer
100
AcDbDimension
 10
170.0
 20
28.0
 30
0.0
 11
184.5
 21
30.8575000000000017
 31
0.0
 70
0
 71
8
 72
2
 74
0
 75
0
 41
1.0
 42
0.0
  1

  3
Standard
100
AcDbAlignedDimension
 13
170.0
 23
12.0
 33
0.0
 14
199.0
 24
16.0
 34
0.0
 50
0.0
100
AcDbRotatedDimension
1001
ACAD
1000
DSTYLE
1002
{
1070
144
1040
1.0
1070
40
1040
25.3999999999999986
1002
}
  0
INSERT
  5
C6
100
AcDbEntity
  8
Outline
 62
256
370
-1
 48
1.0
  6
ByLayer
100
AcDbBlockReference
  2
Rectangular Hole
 10
111.9999999999999858
 20
11.0
 30
0.0
  0
INSERT
  5
C7
100
AcDbEntity
  8
Outline
 62
256
370
-1
 48
1.0
  6
ByLayer
100
AcDbBlockReference
  2
Rectangular Hole
 10
199.0
 20
11.0
 30
0.0
  0
DIMENSION
  5
C8
100
AcDbEntity
  8
Hole Dimensions
 62
256
370
-1
 48
1.0
  6
ByLayer
100
AcDbDimension
 10
199.0
 20
28.0
 30
0.0
 11
215.5
 21
30.8575000000000017
 31
0.0
 70
0
 71
8
 72
2
 74
0
 75
0
 41
1.0
 42
0.0
  1

  3
Standard
100
AcDbAlignedDimension
 13
199.0
 23
11.0
 33
0.0
 14
232.0
 24
12.0
 34
0.0
 50
0.0
100
AcDbRotatedDimension
1001
ACAD
1000
DSTYLE
1002
{
1070
144
1040
1.0
1070
40
1040
25.3999999999999986
1002
}
  0
DIMENSION
  5
C9
100
AcDbEntity
  8
Hole Dimensions
 62
256
370
-1
 48
1.0
  6
ByLayer
100
AcDbDimension
 10
232.0
 20
28.0
 30
0.0
 11
262.5
 21
30.8575000000000017
 31
0.0
 70
0
 71
8
 72
2
 74
0
 75
0
 41
1.0
 42
0.0
  1

  3
Standard
100
AcDbAlignedDimension
 13
232.0
 23
12.0
 33
0.0
 14
293.0
 24
12.0
 34
0.0
 50
0.0
100
AcDbRotatedDimension
1001
ACAD
1000
DSTYLE
1002
{
1070
144
1040
1.0
1070
40
1040
25.3999999999999986
1002
}
  0
INSERT
  5
CA
100
AcDbEntity
  8
Outline
 62
256
370
-1
 48
1.0
  6
ByLayer
100
AcDbBlockReference
  2
Oval Hole
 10
311.5
 20
12.0
 30
0.0
  0
DIMENSION
  5
CB
100
AcDbEntity
  8
Hole Dimensions
 62
256
370
-1
 48
1.0
  6
ByLayer
100
AcDbDimension
 10
293.0
 20
28.0
 30
0.0
 11
302.25
 21
30.8575000000000017
 31
0.0
 70
0
 71
8
 72
2
 74
0
 75
0
 41
1.0
 42
0.0
  1

  3
Standard
100
AcDbAlignedDimension
 13
293.0
 23
12.0
 33
0.0
 14
311.5
 24
15.25
 34
0.0
 50
0.0
100
AcDbRotatedDimension
1001
ACAD
1000
DSTYLE
1002
{
1070
144
1040
1.0
1070
40
1040
25.3999999999999986
1002
}
  0
DIMENSION
  5
CC
100
AcDbEntity
  8
Hole Dimensions
 62
256
370
-1
 48
1.0
  6
ByLayer
100
AcDbDimension
 10
311.5
 20
28.0
 30
0.0
 11
328.0
 21
30.8575000000000017
 31
0.0
 70
0
 71
8
 72
2
 74
0
 75
0
 41
1.0
 42
0.0
  1

  3
Standard
100
AcDbAlignedDimension
 13
311.5
 23
15.25
 33
0.0
 14
344.5
 24
12.0
 34
0.0
 50
0.0
100
AcDbRotatedDimension
1001
ACAD
1000
DSTYLE
1002
{
1070
144
1040
1.0
1070
40
1040
25.3999999999999986
1002
}
  0
INSERT
  5
CD
100
AcDbEntity
  8
Outline
 62
256
370
-1
 48
1.0
  6
ByLayer
100
AcDbBlockReference
  2
Large Hole
 10
4.4999999999999902
 20
57.5
 30
0.0
  0
INSERT
  5
CE
100
AcDbEntity
  8
Outline
 62
256
370
-1
 48
1.0
  6
ByLayer
100
AcDbBlockReference
  2
Large Hole
 10
76.9999999999999858
 20
57.5
 30
0.0
  0
INSERT
  5
CF
100
AcDbEntity
  8
Outline
 62
256
370
-1
 48
1.0
  6
ByLayer
100
AcDbBlockReference
  2
Large Hole
 10
134.0
 20
57.5
 30
0.0
  0
INSERT
  5
D0
100
AcDbEntity
  8
Outline
 62
256
370
-1
 48
1.0
  6
ByLayer
100
AcDbBlockReference
  2
Large Hole
 10
191.0
 20
57.5
 30
0.0
  0
INSERT
  5
D1
100
AcDbEntity
  8
Outline
 62
256
370
-1
 48
1.0
  6
ByLayer
100
AcDbBlockReference
  2
Large Hole
 10
251.0
 20
50.0
 30
0.0
  0
INSERT
  5
D2
100
AcDbEntity
  8
Outline
 62
256
370
-1
 48
1.0
  6
ByLayer
100
AcDbBlockReference
  2
Large Hole
 10
334.5
 20
57.5
 30
0.0
  0
INSERT
  5
D3
100
AcDbEntity
  8
Outline
 62
256
370
-1
 48
1.0
  6
ByLayer
100
AcDbBlockReference
  2
Large Hole
 10
301.5
 20
71.5
 30
0.0
  0
DIMENSION
  5
D4
100
AcDbEntity
  8
Hole Dimensions
 62
256
370
-1
 48
1.0
  6
ByLayer
100
AcDbDimension
 10
4.5
 20
67.197804305417975
 30
0.0
 11
40.75
 21
70.0553043054179767
 31
0.0
 70
0
 71
8
 72
2
 74
0
 75
0
 41
1.0
 42
0.0
  1

  3
Standard
100
AcDbAlignedDimension
 13
4.5
 23
57.5
 33
0.0
 14
77.0
 24
57.5
 34
0.0
 50
0.0
100
AcDbRotatedDimension
1001
ACAD
1000
DSTYLE
1002
{
1070
144
1040
1.0
1070
40
1040
25.3999999999999986
1002
}
  0
DIMENSION
  5
D5
100
AcDbEntity
  8
Hole Dimensions
 62
256
370
-1
 48
1.0
  6
ByLayer
100
AcDbDimension
 10
77.0
 20
67.197804305417975
 30
0.0
 11
105.5
 21
70.0553043054179767
 31
0.0
 70
0
 71
8
 72
2
 74
0
 75
0
 41
1.0
 42
0.0
  1

  3
Standard
100
AcDbAlignedDimension
 13
77.0
 23
57.5
 33
0.0
 14
134.0
 24
57.5
 34
0.0
 50
0.0
100
AcDbRotatedDimension
1001
ACAD
1000
DSTYLE
1002
{
1070
144
1040
1.0
1070
40
1040
25.3999999999999986
1002
}
  0
DIMENSION
  5
D6
100
AcDbEntity
  8
Hole Dimensions
 62
256
370
-1
 48
1.0
  6
ByLayer
100
AcDbDimension
 10
134.0
 20
67.197804305417975
 30
0.0
 11
162.5
 21
70.0553043054179767
 31
0.0
 70
0
 71
8
 72
2
 74
0
 75
0
 41
1.0
 42
0.0
  1

  3
Standard
100
AcDbAlignedDimension
 13
134.0
 23
57.5
 33
0.0
 14
191.0
 24
57.5
 34
0.0
 50
0.0
100
AcDbRotatedDimension
1001
ACAD
1000
DSTYLE
1002
{
1070
144
1040
1.0
1070
40
1040
25.3999999999999986
1002
}
  0
DIMENSION
  5
D7
100
AcDbEntity
  8
Hole Dimensions
 62
256
370
-1
 48
1.0
  6
ByLayer
100
AcDbDimension
 10
191.0
 20
67.197804305417975
 30
0.0
 11
221.0
 21
70.0553043054179767
 31
0.0
 70
0
 71
8
 72
2
 74
0
 75
0
 41
1.0
 42
0.0
  1

  3
Standard
100
AcDbAlignedDimension
 13
191.0
 23
57.5
 33
0.0
 14
251.0
 24
50.0
 34
0.0
 50
0.0
100
AcDbRotatedDimension
1001
ACAD
1000
DSTYLE
1002
{
1070
144
1040
1.0
1070
40
1040
25.3999999999999986
1002
}
  0
DIMENSION
  5
D8
100
AcDbEntity
  8
Hole Dimensions
 62
256
370
-1
 48
1.0
  6
ByLayer
100
AcDbDimension
 10
251.0
 20
67.197804305417975
 30
0.0
 11
276.0
 21
70.0
 31
0.0
 70
128
 71
8
 72
2
 74
0
 75
0
 41
1.0
 42
0.0
  1

  3
Standard
100
AcDbAlignedDimension
 13
251.0
 23
50.0
 33
0.0
 14
301.5
 24
71.5
 34
0.0
 50
0.0
100
AcDbRotatedDimension
1001
ACAD
1000
DSTYLE
1002
{
1070
279
1070
2
1070
144
1040
1.0
1070
40
1040
25.3999999999999986
1002
}
  0
DIMENSION
  5
D9
100
AcDbEntity
  8
Hole Dimensions
 62
256
370
-1
 48
1.0
  6
ByLayer
100
AcDbDimension
 10
301.5
 20
67.197804305417975
 30
0.0
 11
318.0
 21
70.0553043054179767
 31
0.0
 70
0
 71
8
 72
2
 74
0
 75
0
 41
1.0
 42
0.0
  1

  3
Standard
100
AcDbAlignedDimension
 13
301.5
 23
71.5
 33
0.0
 14
334.5
 24
57.5
 34
0.0
 50
0.0
100
AcDbRotatedDimension
1001
ACAD
1000
DSTYLE
1002
{
1070
144
1040
1.0
1070
40
1040
25.3999999999999986
1002
}
  0
INSERT
  5
DA
100
AcDbEntity
  8
Outline
 62
256
370
-1
 48
1.0
  6
ByLayer
100
AcDbBlockReference
  2
Large Hole
 10
164.5
 20
109.0
 30
0.0
  0
INSERT
  5
DB
100
AcDbEntity
  8
Outline
 62
256
370
-1
 48
1.0
  6
ByLayer
100
AcDbBlockReference
  2
Large Hole
 10
293.0
 20
117.0
 30
0.0
  0
DIMENSION
  5
DC
100
AcDbEntity
  8
Hole Dimensions
 62
256
370
-1
 48
1.0
  6
ByLayer
100
AcDbDimension
 10
0.0
 20
92.186620416944919
 30
0.0
 11
82.25
 21
95.0441204169449207
 31
0.0
 70
0
 71
8
 72
2
 74
0
 75
0
 41
1.0
 42
0.0
  1

  3
Standard
100
AcDbAlignedDimension
 13
0.0
 23
110.0
 33
0.0
 14
164.5
 24
109.0
 34
0.0
 50
0.0
100
AcDbRotatedDimension
1001
ACAD
1000
DSTYLE
1002
{
1070
144
1040
1.0
1070
40
1040
25.3999999999999986
1002
}
  0
DIMENSION
  5
DD
100
AcDbEntity
  8
Hole Dimensions
 62
256
370
-1
 48
1.0
  6
ByLayer
100
AcDbDimension
 10
164.5
 20
92.186620416944919
 30
0.0
 11
169.75
 21
95.0441204169449207
 31
0.0
 70
0
 71
8
 72
2
 74
0
 75
0
 41
1.0
 42
0.0
  1

  3
Standard
100
AcDbAlignedDimension
 13
164.5
 23
109.0
 33
0.0
 14
175.0
 24
97.75
 34
0.0
 50
0.0
100
AcDbRotatedDimension
1001
ACAD
1000
DSTYLE
1002
{
1070
144
1040
1.0
1070
40
1040
25.3999999999999986
1002
}
  0
DIMENSION
  5
DE
100
AcDbEntity
  8
Hole Dimensions
 62
256
370
-1
 48
1.0
  6
ByLayer
100
AcDbDimension
 10
175.0
 20
92.186620416944919
 30
0.0
 11
234.0
 21
95.0441204169449207
 31
0.0
 70
0
 71
8
 72
2
 74
0
 75
0
 41
1.0
 42
0.0
  1

  3
Standard
100
AcDbAlignedDimension
 13
175.0
 23
97.75
 33
0.0
 14
293.0
 24
117.0
 34
0.0
 50
0.0
100
AcDbRotatedDimension
1001
ACAD
1000
DSTYLE
1002
{
1070
144
1040
1.0
1070
40
1040
25.3999999999999986
1002
}
  0
DIMENSION
  5
DF
100
AcDbEntity
  8
Hole Dimensions
 62
256
370
-1
 48
1.0
  6
ByLayer
100
AcDbDimension
 10
293.0
 20
92.186620416944919
 30
0.0
 11
303.25
 21
95.0441204169449207
 31
0.0
 70
0
 71
8
 72
2
 74
0
 75
0
 41
1.0
 42
0.0
  1

  3
Standard
100
AcDbAlignedDimension
 13
293.0
 23
117.0
 33
0.0
 14
313.5
 24
100.5
 34
0.0
 50
0.0
100
AcDbRotatedDimension
1001
ACAD
1000
DSTYLE
1002
{
1070
144
1040
1.0
1070
40
1040
25.3999999999999986
1002
}
  0
DIMENSION
  5
E0
100
AcDbEntity
  8
Hole Dimensions
 62
256
370
-1
 48
1.0
  6
ByLayer
100
AcDbDimension
 10
330.0
 20
117.0
 30
0.0
 11
335.0
 21
113.0
 31
0.0
 70
128
 71
8
 72
2
 74
0
 75
0
 41
1.0
 42
0.0
  1

  3
Standard
100
AcDbAlignedDimension
 13
293.0
 23
117.0
 33
0.0
 14
164.5
 24
109.0
 34
0.0
 50
90.0
100
AcDbRotatedDimension
1001
ACAD
1000
DSTYLE
1002
{
1070
279
1070
2
1070
144
1040
1.0
1070
40
1040
25.3999999999999986
1002
}
  0
DIMENSION
  5
E1
100
AcDbEntity
  8
Hole Dimensions
 62
256
370
-1
 48
1.0
  6
ByLayer
100
AcDbDimension
 10
330.0
 20
109.0
 30
0.0
 11
335.0
 21
99.0
 31
0.0
 70
128
 71
8
 72
2
 74
0
 75
0
 41
1.0
 42
0.0
  1

  3
Standard
100
AcDbAlignedDimension
 13
164.5
 23
109.0
 33
0.0
 14
313.5
 24
100.5
 34
0.0
 50
90.0
100
AcDbRotatedDimension
1001
ACAD
1000
DSTYLE
1002
{
1070
279
1070
2
1070
144
1040
1.0
1070
40
1040
25.3999999999999986
1002
}
  0
DIMENSION
  5
E2
100
AcDbEntity
  8
Hole Dimensions
 62
256
370
-1
 48
1.0
  6
ByLayer
100
AcDbDimension
 10
330.0
 20
100.5
 30
0.0
 11
335.0
 21
88.0
 31
0.0
 70
128
 71
8
 72
2
 74
0
 75
0
 41
1.0
 42
0.0
  1

  3
Standard
100
AcDbAlignedDimension
 13
313.5
 23
100.5
 33
0.0
 14
175.0
 24
97.75
 34
0.0
 50
90.0
100
AcDbRotatedDimension
1001
ACAD
1000
DSTYLE
1002
{
1070
279
1070
2
1070
144
1040
1.0
1070
40
1040
25.3999999999999986
1002
}
  0
INSERT
  5
E3
100
AcDbEntity
  8
Outline
 62
256
370
-1
 48
1.0
  6
ByLayer
100
AcDbBlockReference
  2
Large Cutout
 10
130.25
 20
120.0
 30
0.0
  0
INSERT
  5
E4
100
AcDbEntity
  8
Outline
 62
256
370
-1
 48
1.0
  6
ByLayer
100
AcDbBlockReference
  2
Large Cutout
 10
73.2499999999999716
 20
120.0
 30
0.0
  0
INSERT
  5
E5
100
AcDbEntity
  8
Outline
 62
256
370
-1
 48
1.0
  6
ByLayer
100
AcDbBlockReference
  2
Large Cutout
 10
178.25
 20
120.0
 30
0.0
  0
INSERT
  5
E6
100
AcDbEntity
  8
Outline
 62
256
370
-1
 48
1.0
  6
ByLayer
100
AcDbBlockReference
  2
Large Cutout
 10
235.0
 20
120.0
 30
0.0
  0
DIMENSION
  5
E7
100
AcDbEntity
  8
Outline Dimensions
 62
256
370
-1
 48
1.0
  6
ByLayer
100
AcDbDimension
 10
0.0
 20
128.0
 30
0.0
 11
117.5
 21
130.8574999999999875
 31
0.0
 70
0
 71
8
 72
2
 74
0
 75
0
 41
1.0
 42
0.0
  1

  3
Standard
100
AcDbAlignedDimension
 13
-0.0
 23
120.0
 33
0.0
 14
235.0
 24
120.0
 34
0.0
 50
0.0
100
AcDbRotatedDimension
1001
ACAD
1000
DSTYLE
1002
{
1070
144
1040
1.0
1070
40
1040
25.3999999999999986
1002
}
  0
DIMENSION
  5
E8
100
AcDbEntity
  8
Outline Dimensions
 62
256
370
-1
 48
1.0
  6
ByLayer
100
AcDbDimension
 10
235.0
 20
128.0
 30
0.0
 11
266.75
 21
130.8574999999999875
 31
0.0
 70
0
 71
8
 72
2
 74
0
 75
0
 41
1.0
 42
0.0
  1

  3
Standard
100
AcDbAlignedDimension
 13
235.0
 23
170.0
 33
0.0
 14
298.5
 24
170.0
 34
0.0
 50
0.0
100
AcDbRotatedDimension
1001
ACAD
1000
DSTYLE
1002
{
1070
144
1040
1.0
1070
40
1040
25.3999999999999986
1002
}
  0
DIMENSION
  5
E9
100
AcDbEntity
  8
Outline Dimensions
 62
256
370
-1
 48
1.0
  6
ByLayer
100
AcDbDimension
 10
350.0
 20
135.1306581345978373
 30
0.0
 11
175.0
 21
137.9881581345978248
 31
0.0
 70
0
 71
8
 72
2
 74
0
 75
0
 41
1.0
 42
0.0
  1

  3
Standard
100
AcDbAlignedDimension
 13
350.0
 23
120.0000000000000142
 33
0.0
 14
-0.0
 24
120.0
 34
0.0
 50
0.0
100
AcDbRotatedDimension
1001
ACAD
1000
DSTYLE
1002
{
1070
144
1040
1.0
1070
40
1040
25.3999999999999986
1002
}
  0
LINE
  5
EA
100
AcDbEntity
  8
Outline
 62
256
370
-1
 48
1.0
  6
ByLayer
100
AcDbLine
 10
0.9999999999999898
 20
114.0
 30
0.0
 11
4.4999999999999902
 21
114.0
 31
0.0
  0
LINE
  5
EB
100
AcDbEntity
  8
Outline
 62
256
370
-1
 48
1.0
  6
ByLayer
100
AcDbLine
 10
7.4999999999999902
 20
117.0
 30
0.0
 11
7.4999999999999902
 21
119.0
 31
0.0
  0
LINE
  5
EC
100
AcDbEntity
  8
Outline
 62
256
370
-1
 48
1.0
  6
ByLayer
100
AcDbLine
 10
341.0
 20
119.0
 30
0.0
 11
341.0
 21
116.4999999999999716
 31
0.0
  0
LINE
  5
ED
100
AcDbEntity
  8
Outline
 62
256
370
-1
 48
1.0
  6
ByLayer
100
AcDbLine
 10
344.0
 20
113.4999999999999858
 30
0.0
 11
349.0
 21
113.4999999999999858
 31
0.0
  0
ARC
  5
EE
100
AcDbEntity
  8
Outline
 62
256
370
-1
 48
1.0
  6
ByLayer
100
AcDbCircle
 10
4.4999999999999902
 20
117.0
 30
0.0
 40
3.0
100
AcDbArc
 50
270.0
 51
0.0
  0
ARC
  5
EF
100
AcDbEntity
  8
Outline
 62
256
370
-1
 48
1.0
  6
ByLayer
100
AcDbCircle
 10
344.0
 20
116.4999999999999716
 30
0.0
 40
3.0
100
AcDbArc
 50
180.0
 51
270.0
  0
ARC
  5
F0
100
AcDbEntity
  8
Outline
 62
256
370
-1
 48
1.0
  6
ByLayer
100
AcDbCircle
 10
8.4999999999999876
 20
119.0
 30
0.0
 40
1.0
100
AcDbArc
 50
90.0
 51
180.0
  0
ARC
  5
F1
100
AcDbEntity
  8
Outline
 62
256
370
-1
 48
1.0
  6
ByLayer
100
AcDbCircle
 10
65.7499999999999432
 20
119.0
 30
0.0
 40
1.0
100
AcDbArc
 50
0.0
 51
90.0
  0
ARC
  5
F2
100
AcDbEntity
  8
Outline
 62
256
370
-1
 48
1.0
  6
ByLayer
100
AcDbCircle
 10
74.2499999999999574
 20
119.0
 30
0.0
 40
1.0
100
AcDbArc
 50
90.0
 51
180.0
  0
ARC
  5
F3
100
AcDbEntity
  8
Outline
 62
256
370
-1
 48
1.0
  6
ByLayer
100
AcDbCircle
 10
122.7499999999999574
 20
119.0
 30
0.0
 40
1.0
100
AcDbArc
 50
0.0
 51
90.0
  0
ARC
  5
F4
100
AcDbEntity
  8
Outline
 62
256
370
-1
 48
1.0
  6
ByLayer
100
AcDbCircle
 10
131.25
 20
119.0
 30
0.0
 40
1.0
100
AcDbArc
 50
90.0
 51
180.0
  0
ARC
  5
F5
100
AcDbEntity
  8
Outline
 62
256
370
-1
 48
1.0
  6
ByLayer
100
AcDbCircle
 10
170.75
 20
119.0
 30
0.0
 40
1.0
100
AcDbArc
 50
0.0
 51
90.0
  0
ARC
  5
F6
100
AcDbEntity
  8
Outline
 62
256
370
-1
 48
1.0
  6
ByLayer
100
AcDbCircle
 10
179.25
 20
119.0
 30
0.0
 40
1.0
100
AcDbArc
 50
90.0
 51
180.0
  0
ARC
  5
F7
100
AcDbEntity
  8
Outline
 62
256
370
-1
 48
1.0
  6
ByLayer
100
AcDbCircle
 10
227.5
 20
119.0
 30
0.0
 40
1.0
100
AcDbArc
 50
0.0
 51
90.0
  0
ARC
  5
F8
100
AcDbEntity
  8
Outline
 62
256
370
-1
 48
1.0
  6
ByLayer
100
AcDbCircle
 10
299.5
 20
150.2636399587724156
 30
0.0
 40
1.0
100
AcDbArc
 50
180.0
 51
209.5387822595581895
  0
ARC
  5
F9
100
AcDbEntity
  8
Outline
 62
256
370
-1
 48
1.0
  6
ByLayer
100
AcDbCircle
 10
339.9999999999999432
 20
119.0
 30
0.0
 40
1.0
100
AcDbArc
 50
0.0
 51
90.0
  0
ARC
  5
FA
100
AcDbEntity
  8
Outline
 62
256
370
-1
 48
1.0
  6
ByLayer
100
AcDbCircle
 10
349.0
 20
112.4999999999999716
 30
0.0
 40
1.0
100
AcDbArc
 50
0.0
 51
90.0
  0
ARC
  5
FB
100
AcDbEntity
  8
Outline
 62
256
370
-1
 48
1.0
  6
ByLayer
100
AcDbCircle
 10
317.25
 20
117.5
 30
0.0
 40
1.5
100
AcDbArc
 50
180.0
 51
0.0
  0
LINE
  5
FC
100
AcDbEntity
  8
Outline
 62
256
370
-1
 48
1.0
  6
ByLayer
100
AcDbLine
 10
315.75
 20
117.5
 30
0.0
 11
315.75
 21
119.7363600412274707
 31
0.0
  0
LINE
  5
FD
100
AcDbEntity
  8
Outline
 62
256
370
-1
 48
1.0
  6
ByLayer
100
AcDbLine
 10
318.75
 20
117.5
 30
0.0
 11
318.75
 21
119.0
 31
0.0
  0
ARC
  5
FE
100
AcDbEntity
  8
Outline
 62
256
370
-1
 48
1.0
  6
ByLayer
100
AcDbCircle
 10
314.7500000000000568
 20
119.7363600412274707
 30
0.0
 40
1.0
100
AcDbArc
 50
0.0
 51
29.5387822595581824
  0
ARC
  5
FF
100
AcDbEntity
  8
Outline
 62
256
370
-1
 48
1.0
  6
ByLayer
100
AcDbCircle
 10
319.75
 20
119.0
 30
0.0
 40
1.0
100
AcDbArc
 50
90.0
 51
180.0
  0
DIMENSION
  5
100
100
AcDbEntity
  8
Outline Dimensions
 62
256
370
-1
 48
1.0
  6
ByLayer
100
AcDbDimension
 10
307.125
 20
128.0
 30
0.0
 11
307.125
 21
130.8574999999999875
 31
0.0
 70
0
 71
8
 72
2
 74
0
 75
0
 41
1.0
 42
0.0
  1

  3
Standard
100
AcDbAlignedDimension
 13
298.5
 23
128.0
 33
0.0
 14
315.75
 24
117.5
 34
0.0
 50
0.0
100
AcDbRotatedDimension
1001
ACAD
1000
DSTYLE
1002
{
1070
144
1040
1.0
1070
40
1040
25.3999999999999986
1002
}
  0
DIMENSION
  5
101
100
AcDbEntity
  8
Outline Dimensions
 62
256
370
-1
 48
1.0
  6
ByLayer
100
AcDbDimension
 10
315.75
 20
128.0
 30
0.0
 11
332.875
 21
130.8574999999999875
 31
0.0
 70
0
 71
8
 72
2
 74
0
 75
0
 41
1.0
 42
0.0
  1

  3
Standard
100
AcDbAlignedDimension
 13
315.75
 23
118.4525000000000006
 33
0.0
 14
350.0
 24
112.4999999999999716
 34
0.0
 50
0.0
100
AcDbRotatedDimension
1001
ACAD
1000
DSTYLE
1002
{
1070
144
1040
1.0
1070
40
1040
25.3999999999999986
1002
}
  0
ARC
  5
102
100
AcDbEntity
  8
Outline
 62
256
370
-1
 48
1.0
  6
ByLayer
100
AcDbCircle
 10
0.9999999999999898
 20
113.0
 30
0.0
 40
1.0
100
AcDbArc
 50
90.0
 51
180.0
  0
INSERT
  5
103
100
AcDbEntity
  8
Pads
 62
256
370
-1
 48
1.0
  6
ByLayer
100
AcDbBlockReference
  2
Switch Vertical
 10
26.4000000000000021
 20
108.9999999999999716
 30
0.0
  0
INSERT
  5
104
100
AcDbEntity
  8
Pads
 62
256
370
-1
 48
1.0
  6
ByLayer
100
AcDbBlockReference
  2
Switch Vertical
 10
55.8999999999999986
 20
108.9999999999999716
 30
0.0
  0
INSERT
  5
105
100
AcDbEntity
  8
Pads
 62
256
370
-1
 48
1.0
  6
ByLayer
100
AcDbBlockReference
  2
Switch Vertical
 10
85.4000000000000057
 20
108.9999999999999716
 30
0.0
  0
INSERT
  5
106
100
AcDbEntity
  8
Pads
 62
256
370
-1
 48
1.0
  6
ByLayer
100
AcDbBlockReference
  2
Switch Vertical
 10
114.9000000000000057
 20
108.9999999999999716
 30
0.0
  0
INSERT
  5
107
100
AcDbEntity
  8
Pads
 62
256
370
-1
 48
1.0
  6
ByLayer
100
AcDbBlockReference
  2
Switch Vertical
 10
144.4000000000000057
 20
108.9999999999999716
 30
0.0
  0
INSERT
  5
108
100
AcDbEntity
  8
Pads
 62
256
370
-1
 48
1.0
  6
ByLayer
100
AcDbBlockReference
  2
Switch Vertical
 10
184.6500000000000057
 20
108.9999999999999716
 30
0.0
  0
INSERT
  5
109
100
AcDbEntity
  8
Pads
 62
256
370
-1
 48
1.0
  6
ByLayer
100
AcDbBlockReference
  2
Switch Vertical
 10
214.1500000000000057
 20
108.9999999999999716
 30
0.0
  0
INSERT
  5
10A
100
AcDbEntity
  8
Pads
 62
256
370
-1
 48
1.0
  6
ByLayer
100
AcDbBlockReference
  2
Switch Vertical
 10
243.6500000000000057
 20
108.9999999999999716
 30
0.0
  0
INSERT
  5
10B
100
AcDbEntity
  8
Pads
 62
256
370
-1
 48
1.0
  6
ByLayer
100
AcDbBlockReference
  2
Switch Vertical
 10
279.5250000000000341
 20
108.9999999999999716
 30
0.0
  0
INSERT
  5
10C
100
AcDbEntity
  8
Pads
 62
256
370
-1
 48
1.0
  6
ByLayer
100
AcDbBlockReference
  2
Switch Angled
 10
22.3624999999999901
 20
69.5500000000000398
 30
0.0
  0
INSERT
  5
10D
100
AcDbEntity
  8
Pads
 62
256
370
-1
 48
1.0
  6
ByLayer
100
AcDbBlockReference
  2
Switch Angled
 10
24.7437499999999915
 20
50.5000000000000355
 30
0.0
  0
INSERT
  5
10E
100
AcDbEntity
  8
Pads
 62
256
370
-1
 48
1.0
  6
ByLayer
100
AcDbBlockReference
  2
Switch Angled
 10
29.5062499999999908
 20
31.4500000000000348
 30
0.0
  0
INSERT
  5
10F
100
AcDbEntity
  8
Pads
 62
256
370
-1
 48
1.0
  6
ByLayer
100
AcDbBlockReference
  2
Switch Angled
 10
55.6999999999999886
 20
12.4000000000000341
 30
0.0
  0
INSERT
  5
110
100
AcDbEntity
  8
Pads
 62
256
370
-1
 48
1.0
  6
ByLayer
100
AcDbBlockReference
  2
Switch Angled
 10
17.5999999999999908
 20
12.4000000000000341
 30
0.0
  0
INSERT
  5
111
100
AcDbEntity
  8
Pads
 62
256
370
-1
 48
1.0
  6
ByLayer
100
AcDbBlockReference
  2
Switch Angled
 10
81.8937499999999829
 20
12.4000000000000341
 30
0.0
  0
INSERT
  5
112
100
AcDbEntity
  8
Pads
 62
256
370
-1
 48
1.0
  6
ByLayer
100
AcDbBlockReference
  2
Switch Angled
 10
155.7124999999999773
 20
12.4000000000000341
 30
0.0
  0
INSERT
  5
113
100
AcDbEntity
  8
Pads
 62
256
370
-1
 48
1.0
  6
ByLayer
100
AcDbBlockReference
  2
Switch Angled
 10
222.3874999999999886
 20
12.1999999999999993
 30
0.0
  0
INSERT
  5
114
100
AcDbEntity
  8
Pads
 62
256
370
-1
 48
1.0
  6
ByLayer
100
AcDbBlockReference
  2
Switch Angled
 10
246.8874999999999886
 20
12.4000000000000341
 30
0.0
  0
INSERT
  5
115
100
AcDbEntity
  8
Pads
 62
256
370
-1
 48
1.0
  6
ByLayer
100
AcDbBlockReference
  2
Switch Angled
 10
272.4875000000000114
 20
12.2379436219431437
 30
0.0
  0
INSERT
  5
116
100
AcDbEntity
  8
Pads
 62
256
370
-1
 48
1.0
  6
ByLayer
100
AcDbMInsertBlock
  2
Switch Angled
 10
60.4624999999999915
 20
31.4500000000000348
 30
0.0
 70
11
 71
1
 44
19.0500000000000007
 45
19.0500000000000007
  0
INSERT
  5
117
100
AcDbEntity
  8
Pads
 62
256
370
-1
 48
1.0
  6
ByLayer
100
AcDbMInsertBlock
  2
Switch Angled
 10
36.6499999999999915
 20
88.6000000000000369
 30
0.0
 70
14
 71
1
 44
19.0500000000000007
 45
19.0500000000000007
  0
INSERT
  5
118
100
AcDbEntity
  8
Pads
 62
256
370
-1
 48
1.0
  6
ByLayer
100
AcDbMInsertBlock
  2
Switch Angled
 10
46.2137499999999903
 20
69.5500000000000398
 30
0.0
 70
12
 71
1
 44
19.0500000000000007
 45
19.0500000000000007
  0
INSERT
  5
119
100
AcDbEntity
  8
Pads
 62
256
370
-1
 48
1.0
  6
ByLayer
100
AcDbMInsertBlock
  2
Switch Angled
 10
50.9374999999999858
 20
50.5000000000000355
 30
0.0
 70
12
 71
1
 44
19.0500000000000007
 45
19.0500000000000007
  0
INSERT
  5
11A
100
AcDbEntity
  8
Pads
 62
256
370
-1
 48
1.0
  6
ByLayer
100
AcDbBlockReference
  2
Switch Angled
 10
277.15625
 20
31.4500000000000348
 30
0.0
  0
INSERT
  5
11B
100
AcDbEntity
  8
Pads
 62
256
370
-1
 48
1.0
  6
ByLayer
100
AcDbBlockReference
  2
Switch Angled
 10
281.9187500000000455
 20
60.0250000000000341
 30
0.0
  0
INSERT
  5
11C
100
AcDbEntity
  8
Pads
 62
256
370
-1
 48
1.0
  6
ByLayer
100
AcDbMInsertBlock
  2
Switch Angled
 10
322.4000000000000341
 20
31.4500000000000348
 30
0.0
 70
1
 71
2
 44
38.1000000000000014
 45
38.1000000000000014
  0
INSERT
  5
11D
100
AcDbEntity
  8
Pads
 62
256
370
-1
 48
1.0
  6
ByLayer
100
AcDbMInsertBlock
  2
Switch Angled
 10
303.3500000000000227
 20
50.5000000000000355
 30
0.0
 70
2
 71
1
 44
38.1000000000000014
 45
38.1000000000000014
  0
DIMENSION
  5
11E
100
AcDbEntity
  8
Pad Dimensions
 62
256
370
-1
 48
1.0
  6
ByLayer
100
AcDbDimension
 10
17.5999999999999908
 20
18.9000000000000306
 30
0.0
 11
36.6499999999999986
 21
21.7575000000000287
 31
0.0
 70
128
 71
8
 72
2
 74
0
 75
0
 41
1.0
 42
0.0
  1

  3
Standard
100
AcDbAlignedDimension
 13
17.5999999999999908
 23
12.4000000000000323
 33
0.0
 14
55.6999999999999957
 24
12.4000000000000341
 34
0.0
 50
0.0
100
AcDbRotatedDimension
1001
ACAD
1000
DSTYLE
1002
{
1070
279
1070
2
1070
144
1040
1.0
1070
40
1040
25.3999999999999986
1002
}
  0
DIMENSION
  5
11F
100
AcDbEntity
  8
Pad Dimensions
 62
256
370
-1
 48
1.0
  6
ByLayer
100
AcDbDimension
 10
55.6999999999999957
 20
18.9000000000000306
 30
0.0
 11
68.7968749999999858
 21
21.7575000000000287
 31
0.0
 70
128
 71
8
 72
2
 74
0
 75
0
 41
1.0
 42
0.0
  1

  3
Standard
100
AcDbAlignedDimension
 13
55.6999999999999957
 23
12.4000000000000341
 33
0.0
 14
81.8937499999999829
 24
12.4000000000000412
 34
0.0
 50
0.0
100
AcDbRotatedDimension
1001
ACAD
1000
DSTYLE
1002
{
1070
279
1070
2
1070
144
1040
1.0
1070
40
1040
25.3999999999999986
1002
}
  0
DIMENSION
  5
120
100
AcDbEntity
  8
Pad Dimensions
 62
256
370
-1
 48
1.0
  6
ByLayer
100
AcDbDimension
 10
81.8937499999999829
 20
18.9000000000000625
 30
0.0
 11
118.8031249999999943
 21
21.7575000000000642
 31
0.0
 70
128
 71
8
 72
2
 74
0
 75
0
 41
1.0
 42
0.0
  1

  3
Standard
100
AcDbAlignedDimension
 13
81.8937499999999829
 23
12.4000000000000412
 33
0.0
 14
155.7125000000000057
 24
12.400000000000114
 34
0.0
 50
0.0
100
AcDbRotatedDimension
1001
ACAD
1000
DSTYLE
1002
{
1070
279
1070
2
1070
144
1040
1.0
1070
40
1040
25.3999999999999986
1002
}
  0
INSERT
  5
121
100
AcDbEntity
  8
Pads
 62
256
370
-1
 48
1.0
  6
ByLayer
100
AcDbBlockReference
  2
Switch Angled
 10
17.5999999999999908
 20
88.6000000000000369
 30
0.0
  0
DIMENSION
  5
122
100
AcDbEntity
  8
Pad Dimensions
 62
256
370
-1
 48
1.0
  6
ByLayer
100
AcDbDimension
 10
17.5999999999999979
 20
98.9000000000000199
 30
0.0
 11
27.1249999999999929
 21
101.7575000000000216
 31
0.0
 70
128
 71
8
 72
2
 74
0
 75
0
 41
1.0
 42
0.0
  1

  3
Standard
100
AcDbAlignedDimension
 13
17.5999999999999979
 23
88.6000000000000512
 33
0.0
 14
36.6499999999999844
 24
88.6000000000000227
 34
0.0
 50
0.0
100
AcDbRotatedDimension
1001
ACAD
1000
DSTYLE
1002
{
1070
279
1070
2
1070
144
1040
1.0
1070
40
1040
25.3999999999999986
1002
}
  0
DIMENSION
  5
123
100
AcDbEntity
  8
Pad Dimensions
 62
256
370
-1
 48
1.0
  6
ByLayer
100
AcDbDimension
 10
22.3624999999999829
 20
77.9000000000000341
 30
0.0
 11
34.2881249999999937
 21
80.7575000000000358
 31
0.0
 70
128
 71
8
 72
2
 74
0
 75
0
 41
1.0
 42
0.0
  1

  3
Standard
100
AcDbAlignedDimension
 13
22.3624999999999829
 23
69.5500000000000398
 33
0.0
 14
46.2137499999999974
 24
69.550000000000054
 34
0.0
 50
0.0
100
AcDbRotatedDimension
1001
ACAD
1000
DSTYLE
1002
{
1070
279
1070
2
1070
144
1040
1.0
1070
40
1040
25.3999999999999986
1002
}
  0
DIMENSION
  5
124
100
AcDbEntity
  8
Pad Dimensions
 62
256
370
-1
 48
1.0
  6
ByLayer
100
AcDbDimension
 10
24.7437499999999915
 20
57.9000000000000341
 30
0.0
 11
37.8406250000000028
 21
60.7575000000000358
 31
0.0
 70
128
 71
8
 72
2
 74
0
 75
0
 41
1.0
 42
0.0
  1

  3
Standard
100
AcDbAlignedDimension
 13
24.7437499999999986
 23
50.5000000000000355
 33
0.0
 14
50.9374999999999929
 24
50.5000000000000497
 34
0.0
 50
0.0
100
AcDbRotatedDimension
1001
ACAD
1000
DSTYLE
1002
{
1070
279
1070
2
1070
144
1040
1.0
1070
40
1040
25.3999999999999986
1002
}
  0
DIMENSION
  5
125
100
AcDbEntity
  8
Pad Dimensions
 62
256
370
-1
 48
1.0
  6
ByLayer
100
AcDbDimension
 10
29.5062499999999943
 20
37.9000000000000341
 30
0.0
 11
44.9843749999999858
 21
40.7575000000000358
 31
0.0
 70
128
 71
8
 72
2
 74
0
 75
0
 41
1.0
 42
0.0
  1

  3
Standard
100
AcDbAlignedDimension
 13
29.5062499999999943
 23
31.4500000000000384
 33
0.0
 14
60.4624999999999844
 24
31.4500000000000206
 34
0.0
 50
0.0
100
AcDbRotatedDimension
1001
ACAD
1000
DSTYLE
1002
{
1070
279
1070
2
1070
144
1040
1.0
1070
40
1040
25.3999999999999986
1002
}
  0
DIMENSION
  5
126
100
AcDbEntity
  8
Pad Dimensions
 62
256
370
-1
 48
1.0
  6
ByLayer
100
AcDbDimension
 10
17.5999999999999908
 20
-0.0999999999998267
 30
0.0
 11
8.099999999999989
 21
-4.0999999999999721
 31
0.0
 70
128
 71
8
 72
2
 74
0
 75
0
 41
1.0
 42
0.0
  1

  3
Standard
100
AcDbAlignedDimension
 13
17.5999999999999979
 23
88.6000000000000512
 33
0.0
 14
22.3624999999999829
 24
69.5500000000000398
 34
0.0
 50
0.0
100
AcDbRotatedDimension
1001
ACAD
1000
DSTYLE
1002
{
1070
279
1070
2
1070
144
1040
1.0
1070
40
1040
25.3999999999999986
1002
}
  0
DIMENSION
  5
127
100
AcDbEntity
  8
Pad Dimensions
 62
256
370
-1
 48
1.0
  6
ByLayer
100
AcDbDimension
 10
22.3624999999999901
 20
-0.0999999999999127
 30
0.0
 11
24.0999999999999872
 21
-4.0999999999999766
 31
0.0
 70
128
 71
8
 72
2
 74
0
 75
0
 41
1.0
 42
0.0
  1

  3
Standard
100
AcDbAlignedDimension
 13
22.3624999999999829
 23
69.5500000000000398
 33
0.0
 14
24.7437499999999986
 24
50.5000000000000355
 34
0.0
 50
0.0
100
AcDbRotatedDimension
1001
ACAD
1000
DSTYLE
1002
{
1070
279
1070
2
1070
144
1040
1.0
1070
40
1040
25.3999999999999986
1002
}
  0
DIMENSION
  5
128
100
AcDbEntity
  8
Pad Dimensions
 62
256
370
-1
 48
1.0
  6
ByLayer
100
AcDbDimension
 10
24.7437499999999915
 20
-0.0999999999999178
 30
0.0
 11
40.0999999999999872
 21
-4.0999999999999659
 31
0.0
 70
128
 71
8
 72
2
 74
0
 75
0
 41
1.0
 42
0.0
  1

  3
Standard
100
AcDbAlignedDimension
 13
24.7437499999999986
 23
50.5000000000000355
 33
0.0
 14
29.5062499999999943
 24
31.4500000000000384
 34
0.0
 50
0.0
100
AcDbRotatedDimension
1001
ACAD
1000
DSTYLE
1002
{
1070
279
1070
2
1070
144
1040
1.0
1070
40
1040
25.3999999999999986
1002
}
  0
DIMENSION
  5
129
100
AcDbEntity
  8
Pad Dimensions
 62
256
370
-1
 48
1.0
  6
ByLayer
100
AcDbDimension
 10
38.7713203435596228
 20
98.9000000000000341
 30
0.0
 11
48.2963203435596284
 21
101.7575000000000358
 31
0.0
 70
128
 71
8
 72
2
 74
0
 75
0
 41
1.0
 42
0.0
  1

  3
Standard
100
AcDbAlignedDimension
 13
38.7713203435596299
 23
93.1961940777125761
 33
0.0
 14
57.821320343559627
 24
93.1961940777126046
 34
0.0
 50
0.0
100
AcDbRotatedDimension
1001
ACAD
1000
DSTYLE
1002
{
1070
279
1070
2
1070
144
1040
1.0
1070
40
1040
25.3999999999999986
1002
}
  0
DIMENSION
  5
12A
100
AcDbEntity
  8
Pad Dimensions
 62
256
370
-1
 48
1.0
  6
ByLayer
100
AcDbDimension
 10
26.3999999999999879
 20
117.9999999999999858
 30
0.0
 11
41.1499999999999915
 21
120.8574999999999875
 31
0.0
 70
0
 71
8
 72
2
 74
0
 75
0
 41
1.0
 42
0.0
  1

  3
Standard
100
AcDbAlignedDimension
 13
26.3999999999999986
 23
113.75
 33
0.0
 14
55.8999999999999915
 24
113.7500000000000426
 34
0.0
 50
0.0
100
AcDbRotatedDimension
1001
ACAD
1000
DSTYLE
1002
{
1070
144
1040
1.0
1070
40
1040
25.3999999999999986
1002
}
  0
DIMENSION
  5
12B
100
AcDbEntity
  8
Pad Dimensions
 62
256
370
-1
 48
1.0
  6
ByLayer
100
AcDbDimension
 10
144.4000000000000057
 20
117.9999999999999574
 30
0.0
 11
164.5250000000000057
 21
120.8574999999999591
 31
0.0
 70
0
 71
8
 72
2
 74
0
 75
0
 41
1.0
 42
0.0
  1

  3
Standard
100
AcDbAlignedDimension
 13
144.4000000000000057
 23
113.7500000000000426
 33
0.0
 14
184.6500000000000057
 24
113.7500000000000426
 34
0.0
 50
0.0
100
AcDbRotatedDimension
1001
ACAD
1000
DSTYLE
1002
{
1070
144
1040
1.0
1070
40
1040
25.3999999999999986
1002
}
  0
DIMENSION
  5
12C
100
AcDbEntity
  8
Pad Dimensions
 62
256
370
-1
 48
1.0
  6
ByLayer
100
AcDbDimension
 10
184.6500000000000057
 20
118.0000000000000284
 30
0.0
 11
199.4000000000000057
 21
120.8575000000000301
 31
0.0
 70
0
 71
8
 72
2
 74
0
 75
0
 41
1.0
 42
0.0
  1

  3
Standard
100
AcDbAlignedDimension
 13
184.6500000000000057
 23
113.7500000000000426
 33
0.0
 14
214.1500000000000057
 24
113.7500000000001137
 34
0.0
 50
0.0
100
AcDbRotatedDimension
1001
ACAD
1000
DSTYLE
1002
{
1070
144
1040
1.0
1070
40
1040
25.3999999999999986
1002
}
  0
DIMENSION
  5
12D
100
AcDbEntity
  8
Pad Dimensions
 62
256
370
-1
 48
1.0
  6
ByLayer
100
AcDbDimension
 10
144.4000000000000057
 20
117.9999999999999574
 30
0.0
 11
129.6500000000000057
 21
120.8574999999999591
 31
0.0
 70
0
 71
8
 72
2
 74
0
 75
0
 41
1.0
 42
0.0
  1

  3
Standard
100
AcDbAlignedDimension
 13
144.4000000000000057
 23
113.7500000000000426
 33
0.0
 14
114.9000000000000057
 24
113.7500000000000142
 34
0.0
 50
0.0
100
AcDbRotatedDimension
1001
ACAD
1000
DSTYLE
1002
{
1070
144
1040
1.0
1070
40
1040
25.3999999999999986
1002
}
  0
DIMENSION
  5
12E
100
AcDbEntity
  8
Pad Dimensions
 62
256
370
-1
 48
1.0
  6
ByLayer
100
AcDbDimension
 10
243.6500000000000057
 20
118.0
 30
0.0
 11
261.5875000000000341
 21
120.8575000000000017
 31
0.0
 70
0
 71
8
 72
2
 74
0
 75
0
 41
1.0
 42
0.0
  1

  3
Standard
100
AcDbAlignedDimension
 13
243.6500000000000057
 23
113.7499999999999858
 33
0.0
 14
279.5250000000000341
 24
113.7499999999997726
 34
0.0
 50
0.0
100
AcDbRotatedDimension
1001
ACAD
1000
DSTYLE
1002
{
1070
144
1040
1.0
1070
40
1040
25.3999999999999986
1002
}
  0
DIMENSION
  5
12F
100
AcDbEntity
  8
Pad Dimensions
 62
256
370
-1
 48
1.0
  6
ByLayer
100
AcDbDimension
 10
214.1500000000000057
 20
117.9999999999999858
 30
0.0
 11
228.9000000000000057
 21
120.8574999999999875
 31
0.0
 70
0
 71
8
 72
2
 74
0
 75
0
 41
1.0
 42
0.0
  1

  3
Standard
100
AcDbAlignedDimension
 13
214.1500000000000057
 23
113.7500000000001137
 33
0.0
 14
243.6500000000000057
 24
113.7499999999999858
 34
0.0
 50
0.0
100
AcDbRotatedDimension
1001
ACAD
1000
DSTYLE
1002
{
1070
144
1040
1.0
1070
40
1040
25.3999999999999986
1002
}
  0
DIMENSION
  5
130
100
AcDbEntity
  8
Pad Dimensions
 62
256
370
-1
 48
1.0
  6
ByLayer
100
AcDbDimension
 10
85.4000000000000057
 20
117.9999999999999432
 30
0.0
 11
100.1500000000000057
 21
120.8574999999999449
 31
0.0
 70
0
 71
8
 72
2
 74
0
 75
0
 41
1.0
 42
0.0
  1

  3
Standard
100
AcDbAlignedDimension
 13
85.4000000000000057
 23
113.7499999999999716
 33
0.0
 14
114.9000000000000057
 24
113.7500000000000142
 34
0.0
 50
0.0
100
AcDbRotatedDimension
1001
ACAD
1000
DSTYLE
1002
{
1070
144
1040
1.0
1070
40
1040
25.3999999999999986
1002
}
  0
DIMENSION
  5
131
100
AcDbEntity
  8
Pad Dimensions
 62
256
370
-1
 48
1.0
  6
ByLayer
100
AcDbDimension
 10
85.4000000000000057
 20
117.9999999999999432
 30
0.0
 11
70.6500000000000057
 21
120.8574999999999449
 31
0.0
 70
0
 71
8
 72
2
 74
0
 75
0
 41
1.0
 42
0.0
  1

  3
Standard
100
AcDbAlignedDimension
 13
85.4000000000000057
 23
113.7499999999999716
 33
0.0
 14
55.8999999999999915
 24
113.7500000000000426
 34
0.0
 50
0.0
100
AcDbRotatedDimension
1001
ACAD
1000
DSTYLE
1002
{
1070
144
1040
1.0
1070
40
1040
25.3999999999999986
1002
}
  0
DIMENSION
  5
132
100
AcDbEntity
  8
Pad Dimensions
 62
256
370
-1
 48
1.0
  6
ByLayer
100
AcDbDimension
 10
281.9187500000000455
 20
61.9000000000000554
 30
0.0
 11
292.6343750000000341
 21
64.75750000000005
 31
0.0
 70
128
 71
8
 72
2
 74
0
 75
0
 41
1.0
 42
0.0
  1

  3
Standard
100
AcDbAlignedDimension
 13
281.9187500000000455
 23
60.0250000000000554
 33
0.0
 14
303.3500000000000227
 24
50.4999999999998153
 34
0.0
 50
0.0
100
AcDbRotatedDimension
1001
ACAD
1000
DSTYLE
1002
{
1070
279
1070
2
1070
144
1040
1.0
1070
40
1040
25.3999999999999986
1002
}
  0
DIMENSION
  5
133
100
AcDbEntity
  8
Pad Dimensions
 62
256
370
-1
 48
1.0
  6
ByLayer
100
AcDbDimension
 10
305.4713203435596256
 20
57.8999999999997996
 30
0.0
 11
324.521320343559637
 21
60.7574999999998013
 31
0.0
 70
128
 71
8
 72
2
 74
0
 75
0
 41
1.0
 42
0.0
  1

  3
Standard
100
AcDbAlignedDimension
 13
305.4713203435596256
 23
55.0961940777124966
 33
0.0
 14
343.5713203435596483
 24
55.0961940777123758
 34
0.0
 50
0.0
100
AcDbRotatedDimension
1001
ACAD
1000
DSTYLE
1002
{
1070
279
1070
2
1070
144
1040
1.0
1070
40
1040
25.3999999999999986
1002
}
  0
DIMENSION
  5
134
100
AcDbEntity
  8
Pad Dimensions
 62
256
370
-1
 48
1.0
  6
ByLayer
100
AcDbDimension
 10
353.125
 20
74.1461940777126927
 30
0.0
 11
350.2674999999999841
 21
55.0961940777125392
 31
0.0
 70
128
 71
8
 72
2
 74
0
 75
0
 41
1.0
 42
0.0
  1

  3
Standard
100
AcDbAlignedDimension
 13
324.5463203435596142
 23
74.1461940777126216
 33
0.0
 14
324.5463203435596711
 24
36.0461940777124639
 34
0.0
 50
90.0
100
AcDbRotatedDimension
1001
ACAD
1000
DSTYLE
1002
{
1070
279
1070
2
1070
144
1040
1.0
1070
40
1040
25.3999999999999986
1002
}
  0
DIMENSION
  5
135
100
AcDbEntity
  8
Pad Dimensions
 62
256
370
-1
 48
1.0
  6
ByLayer
100
AcDbDimension
 10
258.896509742330295
 20
61.8999999999999559
 30
0.0
 11
269.6121347423302836
 21
64.7574999999999505
 31
0.0
 70
128
 71
8
 72
2
 74
0
 75
0
 41
1.0
 42
0.0
  1

  3
Standard
100
AcDbAlignedDimension
 13
258.896509742330295
 23
48.9090097423300278
 33
0.0
 14
280.3277597423302723
 24
58.434009742330403
 34
0.0
 50
0.0
100
AcDbRotatedDimension
1001
ACAD
1000
DSTYLE
1002
{
1070
279
1070
2
1070
144
1040
1.0
1070
40
1040
25.3999999999999986
1002
}
  0
DIMENSION
  5
136
100
AcDbEntity
  8
Pad Dimensions
 62
256
370
-1
 48
1.0
  6
ByLayer
100
AcDbDimension
 10
280.3277597423302723
 20
76.1538013991714848
 30
0.0
 11
267.2502597423302859
 21
79.0113013991714865
 31
0.0
 70
128
 71
8
 72
2
 74
0
 75
0
 41
1.0
 42
0.0
  1

  3
Standard
100
AcDbAlignedDimension
 13
280.3277597423302723
 23
58.434009742330403
 33
0.0
 14
254.1727597423302711
 24
67.9590097423299966
 34
0.0
 50
0.0
100
AcDbRotatedDimension
1001
ACAD
1000
DSTYLE
1002
{
1070
279
1070
2
1070
144
1040
1.0
1070
40
1040
25.3999999999999986
1002
}
  0
DIMENSION
  5
137
100
AcDbEntity
  8
Pad Dimensions
 62
256
370
-1
 48
1.0
  6
ByLayer
100
AcDbDimension
 10
252.553490257669722
 20
38.9000000000002331
 30
0.0
 11
265.650365257669705
 21
41.7575000000002348
 31
0.0
 70
128
 71
8
 72
2
 74
0
 75
0
 41
1.0
 42
0.0
  1

  3
Standard
100
AcDbAlignedDimension
 13
252.553490257669722
 23
33.0409902576697121
 33
0.0
 14
278.7472402576697164
 24
33.0409902576697547
 34
0.0
 50
0.0
100
AcDbRotatedDimension
1001
ACAD
1000
DSTYLE
1002
{
1070
279
1070
2
1070
144
1040
1.0
1070
40
1040
25.3999999999999986
1002
}
  0
DIMENSION
  5
138
100
AcDbEntity
  8
Pad Dimensions
 62
256
370
-1
 48
1.0
  6
ByLayer
100
AcDbDimension
 10
7.0999999999999908
 20
12.4000000000000323
 30
0.0
 11
4.2424999999999908
 21
21.9250000000000362
 31
0.0
 70
128
 71
8
 72
2
 74
0
 75
0
 41
1.0
 42
0.0
  1

  3
Standard
100
AcDbAlignedDimension
 13
17.5999999999999908
 23
12.4000000000000323
 33
0.0
 14
29.5062499999999943
 24
31.4500000000000384
 34
0.0
 50
90.0
100
AcDbRotatedDimension
1001
ACAD
1000
DSTYLE
1002
{
1070
279
1070
2
1070
144
1040
1.0
1070
40
1040
25.3999999999999986
1002
}
  0
DIMENSION
  5
139
100
AcDbEntity
  8
Pad Dimensions
 62
256
370
-1
 48
1.0
  6
ByLayer
100
AcDbDimension
 10
7.0999999999999908
 20
31.4500000000000348
 30
0.0
 11
4.2424999999999908
 21
40.9750000000000369
 31
0.0
 70
128
 71
8
 72
2
 74
0
 75
0
 41
1.0
 42
0.0
  1

  3
Standard
100
AcDbAlignedDimension
 13
29.5062499999999943
 23
31.4500000000000384
 33
0.0
 14
24.7437499999999986
 24
50.5000000000000355
 34
0.0
 50
90.0
100
AcDbRotatedDimension
1001
ACAD
1000
DSTYLE
1002
{
1070
279
1070
2
1070
144
1040
1.0
1070
40
1040
25.3999999999999986
1002
}
  0
DIMENSION
  5
13A
100
AcDbEntity
  8
Pad Dimensions
 62
256
370
-1
 48
1.0
  6
ByLayer
100
AcDbDimension
 10
7.0999999999999934
 20
50.5000000000000355
 30
0.0
 11
4.2424999999999944
 21
60.0250000000000341
 31
0.0
 70
128
 71
8
 72
2
 74
0
 75
0
 41
1.0
 42
0.0
  1

  3
Standard
100
AcDbAlignedDimension
 13
24.7437499999999986
 23
50.5000000000000355
 33
0.0
 14
22.3624999999999829
 24
69.5500000000000398
 34
0.0
 50
90.0
100
AcDbRotatedDimension
1001
ACAD
1000
DSTYLE
1002
{
1070
279
1070
2
1070
144
1040
1.0
1070
40
1040
25.3999999999999986
1002
}
  0
DIMENSION
  5
13B
100
AcDbEntity
  8
Outline Dimensions
 62
256
370
-1
 48
1.0
  6
ByLayer
100
AcDbDimension
 10
360.0
 20
120.0
 30
0.0
 11
357.1424999999999841
 21
60.0
 31
0.0
 70
0
 71
8
 72
2
 74
0
 75
0
 41
1.0
 42
0.0
  1

  3
Standard
100
AcDbAlignedDimension
 13
339.9999999999999432
 23
120.0
 33
0.0
 14
350.0
 24
0.0
 34
0.0
 50
90.0
100
AcDbRotatedDimension
1001
ACAD
1000
DSTYLE
1002
{
1070
144
1040
1.0
1070
40
1040
25.3999999999999986
1002
}
  0
DIMENSION
  5
13C
100
AcDbEntity
  8
Outline Dimensions
 62
256
370
-1
 48
1.0
  6
ByLayer
100
AcDbDimension
 10
370.0
 20
170.0
 30
0.0
 11
367.1424999999999841
 21
85.0
 31
0.0
 70
0
 71
8
 72
2
 74
0
 75
0
 41
1.0
 42
0.0
  1

  3
Standard
100
AcDbAlignedDimension
 13
298.5
 23
170.0
 33
0.0
 14
350.0
 24
0.0
 34
0.0
 50
90.0
100
AcDbRotatedDimension
1001
ACAD
1000
DSTYLE
1002
{
1070
144
1040
1.0
1070
40
1040
25.3999999999999986
1002
}
  0
DIMENSION
  5
13D
100
AcDbEntity
  8
Outline Dimensions
 62
256
370
-1
 48
1.0
  6
ByLayer
100
AcDbDimension
 10
231.5032443146645278
 20
134.0
 30
0.0
 11
228.6457443146645403
 21
152.0
 31
0.0
 70
0
 71
8
 72
2
 74
0
 75
0
 41
1.0
 42
0.0
  1

  3
Standard
100
AcDbAlignedDimension
 13
237.5999999999999943
 23
134.0
 33
0.0
 14
237.5999999999999943
 24
170.0
 34
0.0
 50
90.0
100
AcDbRotatedDimension
1001
ACAD
1000
DSTYLE
1002
{
1070
144
1040
1.0
1070
40
1040
25.3999999999999986
1002
}
  0
ARC
  5
13E
100
AcDbEntity
  8
Outline
 62
256
370
-1
 48
1.0
  6
ByLayer
100
AcDbCircle
 10
0.9999999999999898
 20
1.0
 30
0.0
 40
1.0
100
AcDbArc
 50
180.0
 51
270.0
  0
ARC
  5
13F
100
AcDbEntity
  8
Outline
 62
256
370
-1
 48
1.0
  6
ByLayer
100
AcDbCircle
 10
349.0
 20
0.9999999999999982
 30
0.0
 40
1.0
100
AcDbArc
 50
270.0
 51
0.0
  0
INSERT
  5
140
100
AcDbEntity
  8
Pads
 62
256
370
-1
 48
1.0
  6
ByLayer
100
AcDbBlockReference
  2
LED
 10
331.5250000000000341
 20
108.9999999999999716
 30
0.0
  0
DIMENSION
  5
141
100
AcDbEntity
  8
Pad Dimensions
 62
256
370
-1
 48
1.0
  6
ByLayer
100
AcDbDimension
 10
279.5250000000000341
 20
117.9999999999999147
 30
0.0
 11
305.5250000000000341
 21
120.8574999999999164
 31
0.0
 70
0
 71
8
 72
2
 74
0
 75
0
 41
1.0
 42
0.0
  1

  3
Standard
100
AcDbAlignedDimension
 13
279.5250000000000341
 23
113.7499999999997726
 33
0.0
 14
331.5250000000000341
 24
112.3000000000000114
 34
0.0
 50
0.0
100
AcDbRotatedDimension
1001
ACAD
1000
DSTYLE
1002
{
1070
144
1040
1.0
1070
40
1040
25.3999999999999986
1002
}
  0
LINE
  5
142
100
AcDbEntity
  8
Title
 62
256
370
-1
 48
1.0
  6
ByLayer
100
AcDbLine
 10
250.0
 20
-65.0
 30
0.0
 11
250.0
 21
-20.0
 31
0.0
  0
LINE
  5
143
100
AcDbEntity
  8
Title
 62
256
370
-1
 48
1.0
  6
ByLayer
100
AcDbLine
 10
250.0
 20
-20.0
 30
0.0
 11
385.0
 21
-20.0
 31
0.0
  0
LINE
  5
144
100
AcDbEntity
  8
Title
 62
256
370
-1
 48
1.0
  6
ByLayer
100
AcDbLine
 10
250.0
 20
-43.5
 30
0.0
 11
385.0
 21
-43.5
 31
0.0
  0
LINE
  5
145
100
AcDbEntity
  8
Title
 62
256
370
-1
 48
1.0
  6
ByLayer
100
AcDbLine
 10
250.0
 20
-51.0
 30
0.0
 11
385.0
 21
-51.0
 31
0.0
  0
LINE
  5
146
100
AcDbEntity
  8
Title
 62
256
370
-1
 48
1.0
  6
ByLayer
100
AcDbLine
 10
250.0
 20
-57.0
 30
0.0
 11
385.0
 21
-57.0
 31
0.0
  0
LINE
  5
147
100
AcDbEntity
  8
Title
 62
256
370
-1
 48
1.0
  6
ByLayer
100
AcDbLine
 10
250.0
 20
-61.0
 30
0.0
 11
385.0
 21
-61.0
 31
0.0
  0
LINE
  5
148
100
AcDbEntity
  8
Title
 62
256
370
-1
 48
1.0
  6
ByLayer
100
AcDbLine
 10
385.0
 20
-65.0
 30
0.0
 11
-15.0
 21
-65.0
 31
0.0
  0
LINE
  5
149
100
AcDbEntity
  8
Title
 62
256
370
-1
 48
1.0
  6
ByLayer
100
AcDbLine
 10
-15.0
 20
-65.0
 30
0.0
 11
-15.0
 21
212.0
 31
0.0
  0
LINE
  5
14A
100
AcDbEntity
  8
Title
 62
256
370
-1
 48
1.0
  6
ByLayer
100
AcDbLine
 10
-15.0
 20
212.0
 30
0.0
 11
385.0
 21
212.0
 31
0.0
  0
LINE
  5
14B
100
AcDbEntity
  8
Title
 62
256
370
-1
 48
1.0
  6
ByLayer
100
AcDbLine
 10
385.0
 20
212.0
 30
0.0
 11
385.0
 21
-65.0
 31
0.0
  0
MTEXT
  5
14C
100
AcDbEntity
  8
Title
 62
256
370
-1
 48
1.0
  6
ByLayer
100
AcDbMText
 10
251.0
 20
-23.00000000000027
 30
0.0
 40
2.5
 41
0.0
 71
4
 72
1
  1
HB-F1 MSX Keyboard Membrane Mechanical Drawing
  7
textstyle6
 50
0.0
 73
2
 44
1.0
  0
MTEXT
  5
14D
100
AcDbEntity
  8
Title
 62
256
370
-1
 48
1.0
  6
ByLayer
100
AcDbMText
 10
251.0
 20
-45.9999999999999929
 30
0.0
 40
2.0
 41
0.0
 71
4
 72
1
  1
Sheet: 1/1
  7
textstyle7
 50
0.0
 73
2
 44
1.0
  0
MTEXT
  5
14E
100
AcDbEntity
  8
Title
 62
256
370
-1
 48
1.0
  6
ByLayer
100
AcDbMText
 10
250.9999999999999716
 20
-49.000000000000199
 30
0.0
 40
2.0
 41
0.0
 71
4
 72
1
  1
File: Membrane Drawing.dxf
  7
textstyle3
 50
0.0
 73
2
 44
1.0
  0
MTEXT
  5
14F
100
AcDbEntity
  8
Title
 62
256
370
-1
 48
1.0
  6
ByLayer
100
AcDbMText
 10
250.9999999999999716
 20
-54.0000000000002132
 30
0.0
 40
2.5
 41
0.0
 71
4
 72
1
  1
Title: Keyboard Membrane
  7
textstyle4
 50
0.0
 73
2
 44
1.0
  0
MTEXT
  5
150
100
AcDbEntity
  8
Title
 62
256
370
-1
 48
1.0
  6
ByLayer
100
AcDbMText
 10
251.0
 20
-58.9999999999999858
 30
0.0
 40
2.0
 41
0.0
 71
4
 72
1
  1
Size: A3
  7
textstyle5
 50
0.0
 73
2
 44
1.0
  0
LINE
  5
151
100
AcDbEntity
  8
Title
 62
256
370
-1
 48
1.0
  6
ByLayer
100
AcDbLine
 10
270.0
 20
-57.0
 30
0.0
 11
270.0
 21
-61.0
 31
0.0
  0
MTEXT
  5
152
100
AcDbEntity
  8
Title
 62
256
370
-1
 48
1.0
  6
ByLayer
100
AcDbMText
 10
270.9999999999999432
 20
-59.0000000000002771
 30
0.0
 40
2.0
 41
0.0
 71
4
 72
1
  1
Date: 2025-01-03
  7
textstyle0
 50
0.0
 73
2
 44
1.0
  0
MTEXT
  5
153
100
AcDbEntity
  8
Title
 62
256
370
-1
 48
1.0
  6
ByLayer
100
AcDbMText
 10
251.0
 20
-63.0
 30
0.0
 40
2.0
 41
0.0
 71
4
 72
1
  1
QCAD 3.31.2.7
  7
textstyle1
 50
0.0
 73
2
 44
1.0
  0
MTEXT
  5
154
100
AcDbEntity
  8
Title
 62
256
370
-1
 48
1.0
  6
ByLayer
100
AcDbMText
 10
251.0
 20
-25.999999999999762
 30
0.0
 40
1.5
 41
0.0
 71
1
 72
1
  3
Copyright Alexander Knapik 2025.\PThis source describes Open Hardware and is licensed under the CERN-OHL-W v2 or later.\P\PYou may redistribute and modify this documentation and make products using it under the terms of the CERN-OHL-W v2 \P(https:/ce
  1
rn.ch/cern-ohl). This documentation is distributed WITHOUT ANY EXPRESS OR IMPLIED WARRANTY, \PINCLUDING OF MERCHANTABILITY, SATISFACTORY QUALITY AND FITNESS FOR A PARTICULAR PURPOSE. \PPlease see the CERN-OHL-W v2 for applicable conditions
  7
textstyle2
 50
0.0
 73
2
 44
1.0
  0
DIMENSION
  5
155
100
AcDbEntity
  8
Pad Dimensions
 62
256
370
-1
 48
1.0
  6
ByLayer
100
AcDbDimension
 10
17.5999999999999908
 20
117.9999999999999858
 30
0.0
 11
22.0
 21
120.8574999999999875
 31
0.0
 70
0
 71
8
 72
2
 74
0
 75
0
 41
1.0
 42
0.0
  1

  3
Standard
100
AcDbAlignedDimension
 13
17.5999999999999908
 23
88.6000000000000369
 33
0.0
 14
26.4000000000000057
 24
111.2499999999999858
 34
0.0
 50
0.0
100
AcDbRotatedDimension
1001
ACAD
1000
DSTYLE
1002
{
1070
144
1040
1.0
1070
40
1040
25.3999999999999986
1002
}
  0
DIMENSION
  5
156
100
AcDbEntity
  8
Pad Dimensions
 62
256
370
-1
 48
1.0
  6
ByLayer
100
AcDbDimension
 10
7.0
 20
69.5500000000000398
 30
0.0
 11
4.1425000000000001
 21
79.0750000000000455
 31
0.0
 70
129
 71
8
 72
2
 74
0
 75
0
 41
1.0
 42
0.0
  1

  3
Standard
100
AcDbAlignedDimension
 13
22.3624999999999901
 23
69.5500000000000398
 33
0.0
 14
22.3624999999999901
 24
88.6000000000000369
 34
0.0
1001
ACAD
1000
DSTYLE
1002
{
1070
279
1070
2
1070
144
1040
1.0
1070
40
1040
25.3999999999999986
1002
}
  0
DIMENSION
  5
157
100
AcDbEntity
  8
Pad Dimensions
 62
256
370
-1
 48
1.0
  6
ByLayer
100
AcDbDimension
 10
155.7124999999999773
 20
18.9000000000000625
 30
0.0
 11
189.0499999999999829
 21
21.7575000000000642
 31
0.0
 70
0
 71
8
 72
2
 74
0
 75
0
 41
1.0
 42
0.0
  1

  3
Standard
100
AcDbAlignedDimension
 13
155.7124999999999773
 23
12.4000000000000341
 33
0.0
 14
222.3874999999999886
 24
12.1999999999999993
 34
0.0
 50
0.0
100
AcDbRotatedDimension
1001
ACAD
1000
DSTYLE
1002
{
1070
144
1040
1.0
1070
40
1040
25.3999999999999986
1002
}
  0
DIMENSION
  5
158
100
AcDbEntity
  8
Pad Dimensions
 62
256
370
-1
 48
1.0
  6
ByLayer
100
AcDbDimension
 10
222.3874999999999886
 20
18.9000000000000625
 30
0.0
 11
234.6374999999999886
 21
21.7575000000000642
 31
0.0
 70
0
 71
8
 72
2
 74
0
 75
0
 41
1.0
 42
0.0
  1

  3
Standard
100
AcDbAlignedDimension
 13
222.3874999999999886
 23
12.1999999999999993
 33
0.0
 14
246.8874999999999886
 24
12.4000000000000341
 34
0.0
 50
0.0
100
AcDbRotatedDimension
1001
ACAD
1000
DSTYLE
1002
{
1070
144
1040
1.0
1070
40
1040
25.3999999999999986
1002
}
  0
DIMENSION
  5
159
100
AcDbEntity
  8
Pad Dimensions
 62
256
370
-1
 48
1.0
  6
ByLayer
100
AcDbDimension
 10
246.8874999999999886
 20
18.9000000000000625
 30
0.0
 11
259.6875
 21
21.7575000000000642
 31
0.0
 70
0
 71
8
 72
2
 74
0
 75
0
 41
1.0
 42
0.0
  1

  3
Standard
100
AcDbAlignedDimension
 13
246.8874999999999886
 23
12.4000000000000341
 33
0.0
 14
272.4875000000000114
 24
12.2379436219431437
 34
0.0
 50
0.0
100
AcDbRotatedDimension
1001
ACAD
1000
DSTYLE
1002
{
1070
144
1040
1.0
1070
40
1040
25.3999999999999986
1002
}
  0
DIMENSION
  5
15A
100
AcDbEntity
  8
Pad Dimensions
 62
256
370
-1
 48
1.0
  6
ByLayer
100
AcDbDimension
 10
7.0
 20
88.6000000000000369
 30
0.0
 11
4.1425000000000001
 21
98.8000000000000114
 31
0.0
 70
0
 71
8
 72
2
 74
0
 75
0
 41
1.0
 42
0.0
  1

  3
Standard
100
AcDbAlignedDimension
 13
17.5999999999999908
 23
88.6000000000000369
 33
0.0
 14
26.4000000000000021
 24
108.9999999999999716
 34
0.0
 50
90.0
100
AcDbRotatedDimension
1001
ACAD
1000
DSTYLE
1002
{
1070
144
1040
1.0
1070
40
1040
25.3999999999999986
1002
}
  0
DIMENSION
  5
15B
100
AcDbEntity
  8
Pad Dimensions
 62
256
370
-1
 48
1.0
  6
ByLayer
100
AcDbDimension
 10
305.0
 20
170.0
 30
0.0
 11
302.1424999999999841
 21
160.0
 31
0.0
 70
0
 71
8
 72
2
 74
0
 75
0
 41
1.0
 42
0.0
  1

  3
Standard
100
AcDbAlignedDimension
 13
298.5
 23
170.0
 33
0.0
 14
298.0
 24
150.0
 34
0.0
 50
90.0
100
AcDbRotatedDimension
1001
ACAD
1000
DSTYLE
1002
{
1070
144
1040
1.0
1070
40
1040
25.3999999999999986
1002
}
  0
ENDSEC
  0
SECTION
  2
OBJECTS
  0
DICTIONARY
  5
C
100
AcDbDictionary
280
0
281
1
  3
ACAD_GROUP
350
D
  3
ACAD_LAYOUT
350
1A
  3
ACAD_MLINESTYLE
350
17
  3
ACAD_PLOTSETTINGS
350
19
  3
ACAD_PLOTSTYLENAME
350
E
  3
AcDbVariableDictionary
350
15C
  3
QCAD_OBJECTS
350
15D
  0
DICTIONARY
  5
D
100
AcDbDictionary
280
0
281
1
  0
ACDBDICTIONARYWDFLT
  5
E
100
AcDbDictionary
281
1
  3
Normal
350
F
100
AcDbDictionaryWithDefault
340
F
  0
ACDBPLACEHOLDER
  5
F
  0
DICTIONARY
  5
17
100
AcDbDictionary
280
0
281
1
  3
Standard
350
18
  0
MLINESTYLE
  5
18
100
AcDbMlineStyle
  2
STANDARD
 70
0
  3

 62
256
 51
90.0
 52
90.0
 71
2
 49
0.5
 62
256
  6
BYLAYER
 49
-0.5
 62
256
  6
BYLAYER
  0
DICTIONARY
  5
19
100
AcDbDictionary
280
0
281
1
  0
DICTIONARY
  5
1A
100
AcDbDictionary
281
1
  3
Layout1
350
1E
  3
Layout2
350
26
  3
Model
350
22
  0
LAYOUT
  5
1E
100
AcDbPlotSettings
  1

  2
none_device
  4

  6

 40
0.0
 41
0.0
 42
0.0
 43
0.0
 44
0.0
 45
0.0
 46
0.0
 47
0.0
 48
0.0
 49
0.0
140
0.0
141
0.0
142
1.0
143
1.0
 70
688
 72
0
 73
0
 74
5
  7

 75
16
147
1.0
148
0.0
149
0.0
100
AcDbLayout
  1
Layout1
 70
1
 71
1
 10
0.0
 20
0.0
 11
420.0
 21
297.0
 12
0.0
 22
0.0
 32
0.0
 14
100000000000000000000.0
 24
100000000000000000000.0
 34
100000000000000000000.0
 15
-100000000000000000000.0
 25
-100000000000000000000.0
 35
-100000000000000000000.0
146
0.0
 13
0.0
 23
0.0
 33
0.0
 16
1.0
 26
0.0
 36
0.0
 17
0.0
 27
1.0
 37
0.0
 76
0
330
1B
  0
LAYOUT
  5
22
100
AcDbPlotSettings
  1

  2
none_device
  4

  6

 40
0.0
 41
0.0
 42
0.0
 43
0.0
 44
0.0
 45
0.0
 46
0.0
 47
0.0
 48
0.0
 49
0.0
140
0.0
141
0.0
142
1.0
143
1.0
 70
1712
 72
0
 73
0
 74
0
  7

 75
0
147
1.0
148
0.0
149
0.0
100
AcDbLayout
  1
Model
 70
1
 71
0
 10
0.0
 20
0.0
 11
12.0
 21
9.0
 12
0.0
 22
0.0
 32
0.0
 14
0.0
 24
0.0
 34
0.0
 15
0.0
 25
0.0
 35
0.0
146
0.0
 13
0.0
 23
0.0
 33
0.0
 16
1.0
 26
0.0
 36
0.0
 17
0.0
 27
1.0
 37
0.0
 76
0
330
1F
  0
LAYOUT
  5
26
100
AcDbPlotSettings
  1

  2
none_device
  4

  6

 40
0.0
 41
0.0
 42
0.0
 43
0.0
 44
0.0
 45
0.0
 46
0.0
 47
0.0
 48
0.0
 49
0.0
140
0.0
141
0.0
142
1.0
143
1.0
 70
688
 72
0
 73
0
 74
5
  7

 75
16
147
1.0
148
0.0
149
0.0
100
AcDbLayout
  1
Layout2
 70
1
 71
2
 10
0.0
 20
0.0
 11
12.0
 21
9.0
 12
0.0
 22
0.0
 32
0.0
 14
0.0
 24
0.0
 34
0.0
 15
0.0
 25
0.0
 35
0.0
146
0.0
 13
0.0
 23
0.0
 33
0.0
 16
1.0
 26
0.0
 36
0.0
 17
0.0
 27
1.0
 37
0.0
 76
0
330
23
  0
DICTIONARY
  5
15C
100
AcDbDictionary
281
1
  3
DIMASSOC
350
15F
  3
HIDETEXT
350
15E
  0
DICTIONARYVAR
  5
15E
100
DictionaryVariables
280
0
  1
2
  0
DICTIONARYVAR
  5
15F
100
DictionaryVariables
280
0
  1
1
  0
DICTIONARY
  5
15D
100
AcDbDictionary
281
1
  3
ColorSettings/BackgroundColor
350
160
  3
ColorSettings/ColorMode
350
161
  3
DimensionSettings/AngularFormat
350
162
  3
DimensionSettings/AngularPrecision
350
163
  3
DimensionSettings/DecimalPoint
350
164
  3
DimensionSettings/DimensionFont
350
165
  3
DimensionSettings/DimensionTextColor
350
166
  3
DimensionSettings/KeepProportions
350
167
  3
DimensionSettings/LinearFormat
350
168
  3
DimensionSettings/LinearPrecision
350
169
  3
Grid/DisplayGrid00
350
16A
  3
Grid/DisplayGrid01
350
16B
  3
Grid/DisplayGrid02
350
16C
  3
Grid/DisplayGrid03
350
16D
  3
Grid/GridSpacingX00
350
16E
  3
Grid/GridSpacingX01
350
16F
  3
Grid/GridSpacingX02
350
170
  3
Grid/GridSpacingX03
350
171
  3
Grid/GridSpacingY00
350
172
  3
Grid/GridSpacingY01
350
173
  3
Grid/GridSpacingY02
350
174
  3
Grid/GridSpacingY03
350
175
  3
Grid/IsometricGrid00
350
176
  3
Grid/IsometricGrid01
350
177
  3
Grid/IsometricGrid02
350
178
  3
Grid/IsometricGrid03
350
179
  3
Grid/IsometricProjection00
350
17A
  3
Grid/IsometricProjection01
350
17B
  3
Grid/IsometricProjection02
350
17C
  3
Grid/IsometricProjection03
350
17D
  3
Grid/MetaGridSpacingX00
350
17E
  3
Grid/MetaGridSpacingX01
350
17F
  3
Grid/MetaGridSpacingX02
350
180
  3
Grid/MetaGridSpacingX03
350
181
  3
Grid/MetaGridSpacingY00
350
182
  3
Grid/MetaGridSpacingY01
350
183
  3
Grid/MetaGridSpacingY02
350
184
  3
Grid/MetaGridSpacingY03
350
185
  3
MultiPageSettings/Columns
350
186
  3
MultiPageSettings/GlueMarginsBottom
350
187
  3
MultiPageSettings/GlueMarginsLeft
350
188
  3
MultiPageSettings/GlueMarginsRight
350
189
  3
MultiPageSettings/GlueMarginsTop
350
18A
  3
MultiPageSettings/PrintCropMarks
350
18B
  3
MultiPageSettings/Rows
350
18C
  3
PageSettings/OffsetX
350
18D
  3
PageSettings/OffsetY
350
18E
  3
PageSettings/PageOrientation
350
18F
  3
PageSettings/PaperHeight
350
190
  3
PageSettings/PaperSizeName
350
191
  3
PageSettings/PaperWidth
350
192
  3
PageSettings/PointSize
350
193
  3
PageSettings/Scale
350
194
  3
PageSettings/ShowPaperBorders
350
195
  3
PageTagSettings/EnablePageTags
350
196
  3
PageTagSettings/TagAlignment
350
197
  3
PageTagSettings/TagFont
350
198
  3
PageTagSettings/TagPosition
350
199
  3
QCADVersion
350
19A
  3
UnitSettings/PaperUnit
350
19B
  3
ViewportCenter
350
19C
  3
ViewportHeight
350
19D
  3
ViewportWidth
350
19E
  0
XRECORD
  5
160
330
15D
100
AcDbXrecord
280
1
1000
White
  0
XRECORD
  5
161
330
15D
100
AcDbXrecord
280
1
1000
FullColor
  0
XRECORD
  5
162
330
15D
100
AcDbXrecord
280
1
 90
0
  0
XRECORD
  5
163
330
15D
100
AcDbXrecord
280
1
 90
0
  0
XRECORD
  5
164
330
15D
100
AcDbXrecord
280
1
 90
46
  0
XRECORD
  5
165
330
15D
100
AcDbXrecord
280
1
1000
Noto Sans
  0
XRECORD
  5
166
330
15D
100
AcDbXrecord
280
1
1000
By Layer
  0
XRECORD
  5
167
330
15D
100
AcDbXrecord
280
1
290
1
  0
XRECORD
  5
168
330
15D
100
AcDbXrecord
280
1
 90
2
  0
XRECORD
  5
169
330
15D
100
AcDbXrecord
280
1
 90
3
  0
XRECORD
  5
16A
330
15D
100
AcDbXrecord
280
1
290
1
  0
XRECORD
  5
16B
330
15D
100
AcDbXrecord
280
1
290
1
  0
XRECORD
  5
16C
330
15D
100
AcDbXrecord
280
1
290
1
  0
XRECORD
  5
16D
330
15D
100
AcDbXrecord
280
1
290
1
  0
XRECORD
  5
16E
330
15D
100
AcDbXrecord
280
1
1000
auto
  0
XRECORD
  5
16F
330
15D
100
AcDbXrecord
280
1
1000
auto
  0
XRECORD
  5
170
330
15D
100
AcDbXrecord
280
1
1000
auto
  0
XRECORD
  5
171
330
15D
100
AcDbXrecord
280
1
1000
auto
  0
XRECORD
  5
172
330
15D
100
AcDbXrecord
280
1
1000
auto
  0
XRECORD
  5
173
330
15D
100
AcDbXrecord
280
1
1000
auto
  0
XRECORD
  5
174
330
15D
100
AcDbXrecord
280
1
1000
auto
  0
XRECORD
  5
175
330
15D
100
AcDbXrecord
280
1
1000
auto
  0
XRECORD
  5
176
330
15D
100
AcDbXrecord
280
1
290
0
  0
XRECORD
  5
177
330
15D
100
AcDbXrecord
280
1
290
0
  0
XRECORD
  5
178
330
15D
100
AcDbXrecord
280
1
290
0
  0
XRECORD
  5
179
330
15D
100
AcDbXrecord
280
1
290
0
  0
XRECORD
  5
17A
330
15D
100
AcDbXrecord
280
1
 90
65537
  0
XRECORD
  5
17B
330
15D
100
AcDbXrecord
280
1
 90
65537
  0
XRECORD
  5
17C
330
15D
100
AcDbXrecord
280
1
 90
65537
  0
XRECORD
  5
17D
330
15D
100
AcDbXrecord
280
1
 90
65537
  0
XRECORD
  5
17E
330
15D
100
AcDbXrecord
280
1
1000
auto
  0
XRECORD
  5
17F
330
15D
100
AcDbXrecord
280
1
1000
auto
  0
XRECORD
  5
180
330
15D
100
AcDbXrecord
280
1
1000
auto
  0
XRECORD
  5
181
330
15D
100
AcDbXrecord
280
1
1000
auto
  0
XRECORD
  5
182
330
15D
100
AcDbXrecord
280
1
1000
auto
  0
XRECORD
  5
183
330
15D
100
AcDbXrecord
280
1
1000
auto
  0
XRECORD
  5
184
330
15D
100
AcDbXrecord
280
1
1000
auto
  0
XRECORD
  5
185
330
15D
100
AcDbXrecord
280
1
1000
auto
  0
XRECORD
  5
186
330
15D
100
AcDbXrecord
280
1
 90
1
  0
XRECORD
  5
187
330
15D
100
AcDbXrecord
280
1
 40
10.0
  0
XRECORD
  5
188
330
15D
100
AcDbXrecord
280
1
 40
10.0
  0
XRECORD
  5
189
330
15D
100
AcDbXrecord
280
1
 40
10.0
  0
XRECORD
  5
18A
330
15D
100
AcDbXrecord
280
1
 40
10.0
  0
XRECORD
  5
18B
330
15D
100
AcDbXrecord
280
1
290
0
  0
XRECORD
  5
18C
330
15D
100
AcDbXrecord
280
1
 90
1
  0
XRECORD
  5
18D
330
15D
100
AcDbXrecord
280
1
1000
-25
  0
XRECORD
  5
18E
330
15D
100
AcDbXrecord
280
1
1000
-75
  0
XRECORD
  5
18F
330
15D
100
AcDbXrecord
280
1
1000
Landscape
  0
XRECORD
  5
190
330
15D
100
AcDbXrecord
280
1
1000
420
  0
XRECORD
  5
191
330
15D
100
AcDbXrecord
280
1
1000
ISO A3
  0
XRECORD
  5
192
330
15D
100
AcDbXrecord
280
1
1000
297
  0
XRECORD
  5
193
330
15D
100
AcDbXrecord
280
1
1000
0.5
  0
XRECORD
  5
194
330
15D
100
AcDbXrecord
280
1
1000
1:1
  0
XRECORD
  5
195
330
15D
100
AcDbXrecord
280
1
290
1
  0
XRECORD
  5
196
330
15D
100
AcDbXrecord
280
1
290
0
  0
XRECORD
  5
197
330
15D
100
AcDbXrecord
280
1
1000
Inside
  0
XRECORD
  5
198
330
15D
100
AcDbXrecord
280
1
1000
Arial,10,-1,5,50,0,0,0,0,0
  0
XRECORD
  5
199
330
15D
100
AcDbXrecord
280
1
1000
TopLeft
  0
XRECORD
  5
19A
330
15D
100
AcDbXrecord
280
1
1000
3.31.2.7
  0
XRECORD
  5
19B
330
15D
100
AcDbXrecord
280
1
 90
4
  0
XRECORD
  5
19D
330
15D
100
AcDbXrecord
280
1
 40
201.1918590127896778
  0
XRECORD
  5
19E
330
15D
100
AcDbXrecord
280
1
 40
147.5176109112709355
  0
IMAGEDEF
  5
A5
100
AcDbRasterImageDef
 90
0
  1
../doc/Sony HB-F1 Membrane Front Crop.jpg
 10
349.0
 20
156.0
 11
1.0
 21
1.0
280
1
281
0
  0
IMAGEDEF
  5
A7
100
AcDbRasterImageDef
 90
0
  1
/home/alex/Workspace/MSX Keyboard/doc/Sony HB-F1 Membrane Crop.jpg
 10
0.0
 20
0.0
 11
1.0
 21
1.0
280
1
281
0
  0
ENDSEC
  0
EOF
