<?xml version="1.0"?>
<svg xmlns="http://www.w3.org/2000/svg" xmlns:lc="https://librecad.org" xmlns:xlink="http://www.w3.org/1999/xlink" width="350mm" height="170mm" viewBox="0 0 350 170">
    <g lc:layername="Outline" lc:is_locked="false" lc:is_construction="false" fill="none" stroke="black" stroke-width="0.13">
        <line x1="0" y1="169" x2="0" y2="57"/>
        <line x1="74.25" y1="50" x2="122.75" y2="50"/>
        <line x1="131.25" y1="50" x2="170.75" y2="50"/>
        <line x1="179.25" y1="50" x2="227.5" y2="50"/>
        <line x1="8.5" y1="50" x2="65.75" y2="50"/>
        <line x1="235" y1="51" x2="235" y2="0"/>
        <line x1="1" y1="170" x2="349" y2="170"/>
        <line x1="350" y1="169" x2="350" y2="57.5"/>
        <line x1="340" y1="50" x2="319.75" y2="50"/>
        <line x1="298.5" y1="19.73636004" x2="298.5" y2="0"/>
        <line x1="298.5" y1="0" x2="235" y2="0"/>
        <line x1="298.62997781" y1="20.22937261" x2="315.62002219" y2="49.77062739"/>
        <g lc:blockname="Large Hole">
            <g lc:layername="Outline" lc:is_locked="false" lc:is_construction="false" fill="none" stroke="black" stroke-width="0.13">
                <circle cx="4.5" cy="157.8" r="3.25"/>
            </g>
        </g>
        <g lc:blockname="Small Hole">
            <g lc:layername="Outline" lc:is_locked="false" lc:is_construction="false" fill="none" stroke="black" stroke-width="0.13">
                <circle cx="175" cy="72.25" r="1.5"/>
            </g>
        </g>
        <g lc:blockname="Small Hole">
            <g lc:layername="Outline" lc:is_locked="false" lc:is_construction="false" fill="none" stroke="black" stroke-width="0.13">
                <circle cx="313.5" cy="69.5" r="1.5"/>
            </g>
        </g>
        <g lc:blockname="Small Hole">
            <g lc:layername="Outline" lc:is_locked="false" lc:is_construction="false" fill="none" stroke="black" stroke-width="0.13">
                <circle cx="9.5" cy="148.8" r="1.5"/>
            </g>
        </g>
        <g lc:blockname="Oval Hole">
            <g lc:layername="Outline" lc:is_locked="false" lc:is_construction="false" fill="none" stroke="black" stroke-width="0.13">
                <path d="M18.4,161.05 A3.25,3.25 0 1,0 18.4,154.55 "/>
                <path d="M16.6,154.55 A3.25,3.25 0 0,0 16.6,161.05 "/>
                <line x1="16.6" y1="154.55" x2="18.4" y2="154.55"/>
                <line x1="18.4" y1="161.05" x2="16.6" y2="161.05"/>
            </g>
        </g>
        <g lc:blockname="Large Hole">
            <g lc:layername="Outline" lc:is_locked="false" lc:is_construction="false" fill="none" stroke="black" stroke-width="0.13">
                <circle cx="46" cy="158" r="3.25"/>
            </g>
        </g>
        <g lc:blockname="Large Hole">
            <g lc:layername="Outline" lc:is_locked="false" lc:is_construction="false" fill="none" stroke="black" stroke-width="0.13">
                <circle cx="98.5" cy="158" r="3.25"/>
            </g>
        </g>
        <g lc:blockname="Large Hole">
            <g lc:layername="Outline" lc:is_locked="false" lc:is_construction="false" fill="none" stroke="black" stroke-width="0.13">
                <circle cx="170" cy="158" r="3.25"/>
            </g>
        </g>
        <g lc:blockname="Large Hole">
            <g lc:layername="Outline" lc:is_locked="false" lc:is_construction="false" fill="none" stroke="black" stroke-width="0.13">
                <circle cx="232" cy="158" r="3.25"/>
            </g>
        </g>
        <g lc:blockname="Large Hole">
            <g lc:layername="Outline" lc:is_locked="false" lc:is_construction="false" fill="none" stroke="black" stroke-width="0.13">
                <circle cx="293" cy="158" r="3.25"/>
            </g>
        </g>
        <g lc:blockname="Large Hole">
            <g lc:layername="Outline" lc:is_locked="false" lc:is_construction="false" fill="none" stroke="black" stroke-width="0.13">
                <circle cx="344.5" cy="158" r="3.25"/>
            </g>
        </g>
        <g lc:blockname="Rectangular Hole">
            <g lc:layername="Outline" lc:is_locked="false" lc:is_construction="false" fill="none" stroke="black" stroke-width="0.13">
                <line x1="109" y1="154" x2="115" y2="154"/>
                <line x1="115" y1="154" x2="115" y2="164"/>
                <line x1="115" y1="164" x2="109" y2="164"/>
                <line x1="109" y1="164" x2="109" y2="154"/>
            </g>
        </g>
        <g lc:blockname="Rectangular Hole">
            <g lc:layername="Outline" lc:is_locked="false" lc:is_construction="false" fill="none" stroke="black" stroke-width="0.13">
                <line x1="196" y1="154" x2="202" y2="154"/>
                <line x1="202" y1="154" x2="202" y2="164"/>
                <line x1="202" y1="164" x2="196" y2="164"/>
                <line x1="196" y1="164" x2="196" y2="154"/>
            </g>
        </g>
        <g lc:blockname="Oval Hole">
            <g lc:layername="Outline" lc:is_locked="false" lc:is_construction="false" fill="none" stroke="black" stroke-width="0.13">
                <path d="M312.4,161.25 A3.25,3.25 0 1,0 312.4,154.75 "/>
                <path d="M310.6,154.75 A3.25,3.25 0 0,0 310.6,161.25 "/>
                <line x1="310.6" y1="154.75" x2="312.4" y2="154.75"/>
                <line x1="312.4" y1="161.25" x2="310.6" y2="161.25"/>
            </g>
        </g>
        <g lc:blockname="Large Hole">
            <g lc:layername="Outline" lc:is_locked="false" lc:is_construction="false" fill="none" stroke="black" stroke-width="0.13">
                <circle cx="4.5" cy="112.5" r="3.25"/>
            </g>
        </g>
        <g lc:blockname="Large Hole">
            <g lc:layername="Outline" lc:is_locked="false" lc:is_construction="false" fill="none" stroke="black" stroke-width="0.13">
                <circle cx="77" cy="112.5" r="3.25"/>
            </g>
        </g>
        <g lc:blockname="Large Hole">
            <g lc:layername="Outline" lc:is_locked="false" lc:is_construction="false" fill="none" stroke="black" stroke-width="0.13">
                <circle cx="134" cy="112.5" r="3.25"/>
            </g>
        </g>
        <g lc:blockname="Large Hole">
            <g lc:layername="Outline" lc:is_locked="false" lc:is_construction="false" fill="none" stroke="black" stroke-width="0.13">
                <circle cx="191" cy="112.5" r="3.25"/>
            </g>
        </g>
        <g lc:blockname="Large Hole">
            <g lc:layername="Outline" lc:is_locked="false" lc:is_construction="false" fill="none" stroke="black" stroke-width="0.13">
                <circle cx="251" cy="120" r="3.25"/>
            </g>
        </g>
        <g lc:blockname="Large Hole">
            <g lc:layername="Outline" lc:is_locked="false" lc:is_construction="false" fill="none" stroke="black" stroke-width="0.13">
                <circle cx="334.5" cy="112.5" r="3.25"/>
            </g>
        </g>
        <g lc:blockname="Large Hole">
            <g lc:layername="Outline" lc:is_locked="false" lc:is_construction="false" fill="none" stroke="black" stroke-width="0.13">
                <circle cx="301.5" cy="98.5" r="3.25"/>
            </g>
        </g>
        <g lc:blockname="Large Hole">
            <g lc:layername="Outline" lc:is_locked="false" lc:is_construction="false" fill="none" stroke="black" stroke-width="0.13">
                <circle cx="164.5" cy="61" r="3.25"/>
            </g>
        </g>
        <g lc:blockname="Large Hole">
            <g lc:layername="Outline" lc:is_locked="false" lc:is_construction="false" fill="none" stroke="black" stroke-width="0.13">
                <circle cx="293" cy="53" r="3.25"/>
            </g>
        </g>
        <g lc:blockname="Large Cutout">
            <g lc:layername="Outline" lc:is_locked="false" lc:is_construction="false" fill="none" stroke="black" stroke-width="0.13">
                <line x1="130.25" y1="53" x2="130.25" y2="51"/>
                <line x1="123.75" y1="53" x2="123.75" y2="51"/>
                <path d="M123.75,53 A3.25,3.25 0 0,0 130.25,53 "/>
            </g>
        </g>
        <g lc:blockname="Large Cutout">
            <g lc:layername="Outline" lc:is_locked="false" lc:is_construction="false" fill="none" stroke="black" stroke-width="0.13">
                <line x1="73.25" y1="53" x2="73.25" y2="51"/>
                <line x1="66.75" y1="53" x2="66.75" y2="51"/>
                <path d="M66.75,53 A3.25,3.25 0 0,0 73.25,53 "/>
            </g>
        </g>
        <g lc:blockname="Large Cutout">
            <g lc:layername="Outline" lc:is_locked="false" lc:is_construction="false" fill="none" stroke="black" stroke-width="0.13">
                <line x1="178.25" y1="53" x2="178.25" y2="51"/>
                <line x1="171.75" y1="53" x2="171.75" y2="51"/>
                <path d="M171.75,53 A3.25,3.25 0 0,0 178.25,53 "/>
            </g>
        </g>
        <g lc:blockname="Large Cutout">
            <g lc:layername="Outline" lc:is_locked="false" lc:is_construction="false" fill="none" stroke="black" stroke-width="0.13">
                <line x1="235" y1="53" x2="235" y2="51"/>
                <line x1="228.5" y1="53" x2="228.5" y2="51"/>
                <path d="M228.5,53 A3.25,3.25 0 0,0 235,53 "/>
            </g>
        </g>
        <line x1="1" y1="56" x2="4.5" y2="56"/>
        <line x1="7.5" y1="53" x2="7.5" y2="51"/>
        <line x1="341" y1="51" x2="341" y2="53.5"/>
        <line x1="344" y1="56.5" x2="349" y2="56.5"/>
        <path d="M4.5,56 A3,3 0 0,0 7.5,53 "/>
        <path d="M341,53.5 A3,3 0 0,0 344,56.5 "/>
        <path d="M8.5,50 A1,1 0 0,0 7.5,51 "/>
        <path d="M66.75,51 A1,1 0 0,0 65.75,50 "/>
        <path d="M74.25,50 A1,1 0 0,0 73.25,51 "/>
        <path d="M123.75,51 A1,1 0 0,0 122.75,50 "/>
        <path d="M131.25,50 A1,1 0 0,0 130.25,51 "/>
        <path d="M171.75,51 A1,1 0 0,0 170.75,50 "/>
        <path d="M179.25,50 A1,1 0 0,0 178.25,51 "/>
        <path d="M228.5,51 A1,1 0 0,0 227.5,50 "/>
        <path d="M298.5,19.73636004 A1,1 0 0,0 298.62997781,20.22937261 "/>
        <path d="M341,51 A1,1 0 0,0 340,50 "/>
        <path d="M350,57.5 A1,1 0 0,0 349,56.5 "/>
        <path d="M315.75,52.5 A1.5,1.5 0 0,0 318.75,52.5 "/>
        <line x1="315.75" y1="52.5" x2="315.75" y2="50.26363996"/>
        <line x1="318.75" y1="52.5" x2="318.75" y2="51"/>
        <path d="M315.75,50.26363996 A1,1 0 0,0 315.62002219,49.77062739 "/>
        <path d="M319.75,50 A1,1 0 0,0 318.75,51 "/>
        <path d="M1,56 A1,1 0 0,0 0,57 "/>
        <path d="M0,169 A1,1 0 0,0 1,170 "/>
        <path d="M349,170 A1,1 0 0,0 350,169 "/>
    </g>
</svg>
