M48
; DRILL file {KiCad 8.0.7} date 2025-01-07T23:49:36+1030
; FORMAT={-:-/ absolute / metric / decimal}
; #@! TF.CreationDate,2025-01-07T23:49:36+10:30
; #@! TF.GenerationSoftware,Kicad,Pcbnew,8.0.7
; #@! TF.FileFunction,Plated,1,2,PTH
FMAT,2
METRIC
; #@! TA.AperFunction,Plated,PTH,ViaDrill
T1C0.500
%
G90
G05
T1
X59.5Y74.5
X59.5Y57.0
X59.5Y37.5
X64.987Y45.5
X65.0Y28.0
X65.0Y4.0
X90.5Y92.0
X90.5Y63.0
X90.544Y44.044
X95.0Y70.0
X95.0Y50.0
X95.0Y36.0
X100.0Y115.0
X100.0Y88.5
X100.0Y44.5
X100.0Y24.5
X103.0Y79.0
X103.0Y50.5
X103.0Y26.5
X103.0Y2.5
X110.0Y90.5
X110.0Y65.0
X120.0Y59.0
X120.0Y46.5
X135.5Y117.0
X135.5Y84.0
X135.5Y65.0
X142.5Y116.5
X142.5Y84.0
X142.5Y44.5
X142.5Y27.0
X165.0Y80.0
X165.0Y65.0
X165.0Y27.0
X165.0Y18.5
X168.0Y100.0
X168.0Y70.0
X180.0Y105.5
X180.0Y82.5
X180.5Y55.5
X180.5Y31.5
X187.5Y97.5
X187.5Y70.0
X190.0Y112.5
X190.0Y4.0
X196.0Y107.0
X196.0Y85.0
X196.0Y50.0
X209.5Y74.5
X209.5Y51.0
X215.0Y100.0
X215.0Y90.0
X220.005Y105.5
X220.005Y81.995
X242.62Y123.0
X242.62Y77.0
X245.16Y123.0
X245.16Y93.5
X245.16Y75.5
X245.16Y49.16
X246.5Y105.5
X246.5Y83.5
X252.78Y114.28
X252.78Y95.5
X257.5Y64.5
X257.5Y7.5
X257.86Y123.0
X257.86Y78.5
X260.0Y62.5
X260.0Y26.5
X260.0Y10.0
X267.5Y105.5
X267.5Y56.5
X267.5Y36.5
X288.5Y83.0
X288.5Y60.0
X288.5Y25.0
M30
