%TF.GenerationSoftware,KiCad,Pcbnew,8.0.7*%
%TF.CreationDate,2025-01-07T22:54:27+10:30*%
%TF.ProjectId,pcb,7063622e-6b69-4636-9164-5f7063625858,0.1*%
%TF.SameCoordinates,PX1ffc7a0PYcb21f40*%
%TF.FileFunction,Copper,L2,Bot*%
%TF.FilePolarity,Positive*%
%FSLAX46Y46*%
G04 Gerber Fmt 4.6, Leading zero omitted, Abs format (unit mm)*
G04 Created by KiCad (PCBNEW 8.0.7) date 2025-01-07 22:54:27*
%MOMM*%
%LPD*%
G01*
G04 APERTURE LIST*
%TA.AperFunction,ViaPad*%
%ADD10C,1.000000*%
%TD*%
%TA.AperFunction,Conductor*%
%ADD11C,0.500000*%
%TD*%
G04 APERTURE END LIST*
D10*
%TO.N,/6*%
X190000000Y112500000D03*
X190000000Y4000000D03*
%TO.N,/16*%
X95000000Y50000000D03*
X95000000Y36000000D03*
X187500000Y97500000D03*
X187500000Y70000000D03*
X95000000Y70000000D03*
%TO.N,/3*%
X180500000Y55500000D03*
X180500000Y31500000D03*
X242620000Y77000000D03*
X209500000Y51000000D03*
X209500000Y74500000D03*
X242620000Y123000000D03*
%TO.N,/14*%
X215000000Y100000000D03*
X215000000Y90000000D03*
%TO.N,/17*%
X267500000Y105500000D03*
X267500000Y56500000D03*
X267500000Y36500000D03*
%TO.N,/7*%
X252780000Y114280000D03*
X288500000Y86500000D03*
X288500000Y60000000D03*
X288500000Y25000000D03*
X288500000Y112500000D03*
%TO.N,/11*%
X165000000Y27000000D03*
X165000000Y80000000D03*
X220005000Y105500000D03*
X220005000Y81995000D03*
X165000000Y65000000D03*
X165000000Y18500000D03*
%TO.N,/1*%
X257500000Y7500000D03*
X135500000Y117000000D03*
X135500000Y84000000D03*
X257500000Y64000000D03*
X135500000Y65543125D03*
%TO.N,/2*%
X110000000Y65000000D03*
X110000000Y90500000D03*
X142500000Y44500000D03*
X142500000Y116500000D03*
X142500000Y84000000D03*
X142500000Y26500000D03*
%TO.N,/12*%
X196000000Y85000000D03*
X65000000Y4000000D03*
X64987500Y45500000D03*
X196000000Y50000000D03*
X196000000Y107000000D03*
X65000000Y28000000D03*
%TO.N,/5*%
X100000000Y115000000D03*
X100000000Y88500000D03*
X100000000Y44500000D03*
X100000000Y24500000D03*
%TO.N,/10*%
X103000000Y2500000D03*
X246500000Y83500000D03*
X103000000Y79000000D03*
X103000000Y50500000D03*
X246500000Y105500000D03*
X103000000Y26500000D03*
%TO.N,/13*%
X90500000Y92000000D03*
X180000000Y105500000D03*
X90543876Y44043876D03*
X90500000Y63000000D03*
X180000000Y82500000D03*
%TO.N,/4*%
X245160000Y49160000D03*
X245160000Y75500000D03*
X245160000Y93000000D03*
X245160000Y123000000D03*
%TO.N,/15*%
X59500000Y37500000D03*
X59500000Y74500000D03*
X59500000Y57000000D03*
X168000000Y70000000D03*
X168000000Y100000000D03*
%TO.N,/9*%
X120000000Y46500000D03*
X260000000Y62500000D03*
X257860000Y123000000D03*
X120000000Y59000000D03*
X257860000Y78500000D03*
X260000000Y26500000D03*
X260000000Y10000000D03*
%TO.N,/7*%
X252780000Y95500000D03*
%TD*%
D11*
%TO.N,/7*%
X252780000Y114280000D02*
X252780000Y95500000D01*
%TO.N,/6*%
X190000000Y112500000D02*
X190000000Y64500000D01*
X186000000Y55000000D02*
X190000000Y51000000D01*
X190000000Y64500000D02*
X186000000Y60500000D01*
X190000000Y51000000D02*
X190000000Y4000000D01*
X186000000Y60500000D02*
X186000000Y55000000D01*
%TO.N,/16*%
X95000000Y36000000D02*
X95000000Y50000000D01*
X187500000Y97500000D02*
X187500000Y70000000D01*
X95000000Y50000000D02*
X95000000Y70000000D01*
%TO.N,/3*%
X209500000Y51000000D02*
X209500000Y74500000D01*
X180500000Y31500000D02*
X180500000Y55500000D01*
X242620000Y77120000D02*
X242500000Y77000000D01*
X242620000Y123000000D02*
X242620000Y77120000D01*
%TO.N,/14*%
X215000000Y90000000D02*
X215000000Y100000000D01*
%TO.N,/17*%
X267500000Y50000000D02*
X267500000Y56500000D01*
X267500000Y56500000D02*
X267500000Y105500000D01*
X267500000Y50000000D02*
X267500000Y36500000D01*
%TO.N,/7*%
X288500000Y86500000D02*
X288500000Y60000000D01*
X288500000Y112500000D02*
X288500000Y86500000D01*
X288500000Y60000000D02*
X288500000Y25000000D01*
%TO.N,/11*%
X165000000Y27000000D02*
X165000000Y64500000D01*
X165000000Y64500000D02*
X165000000Y65000000D01*
X220005000Y105500000D02*
X220005000Y81995000D01*
X165000000Y18500000D02*
X165000000Y27000000D01*
X165000000Y64500000D02*
X165000000Y80000000D01*
%TO.N,/1*%
X257500000Y64000000D02*
X257500000Y7500000D01*
X135500000Y65543125D02*
X135500000Y84000000D01*
X135500000Y117000000D02*
X135500000Y84000000D01*
%TO.N,/2*%
X142500000Y84500000D02*
X142500000Y26500000D01*
X142500000Y84500000D02*
X142500000Y84000000D01*
X142500000Y116500000D02*
X142500000Y84500000D01*
X110000000Y90500000D02*
X110000000Y65000000D01*
%TO.N,/12*%
X64987500Y28012500D02*
X65000000Y28000000D01*
X64987500Y45500000D02*
X64987500Y28012500D01*
X65000000Y28000000D02*
X65000000Y4000000D01*
X196000000Y85000000D02*
X196000000Y107000000D01*
X196000000Y50000000D02*
X196000000Y85000000D01*
%TO.N,/5*%
X100000000Y88500000D02*
X100000000Y115000000D01*
X100000000Y44500000D02*
X100000000Y24500000D01*
X100000000Y88500000D02*
X100000000Y44500000D01*
%TO.N,/10*%
X103000000Y26500000D02*
X103000000Y2500000D01*
X246500000Y83500000D02*
X246500000Y105500000D01*
X103000000Y50500000D02*
X103000000Y26500000D01*
X103000000Y50500000D02*
X103000000Y79000000D01*
%TO.N,/13*%
X90543876Y62956124D02*
X90500000Y63000000D01*
X180000000Y105500000D02*
X180000000Y82500000D01*
X90543876Y44043876D02*
X90543876Y62956124D01*
X90500000Y63000000D02*
X90500000Y92000000D01*
%TO.N,/4*%
X245160000Y123000000D02*
X245160000Y93000000D01*
X245160000Y49160000D02*
X245160000Y75500000D01*
X245160000Y93000000D02*
X245160000Y75840000D01*
%TO.N,/15*%
X59500000Y57000000D02*
X59500000Y74500000D01*
X168000000Y70000000D02*
X168000000Y100000000D01*
X59500000Y37500000D02*
X59500000Y57000000D01*
%TO.N,/9*%
X257860000Y67640000D02*
X260000000Y65500000D01*
X120000000Y46500000D02*
X120000000Y59000000D01*
X260000000Y62500000D02*
X260000000Y26500000D01*
X260000000Y26500000D02*
X260000000Y10000000D01*
X257860000Y123000000D02*
X257860000Y78640000D01*
X257860000Y78500000D02*
X257860000Y67640000D01*
X257860000Y78640000D02*
X258000000Y78500000D01*
X260000000Y65500000D02*
X260000000Y62500000D01*
%TD*%
M02*
