%TF.GenerationSoftware,KiCad,Pcbnew,8.0.7*%
%TF.CreationDate,2025-01-11T19:00:37+10:30*%
%TF.ProjectId,pcb,7063622e-6b69-4636-9164-5f7063625858,0.1*%
%TF.SameCoordinates,PX1ffc7a0PYe2f9780*%
%TF.FileFunction,Copper,L2,Bot*%
%TF.FilePolarity,Positive*%
%FSLAX46Y46*%
G04 Gerber Fmt 4.6, Leading zero omitted, Abs format (unit mm)*
G04 Created by KiCad (PCBNEW 8.0.7) date 2025-01-11 19:00:37*
%MOMM*%
%LPD*%
G01*
G04 APERTURE LIST*
%TA.AperFunction,NonConductor*%
%ADD10C,0.200000*%
%TD*%
%ADD11C,0.500000*%
%TA.AperFunction,NonConductor*%
%ADD12C,0.500000*%
%TD*%
%TA.AperFunction,SMDPad,CuDef*%
%ADD13C,1.000000*%
%TD*%
%TA.AperFunction,ViaPad*%
%ADD14C,1.000000*%
%TD*%
%TA.AperFunction,Conductor*%
%ADD15C,0.500000*%
%TD*%
G04 APERTURE END LIST*
D10*
X8500000Y1000000D02*
X8500000Y4500000D01*
X12000000Y1000000D02*
X8500000Y1000000D01*
X12000000Y1000000D02*
X12000000Y4500000D01*
X12000000Y4500000D02*
X8500000Y4500000D01*
D11*
D12*
X10821428Y3660286D02*
X10726190Y3755524D01*
X10726190Y3755524D02*
X10535714Y3850762D01*
X10535714Y3850762D02*
X10059523Y3850762D01*
X10059523Y3850762D02*
X9869047Y3755524D01*
X9869047Y3755524D02*
X9773809Y3660286D01*
X9773809Y3660286D02*
X9678571Y3469810D01*
X9678571Y3469810D02*
X9678571Y3279334D01*
X9678571Y3279334D02*
X9773809Y2993620D01*
X9773809Y2993620D02*
X10916666Y1850762D01*
X10916666Y1850762D02*
X9678571Y1850762D01*
D13*
%TO.P,FID4,*%
%TO.N,*%
X348000000Y2000000D03*
%TD*%
%TO.P,FID1,*%
%TO.N,*%
X2000000Y112000000D03*
%TD*%
D14*
%TO.N,/6*%
X190000000Y18500000D03*
X190000000Y112500000D03*
%TO.N,/16*%
X187500000Y69500000D03*
X187500000Y97500000D03*
X97000000Y64000000D03*
X97000000Y36000000D03*
X97000000Y50500000D03*
%TO.N,/3*%
X180500000Y55500000D03*
X180500000Y31500000D03*
X242620000Y77500000D03*
X209500000Y51000000D03*
X209500000Y74500000D03*
X242620000Y123000000D03*
%TO.N,/14*%
X215000000Y88500000D03*
X215000000Y100000000D03*
%TO.N,/17*%
X267500000Y105500000D03*
X267500000Y56500000D03*
X267500000Y36500000D03*
%TO.N,/7*%
X252780000Y114280000D03*
X288500000Y83000000D03*
X288500000Y60000000D03*
X288500000Y24000000D03*
X252780000Y95500000D03*
%TO.N,/11*%
X165000000Y27000000D03*
X165000000Y80000000D03*
X220005000Y105500000D03*
X165000000Y65000000D03*
X220000000Y81500000D03*
X165000000Y18500000D03*
%TO.N,/1*%
X257500000Y7000000D03*
X135500000Y117000000D03*
X135500000Y84000000D03*
X257500000Y64500000D03*
X135500000Y65000000D03*
%TO.N,/2*%
X110000000Y64538060D03*
X142500000Y44500000D03*
X142500000Y116500000D03*
X110000000Y91500000D03*
X142500000Y84000000D03*
X142500000Y29000000D03*
%TO.N,/12*%
X65000000Y4000000D03*
X64987500Y45500000D03*
X196000000Y83500000D03*
X196000000Y50000000D03*
X196000000Y107000000D03*
X65000000Y28000000D03*
%TO.N,/5*%
X100000000Y115000000D03*
X100000000Y88500000D03*
X100000000Y44500000D03*
X100000000Y24500000D03*
%TO.N,/10*%
X247500000Y83500000D03*
X247500000Y105500000D03*
X103000000Y79000000D03*
X103000000Y6000000D03*
X103000000Y50500000D03*
X103000000Y26500000D03*
%TO.N,/13*%
X180000000Y105500000D03*
X90543876Y44043876D03*
X90500000Y92000000D03*
X90543876Y62500000D03*
X180000000Y82500000D03*
%TO.N,/4*%
X245160000Y93500000D03*
X245160000Y49160000D03*
X245160000Y75500000D03*
X245160000Y123000000D03*
%TO.N,/15*%
X59500000Y37500000D03*
X59500000Y74500000D03*
X59500000Y57000000D03*
X168000000Y69500000D03*
X168000000Y100000000D03*
%TO.N,/9*%
X120000000Y46000000D03*
X260000000Y62500000D03*
X257860000Y123000000D03*
X120000000Y59000000D03*
X260000000Y83425000D03*
X260000000Y26500000D03*
X260000000Y10000000D03*
%TD*%
D15*
%TO.N,/6*%
X190000000Y18500000D02*
X190000000Y50500000D01*
X190000000Y112500000D02*
X190000000Y64500000D01*
X186000000Y60500000D02*
X186000000Y54500000D01*
X186000000Y54500000D02*
X190000000Y50500000D01*
X190000000Y64500000D02*
X186000000Y60500000D01*
%TO.N,/16*%
X97000000Y50500000D02*
X97000000Y36000000D01*
X187500000Y97500000D02*
X187500000Y69500000D01*
X97000000Y64000000D02*
X97000000Y50500000D01*
%TO.N,/3*%
X209500000Y51000000D02*
X209500000Y74500000D01*
X180500000Y31500000D02*
X180500000Y55500000D01*
X242620000Y123000000D02*
X242620000Y77500000D01*
%TO.N,/14*%
X215000000Y88500000D02*
X215000000Y100000000D01*
%TO.N,/17*%
X267500000Y50000000D02*
X267500000Y56500000D01*
X267500000Y56500000D02*
X267500000Y105500000D01*
X267500000Y50000000D02*
X267500000Y36500000D01*
%TO.N,/7*%
X288500000Y60000000D02*
X288500000Y24000000D01*
X288500000Y83000000D02*
X288500000Y60000000D01*
X252780000Y114280000D02*
X252780000Y95500000D01*
%TO.N,/11*%
X165000000Y27000000D02*
X165000000Y64500000D01*
X165000000Y64500000D02*
X165000000Y65000000D01*
X220005000Y105500000D02*
X220005000Y81995000D01*
X165000000Y18500000D02*
X165000000Y27000000D01*
X165000000Y64500000D02*
X165000000Y80000000D01*
X220005000Y81995000D02*
X220000000Y81990000D01*
X220000000Y81990000D02*
X220000000Y81500000D01*
%TO.N,/1*%
X135500000Y65000000D02*
X135500000Y84000000D01*
X257500000Y7000000D02*
X257500000Y64500000D01*
X135500000Y117000000D02*
X135500000Y84000000D01*
%TO.N,/2*%
X142500000Y84500000D02*
X142500000Y29000000D01*
X110000000Y91500000D02*
X110000000Y64538060D01*
X142500000Y84500000D02*
X142500000Y84000000D01*
X142500000Y116500000D02*
X142500000Y84500000D01*
%TO.N,/12*%
X64987500Y28012500D02*
X65000000Y28000000D01*
X64987500Y45500000D02*
X64987500Y28012500D01*
X65000000Y28000000D02*
X65000000Y4000000D01*
X196000000Y85000000D02*
X196000000Y107000000D01*
X196000000Y50000000D02*
X196000000Y85000000D01*
%TO.N,/5*%
X100000000Y88500000D02*
X100000000Y115000000D01*
X100000000Y44500000D02*
X100000000Y24500000D01*
X100000000Y88500000D02*
X100000000Y44500000D01*
%TO.N,/10*%
X103000000Y50500000D02*
X103000000Y26500000D01*
X103000000Y6000000D02*
X103000000Y26500000D01*
X103000000Y50500000D02*
X103000000Y79000000D01*
X247500000Y83500000D02*
X247500000Y105500000D01*
%TO.N,/13*%
X90500000Y62543876D02*
X90500000Y92000000D01*
X180000000Y105500000D02*
X180000000Y82500000D01*
X90543876Y62500000D02*
X90500000Y62543876D01*
X90543876Y44043876D02*
X90543876Y62956124D01*
%TO.N,/4*%
X245160000Y93500000D02*
X245160000Y75840000D01*
X245160000Y123000000D02*
X245160000Y93500000D01*
X245160000Y49160000D02*
X245160000Y75500000D01*
%TO.N,/15*%
X59500000Y57000000D02*
X59500000Y74500000D01*
X168000000Y69500000D02*
X168000000Y100000000D01*
X59500000Y37500000D02*
X59500000Y57000000D01*
%TO.N,/9*%
X260000000Y62500000D02*
X260000000Y26500000D01*
X260000000Y79070000D02*
X260000000Y62500000D01*
X260000000Y26500000D02*
X260000000Y10000000D01*
X260000000Y83425000D02*
X257860000Y85565000D01*
X257860000Y85565000D02*
X257860000Y123000000D01*
X120000000Y46000000D02*
X120000000Y59000000D01*
X260000000Y83425000D02*
X260000000Y79070000D01*
%TD*%
%TA.AperFunction,Conductor*%
%TO.N,/6*%
G36*
X190450975Y112313224D02*
G01*
X190457296Y112306880D01*
X190457279Y112297926D01*
X190457210Y112297764D01*
X190378473Y112116398D01*
X190378474Y112116397D01*
X190318239Y111977578D01*
X190318233Y111977561D01*
X190278534Y111854002D01*
X190278534Y111854000D01*
X190256686Y111707544D01*
X190256684Y111707529D01*
X190250365Y111511323D01*
X190246674Y111503165D01*
X190238671Y111500000D01*
X189761329Y111500000D01*
X189753056Y111503427D01*
X189749635Y111511323D01*
X189743314Y111707529D01*
X189743314Y111707535D01*
X189721464Y111854002D01*
X189681763Y111977566D01*
X189621524Y112116396D01*
X189621524Y112116397D01*
X189621524Y112116398D01*
X189542789Y112297764D01*
X189542638Y112306717D01*
X189548862Y112313155D01*
X189548937Y112313188D01*
X189995504Y112499129D01*
X190004455Y112499145D01*
X190450975Y112313224D01*
G37*
%TD.AperFunction*%
%TD*%
%TA.AperFunction,Conductor*%
%TO.N,/16*%
G36*
X187746944Y70496573D02*
G01*
X187750365Y70488677D01*
X187756684Y70292473D01*
X187756686Y70292458D01*
X187778534Y70146003D01*
X187778534Y70146001D01*
X187818233Y70022441D01*
X187818239Y70022424D01*
X187878473Y69883606D01*
X187957210Y69702237D01*
X187957361Y69693284D01*
X187951137Y69686846D01*
X187950975Y69686777D01*
X187504497Y69500873D01*
X187495543Y69500856D01*
X187495503Y69500873D01*
X187049024Y69686777D01*
X187042703Y69693121D01*
X187042720Y69702075D01*
X187042754Y69702156D01*
X187085433Y69800469D01*
X187121525Y69883606D01*
X187181758Y70022424D01*
X187181763Y70022435D01*
X187221464Y70146000D01*
X187243314Y70292466D01*
X187249635Y70488678D01*
X187253327Y70496835D01*
X187261329Y70500000D01*
X187738671Y70500000D01*
X187746944Y70496573D01*
G37*
%TD.AperFunction*%
%TD*%
%TA.AperFunction,Conductor*%
%TO.N,/16*%
G36*
X187950975Y97313224D02*
G01*
X187957296Y97306880D01*
X187957279Y97297926D01*
X187957210Y97297764D01*
X187878473Y97116398D01*
X187878474Y97116397D01*
X187818239Y96977578D01*
X187818233Y96977561D01*
X187778534Y96854002D01*
X187778534Y96854000D01*
X187756686Y96707544D01*
X187756684Y96707529D01*
X187750365Y96511323D01*
X187746674Y96503165D01*
X187738671Y96500000D01*
X187261329Y96500000D01*
X187253056Y96503427D01*
X187249635Y96511323D01*
X187243314Y96707529D01*
X187243314Y96707535D01*
X187221464Y96854002D01*
X187181763Y96977566D01*
X187121524Y97116396D01*
X187121524Y97116397D01*
X187121524Y97116398D01*
X187042789Y97297764D01*
X187042638Y97306717D01*
X187048862Y97313155D01*
X187048937Y97313188D01*
X187495504Y97499129D01*
X187504455Y97499145D01*
X187950975Y97313224D01*
G37*
%TD.AperFunction*%
%TD*%
%TA.AperFunction,Conductor*%
%TO.N,/3*%
G36*
X209746944Y51996573D02*
G01*
X209750365Y51988677D01*
X209756684Y51792473D01*
X209756686Y51792458D01*
X209778534Y51646003D01*
X209778534Y51646001D01*
X209818233Y51522441D01*
X209818239Y51522424D01*
X209878473Y51383606D01*
X209957210Y51202237D01*
X209957361Y51193284D01*
X209951137Y51186846D01*
X209950975Y51186777D01*
X209504497Y51000873D01*
X209495543Y51000856D01*
X209495503Y51000873D01*
X209049024Y51186777D01*
X209042703Y51193121D01*
X209042720Y51202075D01*
X209042754Y51202156D01*
X209085433Y51300469D01*
X209121525Y51383606D01*
X209181758Y51522424D01*
X209181763Y51522435D01*
X209221464Y51646000D01*
X209243314Y51792466D01*
X209249635Y51988678D01*
X209253327Y51996835D01*
X209261329Y52000000D01*
X209738671Y52000000D01*
X209746944Y51996573D01*
G37*
%TD.AperFunction*%
%TD*%
%TA.AperFunction,Conductor*%
%TO.N,/3*%
G36*
X209950975Y74313224D02*
G01*
X209957296Y74306880D01*
X209957279Y74297926D01*
X209957210Y74297764D01*
X209878473Y74116398D01*
X209878474Y74116397D01*
X209818239Y73977578D01*
X209818233Y73977561D01*
X209778534Y73854002D01*
X209778534Y73854000D01*
X209756686Y73707544D01*
X209756684Y73707529D01*
X209750365Y73511323D01*
X209746674Y73503165D01*
X209738671Y73500000D01*
X209261329Y73500000D01*
X209253056Y73503427D01*
X209249635Y73511323D01*
X209243314Y73707529D01*
X209243314Y73707535D01*
X209221464Y73854002D01*
X209181763Y73977566D01*
X209121524Y74116396D01*
X209121524Y74116397D01*
X209121524Y74116398D01*
X209042789Y74297764D01*
X209042638Y74306717D01*
X209048862Y74313155D01*
X209048937Y74313188D01*
X209495504Y74499129D01*
X209504455Y74499145D01*
X209950975Y74313224D01*
G37*
%TD.AperFunction*%
%TD*%
%TA.AperFunction,Conductor*%
%TO.N,/3*%
G36*
X180746944Y32496573D02*
G01*
X180750365Y32488677D01*
X180756684Y32292473D01*
X180756686Y32292458D01*
X180778534Y32146003D01*
X180778534Y32146001D01*
X180818233Y32022441D01*
X180818239Y32022424D01*
X180878473Y31883606D01*
X180957210Y31702237D01*
X180957361Y31693284D01*
X180951137Y31686846D01*
X180950975Y31686777D01*
X180504497Y31500873D01*
X180495543Y31500856D01*
X180495503Y31500873D01*
X180049024Y31686777D01*
X180042703Y31693121D01*
X180042720Y31702075D01*
X180042754Y31702156D01*
X180085433Y31800469D01*
X180121525Y31883606D01*
X180181758Y32022424D01*
X180181763Y32022435D01*
X180221464Y32146000D01*
X180243314Y32292466D01*
X180249635Y32488678D01*
X180253327Y32496835D01*
X180261329Y32500000D01*
X180738671Y32500000D01*
X180746944Y32496573D01*
G37*
%TD.AperFunction*%
%TD*%
%TA.AperFunction,Conductor*%
%TO.N,/3*%
G36*
X180950975Y55313224D02*
G01*
X180957296Y55306880D01*
X180957279Y55297926D01*
X180957210Y55297764D01*
X180878473Y55116398D01*
X180878474Y55116397D01*
X180818239Y54977578D01*
X180818233Y54977561D01*
X180778534Y54854002D01*
X180778534Y54854000D01*
X180756686Y54707544D01*
X180756684Y54707529D01*
X180750365Y54511323D01*
X180746674Y54503165D01*
X180738671Y54500000D01*
X180261329Y54500000D01*
X180253056Y54503427D01*
X180249635Y54511323D01*
X180243314Y54707529D01*
X180243314Y54707535D01*
X180221464Y54854002D01*
X180181763Y54977566D01*
X180121524Y55116396D01*
X180121524Y55116397D01*
X180121524Y55116398D01*
X180042789Y55297764D01*
X180042638Y55306717D01*
X180048862Y55313155D01*
X180048937Y55313188D01*
X180495504Y55499129D01*
X180504455Y55499145D01*
X180950975Y55313224D01*
G37*
%TD.AperFunction*%
%TD*%
%TA.AperFunction,Conductor*%
%TO.N,/3*%
G36*
X242866944Y78496573D02*
G01*
X242870365Y78488677D01*
X242876684Y78292473D01*
X242876686Y78292458D01*
X242898534Y78146003D01*
X242898534Y78146001D01*
X242938233Y78022441D01*
X242938239Y78022424D01*
X242998473Y77883606D01*
X243077210Y77702237D01*
X243077361Y77693284D01*
X243071137Y77686846D01*
X243070975Y77686777D01*
X242624497Y77500873D01*
X242615543Y77500856D01*
X242615503Y77500873D01*
X242169024Y77686777D01*
X242162703Y77693121D01*
X242162720Y77702075D01*
X242162754Y77702156D01*
X242205433Y77800469D01*
X242241525Y77883606D01*
X242301758Y78022424D01*
X242301763Y78022435D01*
X242341464Y78146000D01*
X242363314Y78292466D01*
X242369635Y78488678D01*
X242373327Y78496835D01*
X242381329Y78500000D01*
X242858671Y78500000D01*
X242866944Y78496573D01*
G37*
%TD.AperFunction*%
%TD*%
%TA.AperFunction,Conductor*%
%TO.N,/3*%
G36*
X243070975Y122813224D02*
G01*
X243077296Y122806880D01*
X243077279Y122797926D01*
X243077210Y122797764D01*
X242998473Y122616398D01*
X242998474Y122616397D01*
X242938239Y122477578D01*
X242938233Y122477561D01*
X242898534Y122354002D01*
X242898534Y122354000D01*
X242876686Y122207544D01*
X242876684Y122207529D01*
X242870365Y122011323D01*
X242866674Y122003165D01*
X242858671Y122000000D01*
X242381329Y122000000D01*
X242373056Y122003427D01*
X242369635Y122011323D01*
X242363314Y122207529D01*
X242363314Y122207535D01*
X242341464Y122354002D01*
X242301763Y122477566D01*
X242241524Y122616396D01*
X242241524Y122616397D01*
X242241524Y122616398D01*
X242162789Y122797764D01*
X242162638Y122806717D01*
X242168862Y122813155D01*
X242168937Y122813188D01*
X242615504Y122999129D01*
X242624455Y122999145D01*
X243070975Y122813224D01*
G37*
%TD.AperFunction*%
%TD*%
%TA.AperFunction,Conductor*%
%TO.N,/14*%
G36*
X215450975Y99813224D02*
G01*
X215457296Y99806880D01*
X215457279Y99797926D01*
X215457210Y99797764D01*
X215378473Y99616398D01*
X215378474Y99616397D01*
X215318239Y99477578D01*
X215318233Y99477561D01*
X215278534Y99354002D01*
X215278534Y99354000D01*
X215256686Y99207544D01*
X215256684Y99207529D01*
X215250365Y99011323D01*
X215246674Y99003165D01*
X215238671Y99000000D01*
X214761329Y99000000D01*
X214753056Y99003427D01*
X214749635Y99011323D01*
X214743314Y99207529D01*
X214743314Y99207535D01*
X214721464Y99354002D01*
X214681763Y99477566D01*
X214621524Y99616396D01*
X214621524Y99616397D01*
X214621524Y99616398D01*
X214542789Y99797764D01*
X214542638Y99806717D01*
X214548862Y99813155D01*
X214548937Y99813188D01*
X214995504Y99999129D01*
X215004455Y99999145D01*
X215450975Y99813224D01*
G37*
%TD.AperFunction*%
%TD*%
%TA.AperFunction,Conductor*%
%TO.N,/14*%
G36*
X215246944Y89496573D02*
G01*
X215250365Y89488677D01*
X215256684Y89292473D01*
X215256686Y89292458D01*
X215278534Y89146003D01*
X215278534Y89146001D01*
X215318233Y89022441D01*
X215318239Y89022424D01*
X215378473Y88883606D01*
X215457210Y88702237D01*
X215457361Y88693284D01*
X215451137Y88686846D01*
X215450975Y88686777D01*
X215004497Y88500873D01*
X214995543Y88500856D01*
X214995503Y88500873D01*
X214549024Y88686777D01*
X214542703Y88693121D01*
X214542720Y88702075D01*
X214542754Y88702156D01*
X214585433Y88800469D01*
X214621525Y88883606D01*
X214681758Y89022424D01*
X214681763Y89022435D01*
X214721464Y89146000D01*
X214743314Y89292466D01*
X214749635Y89488678D01*
X214753327Y89496835D01*
X214761329Y89500000D01*
X215238671Y89500000D01*
X215246944Y89496573D01*
G37*
%TD.AperFunction*%
%TD*%
%TA.AperFunction,Conductor*%
%TO.N,/17*%
G36*
X267950975Y56313224D02*
G01*
X267957296Y56306880D01*
X267957279Y56297926D01*
X267957210Y56297764D01*
X267878473Y56116398D01*
X267878474Y56116397D01*
X267818239Y55977578D01*
X267818233Y55977561D01*
X267778534Y55854002D01*
X267778534Y55854000D01*
X267756686Y55707544D01*
X267756684Y55707529D01*
X267750365Y55511323D01*
X267746674Y55503165D01*
X267738671Y55500000D01*
X267261329Y55500000D01*
X267253056Y55503427D01*
X267249635Y55511323D01*
X267243314Y55707529D01*
X267243314Y55707535D01*
X267221464Y55854002D01*
X267181763Y55977566D01*
X267121524Y56116396D01*
X267121524Y56116397D01*
X267121524Y56116398D01*
X267042789Y56297764D01*
X267042638Y56306717D01*
X267048862Y56313155D01*
X267048937Y56313188D01*
X267495504Y56499129D01*
X267504455Y56499145D01*
X267950975Y56313224D01*
G37*
%TD.AperFunction*%
%TD*%
%TA.AperFunction,Conductor*%
%TO.N,/17*%
G36*
X267746944Y57496573D02*
G01*
X267750365Y57488677D01*
X267756684Y57292473D01*
X267756686Y57292458D01*
X267778534Y57146003D01*
X267778534Y57146001D01*
X267818233Y57022441D01*
X267818239Y57022424D01*
X267878473Y56883606D01*
X267957210Y56702237D01*
X267957361Y56693284D01*
X267951137Y56686846D01*
X267950975Y56686777D01*
X267504497Y56500873D01*
X267495543Y56500856D01*
X267495503Y56500873D01*
X267049024Y56686777D01*
X267042703Y56693121D01*
X267042720Y56702075D01*
X267042754Y56702156D01*
X267085433Y56800469D01*
X267121525Y56883606D01*
X267181758Y57022424D01*
X267181763Y57022435D01*
X267221464Y57146000D01*
X267243314Y57292466D01*
X267249635Y57488678D01*
X267253327Y57496835D01*
X267261329Y57500000D01*
X267738671Y57500000D01*
X267746944Y57496573D01*
G37*
%TD.AperFunction*%
%TD*%
%TA.AperFunction,Conductor*%
%TO.N,/17*%
G36*
X267950975Y105313224D02*
G01*
X267957296Y105306880D01*
X267957279Y105297926D01*
X267957210Y105297764D01*
X267878473Y105116398D01*
X267878474Y105116397D01*
X267818239Y104977578D01*
X267818233Y104977561D01*
X267778534Y104854002D01*
X267778534Y104854000D01*
X267756686Y104707544D01*
X267756684Y104707529D01*
X267750365Y104511323D01*
X267746674Y104503165D01*
X267738671Y104500000D01*
X267261329Y104500000D01*
X267253056Y104503427D01*
X267249635Y104511323D01*
X267243314Y104707529D01*
X267243314Y104707535D01*
X267221464Y104854002D01*
X267181763Y104977566D01*
X267121524Y105116396D01*
X267121524Y105116397D01*
X267121524Y105116398D01*
X267042789Y105297764D01*
X267042638Y105306717D01*
X267048862Y105313155D01*
X267048937Y105313188D01*
X267495504Y105499129D01*
X267504455Y105499145D01*
X267950975Y105313224D01*
G37*
%TD.AperFunction*%
%TD*%
%TA.AperFunction,Conductor*%
%TO.N,/17*%
G36*
X267746944Y37496573D02*
G01*
X267750365Y37488677D01*
X267756684Y37292473D01*
X267756686Y37292458D01*
X267778534Y37146003D01*
X267778534Y37146001D01*
X267818233Y37022441D01*
X267818239Y37022424D01*
X267878473Y36883606D01*
X267957210Y36702237D01*
X267957361Y36693284D01*
X267951137Y36686846D01*
X267950975Y36686777D01*
X267504497Y36500873D01*
X267495543Y36500856D01*
X267495503Y36500873D01*
X267049024Y36686777D01*
X267042703Y36693121D01*
X267042720Y36702075D01*
X267042754Y36702156D01*
X267085433Y36800469D01*
X267121525Y36883606D01*
X267181758Y37022424D01*
X267181763Y37022435D01*
X267221464Y37146000D01*
X267243314Y37292466D01*
X267249635Y37488678D01*
X267253327Y37496835D01*
X267261329Y37500000D01*
X267738671Y37500000D01*
X267746944Y37496573D01*
G37*
%TD.AperFunction*%
%TD*%
%TA.AperFunction,Conductor*%
%TO.N,/7*%
G36*
X288746944Y24996573D02*
G01*
X288750365Y24988677D01*
X288756684Y24792473D01*
X288756686Y24792458D01*
X288778534Y24646003D01*
X288778534Y24646001D01*
X288818233Y24522441D01*
X288818239Y24522424D01*
X288878473Y24383606D01*
X288957210Y24202237D01*
X288957361Y24193284D01*
X288951137Y24186846D01*
X288950975Y24186777D01*
X288504497Y24000873D01*
X288495543Y24000856D01*
X288495503Y24000873D01*
X288049024Y24186777D01*
X288042703Y24193121D01*
X288042720Y24202075D01*
X288042754Y24202156D01*
X288085433Y24300469D01*
X288121525Y24383606D01*
X288181758Y24522424D01*
X288181763Y24522435D01*
X288221464Y24646000D01*
X288243314Y24792466D01*
X288249635Y24988678D01*
X288253327Y24996835D01*
X288261329Y25000000D01*
X288738671Y25000000D01*
X288746944Y24996573D01*
G37*
%TD.AperFunction*%
%TD*%
%TA.AperFunction,Conductor*%
%TO.N,/7*%
G36*
X288950975Y59813224D02*
G01*
X288957296Y59806880D01*
X288957279Y59797926D01*
X288957210Y59797764D01*
X288878473Y59616398D01*
X288878474Y59616397D01*
X288818239Y59477578D01*
X288818233Y59477561D01*
X288778534Y59354002D01*
X288778534Y59354000D01*
X288756686Y59207544D01*
X288756684Y59207529D01*
X288750365Y59011323D01*
X288746674Y59003165D01*
X288738671Y59000000D01*
X288261329Y59000000D01*
X288253056Y59003427D01*
X288249635Y59011323D01*
X288243314Y59207529D01*
X288243314Y59207535D01*
X288221464Y59354002D01*
X288181763Y59477566D01*
X288121524Y59616396D01*
X288121524Y59616397D01*
X288121524Y59616398D01*
X288042789Y59797764D01*
X288042638Y59806717D01*
X288048862Y59813155D01*
X288048937Y59813188D01*
X288495504Y59999129D01*
X288504455Y59999145D01*
X288950975Y59813224D01*
G37*
%TD.AperFunction*%
%TD*%
%TA.AperFunction,Conductor*%
%TO.N,/7*%
G36*
X288950975Y82813224D02*
G01*
X288957296Y82806880D01*
X288957279Y82797926D01*
X288957210Y82797764D01*
X288878473Y82616398D01*
X288878474Y82616397D01*
X288818239Y82477578D01*
X288818233Y82477561D01*
X288778534Y82354002D01*
X288778534Y82354000D01*
X288756686Y82207544D01*
X288756684Y82207529D01*
X288750365Y82011323D01*
X288746674Y82003165D01*
X288738671Y82000000D01*
X288261329Y82000000D01*
X288253056Y82003427D01*
X288249635Y82011323D01*
X288243314Y82207529D01*
X288243314Y82207535D01*
X288221464Y82354002D01*
X288181763Y82477566D01*
X288121524Y82616396D01*
X288121524Y82616397D01*
X288121524Y82616398D01*
X288042789Y82797764D01*
X288042638Y82806717D01*
X288048862Y82813155D01*
X288048937Y82813188D01*
X288495504Y82999129D01*
X288504455Y82999145D01*
X288950975Y82813224D01*
G37*
%TD.AperFunction*%
%TD*%
%TA.AperFunction,Conductor*%
%TO.N,/7*%
G36*
X288746944Y60996573D02*
G01*
X288750365Y60988677D01*
X288756684Y60792473D01*
X288756686Y60792458D01*
X288778534Y60646003D01*
X288778534Y60646001D01*
X288818233Y60522441D01*
X288818239Y60522424D01*
X288878473Y60383606D01*
X288957210Y60202237D01*
X288957361Y60193284D01*
X288951137Y60186846D01*
X288950975Y60186777D01*
X288504497Y60000873D01*
X288495543Y60000856D01*
X288495503Y60000873D01*
X288049024Y60186777D01*
X288042703Y60193121D01*
X288042720Y60202075D01*
X288042754Y60202156D01*
X288085433Y60300469D01*
X288121525Y60383606D01*
X288181758Y60522424D01*
X288181763Y60522435D01*
X288221464Y60646000D01*
X288243314Y60792466D01*
X288249635Y60988678D01*
X288253327Y60996835D01*
X288261329Y61000000D01*
X288738671Y61000000D01*
X288746944Y60996573D01*
G37*
%TD.AperFunction*%
%TD*%
%TA.AperFunction,Conductor*%
%TO.N,/7*%
G36*
X253026944Y96496573D02*
G01*
X253030365Y96488677D01*
X253036684Y96292473D01*
X253036686Y96292458D01*
X253058534Y96146003D01*
X253058534Y96146001D01*
X253098233Y96022441D01*
X253098239Y96022424D01*
X253158473Y95883606D01*
X253237210Y95702237D01*
X253237361Y95693284D01*
X253231137Y95686846D01*
X253230975Y95686777D01*
X252784497Y95500873D01*
X252775543Y95500856D01*
X252775503Y95500873D01*
X252329024Y95686777D01*
X252322703Y95693121D01*
X252322720Y95702075D01*
X252322754Y95702156D01*
X252365433Y95800469D01*
X252401525Y95883606D01*
X252461758Y96022424D01*
X252461763Y96022435D01*
X252501464Y96146000D01*
X252523314Y96292466D01*
X252529635Y96488678D01*
X252533327Y96496835D01*
X252541329Y96500000D01*
X253018671Y96500000D01*
X253026944Y96496573D01*
G37*
%TD.AperFunction*%
%TD*%
%TA.AperFunction,Conductor*%
%TO.N,/7*%
G36*
X253230975Y114093224D02*
G01*
X253237296Y114086880D01*
X253237279Y114077926D01*
X253237210Y114077764D01*
X253158473Y113896398D01*
X253158474Y113896397D01*
X253098239Y113757578D01*
X253098233Y113757561D01*
X253058534Y113634002D01*
X253058534Y113634000D01*
X253036686Y113487544D01*
X253036684Y113487529D01*
X253030365Y113291323D01*
X253026674Y113283165D01*
X253018671Y113280000D01*
X252541329Y113280000D01*
X252533056Y113283427D01*
X252529635Y113291323D01*
X252523314Y113487529D01*
X252523314Y113487535D01*
X252501464Y113634002D01*
X252461763Y113757566D01*
X252401524Y113896396D01*
X252401524Y113896397D01*
X252401524Y113896398D01*
X252322789Y114077764D01*
X252322638Y114086717D01*
X252328862Y114093155D01*
X252328937Y114093188D01*
X252775504Y114279129D01*
X252784455Y114279145D01*
X253230975Y114093224D01*
G37*
%TD.AperFunction*%
%TD*%
%TA.AperFunction,Conductor*%
%TO.N,/11*%
G36*
X165246944Y27996573D02*
G01*
X165250365Y27988677D01*
X165256684Y27792473D01*
X165256686Y27792458D01*
X165278534Y27646003D01*
X165278534Y27646001D01*
X165318233Y27522441D01*
X165318239Y27522424D01*
X165378473Y27383606D01*
X165457210Y27202237D01*
X165457361Y27193284D01*
X165451137Y27186846D01*
X165450975Y27186777D01*
X165004497Y27000873D01*
X164995543Y27000856D01*
X164995503Y27000873D01*
X164549024Y27186777D01*
X164542703Y27193121D01*
X164542720Y27202075D01*
X164542754Y27202156D01*
X164585433Y27300469D01*
X164621525Y27383606D01*
X164681758Y27522424D01*
X164681763Y27522435D01*
X164721464Y27646000D01*
X164743314Y27792466D01*
X164749635Y27988678D01*
X164753327Y27996835D01*
X164761329Y28000000D01*
X165238671Y28000000D01*
X165246944Y27996573D01*
G37*
%TD.AperFunction*%
%TD*%
%TA.AperFunction,Conductor*%
%TO.N,/11*%
G36*
X165450975Y64813224D02*
G01*
X165457296Y64806880D01*
X165457279Y64797926D01*
X165457210Y64797764D01*
X165378473Y64616398D01*
X165378474Y64616397D01*
X165318239Y64477578D01*
X165318233Y64477561D01*
X165278534Y64354002D01*
X165278534Y64354000D01*
X165256686Y64207544D01*
X165256684Y64207529D01*
X165250365Y64011323D01*
X165246674Y64003165D01*
X165238671Y64000000D01*
X164761329Y64000000D01*
X164753056Y64003427D01*
X164749635Y64011323D01*
X164743314Y64207529D01*
X164743314Y64207535D01*
X164721464Y64354002D01*
X164681763Y64477566D01*
X164621524Y64616396D01*
X164621524Y64616397D01*
X164621524Y64616398D01*
X164542789Y64797764D01*
X164542638Y64806717D01*
X164548862Y64813155D01*
X164548937Y64813188D01*
X164995504Y64999129D01*
X165004455Y64999145D01*
X165450975Y64813224D01*
G37*
%TD.AperFunction*%
%TD*%
%TA.AperFunction,Conductor*%
%TO.N,/11*%
G36*
X220251918Y82495578D02*
G01*
X220255340Y82487655D01*
X220261206Y82291906D01*
X220261206Y82291898D01*
X220281898Y82145533D01*
X220320178Y82021963D01*
X220320179Y82021962D01*
X220379157Y81883215D01*
X220421732Y81784535D01*
X220457245Y81702223D01*
X220457376Y81693269D01*
X220451137Y81686845D01*
X220450999Y81686787D01*
X220004497Y81500873D01*
X219995543Y81500856D01*
X219995503Y81500873D01*
X219549052Y81686765D01*
X219542731Y81693109D01*
X219542748Y81702063D01*
X219542816Y81702223D01*
X219622068Y81883543D01*
X219622080Y81883538D01*
X219622093Y81883601D01*
X219683550Y82022103D01*
X219724722Y82145328D01*
X219747799Y82291527D01*
X219754608Y82487712D01*
X219758320Y82495860D01*
X219766301Y82499005D01*
X220243645Y82499005D01*
X220251918Y82495578D01*
G37*
%TD.AperFunction*%
%TD*%
%TA.AperFunction,Conductor*%
%TO.N,/11*%
G36*
X220455975Y105313224D02*
G01*
X220462296Y105306880D01*
X220462279Y105297926D01*
X220462210Y105297764D01*
X220383473Y105116398D01*
X220383474Y105116397D01*
X220323239Y104977578D01*
X220323233Y104977561D01*
X220283534Y104854002D01*
X220283534Y104854000D01*
X220261686Y104707544D01*
X220261684Y104707529D01*
X220255365Y104511323D01*
X220251674Y104503165D01*
X220243671Y104500000D01*
X219766329Y104500000D01*
X219758056Y104503427D01*
X219754635Y104511323D01*
X219748314Y104707529D01*
X219748314Y104707535D01*
X219726464Y104854002D01*
X219686763Y104977566D01*
X219626524Y105116396D01*
X219626524Y105116397D01*
X219626524Y105116398D01*
X219547789Y105297764D01*
X219547638Y105306717D01*
X219553862Y105313155D01*
X219553937Y105313188D01*
X220000504Y105499129D01*
X220009455Y105499145D01*
X220455975Y105313224D01*
G37*
%TD.AperFunction*%
%TD*%
%TA.AperFunction,Conductor*%
%TO.N,/11*%
G36*
X165246944Y19496573D02*
G01*
X165250365Y19488677D01*
X165256684Y19292473D01*
X165256686Y19292458D01*
X165278534Y19146003D01*
X165278534Y19146001D01*
X165318233Y19022441D01*
X165318239Y19022424D01*
X165378473Y18883606D01*
X165457210Y18702237D01*
X165457361Y18693284D01*
X165451137Y18686846D01*
X165450975Y18686777D01*
X165004497Y18500873D01*
X164995543Y18500856D01*
X164995503Y18500873D01*
X164549024Y18686777D01*
X164542703Y18693121D01*
X164542720Y18702075D01*
X164542754Y18702156D01*
X164585433Y18800469D01*
X164621525Y18883606D01*
X164681758Y19022424D01*
X164681763Y19022435D01*
X164721464Y19146000D01*
X164743314Y19292466D01*
X164749635Y19488678D01*
X164753327Y19496835D01*
X164761329Y19500000D01*
X165238671Y19500000D01*
X165246944Y19496573D01*
G37*
%TD.AperFunction*%
%TD*%
%TA.AperFunction,Conductor*%
%TO.N,/11*%
G36*
X165450975Y26813224D02*
G01*
X165457296Y26806880D01*
X165457279Y26797926D01*
X165457210Y26797764D01*
X165378473Y26616398D01*
X165378474Y26616397D01*
X165318239Y26477578D01*
X165318233Y26477561D01*
X165278534Y26354002D01*
X165278534Y26354000D01*
X165256686Y26207544D01*
X165256684Y26207529D01*
X165250365Y26011323D01*
X165246674Y26003165D01*
X165238671Y26000000D01*
X164761329Y26000000D01*
X164753056Y26003427D01*
X164749635Y26011323D01*
X164743314Y26207529D01*
X164743314Y26207535D01*
X164721464Y26354002D01*
X164681763Y26477566D01*
X164621524Y26616396D01*
X164621524Y26616397D01*
X164621524Y26616398D01*
X164542789Y26797764D01*
X164542638Y26806717D01*
X164548862Y26813155D01*
X164548937Y26813188D01*
X164995504Y26999129D01*
X165004455Y26999145D01*
X165450975Y26813224D01*
G37*
%TD.AperFunction*%
%TD*%
%TA.AperFunction,Conductor*%
%TO.N,/11*%
G36*
X165450975Y79813224D02*
G01*
X165457296Y79806880D01*
X165457279Y79797926D01*
X165457210Y79797764D01*
X165378473Y79616398D01*
X165378474Y79616397D01*
X165318239Y79477578D01*
X165318233Y79477561D01*
X165278534Y79354002D01*
X165278534Y79354000D01*
X165256686Y79207544D01*
X165256684Y79207529D01*
X165250365Y79011323D01*
X165246674Y79003165D01*
X165238671Y79000000D01*
X164761329Y79000000D01*
X164753056Y79003427D01*
X164749635Y79011323D01*
X164743314Y79207529D01*
X164743314Y79207535D01*
X164721464Y79354002D01*
X164681763Y79477566D01*
X164621524Y79616396D01*
X164621524Y79616397D01*
X164621524Y79616398D01*
X164542789Y79797764D01*
X164542638Y79806717D01*
X164548862Y79813155D01*
X164548937Y79813188D01*
X164995504Y79999129D01*
X165004455Y79999145D01*
X165450975Y79813224D01*
G37*
%TD.AperFunction*%
%TD*%
%TA.AperFunction,Conductor*%
%TO.N,/11*%
G36*
X165242372Y64996573D02*
G01*
X165245799Y64988300D01*
X165245269Y64984819D01*
X165190483Y64809024D01*
X165187009Y64803692D01*
X165042030Y64677090D01*
X165037449Y64674625D01*
X164852372Y64623505D01*
X164846783Y64623348D01*
X164670045Y64661586D01*
X164663721Y64665309D01*
X164541044Y64805255D01*
X164538144Y64813185D01*
X164538992Y64858599D01*
X164542573Y64866807D01*
X164545221Y64868724D01*
X164587772Y64891196D01*
X164590474Y64892218D01*
X164659662Y64908960D01*
X164722713Y64937941D01*
X164746926Y64993010D01*
X164753392Y64999203D01*
X164757636Y65000000D01*
X165234099Y65000000D01*
X165242372Y64996573D01*
G37*
%TD.AperFunction*%
%TD*%
%TA.AperFunction,Conductor*%
%TO.N,/1*%
G36*
X135746944Y65996573D02*
G01*
X135750365Y65988677D01*
X135756684Y65792473D01*
X135756686Y65792458D01*
X135778534Y65646003D01*
X135778534Y65646001D01*
X135818233Y65522441D01*
X135818239Y65522424D01*
X135878473Y65383606D01*
X135957210Y65202237D01*
X135957361Y65193284D01*
X135951137Y65186846D01*
X135950975Y65186777D01*
X135504497Y65000873D01*
X135495543Y65000856D01*
X135495503Y65000873D01*
X135049024Y65186777D01*
X135042703Y65193121D01*
X135042720Y65202075D01*
X135042754Y65202156D01*
X135085433Y65300469D01*
X135121525Y65383606D01*
X135181758Y65522424D01*
X135181763Y65522435D01*
X135221464Y65646000D01*
X135243314Y65792466D01*
X135249635Y65988678D01*
X135253327Y65996835D01*
X135261329Y66000000D01*
X135738671Y66000000D01*
X135746944Y65996573D01*
G37*
%TD.AperFunction*%
%TD*%
%TA.AperFunction,Conductor*%
%TO.N,/1*%
G36*
X135950975Y83813224D02*
G01*
X135957296Y83806880D01*
X135957279Y83797926D01*
X135957210Y83797764D01*
X135878473Y83616398D01*
X135878474Y83616397D01*
X135818239Y83477578D01*
X135818233Y83477561D01*
X135778534Y83354002D01*
X135778534Y83354000D01*
X135756686Y83207544D01*
X135756684Y83207529D01*
X135750365Y83011323D01*
X135746674Y83003165D01*
X135738671Y83000000D01*
X135261329Y83000000D01*
X135253056Y83003427D01*
X135249635Y83011323D01*
X135243314Y83207529D01*
X135243314Y83207535D01*
X135221464Y83354002D01*
X135181763Y83477566D01*
X135121524Y83616396D01*
X135121524Y83616397D01*
X135121524Y83616398D01*
X135042789Y83797764D01*
X135042638Y83806717D01*
X135048862Y83813155D01*
X135048937Y83813188D01*
X135495504Y83999129D01*
X135504455Y83999145D01*
X135950975Y83813224D01*
G37*
%TD.AperFunction*%
%TD*%
%TA.AperFunction,Conductor*%
%TO.N,/1*%
G36*
X257950975Y64313224D02*
G01*
X257957296Y64306880D01*
X257957279Y64297926D01*
X257957210Y64297764D01*
X257878473Y64116398D01*
X257878474Y64116397D01*
X257818239Y63977578D01*
X257818233Y63977561D01*
X257778534Y63854002D01*
X257778534Y63854000D01*
X257756686Y63707544D01*
X257756684Y63707529D01*
X257750365Y63511323D01*
X257746674Y63503165D01*
X257738671Y63500000D01*
X257261329Y63500000D01*
X257253056Y63503427D01*
X257249635Y63511323D01*
X257243314Y63707529D01*
X257243314Y63707535D01*
X257221464Y63854002D01*
X257181763Y63977566D01*
X257121524Y64116396D01*
X257121524Y64116397D01*
X257121524Y64116398D01*
X257042789Y64297764D01*
X257042638Y64306717D01*
X257048862Y64313155D01*
X257048937Y64313188D01*
X257495504Y64499129D01*
X257504455Y64499145D01*
X257950975Y64313224D01*
G37*
%TD.AperFunction*%
%TD*%
%TA.AperFunction,Conductor*%
%TO.N,/1*%
G36*
X257746944Y7996573D02*
G01*
X257750365Y7988677D01*
X257756684Y7792473D01*
X257756686Y7792458D01*
X257778534Y7646003D01*
X257778534Y7646001D01*
X257818233Y7522441D01*
X257818239Y7522424D01*
X257878473Y7383606D01*
X257957210Y7202237D01*
X257957361Y7193284D01*
X257951137Y7186846D01*
X257950975Y7186777D01*
X257504497Y7000873D01*
X257495543Y7000856D01*
X257495503Y7000873D01*
X257049024Y7186777D01*
X257042703Y7193121D01*
X257042720Y7202075D01*
X257042754Y7202156D01*
X257085433Y7300469D01*
X257121525Y7383606D01*
X257181758Y7522424D01*
X257181763Y7522435D01*
X257221464Y7646000D01*
X257243314Y7792466D01*
X257249635Y7988678D01*
X257253327Y7996835D01*
X257261329Y8000000D01*
X257738671Y8000000D01*
X257746944Y7996573D01*
G37*
%TD.AperFunction*%
%TD*%
%TA.AperFunction,Conductor*%
%TO.N,/1*%
G36*
X135950975Y116813224D02*
G01*
X135957296Y116806880D01*
X135957279Y116797926D01*
X135957210Y116797764D01*
X135878473Y116616398D01*
X135878474Y116616397D01*
X135818239Y116477578D01*
X135818233Y116477561D01*
X135778534Y116354002D01*
X135778534Y116354000D01*
X135756686Y116207544D01*
X135756684Y116207529D01*
X135750365Y116011323D01*
X135746674Y116003165D01*
X135738671Y116000000D01*
X135261329Y116000000D01*
X135253056Y116003427D01*
X135249635Y116011323D01*
X135243314Y116207529D01*
X135243314Y116207535D01*
X135221464Y116354002D01*
X135181763Y116477566D01*
X135121524Y116616396D01*
X135121524Y116616397D01*
X135121524Y116616398D01*
X135042789Y116797764D01*
X135042638Y116806717D01*
X135048862Y116813155D01*
X135048937Y116813188D01*
X135495504Y116999129D01*
X135504455Y116999145D01*
X135950975Y116813224D01*
G37*
%TD.AperFunction*%
%TD*%
%TA.AperFunction,Conductor*%
%TO.N,/1*%
G36*
X135746944Y84996573D02*
G01*
X135750365Y84988677D01*
X135756684Y84792473D01*
X135756686Y84792458D01*
X135778534Y84646003D01*
X135778534Y84646001D01*
X135818233Y84522441D01*
X135818239Y84522424D01*
X135878473Y84383606D01*
X135957210Y84202237D01*
X135957361Y84193284D01*
X135951137Y84186846D01*
X135950975Y84186777D01*
X135504497Y84000873D01*
X135495543Y84000856D01*
X135495503Y84000873D01*
X135049024Y84186777D01*
X135042703Y84193121D01*
X135042720Y84202075D01*
X135042754Y84202156D01*
X135085433Y84300469D01*
X135121525Y84383606D01*
X135181758Y84522424D01*
X135181763Y84522435D01*
X135221464Y84646000D01*
X135243314Y84792466D01*
X135249635Y84988678D01*
X135253327Y84996835D01*
X135261329Y85000000D01*
X135738671Y85000000D01*
X135746944Y84996573D01*
G37*
%TD.AperFunction*%
%TD*%
%TA.AperFunction,Conductor*%
%TO.N,/2*%
G36*
X142742372Y44496573D02*
G01*
X142745799Y44488300D01*
X142745269Y44484819D01*
X142690483Y44309024D01*
X142687009Y44303692D01*
X142542030Y44177090D01*
X142537449Y44174625D01*
X142352372Y44123505D01*
X142346783Y44123348D01*
X142170045Y44161586D01*
X142163721Y44165309D01*
X142041044Y44305255D01*
X142038144Y44313185D01*
X142038992Y44358599D01*
X142042573Y44366807D01*
X142045221Y44368724D01*
X142087772Y44391196D01*
X142090474Y44392218D01*
X142159662Y44408960D01*
X142222713Y44437941D01*
X142246926Y44493010D01*
X142253392Y44499203D01*
X142257636Y44500000D01*
X142734099Y44500000D01*
X142742372Y44496573D01*
G37*
%TD.AperFunction*%
%TD*%
%TA.AperFunction,Conductor*%
%TO.N,/2*%
G36*
X142656980Y84155287D02*
G01*
X142664538Y84150487D01*
X142665139Y84149538D01*
X142740083Y84017475D01*
X142741186Y84008588D01*
X142735682Y84001524D01*
X142729907Y84000000D01*
X142497598Y84000000D01*
X142255829Y84000000D01*
X142247556Y84003427D01*
X142246489Y84004653D01*
X142233203Y84022261D01*
X142191133Y83956341D01*
X142136727Y83860960D01*
X142135677Y83859419D01*
X142123425Y83844203D01*
X142123423Y83844202D01*
X142101925Y83817502D01*
X142086487Y83798329D01*
X142078629Y83794035D01*
X142073065Y83794790D01*
X142046329Y83805382D01*
X142039899Y83811615D01*
X142039004Y83817500D01*
X142057414Y83989839D01*
X142061697Y83997695D01*
X142225802Y84127761D01*
X142230097Y84129907D01*
X142456300Y84189313D01*
X142461287Y84189521D01*
X142656980Y84155287D01*
G37*
%TD.AperFunction*%
%TD*%
%TA.AperFunction,Conductor*%
%TO.N,/2*%
G36*
X142746944Y29996573D02*
G01*
X142750365Y29988677D01*
X142756684Y29792473D01*
X142756686Y29792458D01*
X142778534Y29646003D01*
X142778534Y29646001D01*
X142818233Y29522441D01*
X142818239Y29522424D01*
X142878473Y29383606D01*
X142957210Y29202237D01*
X142957361Y29193284D01*
X142951137Y29186846D01*
X142950975Y29186777D01*
X142504497Y29000873D01*
X142495543Y29000856D01*
X142495503Y29000873D01*
X142049024Y29186777D01*
X142042703Y29193121D01*
X142042720Y29202075D01*
X142042754Y29202156D01*
X142085433Y29300469D01*
X142121525Y29383606D01*
X142181758Y29522424D01*
X142181763Y29522435D01*
X142221464Y29646000D01*
X142243314Y29792466D01*
X142249635Y29988678D01*
X142253327Y29996835D01*
X142261329Y30000000D01*
X142738671Y30000000D01*
X142746944Y29996573D01*
G37*
%TD.AperFunction*%
%TD*%
%TA.AperFunction,Conductor*%
%TO.N,/2*%
G36*
X110246944Y65534633D02*
G01*
X110250365Y65526737D01*
X110256684Y65330533D01*
X110256686Y65330518D01*
X110278534Y65184063D01*
X110278534Y65184061D01*
X110318233Y65060501D01*
X110318239Y65060484D01*
X110378473Y64921666D01*
X110457210Y64740297D01*
X110457361Y64731344D01*
X110451137Y64724906D01*
X110450975Y64724837D01*
X110004497Y64538933D01*
X109995543Y64538916D01*
X109995503Y64538933D01*
X109549024Y64724837D01*
X109542703Y64731181D01*
X109542720Y64740135D01*
X109542754Y64740216D01*
X109585433Y64838529D01*
X109621525Y64921666D01*
X109681758Y65060484D01*
X109681763Y65060495D01*
X109721464Y65184060D01*
X109743314Y65330526D01*
X109749635Y65526738D01*
X109753327Y65534895D01*
X109761329Y65538060D01*
X110238671Y65538060D01*
X110246944Y65534633D01*
G37*
%TD.AperFunction*%
%TD*%
%TA.AperFunction,Conductor*%
%TO.N,/2*%
G36*
X110450975Y91313224D02*
G01*
X110457296Y91306880D01*
X110457279Y91297926D01*
X110457210Y91297764D01*
X110378473Y91116398D01*
X110378474Y91116397D01*
X110318239Y90977578D01*
X110318233Y90977561D01*
X110278534Y90854002D01*
X110278534Y90854000D01*
X110256686Y90707544D01*
X110256684Y90707529D01*
X110250365Y90511323D01*
X110246674Y90503165D01*
X110238671Y90500000D01*
X109761329Y90500000D01*
X109753056Y90503427D01*
X109749635Y90511323D01*
X109743314Y90707529D01*
X109743314Y90707535D01*
X109721464Y90854002D01*
X109681763Y90977566D01*
X109621524Y91116396D01*
X109621524Y91116397D01*
X109621524Y91116398D01*
X109542789Y91297764D01*
X109542638Y91306717D01*
X109548862Y91313155D01*
X109548937Y91313188D01*
X109995504Y91499129D01*
X110004455Y91499145D01*
X110450975Y91313224D01*
G37*
%TD.AperFunction*%
%TD*%
%TA.AperFunction,Conductor*%
%TO.N,/2*%
G36*
X142746944Y84996573D02*
G01*
X142750365Y84988677D01*
X142756684Y84792473D01*
X142756686Y84792458D01*
X142778534Y84646003D01*
X142778534Y84646001D01*
X142818233Y84522441D01*
X142818239Y84522424D01*
X142878473Y84383606D01*
X142957210Y84202237D01*
X142957361Y84193284D01*
X142951137Y84186846D01*
X142950975Y84186777D01*
X142504497Y84000873D01*
X142495543Y84000856D01*
X142495503Y84000873D01*
X142049024Y84186777D01*
X142042703Y84193121D01*
X142042720Y84202075D01*
X142042754Y84202156D01*
X142085433Y84300469D01*
X142121525Y84383606D01*
X142181758Y84522424D01*
X142181763Y84522435D01*
X142221464Y84646000D01*
X142243314Y84792466D01*
X142249635Y84988678D01*
X142253327Y84996835D01*
X142261329Y85000000D01*
X142738671Y85000000D01*
X142746944Y84996573D01*
G37*
%TD.AperFunction*%
%TD*%
%TA.AperFunction,Conductor*%
%TO.N,/2*%
G36*
X142950975Y116313224D02*
G01*
X142957296Y116306880D01*
X142957279Y116297926D01*
X142957210Y116297764D01*
X142878473Y116116398D01*
X142878474Y116116397D01*
X142818239Y115977578D01*
X142818233Y115977561D01*
X142778534Y115854002D01*
X142778534Y115854000D01*
X142756686Y115707544D01*
X142756684Y115707529D01*
X142750365Y115511323D01*
X142746674Y115503165D01*
X142738671Y115500000D01*
X142261329Y115500000D01*
X142253056Y115503427D01*
X142249635Y115511323D01*
X142243314Y115707529D01*
X142243314Y115707535D01*
X142221464Y115854002D01*
X142181763Y115977566D01*
X142121524Y116116396D01*
X142121524Y116116397D01*
X142121524Y116116398D01*
X142042789Y116297764D01*
X142042638Y116306717D01*
X142048862Y116313155D01*
X142048937Y116313188D01*
X142495504Y116499129D01*
X142504455Y116499145D01*
X142950975Y116313224D01*
G37*
%TD.AperFunction*%
%TD*%
%TA.AperFunction,Conductor*%
%TO.N,/12*%
G36*
X65234514Y28994087D02*
G01*
X65237932Y28986263D01*
X65245468Y28790122D01*
X65245469Y28790120D01*
X65270387Y28644320D01*
X65313761Y28521616D01*
X65313766Y28521602D01*
X65377075Y28383537D01*
X65377143Y28383386D01*
X65457112Y28202275D01*
X65457319Y28193323D01*
X65451135Y28186846D01*
X65450906Y28186748D01*
X65004497Y28000873D01*
X64995543Y28000856D01*
X64995503Y28000873D01*
X64548963Y28186803D01*
X64542642Y28193147D01*
X64542659Y28202101D01*
X64542678Y28202149D01*
X64619820Y28382636D01*
X64619829Y28382659D01*
X64619850Y28382707D01*
X64676902Y28521239D01*
X64676909Y28521255D01*
X64713061Y28644845D01*
X64732013Y28791050D01*
X64737197Y28986126D01*
X64740843Y28994304D01*
X64748893Y28997514D01*
X65226241Y28997514D01*
X65234514Y28994087D01*
G37*
%TD.AperFunction*%
%TD*%
%TA.AperFunction,Conductor*%
%TO.N,/12*%
G36*
X65438475Y45313224D02*
G01*
X65444796Y45306880D01*
X65444779Y45297926D01*
X65444710Y45297764D01*
X65365973Y45116398D01*
X65365974Y45116397D01*
X65305739Y44977578D01*
X65305733Y44977561D01*
X65266034Y44854002D01*
X65266034Y44854000D01*
X65244186Y44707544D01*
X65244184Y44707529D01*
X65237865Y44511323D01*
X65234174Y44503165D01*
X65226171Y44500000D01*
X64748829Y44500000D01*
X64740556Y44503427D01*
X64737135Y44511323D01*
X64730814Y44707529D01*
X64730814Y44707535D01*
X64708964Y44854002D01*
X64669263Y44977566D01*
X64609024Y45116396D01*
X64609024Y45116397D01*
X64609024Y45116398D01*
X64530289Y45297764D01*
X64530138Y45306717D01*
X64536362Y45313155D01*
X64536437Y45313188D01*
X64983004Y45499129D01*
X64991955Y45499145D01*
X65438475Y45313224D01*
G37*
%TD.AperFunction*%
%TD*%
%TA.AperFunction,Conductor*%
%TO.N,/12*%
G36*
X65246944Y4996573D02*
G01*
X65250365Y4988677D01*
X65256684Y4792473D01*
X65256686Y4792458D01*
X65278534Y4646003D01*
X65278534Y4646001D01*
X65318233Y4522441D01*
X65318239Y4522424D01*
X65378473Y4383606D01*
X65457210Y4202237D01*
X65457361Y4193284D01*
X65451137Y4186846D01*
X65450975Y4186777D01*
X65004497Y4000873D01*
X64995543Y4000856D01*
X64995503Y4000873D01*
X64549024Y4186777D01*
X64542703Y4193121D01*
X64542720Y4202075D01*
X64542754Y4202156D01*
X64585433Y4300469D01*
X64621525Y4383606D01*
X64681758Y4522424D01*
X64681763Y4522435D01*
X64721464Y4646000D01*
X64743314Y4792466D01*
X64749635Y4988678D01*
X64753327Y4996835D01*
X64761329Y5000000D01*
X65238671Y5000000D01*
X65246944Y4996573D01*
G37*
%TD.AperFunction*%
%TD*%
%TA.AperFunction,Conductor*%
%TO.N,/12*%
G36*
X65450975Y27813224D02*
G01*
X65457296Y27806880D01*
X65457279Y27797926D01*
X65457210Y27797764D01*
X65378473Y27616398D01*
X65378474Y27616397D01*
X65318239Y27477578D01*
X65318233Y27477561D01*
X65278534Y27354002D01*
X65278534Y27354000D01*
X65256686Y27207544D01*
X65256684Y27207529D01*
X65250365Y27011323D01*
X65246674Y27003165D01*
X65238671Y27000000D01*
X64761329Y27000000D01*
X64753056Y27003427D01*
X64749635Y27011323D01*
X64743314Y27207529D01*
X64743314Y27207535D01*
X64721464Y27354002D01*
X64681763Y27477566D01*
X64621524Y27616396D01*
X64621524Y27616397D01*
X64621524Y27616398D01*
X64542789Y27797764D01*
X64542638Y27806717D01*
X64548862Y27813155D01*
X64548937Y27813188D01*
X64995504Y27999129D01*
X65004455Y27999145D01*
X65450975Y27813224D01*
G37*
%TD.AperFunction*%
%TD*%
%TA.AperFunction,Conductor*%
%TO.N,/12*%
G36*
X196450975Y106813224D02*
G01*
X196457296Y106806880D01*
X196457279Y106797926D01*
X196457210Y106797764D01*
X196378473Y106616398D01*
X196378474Y106616397D01*
X196318239Y106477578D01*
X196318233Y106477561D01*
X196278534Y106354002D01*
X196278534Y106354000D01*
X196256686Y106207544D01*
X196256684Y106207529D01*
X196250365Y106011323D01*
X196246674Y106003165D01*
X196238671Y106000000D01*
X195761329Y106000000D01*
X195753056Y106003427D01*
X195749635Y106011323D01*
X195743314Y106207529D01*
X195743314Y106207535D01*
X195721464Y106354002D01*
X195681763Y106477566D01*
X195621524Y106616396D01*
X195621524Y106616397D01*
X195621524Y106616398D01*
X195542789Y106797764D01*
X195542638Y106806717D01*
X195548862Y106813155D01*
X195548937Y106813188D01*
X195995504Y106999129D01*
X196004455Y106999145D01*
X196450975Y106813224D01*
G37*
%TD.AperFunction*%
%TD*%
%TA.AperFunction,Conductor*%
%TO.N,/12*%
G36*
X196156980Y83655287D02*
G01*
X196164538Y83650487D01*
X196165139Y83649538D01*
X196240083Y83517475D01*
X196241186Y83508588D01*
X196235682Y83501524D01*
X196229907Y83500000D01*
X195997598Y83500000D01*
X195755829Y83500000D01*
X195747556Y83503427D01*
X195746489Y83504653D01*
X195733203Y83522261D01*
X195691133Y83456341D01*
X195636727Y83360960D01*
X195635677Y83359419D01*
X195623425Y83344203D01*
X195623423Y83344202D01*
X195601925Y83317502D01*
X195586487Y83298329D01*
X195578629Y83294035D01*
X195573065Y83294790D01*
X195546329Y83305382D01*
X195539899Y83311615D01*
X195539004Y83317500D01*
X195557414Y83489839D01*
X195561697Y83497695D01*
X195725802Y83627761D01*
X195730097Y83629907D01*
X195956300Y83689313D01*
X195961287Y83689521D01*
X196156980Y83655287D01*
G37*
%TD.AperFunction*%
%TD*%
%TA.AperFunction,Conductor*%
%TO.N,/12*%
G36*
X196246944Y50996573D02*
G01*
X196250365Y50988677D01*
X196256684Y50792473D01*
X196256686Y50792458D01*
X196278534Y50646003D01*
X196278534Y50646001D01*
X196318233Y50522441D01*
X196318239Y50522424D01*
X196378473Y50383606D01*
X196457210Y50202237D01*
X196457361Y50193284D01*
X196451137Y50186846D01*
X196450975Y50186777D01*
X196004497Y50000873D01*
X195995543Y50000856D01*
X195995503Y50000873D01*
X195549024Y50186777D01*
X195542703Y50193121D01*
X195542720Y50202075D01*
X195542754Y50202156D01*
X195585433Y50300469D01*
X195621525Y50383606D01*
X195681758Y50522424D01*
X195681763Y50522435D01*
X195721464Y50646000D01*
X195743314Y50792466D01*
X195749635Y50988678D01*
X195753327Y50996835D01*
X195761329Y51000000D01*
X196238671Y51000000D01*
X196246944Y50996573D01*
G37*
%TD.AperFunction*%
%TD*%
%TA.AperFunction,Conductor*%
%TO.N,/5*%
G36*
X100450975Y114813224D02*
G01*
X100457296Y114806880D01*
X100457279Y114797926D01*
X100457210Y114797764D01*
X100378473Y114616398D01*
X100378474Y114616397D01*
X100318239Y114477578D01*
X100318233Y114477561D01*
X100278534Y114354002D01*
X100278534Y114354000D01*
X100256686Y114207544D01*
X100256684Y114207529D01*
X100250365Y114011323D01*
X100246674Y114003165D01*
X100238671Y114000000D01*
X99761329Y114000000D01*
X99753056Y114003427D01*
X99749635Y114011323D01*
X99743314Y114207529D01*
X99743314Y114207535D01*
X99721464Y114354002D01*
X99681763Y114477566D01*
X99621524Y114616396D01*
X99621524Y114616397D01*
X99621524Y114616398D01*
X99542789Y114797764D01*
X99542638Y114806717D01*
X99548862Y114813155D01*
X99548937Y114813188D01*
X99995504Y114999129D01*
X100004455Y114999145D01*
X100450975Y114813224D01*
G37*
%TD.AperFunction*%
%TD*%
%TA.AperFunction,Conductor*%
%TO.N,/5*%
G36*
X100246944Y89496573D02*
G01*
X100250365Y89488677D01*
X100256684Y89292473D01*
X100256686Y89292458D01*
X100278534Y89146003D01*
X100278534Y89146001D01*
X100318233Y89022441D01*
X100318239Y89022424D01*
X100378473Y88883606D01*
X100457210Y88702237D01*
X100457361Y88693284D01*
X100451137Y88686846D01*
X100450975Y88686777D01*
X100004497Y88500873D01*
X99995543Y88500856D01*
X99995503Y88500873D01*
X99549024Y88686777D01*
X99542703Y88693121D01*
X99542720Y88702075D01*
X99542754Y88702156D01*
X99585433Y88800469D01*
X99621525Y88883606D01*
X99681758Y89022424D01*
X99681763Y89022435D01*
X99721464Y89146000D01*
X99743314Y89292466D01*
X99749635Y89488678D01*
X99753327Y89496835D01*
X99761329Y89500000D01*
X100238671Y89500000D01*
X100246944Y89496573D01*
G37*
%TD.AperFunction*%
%TD*%
%TA.AperFunction,Conductor*%
%TO.N,/5*%
G36*
X100246944Y25496573D02*
G01*
X100250365Y25488677D01*
X100256684Y25292473D01*
X100256686Y25292458D01*
X100278534Y25146003D01*
X100278534Y25146001D01*
X100318233Y25022441D01*
X100318239Y25022424D01*
X100378473Y24883606D01*
X100457210Y24702237D01*
X100457361Y24693284D01*
X100451137Y24686846D01*
X100450975Y24686777D01*
X100004497Y24500873D01*
X99995543Y24500856D01*
X99995503Y24500873D01*
X99549024Y24686777D01*
X99542703Y24693121D01*
X99542720Y24702075D01*
X99542754Y24702156D01*
X99585433Y24800469D01*
X99621525Y24883606D01*
X99681758Y25022424D01*
X99681763Y25022435D01*
X99721464Y25146000D01*
X99743314Y25292466D01*
X99749635Y25488678D01*
X99753327Y25496835D01*
X99761329Y25500000D01*
X100238671Y25500000D01*
X100246944Y25496573D01*
G37*
%TD.AperFunction*%
%TD*%
%TA.AperFunction,Conductor*%
%TO.N,/5*%
G36*
X100450975Y44313224D02*
G01*
X100457296Y44306880D01*
X100457279Y44297926D01*
X100457210Y44297764D01*
X100378473Y44116398D01*
X100378474Y44116397D01*
X100318239Y43977578D01*
X100318233Y43977561D01*
X100278534Y43854002D01*
X100278534Y43854000D01*
X100256686Y43707544D01*
X100256684Y43707529D01*
X100250365Y43511323D01*
X100246674Y43503165D01*
X100238671Y43500000D01*
X99761329Y43500000D01*
X99753056Y43503427D01*
X99749635Y43511323D01*
X99743314Y43707529D01*
X99743314Y43707535D01*
X99721464Y43854002D01*
X99681763Y43977566D01*
X99621524Y44116396D01*
X99621524Y44116397D01*
X99621524Y44116398D01*
X99542789Y44297764D01*
X99542638Y44306717D01*
X99548862Y44313155D01*
X99548937Y44313188D01*
X99995504Y44499129D01*
X100004455Y44499145D01*
X100450975Y44313224D01*
G37*
%TD.AperFunction*%
%TD*%
%TA.AperFunction,Conductor*%
%TO.N,/5*%
G36*
X100246944Y45496573D02*
G01*
X100250365Y45488677D01*
X100256684Y45292473D01*
X100256686Y45292458D01*
X100278534Y45146003D01*
X100278534Y45146001D01*
X100318233Y45022441D01*
X100318239Y45022424D01*
X100378473Y44883606D01*
X100457210Y44702237D01*
X100457361Y44693284D01*
X100451137Y44686846D01*
X100450975Y44686777D01*
X100004497Y44500873D01*
X99995543Y44500856D01*
X99995503Y44500873D01*
X99549024Y44686777D01*
X99542703Y44693121D01*
X99542720Y44702075D01*
X99542754Y44702156D01*
X99585433Y44800469D01*
X99621525Y44883606D01*
X99681758Y45022424D01*
X99681763Y45022435D01*
X99721464Y45146000D01*
X99743314Y45292466D01*
X99749635Y45488678D01*
X99753327Y45496835D01*
X99761329Y45500000D01*
X100238671Y45500000D01*
X100246944Y45496573D01*
G37*
%TD.AperFunction*%
%TD*%
%TA.AperFunction,Conductor*%
%TO.N,/5*%
G36*
X100450975Y88313224D02*
G01*
X100457296Y88306880D01*
X100457279Y88297926D01*
X100457210Y88297764D01*
X100378473Y88116398D01*
X100378474Y88116397D01*
X100318239Y87977578D01*
X100318233Y87977561D01*
X100278534Y87854002D01*
X100278534Y87854000D01*
X100256686Y87707544D01*
X100256684Y87707529D01*
X100250365Y87511323D01*
X100246674Y87503165D01*
X100238671Y87500000D01*
X99761329Y87500000D01*
X99753056Y87503427D01*
X99749635Y87511323D01*
X99743314Y87707529D01*
X99743314Y87707535D01*
X99721464Y87854002D01*
X99681763Y87977566D01*
X99621524Y88116396D01*
X99621524Y88116397D01*
X99621524Y88116398D01*
X99542789Y88297764D01*
X99542638Y88306717D01*
X99548862Y88313155D01*
X99548937Y88313188D01*
X99995504Y88499129D01*
X100004455Y88499145D01*
X100450975Y88313224D01*
G37*
%TD.AperFunction*%
%TD*%
%TA.AperFunction,Conductor*%
%TO.N,/10*%
G36*
X103246944Y27496573D02*
G01*
X103250365Y27488677D01*
X103256684Y27292473D01*
X103256686Y27292458D01*
X103278534Y27146003D01*
X103278534Y27146001D01*
X103318233Y27022441D01*
X103318239Y27022424D01*
X103378473Y26883606D01*
X103457210Y26702237D01*
X103457361Y26693284D01*
X103451137Y26686846D01*
X103450975Y26686777D01*
X103004497Y26500873D01*
X102995543Y26500856D01*
X102995503Y26500873D01*
X102549024Y26686777D01*
X102542703Y26693121D01*
X102542720Y26702075D01*
X102542754Y26702156D01*
X102585433Y26800469D01*
X102621525Y26883606D01*
X102681758Y27022424D01*
X102681763Y27022435D01*
X102721464Y27146000D01*
X102743314Y27292466D01*
X102749635Y27488678D01*
X102753327Y27496835D01*
X102761329Y27500000D01*
X103238671Y27500000D01*
X103246944Y27496573D01*
G37*
%TD.AperFunction*%
%TD*%
%TA.AperFunction,Conductor*%
%TO.N,/10*%
G36*
X103450975Y50313224D02*
G01*
X103457296Y50306880D01*
X103457279Y50297926D01*
X103457210Y50297764D01*
X103378473Y50116398D01*
X103378474Y50116397D01*
X103318239Y49977578D01*
X103318233Y49977561D01*
X103278534Y49854002D01*
X103278534Y49854000D01*
X103256686Y49707544D01*
X103256684Y49707529D01*
X103250365Y49511323D01*
X103246674Y49503165D01*
X103238671Y49500000D01*
X102761329Y49500000D01*
X102753056Y49503427D01*
X102749635Y49511323D01*
X102743314Y49707529D01*
X102743314Y49707535D01*
X102721464Y49854002D01*
X102681763Y49977566D01*
X102621524Y50116396D01*
X102621524Y50116397D01*
X102621524Y50116398D01*
X102542789Y50297764D01*
X102542638Y50306717D01*
X102548862Y50313155D01*
X102548937Y50313188D01*
X102995504Y50499129D01*
X103004455Y50499145D01*
X103450975Y50313224D01*
G37*
%TD.AperFunction*%
%TD*%
%TA.AperFunction,Conductor*%
%TO.N,/10*%
G36*
X103450975Y26313224D02*
G01*
X103457296Y26306880D01*
X103457279Y26297926D01*
X103457210Y26297764D01*
X103378473Y26116398D01*
X103378474Y26116397D01*
X103318239Y25977578D01*
X103318233Y25977561D01*
X103278534Y25854002D01*
X103278534Y25854000D01*
X103256686Y25707544D01*
X103256684Y25707529D01*
X103250365Y25511323D01*
X103246674Y25503165D01*
X103238671Y25500000D01*
X102761329Y25500000D01*
X102753056Y25503427D01*
X102749635Y25511323D01*
X102743314Y25707529D01*
X102743314Y25707535D01*
X102721464Y25854002D01*
X102681763Y25977566D01*
X102621524Y26116396D01*
X102621524Y26116397D01*
X102621524Y26116398D01*
X102542789Y26297764D01*
X102542638Y26306717D01*
X102548862Y26313155D01*
X102548937Y26313188D01*
X102995504Y26499129D01*
X103004455Y26499145D01*
X103450975Y26313224D01*
G37*
%TD.AperFunction*%
%TD*%
%TA.AperFunction,Conductor*%
%TO.N,/10*%
G36*
X103450975Y78813224D02*
G01*
X103457296Y78806880D01*
X103457279Y78797926D01*
X103457210Y78797764D01*
X103378473Y78616398D01*
X103378474Y78616397D01*
X103318239Y78477578D01*
X103318233Y78477561D01*
X103278534Y78354002D01*
X103278534Y78354000D01*
X103256686Y78207544D01*
X103256684Y78207529D01*
X103250365Y78011323D01*
X103246674Y78003165D01*
X103238671Y78000000D01*
X102761329Y78000000D01*
X102753056Y78003427D01*
X102749635Y78011323D01*
X102743314Y78207529D01*
X102743314Y78207535D01*
X102721464Y78354002D01*
X102681763Y78477566D01*
X102621524Y78616396D01*
X102621524Y78616397D01*
X102621524Y78616398D01*
X102542789Y78797764D01*
X102542638Y78806717D01*
X102548862Y78813155D01*
X102548937Y78813188D01*
X102995504Y78999129D01*
X103004455Y78999145D01*
X103450975Y78813224D01*
G37*
%TD.AperFunction*%
%TD*%
%TA.AperFunction,Conductor*%
%TO.N,/10*%
G36*
X103246944Y51496573D02*
G01*
X103250365Y51488677D01*
X103256684Y51292473D01*
X103256686Y51292458D01*
X103278534Y51146003D01*
X103278534Y51146001D01*
X103318233Y51022441D01*
X103318239Y51022424D01*
X103378473Y50883606D01*
X103457210Y50702237D01*
X103457361Y50693284D01*
X103451137Y50686846D01*
X103450975Y50686777D01*
X103004497Y50500873D01*
X102995543Y50500856D01*
X102995503Y50500873D01*
X102549024Y50686777D01*
X102542703Y50693121D01*
X102542720Y50702075D01*
X102542754Y50702156D01*
X102585433Y50800469D01*
X102621525Y50883606D01*
X102681758Y51022424D01*
X102681763Y51022435D01*
X102721464Y51146000D01*
X102743314Y51292466D01*
X102749635Y51488678D01*
X102753327Y51496835D01*
X102761329Y51500000D01*
X103238671Y51500000D01*
X103246944Y51496573D01*
G37*
%TD.AperFunction*%
%TD*%
%TA.AperFunction,Conductor*%
%TO.N,/10*%
G36*
X247950975Y105313224D02*
G01*
X247957296Y105306880D01*
X247957279Y105297926D01*
X247957210Y105297764D01*
X247878473Y105116398D01*
X247878474Y105116397D01*
X247818239Y104977578D01*
X247818233Y104977561D01*
X247778534Y104854002D01*
X247778534Y104854000D01*
X247756686Y104707544D01*
X247756684Y104707529D01*
X247750365Y104511323D01*
X247746674Y104503165D01*
X247738671Y104500000D01*
X247261329Y104500000D01*
X247253056Y104503427D01*
X247249635Y104511323D01*
X247243314Y104707529D01*
X247243314Y104707535D01*
X247221464Y104854002D01*
X247181763Y104977566D01*
X247121524Y105116396D01*
X247121524Y105116397D01*
X247121524Y105116398D01*
X247042789Y105297764D01*
X247042638Y105306717D01*
X247048862Y105313155D01*
X247048937Y105313188D01*
X247495504Y105499129D01*
X247504455Y105499145D01*
X247950975Y105313224D01*
G37*
%TD.AperFunction*%
%TD*%
%TA.AperFunction,Conductor*%
%TO.N,/10*%
G36*
X247746944Y84496573D02*
G01*
X247750365Y84488677D01*
X247756684Y84292473D01*
X247756686Y84292458D01*
X247778534Y84146003D01*
X247778534Y84146001D01*
X247818233Y84022441D01*
X247818239Y84022424D01*
X247878473Y83883606D01*
X247957210Y83702237D01*
X247957361Y83693284D01*
X247951137Y83686846D01*
X247950975Y83686777D01*
X247504497Y83500873D01*
X247495543Y83500856D01*
X247495503Y83500873D01*
X247049024Y83686777D01*
X247042703Y83693121D01*
X247042720Y83702075D01*
X247042754Y83702156D01*
X247085433Y83800469D01*
X247121525Y83883606D01*
X247181758Y84022424D01*
X247181763Y84022435D01*
X247221464Y84146000D01*
X247243314Y84292466D01*
X247249635Y84488678D01*
X247253327Y84496835D01*
X247261329Y84500000D01*
X247738671Y84500000D01*
X247746944Y84496573D01*
G37*
%TD.AperFunction*%
%TD*%
%TA.AperFunction,Conductor*%
%TO.N,/13*%
G36*
X90950975Y91813224D02*
G01*
X90957296Y91806880D01*
X90957279Y91797926D01*
X90957210Y91797764D01*
X90878473Y91616398D01*
X90878474Y91616397D01*
X90818239Y91477578D01*
X90818233Y91477561D01*
X90778534Y91354002D01*
X90778534Y91354000D01*
X90756686Y91207544D01*
X90756684Y91207529D01*
X90750365Y91011323D01*
X90746674Y91003165D01*
X90738671Y91000000D01*
X90261329Y91000000D01*
X90253056Y91003427D01*
X90249635Y91011323D01*
X90243314Y91207529D01*
X90243314Y91207535D01*
X90221464Y91354002D01*
X90181763Y91477566D01*
X90121524Y91616396D01*
X90121524Y91616397D01*
X90121524Y91616398D01*
X90042789Y91797764D01*
X90042638Y91806717D01*
X90048862Y91813155D01*
X90048937Y91813188D01*
X90495504Y91999129D01*
X90504455Y91999145D01*
X90950975Y91813224D01*
G37*
%TD.AperFunction*%
%TD*%
%TA.AperFunction,Conductor*%
%TO.N,/13*%
G36*
X90747187Y63487846D02*
G01*
X90750597Y63480203D01*
X90755025Y63398114D01*
X90761177Y63284075D01*
X90793766Y63140024D01*
X90793767Y63140022D01*
X90846346Y63019580D01*
X90917370Y62883453D01*
X90917625Y62882933D01*
X91000740Y62702369D01*
X91001087Y62693421D01*
X90995004Y62686849D01*
X90994609Y62686676D01*
X90548373Y62500873D01*
X90539419Y62500856D01*
X90539379Y62500873D01*
X90092681Y62686868D01*
X90086360Y62693212D01*
X90086354Y62702109D01*
X90159472Y62880294D01*
X90208659Y63018331D01*
X90235884Y63141886D01*
X90247535Y63287389D01*
X90249860Y63479715D01*
X90253386Y63487946D01*
X90261559Y63491273D01*
X90738914Y63491273D01*
X90747187Y63487846D01*
G37*
%TD.AperFunction*%
%TD*%
%TA.AperFunction,Conductor*%
%TO.N,/13*%
G36*
X180450975Y105313224D02*
G01*
X180457296Y105306880D01*
X180457279Y105297926D01*
X180457210Y105297764D01*
X180378473Y105116398D01*
X180378474Y105116397D01*
X180318239Y104977578D01*
X180318233Y104977561D01*
X180278534Y104854002D01*
X180278534Y104854000D01*
X180256686Y104707544D01*
X180256684Y104707529D01*
X180250365Y104511323D01*
X180246674Y104503165D01*
X180238671Y104500000D01*
X179761329Y104500000D01*
X179753056Y104503427D01*
X179749635Y104511323D01*
X179743314Y104707529D01*
X179743314Y104707535D01*
X179721464Y104854002D01*
X179681763Y104977566D01*
X179621524Y105116396D01*
X179621524Y105116397D01*
X179621524Y105116398D01*
X179542789Y105297764D01*
X179542638Y105306717D01*
X179548862Y105313155D01*
X179548937Y105313188D01*
X179995504Y105499129D01*
X180004455Y105499145D01*
X180450975Y105313224D01*
G37*
%TD.AperFunction*%
%TD*%
%TA.AperFunction,Conductor*%
%TO.N,/13*%
G36*
X180246944Y83496573D02*
G01*
X180250365Y83488677D01*
X180256684Y83292473D01*
X180256686Y83292458D01*
X180278534Y83146003D01*
X180278534Y83146001D01*
X180318233Y83022441D01*
X180318239Y83022424D01*
X180378473Y82883606D01*
X180457210Y82702237D01*
X180457361Y82693284D01*
X180451137Y82686846D01*
X180450975Y82686777D01*
X180004497Y82500873D01*
X179995543Y82500856D01*
X179995503Y82500873D01*
X179549024Y82686777D01*
X179542703Y82693121D01*
X179542720Y82702075D01*
X179542754Y82702156D01*
X179585433Y82800469D01*
X179621525Y82883606D01*
X179681758Y83022424D01*
X179681763Y83022435D01*
X179721464Y83146000D01*
X179743314Y83292466D01*
X179749635Y83488678D01*
X179753327Y83496835D01*
X179761329Y83500000D01*
X180238671Y83500000D01*
X180246944Y83496573D01*
G37*
%TD.AperFunction*%
%TD*%
%TA.AperFunction,Conductor*%
%TO.N,/13*%
G36*
X90790820Y45040449D02*
G01*
X90794241Y45032553D01*
X90800560Y44836349D01*
X90800562Y44836334D01*
X90822410Y44689879D01*
X90822410Y44689877D01*
X90862109Y44566317D01*
X90862115Y44566300D01*
X90922349Y44427482D01*
X91001086Y44246113D01*
X91001237Y44237160D01*
X90995013Y44230722D01*
X90994851Y44230653D01*
X90548373Y44044749D01*
X90539419Y44044732D01*
X90539379Y44044749D01*
X90092900Y44230653D01*
X90086579Y44236997D01*
X90086596Y44245951D01*
X90086630Y44246032D01*
X90129309Y44344345D01*
X90165401Y44427482D01*
X90225634Y44566300D01*
X90225639Y44566311D01*
X90265340Y44689876D01*
X90287190Y44836342D01*
X90293511Y45032554D01*
X90297203Y45040711D01*
X90305205Y45043876D01*
X90782547Y45043876D01*
X90790820Y45040449D01*
G37*
%TD.AperFunction*%
%TD*%
%TA.AperFunction,Conductor*%
%TO.N,/13*%
G36*
X90994851Y62313224D02*
G01*
X91001172Y62306880D01*
X91001155Y62297926D01*
X91001086Y62297764D01*
X90922349Y62116398D01*
X90922350Y62116397D01*
X90862115Y61977578D01*
X90862109Y61977561D01*
X90822410Y61854002D01*
X90822410Y61854000D01*
X90800562Y61707544D01*
X90800560Y61707529D01*
X90794241Y61511323D01*
X90790550Y61503165D01*
X90782547Y61500000D01*
X90305205Y61500000D01*
X90296932Y61503427D01*
X90293511Y61511323D01*
X90287190Y61707529D01*
X90287190Y61707535D01*
X90265340Y61854002D01*
X90225639Y61977566D01*
X90165400Y62116396D01*
X90165400Y62116397D01*
X90165400Y62116398D01*
X90086665Y62297764D01*
X90086514Y62306717D01*
X90092738Y62313155D01*
X90092813Y62313188D01*
X90539380Y62499129D01*
X90548331Y62499145D01*
X90994851Y62313224D01*
G37*
%TD.AperFunction*%
%TD*%
%TA.AperFunction,Conductor*%
%TO.N,/4*%
G36*
X245406944Y76496573D02*
G01*
X245410365Y76488677D01*
X245416684Y76292473D01*
X245416686Y76292458D01*
X245438534Y76146003D01*
X245438534Y76146001D01*
X245478233Y76022441D01*
X245478239Y76022424D01*
X245538473Y75883606D01*
X245617210Y75702237D01*
X245617361Y75693284D01*
X245611137Y75686846D01*
X245610975Y75686777D01*
X245164497Y75500873D01*
X245155543Y75500856D01*
X245155503Y75500873D01*
X244709024Y75686777D01*
X244702703Y75693121D01*
X244702720Y75702075D01*
X244702754Y75702156D01*
X244745433Y75800469D01*
X244781525Y75883606D01*
X244841758Y76022424D01*
X244841763Y76022435D01*
X244881464Y76146000D01*
X244903314Y76292466D01*
X244909635Y76488678D01*
X244913327Y76496835D01*
X244921329Y76500000D01*
X245398671Y76500000D01*
X245406944Y76496573D01*
G37*
%TD.AperFunction*%
%TD*%
%TA.AperFunction,Conductor*%
%TO.N,/4*%
G36*
X245610975Y93313224D02*
G01*
X245617296Y93306880D01*
X245617279Y93297926D01*
X245617210Y93297764D01*
X245538473Y93116398D01*
X245538474Y93116397D01*
X245478239Y92977578D01*
X245478233Y92977561D01*
X245438534Y92854002D01*
X245438534Y92854000D01*
X245416686Y92707544D01*
X245416684Y92707529D01*
X245410365Y92511323D01*
X245406674Y92503165D01*
X245398671Y92500000D01*
X244921329Y92500000D01*
X244913056Y92503427D01*
X244909635Y92511323D01*
X244903314Y92707529D01*
X244903314Y92707535D01*
X244881464Y92854002D01*
X244841763Y92977566D01*
X244781524Y93116396D01*
X244781524Y93116397D01*
X244781524Y93116398D01*
X244702789Y93297764D01*
X244702638Y93306717D01*
X244708862Y93313155D01*
X244708937Y93313188D01*
X245155504Y93499129D01*
X245164455Y93499145D01*
X245610975Y93313224D01*
G37*
%TD.AperFunction*%
%TD*%
%TA.AperFunction,Conductor*%
%TO.N,/4*%
G36*
X245610975Y122813224D02*
G01*
X245617296Y122806880D01*
X245617279Y122797926D01*
X245617210Y122797764D01*
X245538473Y122616398D01*
X245538474Y122616397D01*
X245478239Y122477578D01*
X245478233Y122477561D01*
X245438534Y122354002D01*
X245438534Y122354000D01*
X245416686Y122207544D01*
X245416684Y122207529D01*
X245410365Y122011323D01*
X245406674Y122003165D01*
X245398671Y122000000D01*
X244921329Y122000000D01*
X244913056Y122003427D01*
X244909635Y122011323D01*
X244903314Y122207529D01*
X244903314Y122207535D01*
X244881464Y122354002D01*
X244841763Y122477566D01*
X244781524Y122616396D01*
X244781524Y122616397D01*
X244781524Y122616398D01*
X244702789Y122797764D01*
X244702638Y122806717D01*
X244708862Y122813155D01*
X244708937Y122813188D01*
X245155504Y122999129D01*
X245164455Y122999145D01*
X245610975Y122813224D01*
G37*
%TD.AperFunction*%
%TD*%
%TA.AperFunction,Conductor*%
%TO.N,/4*%
G36*
X245406944Y94496573D02*
G01*
X245410365Y94488677D01*
X245416684Y94292473D01*
X245416686Y94292458D01*
X245438534Y94146003D01*
X245438534Y94146001D01*
X245478233Y94022441D01*
X245478239Y94022424D01*
X245538473Y93883606D01*
X245617210Y93702237D01*
X245617361Y93693284D01*
X245611137Y93686846D01*
X245610975Y93686777D01*
X245164497Y93500873D01*
X245155543Y93500856D01*
X245155503Y93500873D01*
X244709024Y93686777D01*
X244702703Y93693121D01*
X244702720Y93702075D01*
X244702754Y93702156D01*
X244745433Y93800469D01*
X244781525Y93883606D01*
X244841758Y94022424D01*
X244841763Y94022435D01*
X244881464Y94146000D01*
X244903314Y94292466D01*
X244909635Y94488678D01*
X244913327Y94496835D01*
X244921329Y94500000D01*
X245398671Y94500000D01*
X245406944Y94496573D01*
G37*
%TD.AperFunction*%
%TD*%
%TA.AperFunction,Conductor*%
%TO.N,/4*%
G36*
X245610975Y75313224D02*
G01*
X245617296Y75306880D01*
X245617279Y75297926D01*
X245617210Y75297764D01*
X245538473Y75116398D01*
X245538474Y75116397D01*
X245478239Y74977578D01*
X245478233Y74977561D01*
X245438534Y74854002D01*
X245438534Y74854000D01*
X245416686Y74707544D01*
X245416684Y74707529D01*
X245410365Y74511323D01*
X245406674Y74503165D01*
X245398671Y74500000D01*
X244921329Y74500000D01*
X244913056Y74503427D01*
X244909635Y74511323D01*
X244903314Y74707529D01*
X244903314Y74707535D01*
X244881464Y74854002D01*
X244841763Y74977566D01*
X244781524Y75116396D01*
X244781524Y75116397D01*
X244781524Y75116398D01*
X244702789Y75297764D01*
X244702638Y75306717D01*
X244708862Y75313155D01*
X244708937Y75313188D01*
X245155504Y75499129D01*
X245164455Y75499145D01*
X245610975Y75313224D01*
G37*
%TD.AperFunction*%
%TD*%
%TA.AperFunction,Conductor*%
%TO.N,/4*%
G36*
X245406944Y50156573D02*
G01*
X245410365Y50148677D01*
X245416684Y49952473D01*
X245416686Y49952458D01*
X245438534Y49806003D01*
X245438534Y49806001D01*
X245478233Y49682441D01*
X245478239Y49682424D01*
X245538473Y49543606D01*
X245617210Y49362237D01*
X245617361Y49353284D01*
X245611137Y49346846D01*
X245610975Y49346777D01*
X245164497Y49160873D01*
X245155543Y49160856D01*
X245155503Y49160873D01*
X244709024Y49346777D01*
X244702703Y49353121D01*
X244702720Y49362075D01*
X244702754Y49362156D01*
X244745433Y49460469D01*
X244781525Y49543606D01*
X244841758Y49682424D01*
X244841763Y49682435D01*
X244881464Y49806000D01*
X244903314Y49952466D01*
X244909635Y50148678D01*
X244913327Y50156835D01*
X244921329Y50160000D01*
X245398671Y50160000D01*
X245406944Y50156573D01*
G37*
%TD.AperFunction*%
%TD*%
%TA.AperFunction,Conductor*%
%TO.N,/15*%
G36*
X59746944Y57996573D02*
G01*
X59750365Y57988677D01*
X59756684Y57792473D01*
X59756686Y57792458D01*
X59778534Y57646003D01*
X59778534Y57646001D01*
X59818233Y57522441D01*
X59818239Y57522424D01*
X59878473Y57383606D01*
X59957210Y57202237D01*
X59957361Y57193284D01*
X59951137Y57186846D01*
X59950975Y57186777D01*
X59504497Y57000873D01*
X59495543Y57000856D01*
X59495503Y57000873D01*
X59049024Y57186777D01*
X59042703Y57193121D01*
X59042720Y57202075D01*
X59042754Y57202156D01*
X59085433Y57300469D01*
X59121525Y57383606D01*
X59181758Y57522424D01*
X59181763Y57522435D01*
X59221464Y57646000D01*
X59243314Y57792466D01*
X59249635Y57988678D01*
X59253327Y57996835D01*
X59261329Y58000000D01*
X59738671Y58000000D01*
X59746944Y57996573D01*
G37*
%TD.AperFunction*%
%TD*%
%TA.AperFunction,Conductor*%
%TO.N,/15*%
G36*
X59950975Y74313224D02*
G01*
X59957296Y74306880D01*
X59957279Y74297926D01*
X59957210Y74297764D01*
X59878473Y74116398D01*
X59878474Y74116397D01*
X59818239Y73977578D01*
X59818233Y73977561D01*
X59778534Y73854002D01*
X59778534Y73854000D01*
X59756686Y73707544D01*
X59756684Y73707529D01*
X59750365Y73511323D01*
X59746674Y73503165D01*
X59738671Y73500000D01*
X59261329Y73500000D01*
X59253056Y73503427D01*
X59249635Y73511323D01*
X59243314Y73707529D01*
X59243314Y73707535D01*
X59221464Y73854002D01*
X59181763Y73977566D01*
X59121524Y74116396D01*
X59121524Y74116397D01*
X59121524Y74116398D01*
X59042789Y74297764D01*
X59042638Y74306717D01*
X59048862Y74313155D01*
X59048937Y74313188D01*
X59495504Y74499129D01*
X59504455Y74499145D01*
X59950975Y74313224D01*
G37*
%TD.AperFunction*%
%TD*%
%TA.AperFunction,Conductor*%
%TO.N,/15*%
G36*
X168246944Y70496573D02*
G01*
X168250365Y70488677D01*
X168256684Y70292473D01*
X168256686Y70292458D01*
X168278534Y70146003D01*
X168278534Y70146001D01*
X168318233Y70022441D01*
X168318239Y70022424D01*
X168378473Y69883606D01*
X168457210Y69702237D01*
X168457361Y69693284D01*
X168451137Y69686846D01*
X168450975Y69686777D01*
X168004497Y69500873D01*
X167995543Y69500856D01*
X167995503Y69500873D01*
X167549024Y69686777D01*
X167542703Y69693121D01*
X167542720Y69702075D01*
X167542754Y69702156D01*
X167585433Y69800469D01*
X167621525Y69883606D01*
X167681758Y70022424D01*
X167681763Y70022435D01*
X167721464Y70146000D01*
X167743314Y70292466D01*
X167749635Y70488678D01*
X167753327Y70496835D01*
X167761329Y70500000D01*
X168238671Y70500000D01*
X168246944Y70496573D01*
G37*
%TD.AperFunction*%
%TD*%
%TA.AperFunction,Conductor*%
%TO.N,/15*%
G36*
X168450975Y99813224D02*
G01*
X168457296Y99806880D01*
X168457279Y99797926D01*
X168457210Y99797764D01*
X168378473Y99616398D01*
X168378474Y99616397D01*
X168318239Y99477578D01*
X168318233Y99477561D01*
X168278534Y99354002D01*
X168278534Y99354000D01*
X168256686Y99207544D01*
X168256684Y99207529D01*
X168250365Y99011323D01*
X168246674Y99003165D01*
X168238671Y99000000D01*
X167761329Y99000000D01*
X167753056Y99003427D01*
X167749635Y99011323D01*
X167743314Y99207529D01*
X167743314Y99207535D01*
X167721464Y99354002D01*
X167681763Y99477566D01*
X167621524Y99616396D01*
X167621524Y99616397D01*
X167621524Y99616398D01*
X167542789Y99797764D01*
X167542638Y99806717D01*
X167548862Y99813155D01*
X167548937Y99813188D01*
X167995504Y99999129D01*
X168004455Y99999145D01*
X168450975Y99813224D01*
G37*
%TD.AperFunction*%
%TD*%
%TA.AperFunction,Conductor*%
%TO.N,/15*%
G36*
X59950975Y56813224D02*
G01*
X59957296Y56806880D01*
X59957279Y56797926D01*
X59957210Y56797764D01*
X59878473Y56616398D01*
X59878474Y56616397D01*
X59818239Y56477578D01*
X59818233Y56477561D01*
X59778534Y56354002D01*
X59778534Y56354000D01*
X59756686Y56207544D01*
X59756684Y56207529D01*
X59750365Y56011323D01*
X59746674Y56003165D01*
X59738671Y56000000D01*
X59261329Y56000000D01*
X59253056Y56003427D01*
X59249635Y56011323D01*
X59243314Y56207529D01*
X59243314Y56207535D01*
X59221464Y56354002D01*
X59181763Y56477566D01*
X59121524Y56616396D01*
X59121524Y56616397D01*
X59121524Y56616398D01*
X59042789Y56797764D01*
X59042638Y56806717D01*
X59048862Y56813155D01*
X59048937Y56813188D01*
X59495504Y56999129D01*
X59504455Y56999145D01*
X59950975Y56813224D01*
G37*
%TD.AperFunction*%
%TD*%
%TA.AperFunction,Conductor*%
%TO.N,/15*%
G36*
X59746944Y38496573D02*
G01*
X59750365Y38488677D01*
X59756684Y38292473D01*
X59756686Y38292458D01*
X59778534Y38146003D01*
X59778534Y38146001D01*
X59818233Y38022441D01*
X59818239Y38022424D01*
X59878473Y37883606D01*
X59957210Y37702237D01*
X59957361Y37693284D01*
X59951137Y37686846D01*
X59950975Y37686777D01*
X59504497Y37500873D01*
X59495543Y37500856D01*
X59495503Y37500873D01*
X59049024Y37686777D01*
X59042703Y37693121D01*
X59042720Y37702075D01*
X59042754Y37702156D01*
X59085433Y37800469D01*
X59121525Y37883606D01*
X59181758Y38022424D01*
X59181763Y38022435D01*
X59221464Y38146000D01*
X59243314Y38292466D01*
X59249635Y38488678D01*
X59253327Y38496835D01*
X59261329Y38500000D01*
X59738671Y38500000D01*
X59746944Y38496573D01*
G37*
%TD.AperFunction*%
%TD*%
%TA.AperFunction,Conductor*%
%TO.N,/9*%
G36*
X260450975Y62313224D02*
G01*
X260457296Y62306880D01*
X260457279Y62297926D01*
X260457210Y62297764D01*
X260378473Y62116398D01*
X260378474Y62116397D01*
X260318239Y61977578D01*
X260318233Y61977561D01*
X260278534Y61854002D01*
X260278534Y61854000D01*
X260256686Y61707544D01*
X260256684Y61707529D01*
X260250365Y61511323D01*
X260246674Y61503165D01*
X260238671Y61500000D01*
X259761329Y61500000D01*
X259753056Y61503427D01*
X259749635Y61511323D01*
X259743314Y61707529D01*
X259743314Y61707535D01*
X259721464Y61854002D01*
X259681763Y61977566D01*
X259621524Y62116396D01*
X259621524Y62116397D01*
X259621524Y62116398D01*
X259542789Y62297764D01*
X259542638Y62306717D01*
X259548862Y62313155D01*
X259548937Y62313188D01*
X259995504Y62499129D01*
X260004455Y62499145D01*
X260450975Y62313224D01*
G37*
%TD.AperFunction*%
%TD*%
%TA.AperFunction,Conductor*%
%TO.N,/9*%
G36*
X260246944Y27496573D02*
G01*
X260250365Y27488677D01*
X260256684Y27292473D01*
X260256686Y27292458D01*
X260278534Y27146003D01*
X260278534Y27146001D01*
X260318233Y27022441D01*
X260318239Y27022424D01*
X260378473Y26883606D01*
X260457210Y26702237D01*
X260457361Y26693284D01*
X260451137Y26686846D01*
X260450975Y26686777D01*
X260004497Y26500873D01*
X259995543Y26500856D01*
X259995503Y26500873D01*
X259549024Y26686777D01*
X259542703Y26693121D01*
X259542720Y26702075D01*
X259542754Y26702156D01*
X259585433Y26800469D01*
X259621525Y26883606D01*
X259681758Y27022424D01*
X259681763Y27022435D01*
X259721464Y27146000D01*
X259743314Y27292466D01*
X259749635Y27488678D01*
X259753327Y27496835D01*
X259761329Y27500000D01*
X260238671Y27500000D01*
X260246944Y27496573D01*
G37*
%TD.AperFunction*%
%TD*%
%TA.AperFunction,Conductor*%
%TO.N,/9*%
G36*
X260246944Y63496573D02*
G01*
X260250365Y63488677D01*
X260256684Y63292473D01*
X260256686Y63292458D01*
X260278534Y63146003D01*
X260278534Y63146001D01*
X260318233Y63022441D01*
X260318239Y63022424D01*
X260378473Y62883606D01*
X260457210Y62702237D01*
X260457361Y62693284D01*
X260451137Y62686846D01*
X260450975Y62686777D01*
X260004497Y62500873D01*
X259995543Y62500856D01*
X259995503Y62500873D01*
X259549024Y62686777D01*
X259542703Y62693121D01*
X259542720Y62702075D01*
X259542754Y62702156D01*
X259585433Y62800469D01*
X259621525Y62883606D01*
X259681758Y63022424D01*
X259681763Y63022435D01*
X259721464Y63146000D01*
X259743314Y63292466D01*
X259749635Y63488678D01*
X259753327Y63496835D01*
X259761329Y63500000D01*
X260238671Y63500000D01*
X260246944Y63496573D01*
G37*
%TD.AperFunction*%
%TD*%
%TA.AperFunction,Conductor*%
%TO.N,/9*%
G36*
X260450975Y26313224D02*
G01*
X260457296Y26306880D01*
X260457279Y26297926D01*
X260457210Y26297764D01*
X260378473Y26116398D01*
X260378474Y26116397D01*
X260318239Y25977578D01*
X260318233Y25977561D01*
X260278534Y25854002D01*
X260278534Y25854000D01*
X260256686Y25707544D01*
X260256684Y25707529D01*
X260250365Y25511323D01*
X260246674Y25503165D01*
X260238671Y25500000D01*
X259761329Y25500000D01*
X259753056Y25503427D01*
X259749635Y25511323D01*
X259743314Y25707529D01*
X259743314Y25707535D01*
X259721464Y25854002D01*
X259681763Y25977566D01*
X259621524Y26116396D01*
X259621524Y26116397D01*
X259621524Y26116398D01*
X259542789Y26297764D01*
X259542638Y26306717D01*
X259548862Y26313155D01*
X259548937Y26313188D01*
X259995504Y26499129D01*
X260004455Y26499145D01*
X260450975Y26313224D01*
G37*
%TD.AperFunction*%
%TD*%
%TA.AperFunction,Conductor*%
%TO.N,/9*%
G36*
X260246944Y10996573D02*
G01*
X260250365Y10988677D01*
X260256684Y10792473D01*
X260256686Y10792458D01*
X260278534Y10646003D01*
X260278534Y10646001D01*
X260318233Y10522441D01*
X260318239Y10522424D01*
X260378473Y10383606D01*
X260457210Y10202237D01*
X260457361Y10193284D01*
X260451137Y10186846D01*
X260450975Y10186777D01*
X260004497Y10000873D01*
X259995543Y10000856D01*
X259995503Y10000873D01*
X259549024Y10186777D01*
X259542703Y10193121D01*
X259542720Y10202075D01*
X259542754Y10202156D01*
X259585433Y10300469D01*
X259621525Y10383606D01*
X259681758Y10522424D01*
X259681763Y10522435D01*
X259721464Y10646000D01*
X259743314Y10792466D01*
X259749635Y10988678D01*
X259753327Y10996835D01*
X259761329Y11000000D01*
X260238671Y11000000D01*
X260246944Y10996573D01*
G37*
%TD.AperFunction*%
%TD*%
%TA.AperFunction,Conductor*%
%TO.N,/9*%
G36*
X258310975Y122813224D02*
G01*
X258317296Y122806880D01*
X258317279Y122797926D01*
X258317210Y122797764D01*
X258238473Y122616398D01*
X258238474Y122616397D01*
X258178239Y122477578D01*
X258178233Y122477561D01*
X258138534Y122354002D01*
X258138534Y122354000D01*
X258116686Y122207544D01*
X258116684Y122207529D01*
X258110365Y122011323D01*
X258106674Y122003165D01*
X258098671Y122000000D01*
X257621329Y122000000D01*
X257613056Y122003427D01*
X257609635Y122011323D01*
X257603314Y122207529D01*
X257603314Y122207535D01*
X257581464Y122354002D01*
X257541763Y122477566D01*
X257481524Y122616396D01*
X257481524Y122616397D01*
X257481524Y122616398D01*
X257402789Y122797764D01*
X257402638Y122806717D01*
X257408862Y122813155D01*
X257408937Y122813188D01*
X257855504Y122999129D01*
X257864455Y122999145D01*
X258310975Y122813224D01*
G37*
%TD.AperFunction*%
%TD*%
%TA.AperFunction,Conductor*%
%TO.N,/9*%
G36*
X120246944Y46996573D02*
G01*
X120250365Y46988677D01*
X120256684Y46792473D01*
X120256686Y46792458D01*
X120278534Y46646003D01*
X120278534Y46646001D01*
X120318233Y46522441D01*
X120318239Y46522424D01*
X120378473Y46383606D01*
X120457210Y46202237D01*
X120457361Y46193284D01*
X120451137Y46186846D01*
X120450975Y46186777D01*
X120004497Y46000873D01*
X119995543Y46000856D01*
X119995503Y46000873D01*
X119549024Y46186777D01*
X119542703Y46193121D01*
X119542720Y46202075D01*
X119542754Y46202156D01*
X119585433Y46300469D01*
X119621525Y46383606D01*
X119681758Y46522424D01*
X119681763Y46522435D01*
X119721464Y46646000D01*
X119743314Y46792466D01*
X119749635Y46988678D01*
X119753327Y46996835D01*
X119761329Y47000000D01*
X120238671Y47000000D01*
X120246944Y46996573D01*
G37*
%TD.AperFunction*%
%TD*%
%TA.AperFunction,Conductor*%
%TO.N,/9*%
G36*
X120450975Y58813224D02*
G01*
X120457296Y58806880D01*
X120457279Y58797926D01*
X120457210Y58797764D01*
X120378473Y58616398D01*
X120378474Y58616397D01*
X120318239Y58477578D01*
X120318233Y58477561D01*
X120278534Y58354002D01*
X120278534Y58354000D01*
X120256686Y58207544D01*
X120256684Y58207529D01*
X120250365Y58011323D01*
X120246674Y58003165D01*
X120238671Y58000000D01*
X119761329Y58000000D01*
X119753056Y58003427D01*
X119749635Y58011323D01*
X119743314Y58207529D01*
X119743314Y58207535D01*
X119721464Y58354002D01*
X119681763Y58477566D01*
X119621524Y58616396D01*
X119621524Y58616397D01*
X119621524Y58616398D01*
X119542789Y58797764D01*
X119542638Y58806717D01*
X119548862Y58813155D01*
X119548937Y58813188D01*
X119995504Y58999129D01*
X120004455Y58999145D01*
X120450975Y58813224D01*
G37*
%TD.AperFunction*%
%TD*%
M02*
