%TF.GenerationSoftware,KiCad,Pcbnew,8.0.7*%
%TF.CreationDate,2025-01-07T23:49:34+10:30*%
%TF.ProjectId,pcb,7063622e-6b69-4636-9164-5f7063625858,0.1*%
%TF.SameCoordinates,PX1ffc7a0PYcb21f40*%
%TF.FileFunction,Copper,L2,Bot*%
%TF.FilePolarity,Positive*%
%FSLAX46Y46*%
G04 Gerber Fmt 4.6, Leading zero omitted, Abs format (unit mm)*
G04 Created by KiCad (PCBNEW 8.0.7) date 2025-01-07 23:49:34*
%MOMM*%
%LPD*%
G01*
G04 APERTURE LIST*
%TA.AperFunction,ViaPad*%
%ADD10C,1.000000*%
%TD*%
%TA.AperFunction,Conductor*%
%ADD11C,0.500000*%
%TD*%
G04 APERTURE END LIST*
D10*
%TO.N,/7*%
X288500000Y83000000D03*
%TO.N,/6*%
X190000000Y112500000D03*
X190000000Y4000000D03*
%TO.N,/16*%
X95000000Y50000000D03*
X95000000Y36000000D03*
X187500000Y97500000D03*
X187500000Y70000000D03*
X95000000Y70000000D03*
%TO.N,/3*%
X180500000Y55500000D03*
X180500000Y31500000D03*
X242620000Y77000000D03*
X209500000Y51000000D03*
X209500000Y74500000D03*
X242620000Y123000000D03*
%TO.N,/14*%
X215000000Y100000000D03*
X215000000Y90000000D03*
%TO.N,/17*%
X267500000Y105500000D03*
X267500000Y56500000D03*
X267500000Y36500000D03*
%TO.N,/7*%
X252780000Y114280000D03*
X288500000Y60000000D03*
X288500000Y25000000D03*
X252780000Y95500000D03*
%TO.N,/11*%
X165000000Y27000000D03*
X165000000Y80000000D03*
X220005000Y105500000D03*
X220005000Y81995000D03*
X165000000Y65000000D03*
X165000000Y18500000D03*
%TO.N,/1*%
X257500000Y7500000D03*
X135500000Y117000000D03*
X135500000Y84000000D03*
X257500000Y64500000D03*
X135500000Y65000000D03*
%TO.N,/2*%
X110000000Y65000000D03*
X110000000Y90500000D03*
X142500000Y44500000D03*
X142500000Y116500000D03*
X142500000Y84000000D03*
X142500000Y27000000D03*
%TO.N,/12*%
X196000000Y85000000D03*
X65000000Y4000000D03*
X64987500Y45500000D03*
X196000000Y50000000D03*
X196000000Y107000000D03*
X65000000Y28000000D03*
%TO.N,/5*%
X100000000Y115000000D03*
X100000000Y88500000D03*
X100000000Y44500000D03*
X100000000Y24500000D03*
%TO.N,/10*%
X103000000Y2500000D03*
X246500000Y83500000D03*
X103000000Y79000000D03*
X103000000Y50500000D03*
X246500000Y105500000D03*
X103000000Y26500000D03*
%TO.N,/13*%
X90500000Y92000000D03*
X180000000Y105500000D03*
X90543876Y44043876D03*
X90500000Y63000000D03*
X180000000Y82500000D03*
%TO.N,/4*%
X245160000Y49160000D03*
X245160000Y75500000D03*
X245160000Y93500000D03*
X245160000Y123000000D03*
%TO.N,/15*%
X59500000Y37500000D03*
X59500000Y74500000D03*
X59500000Y57000000D03*
X168000000Y70000000D03*
X168000000Y100000000D03*
%TO.N,/9*%
X120000000Y46500000D03*
X260000000Y62500000D03*
X257860000Y123000000D03*
X120000000Y59000000D03*
X257860000Y78500000D03*
X260000000Y26500000D03*
X260000000Y10000000D03*
%TD*%
D11*
%TO.N,/7*%
X288500000Y83000000D02*
X288500000Y60000000D01*
%TO.N,/1*%
X257500000Y64500000D02*
X257500000Y7500000D01*
%TO.N,/4*%
X245160000Y123000000D02*
X245160000Y93500000D01*
X245160000Y93500000D02*
X245160000Y75840000D01*
%TO.N,/6*%
X190000000Y112500000D02*
X190000000Y64500000D01*
X186000000Y55000000D02*
X190000000Y51000000D01*
X190000000Y64500000D02*
X186000000Y60500000D01*
X190000000Y51000000D02*
X190000000Y4000000D01*
X186000000Y60500000D02*
X186000000Y55000000D01*
%TO.N,/16*%
X95000000Y36000000D02*
X95000000Y50000000D01*
X187500000Y97500000D02*
X187500000Y70000000D01*
X95000000Y50000000D02*
X95000000Y70000000D01*
%TO.N,/3*%
X209500000Y51000000D02*
X209500000Y74500000D01*
X180500000Y31500000D02*
X180500000Y55500000D01*
X242620000Y77120000D02*
X242500000Y77000000D01*
X242620000Y123000000D02*
X242620000Y77120000D01*
%TO.N,/14*%
X215000000Y90000000D02*
X215000000Y100000000D01*
%TO.N,/17*%
X267500000Y50000000D02*
X267500000Y56500000D01*
X267500000Y56500000D02*
X267500000Y105500000D01*
X267500000Y50000000D02*
X267500000Y36500000D01*
%TO.N,/7*%
X288500000Y60000000D02*
X288500000Y25000000D01*
X252780000Y114280000D02*
X252780000Y95500000D01*
%TO.N,/11*%
X165000000Y27000000D02*
X165000000Y64500000D01*
X165000000Y64500000D02*
X165000000Y65000000D01*
X220005000Y105500000D02*
X220005000Y81995000D01*
X165000000Y18500000D02*
X165000000Y27000000D01*
X165000000Y64500000D02*
X165000000Y80000000D01*
%TO.N,/1*%
X135500000Y117000000D02*
X135500000Y84000000D01*
%TO.N,/2*%
X142500000Y84500000D02*
X142500000Y84000000D01*
X142500000Y116500000D02*
X142500000Y84500000D01*
X110000000Y90500000D02*
X110000000Y65000000D01*
%TO.N,/12*%
X64987500Y28012500D02*
X65000000Y28000000D01*
X64987500Y45500000D02*
X64987500Y28012500D01*
X65000000Y28000000D02*
X65000000Y4000000D01*
X196000000Y85000000D02*
X196000000Y107000000D01*
X196000000Y50000000D02*
X196000000Y85000000D01*
%TO.N,/5*%
X100000000Y88500000D02*
X100000000Y115000000D01*
X100000000Y44500000D02*
X100000000Y24500000D01*
X100000000Y88500000D02*
X100000000Y44500000D01*
%TO.N,/10*%
X103000000Y26500000D02*
X103000000Y2500000D01*
X246500000Y83500000D02*
X246500000Y105500000D01*
X103000000Y50500000D02*
X103000000Y26500000D01*
X103000000Y50500000D02*
X103000000Y79000000D01*
%TO.N,/13*%
X90543876Y62956124D02*
X90500000Y63000000D01*
X180000000Y105500000D02*
X180000000Y82500000D01*
X90543876Y44043876D02*
X90543876Y62956124D01*
X90500000Y63000000D02*
X90500000Y92000000D01*
%TO.N,/4*%
X245160000Y49160000D02*
X245160000Y75500000D01*
%TO.N,/15*%
X59500000Y57000000D02*
X59500000Y74500000D01*
X168000000Y70000000D02*
X168000000Y100000000D01*
X59500000Y37500000D02*
X59500000Y57000000D01*
%TO.N,/9*%
X257860000Y67640000D02*
X260000000Y65500000D01*
X120000000Y46500000D02*
X120000000Y59000000D01*
X260000000Y62500000D02*
X260000000Y26500000D01*
X260000000Y26500000D02*
X260000000Y10000000D01*
X257860000Y123000000D02*
X257860000Y78640000D01*
X257860000Y78500000D02*
X257860000Y67640000D01*
X257860000Y78640000D02*
X258000000Y78500000D01*
X260000000Y65500000D02*
X260000000Y62500000D01*
%TO.N,/2*%
X142500000Y84500000D02*
X142500000Y27000000D01*
%TO.N,/1*%
X135500000Y65000000D02*
X135500000Y84000000D01*
%TD*%
%TA.AperFunction,Conductor*%
%TO.N,/7*%
G36*
X288749244Y60996573D02*
G01*
X288752289Y60991266D01*
X288959357Y60201194D01*
X288958139Y60192323D01*
X288952536Y60187427D01*
X288504497Y60000873D01*
X288495543Y60000856D01*
X288495503Y60000873D01*
X288047463Y60187427D01*
X288041142Y60193771D01*
X288040642Y60201194D01*
X288247711Y60991266D01*
X288253124Y60998400D01*
X288259029Y61000000D01*
X288740971Y61000000D01*
X288749244Y60996573D01*
G37*
%TD.AperFunction*%
%TD*%
%TA.AperFunction,Conductor*%
%TO.N,/1*%
G36*
X257749244Y8496573D02*
G01*
X257752289Y8491266D01*
X257959357Y7701194D01*
X257958139Y7692323D01*
X257952536Y7687427D01*
X257504497Y7500873D01*
X257495543Y7500856D01*
X257495503Y7500873D01*
X257047463Y7687427D01*
X257041142Y7693771D01*
X257040642Y7701194D01*
X257247711Y8491266D01*
X257253124Y8498400D01*
X257259029Y8500000D01*
X257740971Y8500000D01*
X257749244Y8496573D01*
G37*
%TD.AperFunction*%
%TD*%
%TA.AperFunction,Conductor*%
%TO.N,/1*%
G36*
X257952536Y64312574D02*
G01*
X257958857Y64306230D01*
X257959357Y64298807D01*
X257752289Y63508734D01*
X257746876Y63501600D01*
X257740971Y63500000D01*
X257259029Y63500000D01*
X257250756Y63503427D01*
X257247711Y63508734D01*
X257040642Y64298807D01*
X257041860Y64307678D01*
X257047461Y64312573D01*
X257495504Y64499129D01*
X257504455Y64499145D01*
X257952536Y64312574D01*
G37*
%TD.AperFunction*%
%TD*%
%TA.AperFunction,Conductor*%
%TO.N,/4*%
G36*
X245612536Y122812574D02*
G01*
X245618857Y122806230D01*
X245619357Y122798807D01*
X245412289Y122008734D01*
X245406876Y122001600D01*
X245400971Y122000000D01*
X244919029Y122000000D01*
X244910756Y122003427D01*
X244907711Y122008734D01*
X244700642Y122798807D01*
X244701860Y122807678D01*
X244707461Y122812573D01*
X245155504Y122999129D01*
X245164455Y122999145D01*
X245612536Y122812574D01*
G37*
%TD.AperFunction*%
%TD*%
%TA.AperFunction,Conductor*%
%TO.N,/4*%
G36*
X245409244Y94496573D02*
G01*
X245412289Y94491266D01*
X245619357Y93701194D01*
X245618139Y93692323D01*
X245612536Y93687427D01*
X245164497Y93500873D01*
X245155543Y93500856D01*
X245155503Y93500873D01*
X244707463Y93687427D01*
X244701142Y93693771D01*
X244700642Y93701194D01*
X244907711Y94491266D01*
X244913124Y94498400D01*
X244919029Y94500000D01*
X245400971Y94500000D01*
X245409244Y94496573D01*
G37*
%TD.AperFunction*%
%TD*%
%TA.AperFunction,Conductor*%
%TO.N,/4*%
G36*
X245409244Y76496573D02*
G01*
X245412289Y76491266D01*
X245619357Y75701194D01*
X245618139Y75692323D01*
X245612536Y75687427D01*
X245164497Y75500873D01*
X245155543Y75500856D01*
X245155503Y75500873D01*
X244707463Y75687427D01*
X244701142Y75693771D01*
X244700642Y75701194D01*
X244907711Y76491266D01*
X244913124Y76498400D01*
X244919029Y76500000D01*
X245400971Y76500000D01*
X245409244Y76496573D01*
G37*
%TD.AperFunction*%
%TD*%
%TA.AperFunction,Conductor*%
%TO.N,/4*%
G36*
X245612536Y93312574D02*
G01*
X245618857Y93306230D01*
X245619357Y93298807D01*
X245412289Y92508734D01*
X245406876Y92501600D01*
X245400971Y92500000D01*
X244919029Y92500000D01*
X244910756Y92503427D01*
X244907711Y92508734D01*
X244700642Y93298807D01*
X244701860Y93307678D01*
X244707461Y93312573D01*
X245155504Y93499129D01*
X245164455Y93499145D01*
X245612536Y93312574D01*
G37*
%TD.AperFunction*%
%TD*%
%TA.AperFunction,Conductor*%
%TO.N,/6*%
G36*
X190452536Y112312574D02*
G01*
X190458857Y112306230D01*
X190459357Y112298807D01*
X190252289Y111508734D01*
X190246876Y111501600D01*
X190240971Y111500000D01*
X189759029Y111500000D01*
X189750756Y111503427D01*
X189747711Y111508734D01*
X189540642Y112298807D01*
X189541860Y112307678D01*
X189547461Y112312573D01*
X189995504Y112499129D01*
X190004455Y112499145D01*
X190452536Y112312574D01*
G37*
%TD.AperFunction*%
%TD*%
%TA.AperFunction,Conductor*%
%TO.N,/6*%
G36*
X190249244Y4996573D02*
G01*
X190252289Y4991266D01*
X190459357Y4201194D01*
X190458139Y4192323D01*
X190452536Y4187427D01*
X190004497Y4000873D01*
X189995543Y4000856D01*
X189995503Y4000873D01*
X189547463Y4187427D01*
X189541142Y4193771D01*
X189540642Y4201194D01*
X189747711Y4991266D01*
X189753124Y4998400D01*
X189759029Y5000000D01*
X190240971Y5000000D01*
X190249244Y4996573D01*
G37*
%TD.AperFunction*%
%TD*%
%TA.AperFunction,Conductor*%
%TO.N,/16*%
G36*
X95249244Y36996573D02*
G01*
X95252289Y36991266D01*
X95459357Y36201194D01*
X95458139Y36192323D01*
X95452536Y36187427D01*
X95004497Y36000873D01*
X94995543Y36000856D01*
X94995503Y36000873D01*
X94547463Y36187427D01*
X94541142Y36193771D01*
X94540642Y36201194D01*
X94747711Y36991266D01*
X94753124Y36998400D01*
X94759029Y37000000D01*
X95240971Y37000000D01*
X95249244Y36996573D01*
G37*
%TD.AperFunction*%
%TD*%
%TA.AperFunction,Conductor*%
%TO.N,/16*%
G36*
X95452536Y49812574D02*
G01*
X95458857Y49806230D01*
X95459357Y49798807D01*
X95252289Y49008734D01*
X95246876Y49001600D01*
X95240971Y49000000D01*
X94759029Y49000000D01*
X94750756Y49003427D01*
X94747711Y49008734D01*
X94540642Y49798807D01*
X94541860Y49807678D01*
X94547461Y49812573D01*
X94995504Y49999129D01*
X95004455Y49999145D01*
X95452536Y49812574D01*
G37*
%TD.AperFunction*%
%TD*%
%TA.AperFunction,Conductor*%
%TO.N,/16*%
G36*
X187952536Y97312574D02*
G01*
X187958857Y97306230D01*
X187959357Y97298807D01*
X187752289Y96508734D01*
X187746876Y96501600D01*
X187740971Y96500000D01*
X187259029Y96500000D01*
X187250756Y96503427D01*
X187247711Y96508734D01*
X187040642Y97298807D01*
X187041860Y97307678D01*
X187047461Y97312573D01*
X187495504Y97499129D01*
X187504455Y97499145D01*
X187952536Y97312574D01*
G37*
%TD.AperFunction*%
%TD*%
%TA.AperFunction,Conductor*%
%TO.N,/16*%
G36*
X187749244Y70996573D02*
G01*
X187752289Y70991266D01*
X187959357Y70201194D01*
X187958139Y70192323D01*
X187952536Y70187427D01*
X187504497Y70000873D01*
X187495543Y70000856D01*
X187495503Y70000873D01*
X187047463Y70187427D01*
X187041142Y70193771D01*
X187040642Y70201194D01*
X187247711Y70991266D01*
X187253124Y70998400D01*
X187259029Y71000000D01*
X187740971Y71000000D01*
X187749244Y70996573D01*
G37*
%TD.AperFunction*%
%TD*%
%TA.AperFunction,Conductor*%
%TO.N,/16*%
G36*
X95249244Y50996573D02*
G01*
X95252289Y50991266D01*
X95459357Y50201194D01*
X95458139Y50192323D01*
X95452536Y50187427D01*
X95004497Y50000873D01*
X94995543Y50000856D01*
X94995503Y50000873D01*
X94547463Y50187427D01*
X94541142Y50193771D01*
X94540642Y50201194D01*
X94747711Y50991266D01*
X94753124Y50998400D01*
X94759029Y51000000D01*
X95240971Y51000000D01*
X95249244Y50996573D01*
G37*
%TD.AperFunction*%
%TD*%
%TA.AperFunction,Conductor*%
%TO.N,/16*%
G36*
X95452536Y69812574D02*
G01*
X95458857Y69806230D01*
X95459357Y69798807D01*
X95252289Y69008734D01*
X95246876Y69001600D01*
X95240971Y69000000D01*
X94759029Y69000000D01*
X94750756Y69003427D01*
X94747711Y69008734D01*
X94540642Y69798807D01*
X94541860Y69807678D01*
X94547461Y69812573D01*
X94995504Y69999129D01*
X95004455Y69999145D01*
X95452536Y69812574D01*
G37*
%TD.AperFunction*%
%TD*%
%TA.AperFunction,Conductor*%
%TO.N,/3*%
G36*
X209952536Y74312574D02*
G01*
X209958857Y74306230D01*
X209959357Y74298807D01*
X209752289Y73508734D01*
X209746876Y73501600D01*
X209740971Y73500000D01*
X209259029Y73500000D01*
X209250756Y73503427D01*
X209247711Y73508734D01*
X209040642Y74298807D01*
X209041860Y74307678D01*
X209047461Y74312573D01*
X209495504Y74499129D01*
X209504455Y74499145D01*
X209952536Y74312574D01*
G37*
%TD.AperFunction*%
%TD*%
%TA.AperFunction,Conductor*%
%TO.N,/3*%
G36*
X209749244Y51996573D02*
G01*
X209752289Y51991266D01*
X209959357Y51201194D01*
X209958139Y51192323D01*
X209952536Y51187427D01*
X209504497Y51000873D01*
X209495543Y51000856D01*
X209495503Y51000873D01*
X209047463Y51187427D01*
X209041142Y51193771D01*
X209040642Y51201194D01*
X209247711Y51991266D01*
X209253124Y51998400D01*
X209259029Y52000000D01*
X209740971Y52000000D01*
X209749244Y51996573D01*
G37*
%TD.AperFunction*%
%TD*%
%TA.AperFunction,Conductor*%
%TO.N,/3*%
G36*
X180749244Y32496573D02*
G01*
X180752289Y32491266D01*
X180959357Y31701194D01*
X180958139Y31692323D01*
X180952536Y31687427D01*
X180504497Y31500873D01*
X180495543Y31500856D01*
X180495503Y31500873D01*
X180047463Y31687427D01*
X180041142Y31693771D01*
X180040642Y31701194D01*
X180247711Y32491266D01*
X180253124Y32498400D01*
X180259029Y32500000D01*
X180740971Y32500000D01*
X180749244Y32496573D01*
G37*
%TD.AperFunction*%
%TD*%
%TA.AperFunction,Conductor*%
%TO.N,/3*%
G36*
X180952536Y55312574D02*
G01*
X180958857Y55306230D01*
X180959357Y55298807D01*
X180752289Y54508734D01*
X180746876Y54501600D01*
X180740971Y54500000D01*
X180259029Y54500000D01*
X180250756Y54503427D01*
X180247711Y54508734D01*
X180040642Y55298807D01*
X180041860Y55307678D01*
X180047461Y55312573D01*
X180495504Y55499129D01*
X180504455Y55499145D01*
X180952536Y55312574D01*
G37*
%TD.AperFunction*%
%TD*%
%TA.AperFunction,Conductor*%
%TO.N,/3*%
G36*
X243072536Y122812574D02*
G01*
X243078857Y122806230D01*
X243079357Y122798807D01*
X242872289Y122008734D01*
X242866876Y122001600D01*
X242860971Y122000000D01*
X242379029Y122000000D01*
X242370756Y122003427D01*
X242367711Y122008734D01*
X242160642Y122798807D01*
X242161860Y122807678D01*
X242167461Y122812573D01*
X242615504Y122999129D01*
X242624455Y122999145D01*
X243072536Y122812574D01*
G37*
%TD.AperFunction*%
%TD*%
%TA.AperFunction,Conductor*%
%TO.N,/3*%
G36*
X242869244Y77996573D02*
G01*
X242872289Y77991266D01*
X243079357Y77201194D01*
X243078139Y77192323D01*
X243072536Y77187427D01*
X242624497Y77000873D01*
X242615543Y77000856D01*
X242615503Y77000873D01*
X242167463Y77187427D01*
X242161142Y77193771D01*
X242160642Y77201194D01*
X242367711Y77991266D01*
X242373124Y77998400D01*
X242379029Y78000000D01*
X242860971Y78000000D01*
X242869244Y77996573D01*
G37*
%TD.AperFunction*%
%TD*%
%TA.AperFunction,Conductor*%
%TO.N,/14*%
G36*
X215249244Y90996573D02*
G01*
X215252289Y90991266D01*
X215459357Y90201194D01*
X215458139Y90192323D01*
X215452536Y90187427D01*
X215004497Y90000873D01*
X214995543Y90000856D01*
X214995503Y90000873D01*
X214547463Y90187427D01*
X214541142Y90193771D01*
X214540642Y90201194D01*
X214747711Y90991266D01*
X214753124Y90998400D01*
X214759029Y91000000D01*
X215240971Y91000000D01*
X215249244Y90996573D01*
G37*
%TD.AperFunction*%
%TD*%
%TA.AperFunction,Conductor*%
%TO.N,/14*%
G36*
X215452536Y99812574D02*
G01*
X215458857Y99806230D01*
X215459357Y99798807D01*
X215252289Y99008734D01*
X215246876Y99001600D01*
X215240971Y99000000D01*
X214759029Y99000000D01*
X214750756Y99003427D01*
X214747711Y99008734D01*
X214540642Y99798807D01*
X214541860Y99807678D01*
X214547461Y99812573D01*
X214995504Y99999129D01*
X215004455Y99999145D01*
X215452536Y99812574D01*
G37*
%TD.AperFunction*%
%TD*%
%TA.AperFunction,Conductor*%
%TO.N,/17*%
G36*
X267952536Y56312574D02*
G01*
X267958857Y56306230D01*
X267959357Y56298807D01*
X267752289Y55508734D01*
X267746876Y55501600D01*
X267740971Y55500000D01*
X267259029Y55500000D01*
X267250756Y55503427D01*
X267247711Y55508734D01*
X267040642Y56298807D01*
X267041860Y56307678D01*
X267047461Y56312573D01*
X267495504Y56499129D01*
X267504455Y56499145D01*
X267952536Y56312574D01*
G37*
%TD.AperFunction*%
%TD*%
%TA.AperFunction,Conductor*%
%TO.N,/17*%
G36*
X267952536Y105312574D02*
G01*
X267958857Y105306230D01*
X267959357Y105298807D01*
X267752289Y104508734D01*
X267746876Y104501600D01*
X267740971Y104500000D01*
X267259029Y104500000D01*
X267250756Y104503427D01*
X267247711Y104508734D01*
X267040642Y105298807D01*
X267041860Y105307678D01*
X267047461Y105312573D01*
X267495504Y105499129D01*
X267504455Y105499145D01*
X267952536Y105312574D01*
G37*
%TD.AperFunction*%
%TD*%
%TA.AperFunction,Conductor*%
%TO.N,/17*%
G36*
X267749244Y57496573D02*
G01*
X267752289Y57491266D01*
X267959357Y56701194D01*
X267958139Y56692323D01*
X267952536Y56687427D01*
X267504497Y56500873D01*
X267495543Y56500856D01*
X267495503Y56500873D01*
X267047463Y56687427D01*
X267041142Y56693771D01*
X267040642Y56701194D01*
X267247711Y57491266D01*
X267253124Y57498400D01*
X267259029Y57500000D01*
X267740971Y57500000D01*
X267749244Y57496573D01*
G37*
%TD.AperFunction*%
%TD*%
%TA.AperFunction,Conductor*%
%TO.N,/17*%
G36*
X267749244Y37496573D02*
G01*
X267752289Y37491266D01*
X267959357Y36701194D01*
X267958139Y36692323D01*
X267952536Y36687427D01*
X267504497Y36500873D01*
X267495543Y36500856D01*
X267495503Y36500873D01*
X267047463Y36687427D01*
X267041142Y36693771D01*
X267040642Y36701194D01*
X267247711Y37491266D01*
X267253124Y37498400D01*
X267259029Y37500000D01*
X267740971Y37500000D01*
X267749244Y37496573D01*
G37*
%TD.AperFunction*%
%TD*%
%TA.AperFunction,Conductor*%
%TO.N,/7*%
G36*
X288749244Y25996573D02*
G01*
X288752289Y25991266D01*
X288959357Y25201194D01*
X288958139Y25192323D01*
X288952536Y25187427D01*
X288504497Y25000873D01*
X288495543Y25000856D01*
X288495503Y25000873D01*
X288047463Y25187427D01*
X288041142Y25193771D01*
X288040642Y25201194D01*
X288247711Y25991266D01*
X288253124Y25998400D01*
X288259029Y26000000D01*
X288740971Y26000000D01*
X288749244Y25996573D01*
G37*
%TD.AperFunction*%
%TD*%
%TA.AperFunction,Conductor*%
%TO.N,/7*%
G36*
X288952536Y59812574D02*
G01*
X288958857Y59806230D01*
X288959357Y59798807D01*
X288752289Y59008734D01*
X288746876Y59001600D01*
X288740971Y59000000D01*
X288259029Y59000000D01*
X288250756Y59003427D01*
X288247711Y59008734D01*
X288040642Y59798807D01*
X288041860Y59807678D01*
X288047461Y59812573D01*
X288495504Y59999129D01*
X288504455Y59999145D01*
X288952536Y59812574D01*
G37*
%TD.AperFunction*%
%TD*%
%TA.AperFunction,Conductor*%
%TO.N,/7*%
G36*
X253029244Y96496573D02*
G01*
X253032289Y96491266D01*
X253239357Y95701194D01*
X253238139Y95692323D01*
X253232536Y95687427D01*
X252784497Y95500873D01*
X252775543Y95500856D01*
X252775503Y95500873D01*
X252327463Y95687427D01*
X252321142Y95693771D01*
X252320642Y95701194D01*
X252527711Y96491266D01*
X252533124Y96498400D01*
X252539029Y96500000D01*
X253020971Y96500000D01*
X253029244Y96496573D01*
G37*
%TD.AperFunction*%
%TD*%
%TA.AperFunction,Conductor*%
%TO.N,/7*%
G36*
X253232536Y114092574D02*
G01*
X253238857Y114086230D01*
X253239357Y114078807D01*
X253032289Y113288734D01*
X253026876Y113281600D01*
X253020971Y113280000D01*
X252539029Y113280000D01*
X252530756Y113283427D01*
X252527711Y113288734D01*
X252320642Y114078807D01*
X252321860Y114087678D01*
X252327461Y114092573D01*
X252775504Y114279129D01*
X252784455Y114279145D01*
X253232536Y114092574D01*
G37*
%TD.AperFunction*%
%TD*%
%TA.AperFunction,Conductor*%
%TO.N,/11*%
G36*
X165452536Y64812574D02*
G01*
X165458857Y64806230D01*
X165459357Y64798807D01*
X165252289Y64008734D01*
X165246876Y64001600D01*
X165240971Y64000000D01*
X164759029Y64000000D01*
X164750756Y64003427D01*
X164747711Y64008734D01*
X164540642Y64798807D01*
X164541860Y64807678D01*
X164547461Y64812573D01*
X164995504Y64999129D01*
X165004455Y64999145D01*
X165452536Y64812574D01*
G37*
%TD.AperFunction*%
%TD*%
%TA.AperFunction,Conductor*%
%TO.N,/11*%
G36*
X165249244Y27996573D02*
G01*
X165252289Y27991266D01*
X165459357Y27201194D01*
X165458139Y27192323D01*
X165452536Y27187427D01*
X165004497Y27000873D01*
X164995543Y27000856D01*
X164995503Y27000873D01*
X164547463Y27187427D01*
X164541142Y27193771D01*
X164540642Y27201194D01*
X164747711Y27991266D01*
X164753124Y27998400D01*
X164759029Y28000000D01*
X165240971Y28000000D01*
X165249244Y27996573D01*
G37*
%TD.AperFunction*%
%TD*%
%TA.AperFunction,Conductor*%
%TO.N,/11*%
G36*
X220457536Y105312574D02*
G01*
X220463857Y105306230D01*
X220464357Y105298807D01*
X220257289Y104508734D01*
X220251876Y104501600D01*
X220245971Y104500000D01*
X219764029Y104500000D01*
X219755756Y104503427D01*
X219752711Y104508734D01*
X219545642Y105298807D01*
X219546860Y105307678D01*
X219552461Y105312573D01*
X220000504Y105499129D01*
X220009455Y105499145D01*
X220457536Y105312574D01*
G37*
%TD.AperFunction*%
%TD*%
%TA.AperFunction,Conductor*%
%TO.N,/11*%
G36*
X220254244Y82991573D02*
G01*
X220257289Y82986266D01*
X220464357Y82196194D01*
X220463139Y82187323D01*
X220457536Y82182427D01*
X220009497Y81995873D01*
X220000543Y81995856D01*
X220000503Y81995873D01*
X219552463Y82182427D01*
X219546142Y82188771D01*
X219545642Y82196194D01*
X219752711Y82986266D01*
X219758124Y82993400D01*
X219764029Y82995000D01*
X220245971Y82995000D01*
X220254244Y82991573D01*
G37*
%TD.AperFunction*%
%TD*%
%TA.AperFunction,Conductor*%
%TO.N,/11*%
G36*
X165452536Y26812574D02*
G01*
X165458857Y26806230D01*
X165459357Y26798807D01*
X165252289Y26008734D01*
X165246876Y26001600D01*
X165240971Y26000000D01*
X164759029Y26000000D01*
X164750756Y26003427D01*
X164747711Y26008734D01*
X164540642Y26798807D01*
X164541860Y26807678D01*
X164547461Y26812573D01*
X164995504Y26999129D01*
X165004455Y26999145D01*
X165452536Y26812574D01*
G37*
%TD.AperFunction*%
%TD*%
%TA.AperFunction,Conductor*%
%TO.N,/11*%
G36*
X165249244Y19496573D02*
G01*
X165252289Y19491266D01*
X165459357Y18701194D01*
X165458139Y18692323D01*
X165452536Y18687427D01*
X165004497Y18500873D01*
X164995543Y18500856D01*
X164995503Y18500873D01*
X164547463Y18687427D01*
X164541142Y18693771D01*
X164540642Y18701194D01*
X164747711Y19491266D01*
X164753124Y19498400D01*
X164759029Y19500000D01*
X165240971Y19500000D01*
X165249244Y19496573D01*
G37*
%TD.AperFunction*%
%TD*%
%TA.AperFunction,Conductor*%
%TO.N,/11*%
G36*
X165169662Y64996573D02*
G01*
X165173089Y64988300D01*
X165169662Y64980027D01*
X165164426Y64977001D01*
X164585063Y64821291D01*
X164576184Y64822453D01*
X164570727Y64829553D01*
X164571889Y64838432D01*
X164574182Y64841271D01*
X164746659Y64996985D01*
X164754499Y65000000D01*
X165161389Y65000000D01*
X165169662Y64996573D01*
G37*
%TD.AperFunction*%
%TD*%
%TA.AperFunction,Conductor*%
%TO.N,/11*%
G36*
X165452536Y79812574D02*
G01*
X165458857Y79806230D01*
X165459357Y79798807D01*
X165252289Y79008734D01*
X165246876Y79001600D01*
X165240971Y79000000D01*
X164759029Y79000000D01*
X164750756Y79003427D01*
X164747711Y79008734D01*
X164540642Y79798807D01*
X164541860Y79807678D01*
X164547461Y79812573D01*
X164995504Y79999129D01*
X165004455Y79999145D01*
X165452536Y79812574D01*
G37*
%TD.AperFunction*%
%TD*%
%TA.AperFunction,Conductor*%
%TO.N,/1*%
G36*
X135952536Y116812574D02*
G01*
X135958857Y116806230D01*
X135959357Y116798807D01*
X135752289Y116008734D01*
X135746876Y116001600D01*
X135740971Y116000000D01*
X135259029Y116000000D01*
X135250756Y116003427D01*
X135247711Y116008734D01*
X135040642Y116798807D01*
X135041860Y116807678D01*
X135047461Y116812573D01*
X135495504Y116999129D01*
X135504455Y116999145D01*
X135952536Y116812574D01*
G37*
%TD.AperFunction*%
%TD*%
%TA.AperFunction,Conductor*%
%TO.N,/1*%
G36*
X135749244Y84996573D02*
G01*
X135752289Y84991266D01*
X135959357Y84201194D01*
X135958139Y84192323D01*
X135952536Y84187427D01*
X135504497Y84000873D01*
X135495543Y84000856D01*
X135495503Y84000873D01*
X135047463Y84187427D01*
X135041142Y84193771D01*
X135040642Y84201194D01*
X135247711Y84991266D01*
X135253124Y84998400D01*
X135259029Y85000000D01*
X135740971Y85000000D01*
X135749244Y84996573D01*
G37*
%TD.AperFunction*%
%TD*%
%TA.AperFunction,Conductor*%
%TO.N,/2*%
G36*
X142952536Y116312574D02*
G01*
X142958857Y116306230D01*
X142959357Y116298807D01*
X142752289Y115508734D01*
X142746876Y115501600D01*
X142740971Y115500000D01*
X142259029Y115500000D01*
X142250756Y115503427D01*
X142247711Y115508734D01*
X142040642Y116298807D01*
X142041860Y116307678D01*
X142047461Y116312573D01*
X142495504Y116499129D01*
X142504455Y116499145D01*
X142952536Y116312574D01*
G37*
%TD.AperFunction*%
%TD*%
%TA.AperFunction,Conductor*%
%TO.N,/2*%
G36*
X142749244Y84996573D02*
G01*
X142752289Y84991266D01*
X142959357Y84201194D01*
X142958139Y84192323D01*
X142952536Y84187427D01*
X142504497Y84000873D01*
X142495543Y84000856D01*
X142495503Y84000873D01*
X142047463Y84187427D01*
X142041142Y84193771D01*
X142040642Y84201194D01*
X142247711Y84991266D01*
X142253124Y84998400D01*
X142259029Y85000000D01*
X142740971Y85000000D01*
X142749244Y84996573D01*
G37*
%TD.AperFunction*%
%TD*%
%TA.AperFunction,Conductor*%
%TO.N,/2*%
G36*
X110249244Y65996573D02*
G01*
X110252289Y65991266D01*
X110459357Y65201194D01*
X110458139Y65192323D01*
X110452536Y65187427D01*
X110004497Y65000873D01*
X109995543Y65000856D01*
X109995503Y65000873D01*
X109547463Y65187427D01*
X109541142Y65193771D01*
X109540642Y65201194D01*
X109747711Y65991266D01*
X109753124Y65998400D01*
X109759029Y66000000D01*
X110240971Y66000000D01*
X110249244Y65996573D01*
G37*
%TD.AperFunction*%
%TD*%
%TA.AperFunction,Conductor*%
%TO.N,/2*%
G36*
X110452536Y90312574D02*
G01*
X110458857Y90306230D01*
X110459357Y90298807D01*
X110252289Y89508734D01*
X110246876Y89501600D01*
X110240971Y89500000D01*
X109759029Y89500000D01*
X109750756Y89503427D01*
X109747711Y89508734D01*
X109540642Y90298807D01*
X109541860Y90307678D01*
X109547461Y90312573D01*
X109995504Y90499129D01*
X110004455Y90499145D01*
X110452536Y90312574D01*
G37*
%TD.AperFunction*%
%TD*%
%TA.AperFunction,Conductor*%
%TO.N,/12*%
G36*
X65236886Y28994087D02*
G01*
X65239884Y28988952D01*
X65459166Y28201306D01*
X65458084Y28192417D01*
X65452392Y28187367D01*
X65004497Y28000873D01*
X64995543Y28000856D01*
X64995503Y28000873D01*
X64547333Y28187481D01*
X64541012Y28193825D01*
X64540472Y28201092D01*
X64735301Y28988624D01*
X64740615Y28995832D01*
X64746659Y28997514D01*
X65228613Y28997514D01*
X65236886Y28994087D01*
G37*
%TD.AperFunction*%
%TD*%
%TA.AperFunction,Conductor*%
%TO.N,/12*%
G36*
X65440036Y45312574D02*
G01*
X65446357Y45306230D01*
X65446857Y45298807D01*
X65239789Y44508734D01*
X65234376Y44501600D01*
X65228471Y44500000D01*
X64746529Y44500000D01*
X64738256Y44503427D01*
X64735211Y44508734D01*
X64528142Y45298807D01*
X64529360Y45307678D01*
X64534961Y45312573D01*
X64983004Y45499129D01*
X64991955Y45499145D01*
X65440036Y45312574D01*
G37*
%TD.AperFunction*%
%TD*%
%TA.AperFunction,Conductor*%
%TO.N,/12*%
G36*
X65452536Y27812574D02*
G01*
X65458857Y27806230D01*
X65459357Y27798807D01*
X65252289Y27008734D01*
X65246876Y27001600D01*
X65240971Y27000000D01*
X64759029Y27000000D01*
X64750756Y27003427D01*
X64747711Y27008734D01*
X64540642Y27798807D01*
X64541860Y27807678D01*
X64547461Y27812573D01*
X64995504Y27999129D01*
X65004455Y27999145D01*
X65452536Y27812574D01*
G37*
%TD.AperFunction*%
%TD*%
%TA.AperFunction,Conductor*%
%TO.N,/12*%
G36*
X65249244Y4996573D02*
G01*
X65252289Y4991266D01*
X65459357Y4201194D01*
X65458139Y4192323D01*
X65452536Y4187427D01*
X65004497Y4000873D01*
X64995543Y4000856D01*
X64995503Y4000873D01*
X64547463Y4187427D01*
X64541142Y4193771D01*
X64540642Y4201194D01*
X64747711Y4991266D01*
X64753124Y4998400D01*
X64759029Y5000000D01*
X65240971Y5000000D01*
X65249244Y4996573D01*
G37*
%TD.AperFunction*%
%TD*%
%TA.AperFunction,Conductor*%
%TO.N,/12*%
G36*
X196249244Y85996573D02*
G01*
X196252289Y85991266D01*
X196459357Y85201194D01*
X196458139Y85192323D01*
X196452536Y85187427D01*
X196004497Y85000873D01*
X195995543Y85000856D01*
X195995503Y85000873D01*
X195547463Y85187427D01*
X195541142Y85193771D01*
X195540642Y85201194D01*
X195747711Y85991266D01*
X195753124Y85998400D01*
X195759029Y86000000D01*
X196240971Y86000000D01*
X196249244Y85996573D01*
G37*
%TD.AperFunction*%
%TD*%
%TA.AperFunction,Conductor*%
%TO.N,/12*%
G36*
X196452536Y106812574D02*
G01*
X196458857Y106806230D01*
X196459357Y106798807D01*
X196252289Y106008734D01*
X196246876Y106001600D01*
X196240971Y106000000D01*
X195759029Y106000000D01*
X195750756Y106003427D01*
X195747711Y106008734D01*
X195540642Y106798807D01*
X195541860Y106807678D01*
X195547461Y106812573D01*
X195995504Y106999129D01*
X196004455Y106999145D01*
X196452536Y106812574D01*
G37*
%TD.AperFunction*%
%TD*%
%TA.AperFunction,Conductor*%
%TO.N,/12*%
G36*
X196249244Y50996573D02*
G01*
X196252289Y50991266D01*
X196459357Y50201194D01*
X196458139Y50192323D01*
X196452536Y50187427D01*
X196004497Y50000873D01*
X195995543Y50000856D01*
X195995503Y50000873D01*
X195547463Y50187427D01*
X195541142Y50193771D01*
X195540642Y50201194D01*
X195747711Y50991266D01*
X195753124Y50998400D01*
X195759029Y51000000D01*
X196240971Y51000000D01*
X196249244Y50996573D01*
G37*
%TD.AperFunction*%
%TD*%
%TA.AperFunction,Conductor*%
%TO.N,/12*%
G36*
X196452536Y84812574D02*
G01*
X196458857Y84806230D01*
X196459357Y84798807D01*
X196252289Y84008734D01*
X196246876Y84001600D01*
X196240971Y84000000D01*
X195759029Y84000000D01*
X195750756Y84003427D01*
X195747711Y84008734D01*
X195540642Y84798807D01*
X195541860Y84807678D01*
X195547461Y84812573D01*
X195995504Y84999129D01*
X196004455Y84999145D01*
X196452536Y84812574D01*
G37*
%TD.AperFunction*%
%TD*%
%TA.AperFunction,Conductor*%
%TO.N,/5*%
G36*
X100452536Y114812574D02*
G01*
X100458857Y114806230D01*
X100459357Y114798807D01*
X100252289Y114008734D01*
X100246876Y114001600D01*
X100240971Y114000000D01*
X99759029Y114000000D01*
X99750756Y114003427D01*
X99747711Y114008734D01*
X99540642Y114798807D01*
X99541860Y114807678D01*
X99547461Y114812573D01*
X99995504Y114999129D01*
X100004455Y114999145D01*
X100452536Y114812574D01*
G37*
%TD.AperFunction*%
%TD*%
%TA.AperFunction,Conductor*%
%TO.N,/5*%
G36*
X100249244Y89496573D02*
G01*
X100252289Y89491266D01*
X100459357Y88701194D01*
X100458139Y88692323D01*
X100452536Y88687427D01*
X100004497Y88500873D01*
X99995543Y88500856D01*
X99995503Y88500873D01*
X99547463Y88687427D01*
X99541142Y88693771D01*
X99540642Y88701194D01*
X99747711Y89491266D01*
X99753124Y89498400D01*
X99759029Y89500000D01*
X100240971Y89500000D01*
X100249244Y89496573D01*
G37*
%TD.AperFunction*%
%TD*%
%TA.AperFunction,Conductor*%
%TO.N,/5*%
G36*
X100452536Y44312574D02*
G01*
X100458857Y44306230D01*
X100459357Y44298807D01*
X100252289Y43508734D01*
X100246876Y43501600D01*
X100240971Y43500000D01*
X99759029Y43500000D01*
X99750756Y43503427D01*
X99747711Y43508734D01*
X99540642Y44298807D01*
X99541860Y44307678D01*
X99547461Y44312573D01*
X99995504Y44499129D01*
X100004455Y44499145D01*
X100452536Y44312574D01*
G37*
%TD.AperFunction*%
%TD*%
%TA.AperFunction,Conductor*%
%TO.N,/5*%
G36*
X100249244Y25496573D02*
G01*
X100252289Y25491266D01*
X100459357Y24701194D01*
X100458139Y24692323D01*
X100452536Y24687427D01*
X100004497Y24500873D01*
X99995543Y24500856D01*
X99995503Y24500873D01*
X99547463Y24687427D01*
X99541142Y24693771D01*
X99540642Y24701194D01*
X99747711Y25491266D01*
X99753124Y25498400D01*
X99759029Y25500000D01*
X100240971Y25500000D01*
X100249244Y25496573D01*
G37*
%TD.AperFunction*%
%TD*%
%TA.AperFunction,Conductor*%
%TO.N,/5*%
G36*
X100249244Y45496573D02*
G01*
X100252289Y45491266D01*
X100459357Y44701194D01*
X100458139Y44692323D01*
X100452536Y44687427D01*
X100004497Y44500873D01*
X99995543Y44500856D01*
X99995503Y44500873D01*
X99547463Y44687427D01*
X99541142Y44693771D01*
X99540642Y44701194D01*
X99747711Y45491266D01*
X99753124Y45498400D01*
X99759029Y45500000D01*
X100240971Y45500000D01*
X100249244Y45496573D01*
G37*
%TD.AperFunction*%
%TD*%
%TA.AperFunction,Conductor*%
%TO.N,/5*%
G36*
X100452536Y88312574D02*
G01*
X100458857Y88306230D01*
X100459357Y88298807D01*
X100252289Y87508734D01*
X100246876Y87501600D01*
X100240971Y87500000D01*
X99759029Y87500000D01*
X99750756Y87503427D01*
X99747711Y87508734D01*
X99540642Y88298807D01*
X99541860Y88307678D01*
X99547461Y88312573D01*
X99995504Y88499129D01*
X100004455Y88499145D01*
X100452536Y88312574D01*
G37*
%TD.AperFunction*%
%TD*%
%TA.AperFunction,Conductor*%
%TO.N,/10*%
G36*
X103249244Y3496573D02*
G01*
X103252289Y3491266D01*
X103459357Y2701194D01*
X103458139Y2692323D01*
X103452536Y2687427D01*
X103004497Y2500873D01*
X102995543Y2500856D01*
X102995503Y2500873D01*
X102547463Y2687427D01*
X102541142Y2693771D01*
X102540642Y2701194D01*
X102747711Y3491266D01*
X102753124Y3498400D01*
X102759029Y3500000D01*
X103240971Y3500000D01*
X103249244Y3496573D01*
G37*
%TD.AperFunction*%
%TD*%
%TA.AperFunction,Conductor*%
%TO.N,/10*%
G36*
X103452536Y26312574D02*
G01*
X103458857Y26306230D01*
X103459357Y26298807D01*
X103252289Y25508734D01*
X103246876Y25501600D01*
X103240971Y25500000D01*
X102759029Y25500000D01*
X102750756Y25503427D01*
X102747711Y25508734D01*
X102540642Y26298807D01*
X102541860Y26307678D01*
X102547461Y26312573D01*
X102995504Y26499129D01*
X103004455Y26499145D01*
X103452536Y26312574D01*
G37*
%TD.AperFunction*%
%TD*%
%TA.AperFunction,Conductor*%
%TO.N,/10*%
G36*
X246952536Y105312574D02*
G01*
X246958857Y105306230D01*
X246959357Y105298807D01*
X246752289Y104508734D01*
X246746876Y104501600D01*
X246740971Y104500000D01*
X246259029Y104500000D01*
X246250756Y104503427D01*
X246247711Y104508734D01*
X246040642Y105298807D01*
X246041860Y105307678D01*
X246047461Y105312573D01*
X246495504Y105499129D01*
X246504455Y105499145D01*
X246952536Y105312574D01*
G37*
%TD.AperFunction*%
%TD*%
%TA.AperFunction,Conductor*%
%TO.N,/10*%
G36*
X246749244Y84496573D02*
G01*
X246752289Y84491266D01*
X246959357Y83701194D01*
X246958139Y83692323D01*
X246952536Y83687427D01*
X246504497Y83500873D01*
X246495543Y83500856D01*
X246495503Y83500873D01*
X246047463Y83687427D01*
X246041142Y83693771D01*
X246040642Y83701194D01*
X246247711Y84491266D01*
X246253124Y84498400D01*
X246259029Y84500000D01*
X246740971Y84500000D01*
X246749244Y84496573D01*
G37*
%TD.AperFunction*%
%TD*%
%TA.AperFunction,Conductor*%
%TO.N,/10*%
G36*
X103452536Y50312574D02*
G01*
X103458857Y50306230D01*
X103459357Y50298807D01*
X103252289Y49508734D01*
X103246876Y49501600D01*
X103240971Y49500000D01*
X102759029Y49500000D01*
X102750756Y49503427D01*
X102747711Y49508734D01*
X102540642Y50298807D01*
X102541860Y50307678D01*
X102547461Y50312573D01*
X102995504Y50499129D01*
X103004455Y50499145D01*
X103452536Y50312574D01*
G37*
%TD.AperFunction*%
%TD*%
%TA.AperFunction,Conductor*%
%TO.N,/10*%
G36*
X103249244Y27496573D02*
G01*
X103252289Y27491266D01*
X103459357Y26701194D01*
X103458139Y26692323D01*
X103452536Y26687427D01*
X103004497Y26500873D01*
X102995543Y26500856D01*
X102995503Y26500873D01*
X102547463Y26687427D01*
X102541142Y26693771D01*
X102540642Y26701194D01*
X102747711Y27491266D01*
X102753124Y27498400D01*
X102759029Y27500000D01*
X103240971Y27500000D01*
X103249244Y27496573D01*
G37*
%TD.AperFunction*%
%TD*%
%TA.AperFunction,Conductor*%
%TO.N,/10*%
G36*
X103249244Y51496573D02*
G01*
X103252289Y51491266D01*
X103459357Y50701194D01*
X103458139Y50692323D01*
X103452536Y50687427D01*
X103004497Y50500873D01*
X102995543Y50500856D01*
X102995503Y50500873D01*
X102547463Y50687427D01*
X102541142Y50693771D01*
X102540642Y50701194D01*
X102747711Y51491266D01*
X102753124Y51498400D01*
X102759029Y51500000D01*
X103240971Y51500000D01*
X103249244Y51496573D01*
G37*
%TD.AperFunction*%
%TD*%
%TA.AperFunction,Conductor*%
%TO.N,/10*%
G36*
X103452536Y78812574D02*
G01*
X103458857Y78806230D01*
X103459357Y78798807D01*
X103252289Y78008734D01*
X103246876Y78001600D01*
X103240971Y78000000D01*
X102759029Y78000000D01*
X102750756Y78003427D01*
X102747711Y78008734D01*
X102540642Y78798807D01*
X102541860Y78807678D01*
X102547461Y78812573D01*
X102995504Y78999129D01*
X103004455Y78999145D01*
X103452536Y78812574D01*
G37*
%TD.AperFunction*%
%TD*%
%TA.AperFunction,Conductor*%
%TO.N,/13*%
G36*
X180249244Y83496573D02*
G01*
X180252289Y83491266D01*
X180459357Y82701194D01*
X180458139Y82692323D01*
X180452536Y82687427D01*
X180004497Y82500873D01*
X179995543Y82500856D01*
X179995503Y82500873D01*
X179547463Y82687427D01*
X179541142Y82693771D01*
X179540642Y82701194D01*
X179747711Y83491266D01*
X179753124Y83498400D01*
X179759029Y83500000D01*
X180240971Y83500000D01*
X180249244Y83496573D01*
G37*
%TD.AperFunction*%
%TD*%
%TA.AperFunction,Conductor*%
%TO.N,/13*%
G36*
X180452536Y105312574D02*
G01*
X180458857Y105306230D01*
X180459357Y105298807D01*
X180252289Y104508734D01*
X180246876Y104501600D01*
X180240971Y104500000D01*
X179759029Y104500000D01*
X179750756Y104503427D01*
X179747711Y104508734D01*
X179540642Y105298807D01*
X179541860Y105307678D01*
X179547461Y105312573D01*
X179995504Y105499129D01*
X180004455Y105499145D01*
X180452536Y105312574D01*
G37*
%TD.AperFunction*%
%TD*%
%TA.AperFunction,Conductor*%
%TO.N,/13*%
G36*
X90793120Y45040449D02*
G01*
X90796165Y45035142D01*
X91003233Y44245070D01*
X91002015Y44236199D01*
X90996412Y44231303D01*
X90548373Y44044749D01*
X90539419Y44044732D01*
X90539379Y44044749D01*
X90091339Y44231303D01*
X90085018Y44237647D01*
X90084518Y44245070D01*
X90291587Y45035142D01*
X90297000Y45042276D01*
X90302905Y45043876D01*
X90784847Y45043876D01*
X90793120Y45040449D01*
G37*
%TD.AperFunction*%
%TD*%
%TA.AperFunction,Conductor*%
%TO.N,/13*%
G36*
X90952019Y62812789D02*
G01*
X90952994Y62812383D01*
X90959315Y62806039D01*
X90959947Y62799176D01*
X90795829Y62018021D01*
X90790774Y62010630D01*
X90784379Y62008727D01*
X90302418Y62008727D01*
X90294145Y62012154D01*
X90291274Y62016863D01*
X90290904Y62018021D01*
X90041332Y62798427D01*
X90042076Y62807348D01*
X90047977Y62812788D01*
X90495504Y62999129D01*
X90504455Y62999145D01*
X90952019Y62812789D01*
G37*
%TD.AperFunction*%
%TD*%
%TA.AperFunction,Conductor*%
%TO.N,/13*%
G36*
X90952536Y91812574D02*
G01*
X90958857Y91806230D01*
X90959357Y91798807D01*
X90752289Y91008734D01*
X90746876Y91001600D01*
X90740971Y91000000D01*
X90259029Y91000000D01*
X90250756Y91003427D01*
X90247711Y91008734D01*
X90040642Y91798807D01*
X90041860Y91807678D01*
X90047461Y91812573D01*
X90495504Y91999129D01*
X90504455Y91999145D01*
X90952536Y91812574D01*
G37*
%TD.AperFunction*%
%TD*%
%TA.AperFunction,Conductor*%
%TO.N,/13*%
G36*
X90749244Y63996573D02*
G01*
X90752289Y63991266D01*
X90959357Y63201194D01*
X90958139Y63192323D01*
X90952536Y63187427D01*
X90504497Y63000873D01*
X90495543Y63000856D01*
X90495503Y63000873D01*
X90047463Y63187427D01*
X90041142Y63193771D01*
X90040642Y63201194D01*
X90247711Y63991266D01*
X90253124Y63998400D01*
X90259029Y64000000D01*
X90740971Y64000000D01*
X90749244Y63996573D01*
G37*
%TD.AperFunction*%
%TD*%
%TA.AperFunction,Conductor*%
%TO.N,/4*%
G36*
X245612536Y75312574D02*
G01*
X245618857Y75306230D01*
X245619357Y75298807D01*
X245412289Y74508734D01*
X245406876Y74501600D01*
X245400971Y74500000D01*
X244919029Y74500000D01*
X244910756Y74503427D01*
X244907711Y74508734D01*
X244700642Y75298807D01*
X244701860Y75307678D01*
X244707461Y75312573D01*
X245155504Y75499129D01*
X245164455Y75499145D01*
X245612536Y75312574D01*
G37*
%TD.AperFunction*%
%TD*%
%TA.AperFunction,Conductor*%
%TO.N,/4*%
G36*
X245409244Y50156573D02*
G01*
X245412289Y50151266D01*
X245619357Y49361194D01*
X245618139Y49352323D01*
X245612536Y49347427D01*
X245164497Y49160873D01*
X245155543Y49160856D01*
X245155503Y49160873D01*
X244707463Y49347427D01*
X244701142Y49353771D01*
X244700642Y49361194D01*
X244907711Y50151266D01*
X244913124Y50158400D01*
X244919029Y50160000D01*
X245400971Y50160000D01*
X245409244Y50156573D01*
G37*
%TD.AperFunction*%
%TD*%
%TA.AperFunction,Conductor*%
%TO.N,/15*%
G36*
X59952536Y74312574D02*
G01*
X59958857Y74306230D01*
X59959357Y74298807D01*
X59752289Y73508734D01*
X59746876Y73501600D01*
X59740971Y73500000D01*
X59259029Y73500000D01*
X59250756Y73503427D01*
X59247711Y73508734D01*
X59040642Y74298807D01*
X59041860Y74307678D01*
X59047461Y74312573D01*
X59495504Y74499129D01*
X59504455Y74499145D01*
X59952536Y74312574D01*
G37*
%TD.AperFunction*%
%TD*%
%TA.AperFunction,Conductor*%
%TO.N,/15*%
G36*
X59749244Y57996573D02*
G01*
X59752289Y57991266D01*
X59959357Y57201194D01*
X59958139Y57192323D01*
X59952536Y57187427D01*
X59504497Y57000873D01*
X59495543Y57000856D01*
X59495503Y57000873D01*
X59047463Y57187427D01*
X59041142Y57193771D01*
X59040642Y57201194D01*
X59247711Y57991266D01*
X59253124Y57998400D01*
X59259029Y58000000D01*
X59740971Y58000000D01*
X59749244Y57996573D01*
G37*
%TD.AperFunction*%
%TD*%
%TA.AperFunction,Conductor*%
%TO.N,/15*%
G36*
X168249244Y70996573D02*
G01*
X168252289Y70991266D01*
X168459357Y70201194D01*
X168458139Y70192323D01*
X168452536Y70187427D01*
X168004497Y70000873D01*
X167995543Y70000856D01*
X167995503Y70000873D01*
X167547463Y70187427D01*
X167541142Y70193771D01*
X167540642Y70201194D01*
X167747711Y70991266D01*
X167753124Y70998400D01*
X167759029Y71000000D01*
X168240971Y71000000D01*
X168249244Y70996573D01*
G37*
%TD.AperFunction*%
%TD*%
%TA.AperFunction,Conductor*%
%TO.N,/15*%
G36*
X168452536Y99812574D02*
G01*
X168458857Y99806230D01*
X168459357Y99798807D01*
X168252289Y99008734D01*
X168246876Y99001600D01*
X168240971Y99000000D01*
X167759029Y99000000D01*
X167750756Y99003427D01*
X167747711Y99008734D01*
X167540642Y99798807D01*
X167541860Y99807678D01*
X167547461Y99812573D01*
X167995504Y99999129D01*
X168004455Y99999145D01*
X168452536Y99812574D01*
G37*
%TD.AperFunction*%
%TD*%
%TA.AperFunction,Conductor*%
%TO.N,/15*%
G36*
X59749244Y38496573D02*
G01*
X59752289Y38491266D01*
X59959357Y37701194D01*
X59958139Y37692323D01*
X59952536Y37687427D01*
X59504497Y37500873D01*
X59495543Y37500856D01*
X59495503Y37500873D01*
X59047463Y37687427D01*
X59041142Y37693771D01*
X59040642Y37701194D01*
X59247711Y38491266D01*
X59253124Y38498400D01*
X59259029Y38500000D01*
X59740971Y38500000D01*
X59749244Y38496573D01*
G37*
%TD.AperFunction*%
%TD*%
%TA.AperFunction,Conductor*%
%TO.N,/15*%
G36*
X59952536Y56812574D02*
G01*
X59958857Y56806230D01*
X59959357Y56798807D01*
X59752289Y56008734D01*
X59746876Y56001600D01*
X59740971Y56000000D01*
X59259029Y56000000D01*
X59250756Y56003427D01*
X59247711Y56008734D01*
X59040642Y56798807D01*
X59041860Y56807678D01*
X59047461Y56812573D01*
X59495504Y56999129D01*
X59504455Y56999145D01*
X59952536Y56812574D01*
G37*
%TD.AperFunction*%
%TD*%
%TA.AperFunction,Conductor*%
%TO.N,/9*%
G36*
X120452536Y58812574D02*
G01*
X120458857Y58806230D01*
X120459357Y58798807D01*
X120252289Y58008734D01*
X120246876Y58001600D01*
X120240971Y58000000D01*
X119759029Y58000000D01*
X119750756Y58003427D01*
X119747711Y58008734D01*
X119540642Y58798807D01*
X119541860Y58807678D01*
X119547461Y58812573D01*
X119995504Y58999129D01*
X120004455Y58999145D01*
X120452536Y58812574D01*
G37*
%TD.AperFunction*%
%TD*%
%TA.AperFunction,Conductor*%
%TO.N,/9*%
G36*
X120249244Y47496573D02*
G01*
X120252289Y47491266D01*
X120459357Y46701194D01*
X120458139Y46692323D01*
X120452536Y46687427D01*
X120004497Y46500873D01*
X119995543Y46500856D01*
X119995503Y46500873D01*
X119547463Y46687427D01*
X119541142Y46693771D01*
X119540642Y46701194D01*
X119747711Y47491266D01*
X119753124Y47498400D01*
X119759029Y47500000D01*
X120240971Y47500000D01*
X120249244Y47496573D01*
G37*
%TD.AperFunction*%
%TD*%
%TA.AperFunction,Conductor*%
%TO.N,/9*%
G36*
X260249244Y27496573D02*
G01*
X260252289Y27491266D01*
X260459357Y26701194D01*
X260458139Y26692323D01*
X260452536Y26687427D01*
X260004497Y26500873D01*
X259995543Y26500856D01*
X259995503Y26500873D01*
X259547463Y26687427D01*
X259541142Y26693771D01*
X259540642Y26701194D01*
X259747711Y27491266D01*
X259753124Y27498400D01*
X259759029Y27500000D01*
X260240971Y27500000D01*
X260249244Y27496573D01*
G37*
%TD.AperFunction*%
%TD*%
%TA.AperFunction,Conductor*%
%TO.N,/9*%
G36*
X260452536Y62312574D02*
G01*
X260458857Y62306230D01*
X260459357Y62298807D01*
X260252289Y61508734D01*
X260246876Y61501600D01*
X260240971Y61500000D01*
X259759029Y61500000D01*
X259750756Y61503427D01*
X259747711Y61508734D01*
X259540642Y62298807D01*
X259541860Y62307678D01*
X259547461Y62312573D01*
X259995504Y62499129D01*
X260004455Y62499145D01*
X260452536Y62312574D01*
G37*
%TD.AperFunction*%
%TD*%
%TA.AperFunction,Conductor*%
%TO.N,/9*%
G36*
X260452536Y26312574D02*
G01*
X260458857Y26306230D01*
X260459357Y26298807D01*
X260252289Y25508734D01*
X260246876Y25501600D01*
X260240971Y25500000D01*
X259759029Y25500000D01*
X259750756Y25503427D01*
X259747711Y25508734D01*
X259540642Y26298807D01*
X259541860Y26307678D01*
X259547461Y26312573D01*
X259995504Y26499129D01*
X260004455Y26499145D01*
X260452536Y26312574D01*
G37*
%TD.AperFunction*%
%TD*%
%TA.AperFunction,Conductor*%
%TO.N,/9*%
G36*
X260249244Y10996573D02*
G01*
X260252289Y10991266D01*
X260459357Y10201194D01*
X260458139Y10192323D01*
X260452536Y10187427D01*
X260004497Y10000873D01*
X259995543Y10000856D01*
X259995503Y10000873D01*
X259547463Y10187427D01*
X259541142Y10193771D01*
X259540642Y10201194D01*
X259747711Y10991266D01*
X259753124Y10998400D01*
X259759029Y11000000D01*
X260240971Y11000000D01*
X260249244Y10996573D01*
G37*
%TD.AperFunction*%
%TD*%
%TA.AperFunction,Conductor*%
%TO.N,/9*%
G36*
X258109244Y79496573D02*
G01*
X258112289Y79491266D01*
X258319357Y78701194D01*
X258318139Y78692323D01*
X258312536Y78687427D01*
X257864497Y78500873D01*
X257855543Y78500856D01*
X257855503Y78500873D01*
X257407463Y78687427D01*
X257401142Y78693771D01*
X257400642Y78701194D01*
X257607711Y79491266D01*
X257613124Y79498400D01*
X257619029Y79500000D01*
X258100971Y79500000D01*
X258109244Y79496573D01*
G37*
%TD.AperFunction*%
%TD*%
%TA.AperFunction,Conductor*%
%TO.N,/9*%
G36*
X258312536Y122812574D02*
G01*
X258318857Y122806230D01*
X258319357Y122798807D01*
X258112289Y122008734D01*
X258106876Y122001600D01*
X258100971Y122000000D01*
X257619029Y122000000D01*
X257610756Y122003427D01*
X257607711Y122008734D01*
X257400642Y122798807D01*
X257401860Y122807678D01*
X257407461Y122812573D01*
X257855504Y122999129D01*
X257864455Y122999145D01*
X258312536Y122812574D01*
G37*
%TD.AperFunction*%
%TD*%
%TA.AperFunction,Conductor*%
%TO.N,/9*%
G36*
X258312536Y78312574D02*
G01*
X258318857Y78306230D01*
X258319357Y78298807D01*
X258112289Y77508734D01*
X258106876Y77501600D01*
X258100971Y77500000D01*
X257619029Y77500000D01*
X257610756Y77503427D01*
X257607711Y77508734D01*
X257400642Y78298807D01*
X257401860Y78307678D01*
X257407461Y78312573D01*
X257855504Y78499129D01*
X257864455Y78499145D01*
X258312536Y78312574D01*
G37*
%TD.AperFunction*%
%TD*%
%TA.AperFunction,Conductor*%
%TO.N,/9*%
G36*
X260249244Y63496573D02*
G01*
X260252289Y63491266D01*
X260459357Y62701194D01*
X260458139Y62692323D01*
X260452536Y62687427D01*
X260004497Y62500873D01*
X259995543Y62500856D01*
X259995503Y62500873D01*
X259547463Y62687427D01*
X259541142Y62693771D01*
X259540642Y62701194D01*
X259747711Y63491266D01*
X259753124Y63498400D01*
X259759029Y63500000D01*
X260240971Y63500000D01*
X260249244Y63496573D01*
G37*
%TD.AperFunction*%
%TD*%
%TA.AperFunction,Conductor*%
%TO.N,/2*%
G36*
X142749244Y27996573D02*
G01*
X142752289Y27991266D01*
X142959357Y27201194D01*
X142958139Y27192323D01*
X142952536Y27187427D01*
X142504497Y27000873D01*
X142495543Y27000856D01*
X142495503Y27000873D01*
X142047463Y27187427D01*
X142041142Y27193771D01*
X142040642Y27201194D01*
X142247711Y27991266D01*
X142253124Y27998400D01*
X142259029Y28000000D01*
X142740971Y28000000D01*
X142749244Y27996573D01*
G37*
%TD.AperFunction*%
%TD*%
%TA.AperFunction,Conductor*%
%TO.N,/2*%
G36*
X142669662Y44496573D02*
G01*
X142673089Y44488300D01*
X142669662Y44480027D01*
X142664426Y44477001D01*
X142085063Y44321291D01*
X142076184Y44322453D01*
X142070727Y44329553D01*
X142071889Y44338432D01*
X142074182Y44341271D01*
X142246659Y44496985D01*
X142254499Y44500000D01*
X142661389Y44500000D01*
X142669662Y44496573D01*
G37*
%TD.AperFunction*%
%TD*%
%TA.AperFunction,Conductor*%
%TO.N,/2*%
G36*
X142669662Y83996573D02*
G01*
X142673089Y83988300D01*
X142669662Y83980027D01*
X142664426Y83977001D01*
X142085063Y83821291D01*
X142076184Y83822453D01*
X142070727Y83829553D01*
X142071889Y83838432D01*
X142074182Y83841271D01*
X142246659Y83996985D01*
X142254499Y84000000D01*
X142661389Y84000000D01*
X142669662Y83996573D01*
G37*
%TD.AperFunction*%
%TD*%
%TA.AperFunction,Conductor*%
%TO.N,/1*%
G36*
X135749244Y65996573D02*
G01*
X135752289Y65991266D01*
X135959357Y65201194D01*
X135958139Y65192323D01*
X135952536Y65187427D01*
X135504497Y65000873D01*
X135495543Y65000856D01*
X135495503Y65000873D01*
X135047463Y65187427D01*
X135041142Y65193771D01*
X135040642Y65201194D01*
X135247711Y65991266D01*
X135253124Y65998400D01*
X135259029Y66000000D01*
X135740971Y66000000D01*
X135749244Y65996573D01*
G37*
%TD.AperFunction*%
%TD*%
%TA.AperFunction,Conductor*%
%TO.N,/1*%
G36*
X135952536Y83812574D02*
G01*
X135958857Y83806230D01*
X135959357Y83798807D01*
X135752289Y83008734D01*
X135746876Y83001600D01*
X135740971Y83000000D01*
X135259029Y83000000D01*
X135250756Y83003427D01*
X135247711Y83008734D01*
X135040642Y83798807D01*
X135041860Y83807678D01*
X135047461Y83812573D01*
X135495504Y83999129D01*
X135504455Y83999145D01*
X135952536Y83812574D01*
G37*
%TD.AperFunction*%
%TD*%
M02*
