%TF.GenerationSoftware,KiCad,Pcbnew,8.0.7*%
%TF.CreationDate,2025-01-11T19:00:38+10:30*%
%TF.ProjectId,pcb,7063622e-6b69-4636-9164-5f7063625858,0.1*%
%TF.SameCoordinates,PX1ffc7a0PYe2f9780*%
%TF.FileFunction,Soldermask,Top*%
%TF.FilePolarity,Negative*%
%FSLAX46Y46*%
G04 Gerber Fmt 4.6, Leading zero omitted, Abs format (unit mm)*
G04 Created by KiCad (PCBNEW 8.0.7) date 2025-01-11 19:00:38*
%MOMM*%
%LPD*%
G01*
G04 APERTURE LIST*
G04 Aperture macros list*
%AMRoundRect*
0 Rectangle with rounded corners*
0 $1 Rounding radius*
0 $2 $3 $4 $5 $6 $7 $8 $9 X,Y pos of 4 corners*
0 Add a 4 corners polygon primitive as box body*
4,1,4,$2,$3,$4,$5,$6,$7,$8,$9,$2,$3,0*
0 Add four circle primitives for the rounded corners*
1,1,$1+$1,$2,$3*
1,1,$1+$1,$4,$5*
1,1,$1+$1,$6,$7*
1,1,$1+$1,$8,$9*
0 Add four rect primitives between the rounded corners*
20,1,$1+$1,$2,$3,$4,$5,0*
20,1,$1+$1,$4,$5,$6,$7,0*
20,1,$1+$1,$6,$7,$8,$9,0*
20,1,$1+$1,$8,$9,$2,$3,0*%
%AMRotRect*
0 Rectangle, with rotation*
0 The origin of the aperture is its center*
0 $1 length*
0 $2 width*
0 $3 Rotation angle, in degrees counterclockwise*
0 Add horizontal line*
21,1,$1,$2,0,0,$3*%
G04 Aperture macros list end*
%ADD10RotRect,2.500000X3.500000X225.000000*%
%ADD11C,2.000000*%
%ADD12R,3.500000X2.500000*%
%ADD13RoundRect,0.350000X-0.350000X-4.900000X0.350000X-4.900000X0.350000X4.900000X-0.350000X4.900000X0*%
%ADD14RotRect,2.500000X3.500000X45.000000*%
%ADD15R,4.000000X2.800000*%
G04 APERTURE END LIST*
D10*
%TO.C,SW71*%
X305824874Y52974874D03*
X300875126Y48025126D03*
%TD*%
%TO.C,SW21*%
X234387374Y33924874D03*
X229437626Y28975126D03*
%TD*%
%TO.C,SW10*%
X191524874Y91074874D03*
X186575126Y86125126D03*
%TD*%
%TO.C,SW44*%
X162949874Y72024874D03*
X158000126Y67075126D03*
%TD*%
%TO.C,SW15*%
X258199874Y72024874D03*
X253250126Y67075126D03*
%TD*%
%TO.C,SW11*%
X229624874Y91074874D03*
X224675126Y86125126D03*
%TD*%
%TO.C,SW31*%
X181999874Y72024874D03*
X177050126Y67075126D03*
%TD*%
%TO.C,SW33*%
X186762374Y52974874D03*
X181812626Y48025126D03*
%TD*%
%TO.C,SW25*%
X101037374Y33924874D03*
X96087626Y28975126D03*
%TD*%
%TO.C,SW20*%
X215337374Y33924874D03*
X210387626Y28975126D03*
%TD*%
%TO.C,SW43*%
X124849874Y72024874D03*
X119900126Y67075126D03*
%TD*%
%TO.C,SW54*%
X224862374Y14874874D03*
X219912626Y9925126D03*
%TD*%
%TO.C,SW4*%
X77224874Y91074874D03*
X72275126Y86125126D03*
%TD*%
%TO.C,SW42*%
X72462374Y52974874D03*
X67512626Y48025126D03*
%TD*%
%TO.C,SW28*%
X110562374Y52974874D03*
X105612626Y48025126D03*
%TD*%
D11*
%TO.C,FID2*%
X348000000Y111500000D03*
%TD*%
D10*
%TO.C,SW22*%
X253437374Y33924874D03*
X248487626Y28975126D03*
%TD*%
%TO.C,SW5*%
X96274874Y91074874D03*
X91325126Y86125126D03*
%TD*%
%TO.C,SW17*%
X243912374Y52974874D03*
X238962626Y48025126D03*
%TD*%
D12*
%TO.C,SW55*%
X26400000Y105500000D03*
X26400000Y112500000D03*
%TD*%
D10*
%TO.C,SW48*%
X143899874Y72024874D03*
X138950126Y67075126D03*
%TD*%
D12*
%TO.C,SW60*%
X144400000Y112500000D03*
X144400000Y105500000D03*
%TD*%
%TO.C,SW59*%
X114900000Y112500000D03*
X114900000Y105500000D03*
%TD*%
%TO.C,SW63*%
X279525000Y112500000D03*
X279525000Y105500000D03*
%TD*%
D10*
%TO.C,SW3*%
X58174874Y91074874D03*
X53225126Y86125126D03*
%TD*%
D13*
%TO.C,J1*%
X237540000Y164250000D03*
X240080000Y164250000D03*
X242620000Y164250000D03*
X245160000Y164250000D03*
X247700000Y164250000D03*
X250240000Y164250000D03*
X252780000Y164250000D03*
X255320000Y164250000D03*
X257860000Y164250000D03*
X260400000Y164250000D03*
X262940000Y164250000D03*
X265480000Y164250000D03*
X268020000Y164250000D03*
X270560000Y164250000D03*
X273100000Y164250000D03*
X275640000Y164250000D03*
X278180000Y164250000D03*
X280720000Y164250000D03*
X283260000Y164250000D03*
X285800000Y164250000D03*
X288340000Y164250000D03*
X290880000Y164250000D03*
X293420000Y164250000D03*
X295960000Y164250000D03*
%TD*%
D10*
%TO.C,SW18*%
X262962374Y52974874D03*
X258012626Y48025126D03*
%TD*%
%TO.C,SW41*%
X274868624Y14874874D03*
X269918876Y9925126D03*
%TD*%
%TO.C,SW1*%
X210574874Y91074874D03*
X205625126Y86125126D03*
%TD*%
%TO.C,SW23*%
X53412374Y52974874D03*
X48462626Y48025126D03*
%TD*%
%TO.C,SW50*%
X31981124Y33924874D03*
X27031376Y28975126D03*
%TD*%
%TO.C,SW36*%
X158187374Y33924874D03*
X153237626Y28975126D03*
%TD*%
%TO.C,SW46*%
X67699874Y72024874D03*
X62750126Y67075126D03*
%TD*%
%TO.C,SW29*%
X129612374Y52974874D03*
X124662626Y48025126D03*
%TD*%
%TO.C,SW32*%
X167712374Y52974874D03*
X162762626Y48025126D03*
%TD*%
%TO.C,SW66*%
X284393624Y62499874D03*
X279443876Y57550126D03*
%TD*%
%TO.C,SW37*%
X201049874Y72024874D03*
X196100126Y67075126D03*
%TD*%
%TO.C,SW26*%
X91512374Y52974874D03*
X86562626Y48025126D03*
%TD*%
%TO.C,SW2*%
X39124874Y91074874D03*
X34175126Y86125126D03*
%TD*%
D12*
%TO.C,SW56*%
X55900000Y105500000D03*
X55900000Y112500000D03*
%TD*%
D10*
%TO.C,SW24*%
X139137374Y33924874D03*
X134187626Y28975126D03*
%TD*%
%TO.C,SW49*%
X62937374Y33924874D03*
X57987626Y28975126D03*
%TD*%
%TO.C,SW58*%
X279631124Y33924874D03*
X274681376Y28975126D03*
%TD*%
%TO.C,SW38*%
X220099874Y72024874D03*
X215150126Y67075126D03*
%TD*%
%TO.C,SW72*%
X324874874Y72024874D03*
X319925126Y67075126D03*
%TD*%
%TO.C,SW52*%
X84368624Y14874874D03*
X79418876Y9925126D03*
%TD*%
%TO.C,SW51*%
X27218624Y52974874D03*
X22268876Y48025126D03*
%TD*%
%TO.C,SW35*%
X177237374Y33924874D03*
X172287626Y28975126D03*
%TD*%
%TO.C,SW30*%
X148662374Y52974874D03*
X143712626Y48025126D03*
%TD*%
%TO.C,SW40*%
X105799874Y72024874D03*
X100850126Y67075126D03*
%TD*%
%TO.C,SW13*%
X267724874Y91074874D03*
X262775126Y86125126D03*
%TD*%
D12*
%TO.C,SW57*%
X85400000Y105500000D03*
X85400000Y112500000D03*
%TD*%
%TO.C,SW70*%
X243650000Y112500000D03*
X243650000Y105500000D03*
%TD*%
D10*
%TO.C,SW8*%
X153424874Y91074874D03*
X148475126Y86125126D03*
%TD*%
%TO.C,SW16*%
X224862374Y52974874D03*
X219912626Y48025126D03*
%TD*%
%TO.C,SW34*%
X205812374Y52974874D03*
X200862626Y48025126D03*
%TD*%
%TO.C,SW12*%
X248674874Y91074874D03*
X243725126Y86125126D03*
%TD*%
%TO.C,SW73*%
X324874874Y33924874D03*
X319925126Y28975126D03*
%TD*%
%TO.C,SW45*%
X120087374Y33924874D03*
X115137626Y28975126D03*
%TD*%
%TO.C,SW27*%
X86749874Y72024874D03*
X81800126Y67075126D03*
%TD*%
D14*
%TO.C,SW64*%
X281825126Y86125126D03*
X286774874Y91074874D03*
%TD*%
D10*
%TO.C,SW67*%
X158187374Y14874874D03*
X153237626Y9925126D03*
%TD*%
%TO.C,SW65*%
X249151124Y14874874D03*
X244201376Y9925126D03*
%TD*%
%TO.C,SW53*%
X58174874Y14874874D03*
X53225126Y9925126D03*
%TD*%
D12*
%TO.C,SW69*%
X214150000Y112500000D03*
X214150000Y105500000D03*
%TD*%
D10*
%TO.C,SW61*%
X20074874Y91074874D03*
X15125126Y86125126D03*
%TD*%
D11*
%TO.C,FID3*%
X2000000Y2000000D03*
%TD*%
D10*
%TO.C,SW47*%
X81987374Y33924874D03*
X77037626Y28975126D03*
%TD*%
%TO.C,SW39*%
X48649874Y72024874D03*
X43700126Y67075126D03*
%TD*%
%TO.C,SW7*%
X134374874Y91074874D03*
X129425126Y86125126D03*
%TD*%
%TO.C,SW62*%
X24837374Y72024874D03*
X19887626Y67075126D03*
%TD*%
%TO.C,SW74*%
X343924874Y52974874D03*
X338975126Y48025126D03*
%TD*%
%TO.C,SW6*%
X115324874Y91074874D03*
X110375126Y86125126D03*
%TD*%
%TO.C,SW9*%
X172474874Y91074874D03*
X167525126Y86125126D03*
%TD*%
%TO.C,SW14*%
X239149874Y72024874D03*
X234200126Y67075126D03*
%TD*%
D12*
%TO.C,SW68*%
X184650000Y112500000D03*
X184650000Y105500000D03*
%TD*%
D10*
%TO.C,SW19*%
X196287374Y33924874D03*
X191337626Y28975126D03*
%TD*%
D15*
%TO.C,D1*%
X331525000Y107100000D03*
X331525000Y110900000D03*
%TD*%
G36*
X12193039Y4730315D02*
G01*
X12238794Y4677511D01*
X12250000Y4626000D01*
X12250000Y874000D01*
X12230315Y806961D01*
X12177511Y761206D01*
X12126000Y750000D01*
X4874000Y750000D01*
X4806961Y769685D01*
X4761206Y822489D01*
X4750000Y874000D01*
X4750000Y4626000D01*
X4769685Y4693039D01*
X4822489Y4738794D01*
X4874000Y4750000D01*
X12126000Y4750000D01*
X12193039Y4730315D01*
G37*
G36*
X298443039Y169980315D02*
G01*
X298488794Y169927511D01*
X298500000Y169876000D01*
X298500000Y158624000D01*
X298480315Y158556961D01*
X298427511Y158511206D01*
X298376000Y158500000D01*
X235124000Y158500000D01*
X235056961Y158519685D01*
X235011206Y158572489D01*
X235000000Y158624000D01*
X235000000Y169876000D01*
X235019685Y169943039D01*
X235072489Y169988794D01*
X235124000Y170000000D01*
X298376000Y170000000D01*
X298443039Y169980315D01*
G37*
M02*
