%TF.GenerationSoftware,KiCad,Pcbnew,8.0.7*%
%TF.CreationDate,2025-01-07T22:54:27+10:30*%
%TF.ProjectId,pcb,7063622e-6b69-4636-9164-5f7063625858,0.1*%
%TF.SameCoordinates,PX1ffc7a0PYcb21f40*%
%TF.FileFunction,Profile,NP*%
%FSLAX46Y46*%
G04 Gerber Fmt 4.6, Leading zero omitted, Abs format (unit mm)*
G04 Created by KiCad (PCBNEW 8.0.7) date 2025-01-07 22:54:27*
%MOMM*%
%LPD*%
G01*
G04 APERTURE LIST*
%TA.AperFunction,Profile*%
%ADD10C,0.130000*%
%TD*%
G04 APERTURE END LIST*
D10*
X122750000Y120000000D02*
G75*
G02*
X123749994Y119003464I0J-1000000D01*
G01*
X7749994Y12200000D02*
G75*
G02*
X1249994Y12200000I-3250000J0D01*
G01*
X1249994Y12200000D02*
G75*
G02*
X7749994Y12200000I3250000J0D01*
G01*
X74253464Y120000000D02*
X122750000Y120000000D01*
X312400000Y15250000D02*
G75*
G02*
X312400000Y8750000I0J-3250000D01*
G01*
X349999994Y1000000D02*
G75*
G02*
X348999994Y6I-999994J0D01*
G01*
X179253464Y120000000D02*
X227500000Y120000000D01*
X73249994Y119000000D02*
G75*
G02*
X74253464Y120000000I1000006J0D01*
G01*
X7499994Y117000005D02*
G75*
G02*
X4499989Y114000006I-2999994J-5D01*
G01*
X1003464Y114000000D02*
X4499989Y114000000D01*
X10999994Y21200000D02*
G75*
G02*
X7999994Y21200000I-1500000J0D01*
G01*
X7999994Y21200000D02*
G75*
G02*
X10999994Y21200000I1500000J0D01*
G01*
X114999994Y6000000D02*
X108999994Y6000000D01*
X310600000Y15250000D02*
X312400000Y15250000D01*
X234999994Y117000000D02*
X234999994Y119000000D01*
X123749994Y117000000D02*
X123749994Y119003464D01*
X340999994Y118996536D02*
X340999994Y116500000D01*
X73249994Y117000000D02*
G75*
G02*
X66749994Y117000000I-3250000J0D01*
G01*
X304749994Y71500000D02*
G75*
G02*
X298249994Y71500000I-3250000J0D01*
G01*
X298249994Y71500000D02*
G75*
G02*
X304749994Y71500000I3250000J0D01*
G01*
X7499994Y117000005D02*
X7499994Y119000000D01*
X178249994Y117000000D02*
X178249994Y119000000D01*
X312400000Y8750000D02*
X310600000Y8750000D01*
X16599990Y8950000D02*
G75*
G02*
X16599990Y15450000I10J3250000D01*
G01*
X170750000Y120000000D02*
G75*
G02*
X171749994Y119003464I0J-1000000D01*
G01*
X298499994Y150263700D02*
X298499994Y170000000D01*
X235249994Y12000000D02*
G75*
G02*
X228749994Y12000000I-3250000J0D01*
G01*
X228749994Y12000000D02*
G75*
G02*
X235249994Y12000000I3250000J0D01*
G01*
X227500000Y120000000D02*
G75*
G02*
X228499994Y119003464I0J-1000000D01*
G01*
X178249994Y119000000D02*
G75*
G02*
X179253464Y120000000I1000006J0D01*
G01*
X73249994Y117000000D02*
X73249994Y119000000D01*
X7499994Y119000000D02*
G75*
G02*
X8503464Y120000000I1000006J0D01*
G01*
X195999994Y16000000D02*
X201999994Y16000000D01*
X130249994Y117000000D02*
G75*
G02*
X123749994Y117000000I-3250000J0D01*
G01*
X340000000Y120000000D02*
X319746536Y120000000D01*
X318749994Y117500000D02*
X318749994Y119000000D01*
X8503464Y120000000D02*
X65750000Y120000000D01*
X101749994Y12000000D02*
G75*
G02*
X95249994Y12000000I-3250000J0D01*
G01*
X95249994Y12000000D02*
G75*
G02*
X101749994Y12000000I3250000J0D01*
G01*
X228499994Y117000000D02*
X228499994Y119003464D01*
X-6Y1000000D02*
X-6Y113000000D01*
X347749994Y12000000D02*
G75*
G02*
X341249994Y12000000I-3250000J0D01*
G01*
X341249994Y12000000D02*
G75*
G02*
X347749994Y12000000I3250000J0D01*
G01*
X201999994Y6000000D02*
X195999994Y6000000D01*
X310600000Y8750000D02*
G75*
G02*
X310600000Y15250000I0J3250000D01*
G01*
X234999994Y119000000D02*
X234999994Y170000000D01*
X114999994Y16000000D02*
X114999994Y6000000D01*
X176499994Y97750000D02*
G75*
G02*
X173499994Y97750000I-1500000J0D01*
G01*
X173499994Y97750000D02*
G75*
G02*
X176499994Y97750000I1500000J0D01*
G01*
X315749994Y117500000D02*
X315749994Y119736300D01*
X314999994Y100500000D02*
G75*
G02*
X311999994Y100500000I-1500000J0D01*
G01*
X311999994Y100500000D02*
G75*
G02*
X314999994Y100500000I1500000J0D01*
G01*
X80249994Y57500000D02*
G75*
G02*
X73749994Y57500000I-3250000J0D01*
G01*
X73749994Y57500000D02*
G75*
G02*
X80249994Y57500000I3250000J0D01*
G01*
X298636307Y149759612D02*
G75*
G02*
X298500019Y150263700I864093J504088D01*
G01*
X298636307Y149759612D02*
X315620018Y120229369D01*
X167749994Y109000000D02*
G75*
G02*
X161249994Y109000000I-3250000J0D01*
G01*
X161249994Y109000000D02*
G75*
G02*
X167749994Y109000000I3250000J0D01*
G01*
X337749994Y57500000D02*
G75*
G02*
X331249994Y57500000I-3250000J0D01*
G01*
X331249994Y57500000D02*
G75*
G02*
X337749994Y57500000I3250000J0D01*
G01*
X296249994Y117000000D02*
G75*
G02*
X289749994Y117000000I-3250000J0D01*
G01*
X289749994Y117000000D02*
G75*
G02*
X296249994Y117000000I3250000J0D01*
G01*
X349999994Y1000000D02*
X349999994Y112503464D01*
X18399990Y15450000D02*
G75*
G02*
X18399990Y8950000I10J-3250000D01*
G01*
X340000000Y120000000D02*
G75*
G02*
X340999994Y118996536I0J-1000000D01*
G01*
X349000000Y113500000D02*
G75*
G02*
X349999994Y112503464I0J-1000000D01*
G01*
X131253464Y120000000D02*
X170750000Y120000000D01*
X234999994Y117000000D02*
G75*
G02*
X228499994Y117000000I-3250000J0D01*
G01*
X108999994Y6000000D02*
X108999994Y16000000D01*
X171749994Y117000000D02*
X171749994Y119003464D01*
X7749994Y57500000D02*
G75*
G02*
X1249994Y57500000I-3250000J0D01*
G01*
X1249994Y57500000D02*
G75*
G02*
X7749994Y57500000I3250000J0D01*
G01*
X-6Y113000000D02*
G75*
G02*
X1003464Y114000000I1000006J0D01*
G01*
X195999994Y6000000D02*
X195999994Y16000000D01*
X254249994Y50000000D02*
G75*
G02*
X247749994Y50000000I-3250000J0D01*
G01*
X247749994Y50000000D02*
G75*
G02*
X254249994Y50000000I3250000J0D01*
G01*
X1000000Y0D02*
G75*
G02*
X0Y1000000I0J1000000D01*
G01*
X1000000Y0D02*
X348999994Y0D01*
X18399990Y8950000D02*
X16599990Y8950000D01*
X65750000Y120000000D02*
G75*
G02*
X66749994Y119003464I0J-1000000D01*
G01*
X173249994Y12000000D02*
G75*
G02*
X166749994Y12000000I-3250000J0D01*
G01*
X166749994Y12000000D02*
G75*
G02*
X173249994Y12000000I3250000J0D01*
G01*
X194249994Y57500000D02*
G75*
G02*
X187749994Y57500000I-3250000J0D01*
G01*
X187749994Y57500000D02*
G75*
G02*
X194249994Y57500000I3250000J0D01*
G01*
X130249994Y119000000D02*
G75*
G02*
X131253464Y120000000I1000006J0D01*
G01*
X16599990Y15450000D02*
X18399990Y15450000D01*
X298499994Y170000000D02*
X234999994Y170000000D01*
X49249994Y12000000D02*
G75*
G02*
X42749994Y12000000I-3250000J0D01*
G01*
X42749994Y12000000D02*
G75*
G02*
X49249994Y12000000I3250000J0D01*
G01*
X296249994Y12000000D02*
G75*
G02*
X289749994Y12000000I-3250000J0D01*
G01*
X289749994Y12000000D02*
G75*
G02*
X296249994Y12000000I3250000J0D01*
G01*
X178249994Y117000000D02*
G75*
G02*
X171749994Y117000000I-3250000J0D01*
G01*
X130249994Y117000000D02*
X130249994Y119000000D01*
X318749994Y117500000D02*
G75*
G02*
X315749994Y117500000I-1500000J0D01*
G01*
X201999994Y16000000D02*
X201999994Y6000000D01*
X344000000Y113500000D02*
G75*
G02*
X341000000Y116500000I0J3000000D01*
G01*
X344000000Y113500000D02*
X349000000Y113500000D01*
X108999994Y16000000D02*
X114999994Y16000000D01*
X315620018Y120229369D02*
G75*
G02*
X315750014Y119736300I-869718J-492969D01*
G01*
X66749994Y117000000D02*
X66749994Y119003464D01*
X318749994Y119000000D02*
G75*
G02*
X319746536Y120000000I1000006J0D01*
G01*
X137249994Y57500000D02*
G75*
G02*
X130749994Y57500000I-3250000J0D01*
G01*
X130749994Y57500000D02*
G75*
G02*
X137249994Y57500000I3250000J0D01*
G01*
M02*
