%TF.GenerationSoftware,KiCad,Pcbnew,8.0.7*%
%TF.CreationDate,2025-01-07T22:54:27+10:30*%
%TF.ProjectId,pcb,7063622e-6b69-4636-9164-5f7063625858,0.1*%
%TF.SameCoordinates,PX1ffc7a0PYcb21f40*%
%TF.FileFunction,Copper,L1,Top*%
%TF.FilePolarity,Positive*%
%FSLAX46Y46*%
G04 Gerber Fmt 4.6, Leading zero omitted, Abs format (unit mm)*
G04 Created by KiCad (PCBNEW 8.0.7) date 2025-01-07 22:54:27*
%MOMM*%
%LPD*%
G01*
G04 APERTURE LIST*
G04 Aperture macros list*
%AMRoundRect*
0 Rectangle with rounded corners*
0 $1 Rounding radius*
0 $2 $3 $4 $5 $6 $7 $8 $9 X,Y pos of 4 corners*
0 Add a 4 corners polygon primitive as box body*
4,1,4,$2,$3,$4,$5,$6,$7,$8,$9,$2,$3,0*
0 Add four circle primitives for the rounded corners*
1,1,$1+$1,$2,$3*
1,1,$1+$1,$4,$5*
1,1,$1+$1,$6,$7*
1,1,$1+$1,$8,$9*
0 Add four rect primitives between the rounded corners*
20,1,$1+$1,$2,$3,$4,$5,0*
20,1,$1+$1,$4,$5,$6,$7,0*
20,1,$1+$1,$6,$7,$8,$9,0*
20,1,$1+$1,$8,$9,$2,$3,0*%
%AMRotRect*
0 Rectangle, with rotation*
0 The origin of the aperture is its center*
0 $1 length*
0 $2 width*
0 $3 Rotation angle, in degrees counterclockwise*
0 Add horizontal line*
21,1,$1,$2,0,0,$3*%
G04 Aperture macros list end*
%TA.AperFunction,SMDPad,CuDef*%
%ADD10RotRect,2.500000X3.500000X225.000000*%
%TD*%
%TA.AperFunction,SMDPad,CuDef*%
%ADD11C,1.000000*%
%TD*%
%TA.AperFunction,SMDPad,CuDef*%
%ADD12R,3.500000X2.500000*%
%TD*%
%TA.AperFunction,SMDPad,CuDef*%
%ADD13RoundRect,0.350000X-0.350000X-4.900000X0.350000X-4.900000X0.350000X4.900000X-0.350000X4.900000X0*%
%TD*%
%TA.AperFunction,SMDPad,CuDef*%
%ADD14R,1.000000X26.000000*%
%TD*%
%TA.AperFunction,SMDPad,CuDef*%
%ADD15R,4.000000X2.800000*%
%TD*%
%TA.AperFunction,ViaPad*%
%ADD16C,1.000000*%
%TD*%
%TA.AperFunction,Conductor*%
%ADD17C,0.500000*%
%TD*%
G04 APERTURE END LIST*
D10*
%TO.P,SW71,1,1*%
%TO.N,/6*%
X305824874Y52974874D03*
%TO.P,SW71,2,2*%
%TO.N,/9*%
X300875126Y48025126D03*
%TD*%
%TO.P,SW21,1,1*%
%TO.N,/17*%
X234387374Y33924874D03*
%TO.P,SW21,2,2*%
%TO.N,/9*%
X229437626Y28975126D03*
%TD*%
%TO.P,SW10,1,1*%
%TO.N,/4*%
X190984874Y91074874D03*
%TO.P,SW10,2,2*%
%TO.N,/13*%
X186035126Y86125126D03*
%TD*%
%TO.P,SW44,1,1*%
%TO.N,/15*%
X162988624Y72024874D03*
%TO.P,SW44,2,2*%
%TO.N,/11*%
X158038876Y67075126D03*
%TD*%
%TO.P,SW15,1,1*%
%TO.N,/4*%
X258238624Y72024874D03*
%TO.P,SW15,2,2*%
%TO.N,/1*%
X253288876Y67075126D03*
%TD*%
%TO.P,SW11,1,1*%
%TO.N,/4*%
X229084874Y91074874D03*
%TO.P,SW11,2,2*%
%TO.N,/11*%
X224135126Y86125126D03*
%TD*%
%TO.P,SW31,1,1*%
%TO.N,/16*%
X182038624Y72024874D03*
%TO.P,SW31,2,2*%
%TO.N,/1*%
X177088876Y67075126D03*
%TD*%
%TO.P,SW33,1,1*%
%TO.N,/3*%
X186762374Y52974874D03*
%TO.P,SW33,2,2*%
%TO.N,/12*%
X181812626Y48025126D03*
%TD*%
%TO.P,SW25,1,1*%
%TO.N,/16*%
X101037374Y33924874D03*
%TO.P,SW25,2,2*%
%TO.N,/12*%
X96087626Y28975126D03*
%TD*%
%TO.P,SW20,1,1*%
%TO.N,/17*%
X215337374Y33924874D03*
%TO.P,SW20,2,2*%
%TO.N,/10*%
X210387626Y28975126D03*
%TD*%
%TO.P,SW43,1,1*%
%TO.N,/15*%
X124888624Y72024874D03*
%TO.P,SW43,2,2*%
%TO.N,/13*%
X119938876Y67075126D03*
%TD*%
%TO.P,SW54,1,1*%
%TO.N,/8*%
X224862374Y14874874D03*
%TO.P,SW54,2,2*%
%TO.N,/9*%
X219912626Y9925126D03*
%TD*%
%TO.P,SW4,1,1*%
%TO.N,/14*%
X76684874Y91074874D03*
%TO.P,SW4,2,2*%
%TO.N,/10*%
X71735126Y86125126D03*
%TD*%
%TO.P,SW42,1,1*%
%TO.N,/15*%
X72462374Y52974874D03*
%TO.P,SW42,2,2*%
%TO.N,/12*%
X67512626Y48025126D03*
%TD*%
%TO.P,SW28,1,1*%
%TO.N,/16*%
X110562374Y52974874D03*
%TO.P,SW28,2,2*%
%TO.N,/10*%
X105612626Y48025126D03*
%TD*%
D11*
%TO.P,FID2,*%
%TO.N,*%
X348000000Y111500000D03*
%TD*%
D10*
%TO.P,SW22,1,1*%
%TO.N,/17*%
X253437374Y33924874D03*
%TO.P,SW22,2,2*%
%TO.N,/5*%
X248487626Y28975126D03*
%TD*%
%TO.P,SW5,1,1*%
%TO.N,/14*%
X95734874Y91074874D03*
%TO.P,SW5,2,2*%
%TO.N,/9*%
X90785126Y86125126D03*
%TD*%
%TO.P,SW17,1,1*%
%TO.N,/17*%
X243912374Y52974874D03*
%TO.P,SW17,2,2*%
%TO.N,/12*%
X238962626Y48025126D03*
%TD*%
D12*
%TO.P,SW55,1,1*%
%TO.N,/8*%
X26400000Y105500000D03*
%TO.P,SW55,2,2*%
%TO.N,/5*%
X26400000Y112500000D03*
%TD*%
D10*
%TO.P,SW48,1,1*%
%TO.N,/15*%
X143938624Y72024874D03*
%TO.P,SW48,2,2*%
%TO.N,/1*%
X138988876Y67075126D03*
%TD*%
D12*
%TO.P,SW60,1,1*%
%TO.N,/7*%
X144400000Y112500000D03*
%TO.P,SW60,2,2*%
%TO.N,/13*%
X144400000Y105500000D03*
%TD*%
%TO.P,SW59,1,1*%
%TO.N,/7*%
X114900000Y112500000D03*
%TO.P,SW59,2,2*%
%TO.N,/12*%
X114900000Y105500000D03*
%TD*%
%TO.P,SW63,1,1*%
%TO.N,/7*%
X279525000Y112500000D03*
%TO.P,SW63,2,2*%
%TO.N,/9*%
X279525000Y105500000D03*
%TD*%
D10*
%TO.P,SW3,1,1*%
%TO.N,/14*%
X57634874Y91074874D03*
%TO.P,SW3,2,2*%
%TO.N,/11*%
X52685126Y86125126D03*
%TD*%
D11*
%TO.P,FID1,*%
%TO.N,*%
X2000000Y2000000D03*
%TD*%
D13*
%TO.P,J1,1,Pin_1*%
%TO.N,/1*%
X237540000Y164250000D03*
D14*
X237540000Y146500000D03*
D13*
%TO.P,J1,2,Pin_2*%
%TO.N,/2*%
X240080000Y164250000D03*
D14*
X240080000Y146500000D03*
D13*
%TO.P,J1,3,Pin_3*%
%TO.N,/3*%
X242620000Y164250000D03*
D14*
X242620000Y146500000D03*
D13*
%TO.P,J1,4,Pin_4*%
%TO.N,/4*%
X245160000Y164250000D03*
D14*
X245160000Y146500000D03*
D13*
%TO.P,J1,5,Pin_5*%
%TO.N,/5*%
X247700000Y164250000D03*
D14*
X247700000Y146500000D03*
D13*
%TO.P,J1,6,Pin_6*%
%TO.N,/6*%
X250240000Y164250000D03*
D14*
X250240000Y146500000D03*
D13*
%TO.P,J1,7,Pin_7*%
%TO.N,/7*%
X252780000Y164250000D03*
D14*
X252780000Y146500000D03*
D13*
%TO.P,J1,8,Pin_8*%
%TO.N,/8*%
X255320000Y164250000D03*
D14*
X255320000Y146500000D03*
D13*
%TO.P,J1,9,Pin_9*%
%TO.N,/9*%
X257860000Y164250000D03*
D14*
X257860000Y146500000D03*
D13*
%TO.P,J1,10,Pin_10*%
%TO.N,/10*%
X260400000Y164250000D03*
D14*
X260400000Y146500000D03*
D13*
%TO.P,J1,11,Pin_11*%
%TO.N,/11*%
X262940000Y164250000D03*
D14*
X262940000Y146500000D03*
D13*
%TO.P,J1,12,Pin_12*%
%TO.N,/12*%
X265480000Y164250000D03*
D14*
X265480000Y146500000D03*
D13*
%TO.P,J1,13,Pin_13*%
%TO.N,/13*%
X268020000Y164250000D03*
D14*
X268020000Y146500000D03*
D13*
%TO.P,J1,14,Pin_14*%
%TO.N,/14*%
X270560000Y164250000D03*
D14*
X270560000Y146500000D03*
D13*
%TO.P,J1,15,Pin_15*%
%TO.N,/15*%
X273100000Y164250000D03*
D14*
X273100000Y146500000D03*
D13*
%TO.P,J1,16,Pin_16*%
%TO.N,/16*%
X275640000Y164250000D03*
D14*
X275640000Y146500000D03*
D13*
%TO.P,J1,17,Pin_17*%
%TO.N,/17*%
X278180000Y164250000D03*
D14*
X278180000Y146500000D03*
D13*
%TO.P,J1,18,Pin_18*%
%TO.N,unconnected-(J1-Pin_18-Pad18)*%
X280720000Y164250000D03*
D14*
%TO.N,unconnected-(J1-Pin_18-Pad18)_1*%
X280720000Y146500000D03*
D13*
%TO.P,J1,19,Pin_19*%
%TO.N,unconnected-(J1-Pin_19-Pad19)_1*%
X283260000Y164250000D03*
D14*
%TO.N,unconnected-(J1-Pin_19-Pad19)*%
X283260000Y146500000D03*
D13*
%TO.P,J1,20,Pin_20*%
%TO.N,unconnected-(J1-Pin_20-Pad20)*%
X285800000Y164250000D03*
D14*
%TO.N,unconnected-(J1-Pin_20-Pad20)_1*%
X285800000Y146500000D03*
D13*
%TO.P,J1,21,Pin_21*%
%TO.N,Net-(J1-Pin_21)*%
X288340000Y164250000D03*
D14*
X288340000Y146500000D03*
D13*
%TO.P,J1,22,Pin_22*%
%TO.N,Net-(J1-Pin_22)*%
X290880000Y164250000D03*
D14*
X290880000Y146500000D03*
D13*
%TO.P,J1,23,Pin_23*%
%TO.N,Net-(D1-K)*%
X293420000Y164250000D03*
D14*
X293420000Y146500000D03*
D13*
%TO.P,J1,24,Pin_24*%
%TO.N,Net-(D1-A)*%
X295960000Y164250000D03*
D14*
X295960000Y146500000D03*
%TD*%
D10*
%TO.P,SW18,1,1*%
%TO.N,/17*%
X262962374Y52974874D03*
%TO.P,SW18,2,2*%
%TO.N,/13*%
X258012626Y48025126D03*
%TD*%
%TO.P,SW41,1,1*%
%TO.N,Net-(J1-Pin_21)*%
X274962374Y14874874D03*
%TO.P,SW41,2,2*%
%TO.N,Net-(J1-Pin_22)*%
X270012626Y9925126D03*
%TD*%
%TO.P,SW1,1,1*%
%TO.N,/14*%
X210034874Y91074874D03*
%TO.P,SW1,2,2*%
%TO.N,/12*%
X205085126Y86125126D03*
%TD*%
%TO.P,SW23,1,1*%
%TO.N,/17*%
X53412374Y52974874D03*
%TO.P,SW23,2,2*%
%TO.N,/1*%
X48462626Y48025126D03*
%TD*%
%TO.P,SW50,1,1*%
%TO.N,/8*%
X31981124Y33924874D03*
%TO.P,SW50,2,2*%
%TO.N,/12*%
X27031376Y28975126D03*
%TD*%
%TO.P,SW36,1,1*%
%TO.N,/3*%
X158187374Y33924874D03*
%TO.P,SW36,2,2*%
%TO.N,/10*%
X153237626Y28975126D03*
%TD*%
%TO.P,SW46,1,1*%
%TO.N,/15*%
X67738624Y72024874D03*
%TO.P,SW46,2,2*%
%TO.N,/9*%
X62788876Y67075126D03*
%TD*%
%TO.P,SW29,1,1*%
%TO.N,/16*%
X129612374Y52974874D03*
%TO.P,SW29,2,2*%
%TO.N,/9*%
X124662626Y48025126D03*
%TD*%
%TO.P,SW32,1,1*%
%TO.N,/16*%
X167712374Y52974874D03*
%TO.P,SW32,2,2*%
%TO.N,/2*%
X162762626Y48025126D03*
%TD*%
%TO.P,SW66,1,1*%
%TO.N,/7*%
X284393624Y62499874D03*
%TO.P,SW66,2,2*%
%TO.N,/2*%
X279443876Y57550126D03*
%TD*%
%TO.P,SW37,1,1*%
%TO.N,/3*%
X201088624Y72024874D03*
%TO.P,SW37,2,2*%
%TO.N,/9*%
X196138876Y67075126D03*
%TD*%
%TO.P,SW26,1,1*%
%TO.N,/16*%
X91512374Y52974874D03*
%TO.P,SW26,2,2*%
%TO.N,/13*%
X86562626Y48025126D03*
%TD*%
%TO.P,SW2,1,1*%
%TO.N,/14*%
X38584874Y91074874D03*
%TO.P,SW2,2,2*%
%TO.N,/13*%
X33635126Y86125126D03*
%TD*%
D12*
%TO.P,SW56,1,1*%
%TO.N,/8*%
X55900000Y105500000D03*
%TO.P,SW56,2,2*%
%TO.N,/1*%
X55900000Y112500000D03*
%TD*%
D10*
%TO.P,SW24,1,1*%
%TO.N,/17*%
X139137374Y33924874D03*
%TO.P,SW24,2,2*%
%TO.N,/2*%
X134187626Y28975126D03*
%TD*%
%TO.P,SW49,1,1*%
%TO.N,/15*%
X62937374Y33924874D03*
%TO.P,SW49,2,2*%
%TO.N,/2*%
X57987626Y28975126D03*
%TD*%
%TO.P,SW58,1,1*%
%TO.N,/8*%
X279631124Y33924874D03*
%TO.P,SW58,2,2*%
%TO.N,/12*%
X274681376Y28975126D03*
%TD*%
%TO.P,SW38,1,1*%
%TO.N,/3*%
X220138624Y72024874D03*
%TO.P,SW38,2,2*%
%TO.N,/5*%
X215188876Y67075126D03*
%TD*%
%TO.P,SW72,1,1*%
%TO.N,/6*%
X324874874Y72024874D03*
%TO.P,SW72,2,2*%
%TO.N,/5*%
X319925126Y67075126D03*
%TD*%
%TO.P,SW52,1,1*%
%TO.N,/8*%
X84368624Y14874874D03*
%TO.P,SW52,2,2*%
%TO.N,/11*%
X79418876Y9925126D03*
%TD*%
%TO.P,SW51,1,1*%
%TO.N,/8*%
X27218624Y52974874D03*
%TO.P,SW51,2,2*%
%TO.N,/13*%
X22268876Y48025126D03*
%TD*%
%TO.P,SW35,1,1*%
%TO.N,/3*%
X177237374Y33924874D03*
%TO.P,SW35,2,2*%
%TO.N,/11*%
X172287626Y28975126D03*
%TD*%
%TO.P,SW30,1,1*%
%TO.N,/16*%
X148662374Y52974874D03*
%TO.P,SW30,2,2*%
%TO.N,/5*%
X143712626Y48025126D03*
%TD*%
%TO.P,SW40,1,1*%
%TO.N,/3*%
X105838624Y72024874D03*
%TO.P,SW40,2,2*%
%TO.N,/2*%
X100888876Y67075126D03*
%TD*%
%TO.P,SW13,1,1*%
%TO.N,/4*%
X267184874Y91074874D03*
%TO.P,SW13,2,2*%
%TO.N,/9*%
X262235126Y86125126D03*
%TD*%
D12*
%TO.P,SW57,1,1*%
%TO.N,/8*%
X85400000Y105500000D03*
%TO.P,SW57,2,2*%
%TO.N,/2*%
X85400000Y112500000D03*
%TD*%
%TO.P,SW70,1,1*%
%TO.N,/6*%
X243650000Y112500000D03*
%TO.P,SW70,2,2*%
%TO.N,/10*%
X243650000Y105500000D03*
%TD*%
D10*
%TO.P,SW8,1,1*%
%TO.N,/14*%
X152884874Y91074874D03*
%TO.P,SW8,2,2*%
%TO.N,/2*%
X147935126Y86125126D03*
%TD*%
%TO.P,SW16,1,1*%
%TO.N,/4*%
X224862374Y52974874D03*
%TO.P,SW16,2,2*%
%TO.N,/2*%
X219912626Y48025126D03*
%TD*%
%TO.P,SW34,1,1*%
%TO.N,/3*%
X205812374Y52974874D03*
%TO.P,SW34,2,2*%
%TO.N,/13*%
X200862626Y48025126D03*
%TD*%
%TO.P,SW12,1,1*%
%TO.N,/4*%
X248134874Y91074874D03*
%TO.P,SW12,2,2*%
%TO.N,/10*%
X243185126Y86125126D03*
%TD*%
%TO.P,SW73,1,1*%
%TO.N,/6*%
X324874874Y33924874D03*
%TO.P,SW73,2,2*%
%TO.N,/1*%
X319925126Y28975126D03*
%TD*%
%TO.P,SW45,1,1*%
%TO.N,/15*%
X120087374Y33924874D03*
%TO.P,SW45,2,2*%
%TO.N,/10*%
X115137626Y28975126D03*
%TD*%
%TO.P,SW27,1,1*%
%TO.N,/16*%
X86788624Y72024874D03*
%TO.P,SW27,2,2*%
%TO.N,/11*%
X81838876Y67075126D03*
%TD*%
%TO.P,SW64,1,1*%
%TO.N,/7*%
X286234874Y91074874D03*
%TO.P,SW64,2,2*%
%TO.N,/5*%
X281285126Y86125126D03*
%TD*%
%TO.P,SW67,1,1*%
%TO.N,/6*%
X158187374Y14874874D03*
%TO.P,SW67,2,2*%
%TO.N,/12*%
X153237626Y9925126D03*
%TD*%
%TO.P,SW65,1,1*%
%TO.N,/7*%
X249362374Y14874874D03*
%TO.P,SW65,2,2*%
%TO.N,/1*%
X244412626Y9925126D03*
%TD*%
%TO.P,SW53,1,1*%
%TO.N,/8*%
X58174874Y14874874D03*
%TO.P,SW53,2,2*%
%TO.N,/10*%
X53225126Y9925126D03*
%TD*%
D12*
%TO.P,SW69,1,1*%
%TO.N,/6*%
X214150000Y112500000D03*
%TO.P,SW69,2,2*%
%TO.N,/11*%
X214150000Y105500000D03*
%TD*%
D10*
%TO.P,SW61,1,1*%
%TO.N,/7*%
X20074874Y91074874D03*
%TO.P,SW61,2,2*%
%TO.N,/11*%
X15125126Y86125126D03*
%TD*%
%TO.P,SW47,1,1*%
%TO.N,/15*%
X81987374Y33924874D03*
%TO.P,SW47,2,2*%
%TO.N,/5*%
X77037626Y28975126D03*
%TD*%
%TO.P,SW39,1,1*%
%TO.N,/3*%
X48688624Y72024874D03*
%TO.P,SW39,2,2*%
%TO.N,/1*%
X43738876Y67075126D03*
%TD*%
%TO.P,SW7,1,1*%
%TO.N,/14*%
X133834874Y91074874D03*
%TO.P,SW7,2,2*%
%TO.N,/1*%
X128885126Y86125126D03*
%TD*%
%TO.P,SW62,1,1*%
%TO.N,/7*%
X24837374Y72024874D03*
%TO.P,SW62,2,2*%
%TO.N,/10*%
X19887626Y67075126D03*
%TD*%
%TO.P,SW74,1,1*%
%TO.N,/6*%
X343924874Y52974874D03*
%TO.P,SW74,2,2*%
%TO.N,/2*%
X338975126Y48025126D03*
%TD*%
%TO.P,SW6,1,1*%
%TO.N,/14*%
X114784874Y91074874D03*
%TO.P,SW6,2,2*%
%TO.N,/5*%
X109835126Y86125126D03*
%TD*%
%TO.P,SW9,1,1*%
%TO.N,/4*%
X171934874Y91074874D03*
%TO.P,SW9,2,2*%
%TO.N,/12*%
X166985126Y86125126D03*
%TD*%
%TO.P,SW14,1,1*%
%TO.N,/4*%
X239188624Y72024874D03*
%TO.P,SW14,2,2*%
%TO.N,/5*%
X234238876Y67075126D03*
%TD*%
D12*
%TO.P,SW68,1,1*%
%TO.N,/6*%
X184650000Y112500000D03*
%TO.P,SW68,2,2*%
%TO.N,/13*%
X184650000Y105500000D03*
%TD*%
D10*
%TO.P,SW19,1,1*%
%TO.N,/17*%
X196287374Y33924874D03*
%TO.P,SW19,2,2*%
%TO.N,/11*%
X191337626Y28975126D03*
%TD*%
D15*
%TO.P,D1,1,K*%
%TO.N,Net-(D1-K)*%
X331525000Y107100000D03*
%TO.P,D1,2,A*%
%TO.N,Net-(D1-A)*%
X331525000Y110900000D03*
%TD*%
D16*
%TO.N,/6*%
X190000000Y112500000D03*
X190000000Y4000000D03*
%TO.N,/16*%
X95000000Y50000000D03*
X95000000Y36000000D03*
X187500000Y97500000D03*
X187500000Y70000000D03*
X95000000Y70000000D03*
%TO.N,/3*%
X180500000Y55500000D03*
X180500000Y31500000D03*
X242620000Y77000000D03*
X209500000Y51000000D03*
X209500000Y74500000D03*
X242620000Y123000000D03*
%TO.N,/14*%
X215000000Y100000000D03*
X215000000Y90000000D03*
%TO.N,/17*%
X267500000Y105500000D03*
X267500000Y56500000D03*
X267500000Y36500000D03*
%TO.N,/7*%
X252780000Y114280000D03*
X288500000Y86500000D03*
X288500000Y60000000D03*
X288500000Y25000000D03*
X288500000Y112500000D03*
%TO.N,/11*%
X165000000Y27000000D03*
X165000000Y80000000D03*
X220005000Y105500000D03*
X220005000Y81995000D03*
X165000000Y65000000D03*
X165000000Y18500000D03*
%TO.N,/1*%
X257500000Y7500000D03*
X135500000Y117000000D03*
X135500000Y84000000D03*
X257500000Y64000000D03*
X135500000Y65543125D03*
%TO.N,/2*%
X110000000Y65000000D03*
X110000000Y90500000D03*
X142500000Y44500000D03*
X142500000Y116500000D03*
X142500000Y84000000D03*
X142500000Y26500000D03*
%TO.N,/12*%
X196000000Y85000000D03*
X65000000Y4000000D03*
X64987500Y45500000D03*
X196000000Y50000000D03*
X196000000Y107000000D03*
X65000000Y28000000D03*
%TO.N,/5*%
X100000000Y115000000D03*
X100000000Y88500000D03*
X100000000Y44500000D03*
X100000000Y24500000D03*
%TO.N,/10*%
X103000000Y2500000D03*
X246500000Y83500000D03*
X103000000Y79000000D03*
X103000000Y50500000D03*
X246500000Y105500000D03*
X103000000Y26500000D03*
%TO.N,/13*%
X90500000Y92000000D03*
X180000000Y105500000D03*
X90543876Y44043876D03*
X90500000Y63000000D03*
X180000000Y82500000D03*
%TO.N,/4*%
X245160000Y49160000D03*
X245160000Y75500000D03*
X245160000Y93000000D03*
X245160000Y123000000D03*
%TO.N,/15*%
X59500000Y37500000D03*
X59500000Y74500000D03*
X59500000Y57000000D03*
X168000000Y70000000D03*
X168000000Y100000000D03*
%TO.N,/9*%
X120000000Y46500000D03*
X260000000Y62500000D03*
X257860000Y123000000D03*
X120000000Y59000000D03*
X257860000Y78500000D03*
X260000000Y26500000D03*
X260000000Y10000000D03*
%TO.N,/7*%
X252780000Y95500000D03*
%TD*%
D17*
%TO.N,Net-(D1-A)*%
X310000000Y120000000D02*
X310000000Y112500000D01*
X295960000Y146500000D02*
X295960000Y128500000D01*
X310000000Y112500000D02*
X311600000Y110900000D01*
X295960000Y128500000D02*
X299460000Y125000000D01*
X299460000Y125000000D02*
X305000000Y125000000D01*
X311600000Y110900000D02*
X331525000Y110900000D01*
X305000000Y125000000D02*
X310000000Y120000000D01*
%TO.N,Net-(D1-K)*%
X331525000Y107100000D02*
X313400000Y107100000D01*
X298420000Y123500000D02*
X293420000Y128500000D01*
X313400000Y107100000D02*
X308500000Y112000000D01*
X308500000Y112000000D02*
X308500000Y119500000D01*
X308500000Y119500000D02*
X304500000Y123500000D01*
X293420000Y128500000D02*
X293420000Y146500000D01*
X304500000Y123500000D02*
X298420000Y123500000D01*
%TO.N,Net-(J1-Pin_22)*%
X325500000Y105500000D02*
X349000000Y82000000D01*
X287500000Y15000000D02*
X287500000Y8469670D01*
X313000000Y105500000D02*
X325500000Y105500000D01*
X338500000Y18500000D02*
X291000000Y18500000D01*
X287500000Y8469670D02*
X284030330Y5000000D01*
X349000000Y82000000D02*
X349000000Y29000000D01*
X349000000Y29000000D02*
X338500000Y18500000D01*
X290880000Y128500000D02*
X297380000Y122000000D01*
X307000000Y111500000D02*
X313000000Y105500000D01*
X307000000Y118500000D02*
X307000000Y111500000D01*
X291000000Y18500000D02*
X287500000Y15000000D01*
X284030330Y5000000D02*
X274937752Y5000000D01*
X290880000Y146500000D02*
X290880000Y128500000D01*
X274937752Y5000000D02*
X270012626Y9925126D01*
X297380000Y122000000D02*
X303500000Y122000000D01*
X303500000Y122000000D02*
X307000000Y118500000D01*
%TO.N,/6*%
X169062248Y4000000D02*
X190000000Y4000000D01*
X184650000Y112500000D02*
X214150000Y112500000D01*
X328500000Y30299748D02*
X324874874Y33924874D01*
X346000000Y55050000D02*
X346000000Y57000000D01*
X158187374Y14874874D02*
X169062248Y4000000D01*
X330975126Y72024874D02*
X324874874Y72024874D01*
X214150000Y112500000D02*
X224500000Y112500000D01*
X342000000Y50000000D02*
X342000000Y51050000D01*
X322000000Y21500000D02*
X328500000Y28000000D01*
X342000000Y51050000D02*
X343924874Y52974874D01*
X250240000Y151500000D02*
X250240000Y115240000D01*
X324874874Y33924874D02*
X327950000Y37000000D01*
X250240000Y115240000D02*
X247500000Y112500000D01*
X338500000Y37000000D02*
X345000000Y43500000D01*
X224500000Y112500000D02*
X228500000Y108500000D01*
X190000000Y4000000D02*
X258000000Y4000000D01*
X328500000Y28000000D02*
X328500000Y30299748D01*
X239500000Y112500000D02*
X243650000Y112500000D01*
X346000000Y57000000D02*
X330975126Y72024874D01*
X343924874Y52974874D02*
X346000000Y55050000D01*
X308299748Y50500000D02*
X305824874Y52974874D01*
X327950000Y37000000D02*
X338500000Y37000000D01*
X335500000Y50500000D02*
X308299748Y50500000D01*
X343924874Y52974874D02*
X341399748Y55500000D01*
X235500000Y108500000D02*
X239500000Y112500000D01*
X341399748Y55500000D02*
X340500000Y55500000D01*
X247500000Y112500000D02*
X243650000Y112500000D01*
X228500000Y108500000D02*
X235500000Y108500000D01*
X258000000Y4000000D02*
X275500000Y21500000D01*
X340500000Y55500000D02*
X335500000Y50500000D01*
X275500000Y21500000D02*
X322000000Y21500000D01*
X345000000Y47000000D02*
X342000000Y50000000D01*
X345000000Y43500000D02*
X345000000Y47000000D01*
%TO.N,/16*%
X162000000Y68000000D02*
X170000000Y68000000D01*
X95000000Y50000000D02*
X94487248Y50000000D01*
X120500000Y71500000D02*
X124000000Y68000000D01*
X88813498Y70000000D02*
X101500000Y70000000D01*
X136000000Y72000000D02*
X140500000Y72000000D01*
X98500000Y36000000D02*
X95000000Y36000000D01*
X275640000Y125140000D02*
X275640000Y151500000D01*
X137000000Y51000000D02*
X141500000Y55500000D01*
X101037374Y33924874D02*
X98962248Y36000000D01*
X148662374Y52974874D02*
X151187500Y55500000D01*
X94037500Y55500000D02*
X108037248Y55500000D01*
X159000000Y71000000D02*
X162000000Y68000000D01*
X156000000Y71000000D02*
X159000000Y71000000D01*
X187500000Y97500000D02*
X217500000Y97500000D01*
X113087500Y55500000D02*
X127087248Y55500000D01*
X127087248Y55500000D02*
X129612374Y52974874D01*
X124000000Y68000000D02*
X132000000Y68000000D01*
X182038624Y72024874D02*
X184063498Y70000000D01*
X108037248Y55500000D02*
X110562374Y52974874D01*
X101500000Y70000000D02*
X105000000Y66500000D01*
X86788624Y72024874D02*
X88813498Y70000000D01*
X170000000Y68000000D02*
X177000000Y75000000D01*
X141500000Y55500000D02*
X146137248Y55500000D01*
X184063498Y70000000D02*
X187500000Y70000000D01*
X217500000Y97500000D02*
X218000000Y98000000D01*
X112000000Y71500000D02*
X120500000Y71500000D01*
X107000000Y66500000D02*
X112000000Y71500000D01*
X144500000Y68000000D02*
X153000000Y68000000D01*
X105000000Y66500000D02*
X107000000Y66500000D01*
X132000000Y68000000D02*
X136000000Y72000000D01*
X253500000Y98000000D02*
X265500000Y110000000D01*
X177000000Y75000000D02*
X179063498Y75000000D01*
X179063498Y75000000D02*
X182038624Y72024874D01*
X218000000Y98000000D02*
X253500000Y98000000D01*
X265500000Y110000000D02*
X265500000Y115000000D01*
X110562374Y52974874D02*
X113087500Y55500000D01*
X131587248Y51000000D02*
X137000000Y51000000D01*
X153000000Y68000000D02*
X156000000Y71000000D01*
X151187500Y55500000D02*
X165187248Y55500000D01*
X91512374Y52974874D02*
X94037500Y55500000D01*
X98962248Y36000000D02*
X98500000Y36000000D01*
X165187248Y55500000D02*
X167712374Y52974874D01*
X146137248Y55500000D02*
X148662374Y52974874D01*
X94487248Y50000000D02*
X91512374Y52974874D01*
X129612374Y52974874D02*
X131587248Y51000000D01*
X95000000Y70000000D02*
X88813498Y70000000D01*
X265500000Y115000000D02*
X275640000Y125140000D01*
X140500000Y72000000D02*
X144500000Y68000000D01*
%TO.N,/3*%
X177237374Y33924874D02*
X179662248Y31500000D01*
X183500000Y76500000D02*
X185500000Y74500000D01*
X201088624Y72024874D02*
X203563750Y74500000D01*
X241000000Y77000000D02*
X242620000Y77000000D01*
X242620000Y123000000D02*
X242620000Y151500000D01*
X184237248Y55500000D02*
X186762374Y52974874D01*
X179662248Y31500000D02*
X180500000Y31500000D01*
X207787248Y51000000D02*
X209500000Y51000000D01*
X239500000Y75500000D02*
X241000000Y77000000D01*
X223613750Y75500000D02*
X239500000Y75500000D01*
X101363498Y76500000D02*
X53163750Y76500000D01*
X209500000Y74500000D02*
X217663498Y74500000D01*
X180500000Y55500000D02*
X184237248Y55500000D01*
X217663498Y74500000D02*
X220138624Y72024874D01*
X205812374Y52974874D02*
X207787248Y51000000D01*
X192500000Y51000000D02*
X197000000Y55500000D01*
X203287248Y55500000D02*
X205812374Y52974874D01*
X105838624Y72024874D02*
X106975126Y72024874D01*
X160762500Y36500000D02*
X158187374Y33924874D01*
X185500000Y74500000D02*
X198613498Y74500000D01*
X186762374Y52974874D02*
X188737248Y51000000D01*
X110313750Y76500000D02*
X183500000Y76500000D01*
X220138624Y72024874D02*
X223613750Y75500000D01*
X203563750Y74500000D02*
X209500000Y74500000D01*
X197000000Y55500000D02*
X203287248Y55500000D01*
X177237374Y33924874D02*
X174662248Y36500000D01*
X188737248Y51000000D02*
X192500000Y51000000D01*
X198613498Y74500000D02*
X201088624Y72024874D01*
X105838624Y72024874D02*
X110313750Y76500000D01*
X174662248Y36500000D02*
X160762500Y36500000D01*
X53163750Y76500000D02*
X48688624Y72024874D01*
X105838624Y72024874D02*
X101363498Y76500000D01*
%TO.N,/14*%
X93309748Y93500000D02*
X95734874Y91074874D01*
X210034874Y91074874D02*
X212109748Y89000000D01*
X135760000Y93000000D02*
X150959748Y93000000D01*
X95734874Y91074874D02*
X97660000Y93000000D01*
X38584874Y91074874D02*
X40510000Y93000000D01*
X40510000Y93000000D02*
X55709748Y93000000D01*
X131909748Y93000000D02*
X133834874Y91074874D01*
X212109748Y89000000D02*
X214000000Y89000000D01*
X262500000Y116500000D02*
X270560000Y124560000D01*
X150959748Y93000000D02*
X152884874Y91074874D01*
X114784874Y91074874D02*
X116710000Y93000000D01*
X251500000Y100000000D02*
X262500000Y111000000D01*
X133834874Y91074874D02*
X135760000Y93000000D01*
X97660000Y93000000D02*
X112859748Y93000000D01*
X76684874Y91074874D02*
X79110000Y93500000D01*
X112859748Y93000000D02*
X114784874Y91074874D01*
X57634874Y91074874D02*
X59560000Y93000000D01*
X214000000Y89000000D02*
X215000000Y90000000D01*
X55709748Y93000000D02*
X57634874Y91074874D01*
X206609748Y94500000D02*
X210034874Y91074874D01*
X152884874Y91074874D02*
X156310000Y94500000D01*
X215000000Y100000000D02*
X251500000Y100000000D01*
X262500000Y111000000D02*
X262500000Y116500000D01*
X79110000Y93500000D02*
X93309748Y93500000D01*
X74759748Y93000000D02*
X76684874Y91074874D01*
X116710000Y93000000D02*
X131909748Y93000000D01*
X270560000Y124560000D02*
X270560000Y151500000D01*
X156310000Y94500000D02*
X206609748Y94500000D01*
X59560000Y93000000D02*
X74759748Y93000000D01*
%TO.N,/17*%
X55500000Y50887248D02*
X53412374Y52974874D01*
X55500000Y47500000D02*
X55500000Y50887248D01*
X21500000Y39000000D02*
X18000000Y42500000D01*
X29500000Y44500000D02*
X52500000Y44500000D01*
X196287374Y33924874D02*
X192712248Y37500000D01*
X231812248Y36500000D02*
X217912500Y36500000D01*
X198862500Y36500000D02*
X196287374Y33924874D01*
X22500000Y51500000D02*
X29500000Y44500000D01*
X52500000Y44500000D02*
X55500000Y47500000D01*
X241500000Y57000000D02*
X242500000Y58000000D01*
X192712248Y37500000D02*
X142712500Y37500000D01*
X267500000Y105500000D02*
X267500000Y114750000D01*
X234387374Y33924874D02*
X231812248Y36500000D01*
X267500000Y36500000D02*
X256012500Y36500000D01*
X250862248Y36500000D02*
X236962500Y36500000D01*
X212762248Y36500000D02*
X198862500Y36500000D01*
X253437374Y33924874D02*
X250862248Y36500000D01*
X267500000Y114750000D02*
X278180000Y125430000D01*
X243912374Y52974874D02*
X241500000Y55387248D01*
X142712500Y37500000D02*
X139137374Y33924874D01*
X258000000Y57937248D02*
X262962374Y52974874D01*
X21000000Y51500000D02*
X22500000Y51500000D01*
X262962374Y52974874D02*
X266487500Y56500000D01*
X139137374Y33924874D02*
X134062248Y39000000D01*
X134062248Y39000000D02*
X21500000Y39000000D01*
X266487500Y56500000D02*
X267500000Y56500000D01*
X18000000Y48500000D02*
X21000000Y51500000D01*
X278180000Y125430000D02*
X278180000Y151500000D01*
X256012500Y36500000D02*
X253437374Y33924874D01*
X215337374Y33924874D02*
X212762248Y36500000D01*
X18000000Y42500000D02*
X18000000Y48500000D01*
X217912500Y36500000D02*
X215337374Y33924874D01*
X236962500Y36500000D02*
X234387374Y33924874D01*
X241500000Y55387248D02*
X241500000Y57000000D01*
X242500000Y58000000D02*
X258000000Y58000000D01*
X258000000Y58000000D02*
X258000000Y57937248D01*
%TO.N,/7*%
X262500000Y12000000D02*
X252237248Y12000000D01*
X274000000Y23500000D02*
X262500000Y12000000D01*
X172250000Y101000000D02*
X166750000Y95500000D01*
X270000000Y108000000D02*
X270000000Y99500000D01*
X266000000Y95500000D02*
X263500000Y95500000D01*
X16500000Y63500000D02*
X15500000Y64500000D01*
X181000000Y101000000D02*
X172250000Y101000000D01*
X252780000Y114280000D02*
X248500000Y110000000D01*
X11500000Y85000000D02*
X11500000Y90250000D01*
X274500000Y112500000D02*
X270000000Y108000000D01*
X131000000Y109500000D02*
X123000000Y109500000D01*
X252500000Y95500000D02*
X263500000Y95500000D01*
X15500000Y64500000D02*
X15500000Y81000000D01*
X237500000Y107500000D02*
X227500000Y107500000D01*
X286234874Y91074874D02*
X288500000Y88809748D01*
X252500000Y95500000D02*
X186500000Y95500000D01*
X17649748Y93500000D02*
X20074874Y91074874D01*
X225000000Y110000000D02*
X179500000Y110000000D01*
X179500000Y110000000D02*
X179000000Y109500000D01*
X286893498Y60000000D02*
X288000000Y60000000D01*
X123000000Y109500000D02*
X120000000Y112500000D01*
X14750000Y93500000D02*
X17649748Y93500000D01*
X134000000Y112500000D02*
X131000000Y109500000D01*
X167000000Y113500000D02*
X154500000Y113500000D01*
X144400000Y112500000D02*
X134000000Y112500000D01*
X285500000Y23500000D02*
X274000000Y23500000D01*
X270000000Y99500000D02*
X266000000Y95500000D01*
X288000000Y60000000D02*
X288500000Y60000000D01*
X154500000Y113500000D02*
X153500000Y112500000D01*
X15500000Y81000000D02*
X11500000Y85000000D01*
X27500000Y65500000D02*
X25500000Y63500000D01*
X252237248Y12000000D02*
X249362374Y14874874D01*
X23500000Y94500000D02*
X20074874Y91074874D01*
X288500000Y25000000D02*
X287000000Y23500000D01*
X27500000Y69362248D02*
X27500000Y65500000D01*
X171000000Y109500000D02*
X167000000Y113500000D01*
X279525000Y112500000D02*
X274500000Y112500000D01*
X284393624Y62499874D02*
X286893498Y60000000D01*
X11500000Y90250000D02*
X14750000Y93500000D01*
X25500000Y63500000D02*
X16500000Y63500000D01*
X279525000Y112500000D02*
X288500000Y112500000D01*
X155000000Y95500000D02*
X154000000Y94500000D01*
X248500000Y110000000D02*
X240000000Y110000000D01*
X252780000Y151500000D02*
X252780000Y114280000D01*
X287000000Y23500000D02*
X285500000Y23500000D01*
X24837374Y72024874D02*
X27500000Y69362248D01*
X227500000Y107500000D02*
X225000000Y110000000D01*
X240000000Y110000000D02*
X237500000Y107500000D01*
X120000000Y112500000D02*
X114900000Y112500000D01*
X179000000Y109500000D02*
X171000000Y109500000D01*
X153500000Y112500000D02*
X144400000Y112500000D01*
X154000000Y94500000D02*
X23500000Y94500000D01*
X186500000Y95500000D02*
X181000000Y101000000D01*
X166750000Y95500000D02*
X155000000Y95500000D01*
X288500000Y88809748D02*
X288500000Y86500000D01*
%TO.N,/8*%
X60800000Y17500000D02*
X81743498Y17500000D01*
X282500000Y31055998D02*
X282500000Y26500000D01*
X93500000Y109000000D02*
X90000000Y105500000D01*
X21000000Y97500000D02*
X21000000Y103600000D01*
X280500000Y24500000D02*
X273500000Y24500000D01*
X91874874Y14874874D02*
X97000000Y20000000D01*
X167000000Y104000000D02*
X159500000Y104000000D01*
X240000000Y108000000D02*
X238500000Y106500000D01*
X10500000Y91000000D02*
X14000000Y94500000D01*
X10500000Y84500000D02*
X10500000Y91000000D01*
X27000000Y17500000D02*
X55549748Y17500000D01*
X153500000Y110000000D02*
X133500000Y110000000D01*
X16500000Y49000000D02*
X20500000Y53000000D01*
X84368624Y14874874D02*
X91874874Y14874874D01*
X18000000Y94500000D02*
X21000000Y97500000D01*
X32000000Y38000000D02*
X21000000Y38000000D01*
X21000000Y103600000D02*
X21200000Y103800000D01*
X16500000Y42500000D02*
X16500000Y49000000D01*
X133500000Y110000000D02*
X131500000Y108000000D01*
X279631124Y33924874D02*
X282500000Y31055998D01*
X282500000Y26500000D02*
X280500000Y24500000D01*
X117500000Y108000000D02*
X116500000Y109000000D01*
X228487500Y18500000D02*
X224862374Y14874874D01*
X190060660Y108500000D02*
X189810660Y108750000D01*
X226500000Y106500000D02*
X224500000Y108500000D01*
X255320000Y151500000D02*
X255320000Y113820000D01*
X23000000Y35500000D02*
X23000000Y21500000D01*
X18193498Y62000000D02*
X16000000Y62000000D01*
X219737248Y20000000D02*
X224862374Y14874874D01*
X24000000Y36500000D02*
X23000000Y35500000D01*
X131500000Y108000000D02*
X117500000Y108000000D01*
X273500000Y24500000D02*
X267500000Y18500000D01*
X16000000Y62000000D02*
X14500000Y63500000D01*
X238500000Y106500000D02*
X226500000Y106500000D01*
X255320000Y113820000D02*
X249500000Y108000000D01*
X31500000Y105500000D02*
X26400000Y105500000D01*
X22900000Y105500000D02*
X21200000Y103800000D01*
X20500000Y53000000D02*
X23000000Y53000000D01*
X29405998Y36500000D02*
X24000000Y36500000D01*
X97000000Y20000000D02*
X219737248Y20000000D01*
X81743498Y17500000D02*
X84368624Y14874874D01*
X33500000Y36500000D02*
X32000000Y38000000D01*
X33500000Y35443750D02*
X33500000Y36500000D01*
X55900000Y105500000D02*
X31500000Y105500000D01*
X90000000Y105500000D02*
X85400000Y105500000D01*
X24500000Y51500000D02*
X25743750Y51500000D01*
X180189340Y108750000D02*
X179939340Y108500000D01*
X14500000Y80500000D02*
X10500000Y84500000D01*
X14500000Y63500000D02*
X14500000Y80500000D01*
X14000000Y94500000D02*
X18000000Y94500000D01*
X55900000Y105500000D02*
X85400000Y105500000D01*
X23000000Y21500000D02*
X27000000Y17500000D01*
X21000000Y38000000D02*
X16500000Y42500000D01*
X116500000Y109000000D02*
X93500000Y109000000D01*
X27218624Y52974874D02*
X18193498Y62000000D01*
X179939340Y108500000D02*
X171500000Y108500000D01*
X31981124Y33924874D02*
X29405998Y36500000D01*
X31981124Y33924874D02*
X33500000Y35443750D01*
X26400000Y105500000D02*
X22900000Y105500000D01*
X267500000Y18500000D02*
X228487500Y18500000D01*
X55549748Y17500000D02*
X58174874Y14874874D01*
X159500000Y104000000D02*
X153500000Y110000000D01*
X189810660Y108750000D02*
X180189340Y108750000D01*
X224500000Y108500000D02*
X190060660Y108500000D01*
X249500000Y108000000D02*
X240000000Y108000000D01*
X23000000Y53000000D02*
X24500000Y51500000D01*
X171500000Y108500000D02*
X167000000Y104000000D01*
X25743750Y51500000D02*
X27218624Y52974874D01*
X58174874Y14874874D02*
X60800000Y17500000D01*
%TO.N,/11*%
X145500000Y64500000D02*
X139500000Y70500000D01*
X165000000Y80000000D02*
X168000000Y80000000D01*
X52685126Y86125126D02*
X49060000Y82500000D01*
X55310252Y83500000D02*
X52685126Y86125126D01*
X97500000Y18500000D02*
X165000000Y18500000D01*
X174762752Y26500000D02*
X188862500Y26500000D01*
X133500000Y67000000D02*
X124000000Y67000000D01*
X79418876Y9925126D02*
X81844002Y7500000D01*
X218510000Y80500000D02*
X224135126Y86125126D01*
X169812500Y26500000D02*
X168500000Y26500000D01*
X76500000Y85000000D02*
X72000000Y89500000D01*
X188862500Y26500000D02*
X191337626Y28975126D01*
X91500000Y90500000D02*
X87250000Y90500000D01*
X172287626Y28975126D02*
X169812500Y26500000D01*
X118500000Y61500000D02*
X87414002Y61500000D01*
X165000000Y80000000D02*
X162000000Y80000000D01*
X161500000Y80500000D02*
X101500000Y80500000D01*
X168000000Y80000000D02*
X168500000Y80500000D01*
X248500000Y103000000D02*
X258000000Y112500000D01*
X172287626Y28975126D02*
X174762752Y26500000D01*
X139500000Y70500000D02*
X137000000Y70500000D01*
X155463750Y64500000D02*
X145500000Y64500000D01*
X258000000Y118500000D02*
X262940000Y123440000D01*
X241000000Y103000000D02*
X248500000Y103000000D01*
X87250000Y90500000D02*
X81750000Y85000000D01*
X165000000Y65000000D02*
X164500000Y64500000D01*
X162000000Y80000000D02*
X161500000Y80500000D01*
X86500000Y7500000D02*
X97500000Y18500000D01*
X18750252Y82500000D02*
X15125126Y86125126D01*
X69000000Y89500000D02*
X63000000Y83500000D01*
X158038876Y67075126D02*
X155463750Y64500000D01*
X165500000Y26500000D02*
X165000000Y27000000D01*
X220005000Y105500000D02*
X238500000Y105500000D01*
X49060000Y82500000D02*
X18750252Y82500000D01*
X101500000Y80500000D02*
X91500000Y90500000D01*
X87414002Y61500000D02*
X81838876Y67075126D01*
X164500000Y64500000D02*
X160614002Y64500000D01*
X81844002Y7500000D02*
X86500000Y7500000D01*
X168500000Y26500000D02*
X165500000Y26500000D01*
X168500000Y80500000D02*
X218510000Y80500000D01*
X81750000Y85000000D02*
X76500000Y85000000D01*
X160614002Y64500000D02*
X158038876Y67075126D01*
X63000000Y83500000D02*
X55310252Y83500000D01*
X124000000Y67000000D02*
X118500000Y61500000D01*
X137000000Y70500000D02*
X133500000Y67000000D01*
X262940000Y123440000D02*
X262940000Y151500000D01*
X220005000Y105500000D02*
X214150000Y105500000D01*
X258000000Y112500000D02*
X258000000Y118500000D01*
X238500000Y105500000D02*
X241000000Y103000000D01*
X72000000Y89500000D02*
X69000000Y89500000D01*
%TO.N,/1*%
X128885126Y86125126D02*
X131000000Y84010252D01*
X67000000Y68000000D02*
X63500000Y71500000D01*
X167750000Y117250000D02*
X145750000Y117250000D01*
X145750000Y117250000D02*
X145000000Y118000000D01*
X253288876Y67075126D02*
X249713750Y63500000D01*
X256364002Y64000000D02*
X257500000Y64000000D01*
X43738876Y67075126D02*
X41000000Y64336250D01*
X259500000Y7500000D02*
X274500000Y22500000D01*
X63500000Y71500000D02*
X59500000Y71500000D01*
X145000000Y118000000D02*
X140000000Y118000000D01*
X119500000Y117500000D02*
X124500000Y112500000D01*
X173513750Y63500000D02*
X142564002Y63500000D01*
X124500000Y112500000D02*
X129500000Y112500000D01*
X230000000Y111500000D02*
X224500000Y117000000D01*
X41500000Y55000000D02*
X41500000Y54987752D01*
X224500000Y117000000D02*
X180500000Y117000000D01*
X59500000Y71500000D02*
X52500000Y64500000D01*
X180500000Y117000000D02*
X179500000Y116000000D01*
X197000000Y71000000D02*
X194000000Y71000000D01*
X237540000Y115540000D02*
X233500000Y111500000D01*
X172500000Y112500000D02*
X167750000Y117250000D01*
X124043125Y65543125D02*
X119000000Y60500000D01*
X177500000Y112500000D02*
X172500000Y112500000D01*
X237540000Y151500000D02*
X237540000Y115540000D01*
X41000000Y64336250D02*
X41000000Y55500000D01*
X74500000Y68000000D02*
X67000000Y68000000D01*
X179664002Y64500000D02*
X177088876Y67075126D01*
X257500000Y7500000D02*
X246837752Y7500000D01*
X131000000Y84000000D02*
X135500000Y84000000D01*
X187500000Y64500000D02*
X179664002Y64500000D01*
X131000000Y84010252D02*
X131000000Y84000000D01*
X82000000Y117500000D02*
X119500000Y117500000D01*
X41000000Y55500000D02*
X41500000Y55000000D01*
X77000000Y112500000D02*
X82000000Y117500000D01*
X137456875Y65543125D02*
X124043125Y65543125D01*
X274500000Y22500000D02*
X313450000Y22500000D01*
X179500000Y116000000D02*
X179500000Y114500000D01*
X177088876Y67075126D02*
X173513750Y63500000D01*
X129500000Y112500000D02*
X132500000Y115500000D01*
X82000000Y60500000D02*
X74500000Y68000000D01*
X139000000Y117000000D02*
X135500000Y117000000D01*
X249713750Y63500000D02*
X204500000Y63500000D01*
X179500000Y114500000D02*
X177500000Y112500000D01*
X246837752Y7500000D02*
X244412626Y9925126D01*
X253288876Y67075126D02*
X256364002Y64000000D01*
X142564002Y63500000D02*
X138988876Y67075126D01*
X138988876Y67075126D02*
X137456875Y65543125D01*
X132500000Y115500000D02*
X134000000Y117000000D01*
X46314002Y64500000D02*
X43738876Y67075126D01*
X194000000Y71000000D02*
X187500000Y64500000D01*
X257500000Y7500000D02*
X259500000Y7500000D01*
X55900000Y112500000D02*
X77000000Y112500000D01*
X119000000Y60500000D02*
X82000000Y60500000D01*
X41500000Y54987752D02*
X48462626Y48025126D01*
X204500000Y63500000D02*
X197000000Y71000000D01*
X313450000Y22500000D02*
X319925126Y28975126D01*
X233500000Y111500000D02*
X230000000Y111500000D01*
X140000000Y118000000D02*
X139000000Y117000000D01*
X134000000Y117000000D02*
X135500000Y117000000D01*
X52500000Y64500000D02*
X46314002Y64500000D01*
%TO.N,Net-(J1-Pin_21)*%
X284000000Y10000000D02*
X286000000Y12000000D01*
X286000000Y15500000D02*
X290500000Y20000000D01*
X286000000Y12000000D02*
X286000000Y15500000D01*
X274962374Y14874874D02*
X279837248Y10000000D01*
X305500000Y117500000D02*
X302500000Y120500000D01*
X288340000Y128500000D02*
X288340000Y146500000D01*
X347500000Y30000000D02*
X347500000Y81000000D01*
X337500000Y20000000D02*
X347500000Y30000000D01*
X305500000Y111000000D02*
X305500000Y117500000D01*
X290500000Y20000000D02*
X337500000Y20000000D01*
X312500000Y104000000D02*
X305500000Y111000000D01*
X347500000Y81000000D02*
X324500000Y104000000D01*
X279837248Y10000000D02*
X284000000Y10000000D01*
X302500000Y120500000D02*
X296340000Y120500000D01*
X296340000Y120500000D02*
X288340000Y128500000D01*
X324500000Y104000000D02*
X312500000Y104000000D01*
%TO.N,/2*%
X134500000Y85500000D02*
X129500000Y90500000D01*
X131712500Y26500000D02*
X122500000Y26500000D01*
X183000000Y52000000D02*
X187500000Y47500000D01*
X98000000Y25500000D02*
X84500000Y25500000D01*
X234000000Y110500000D02*
X240080000Y116580000D01*
X224000000Y116000000D02*
X229500000Y110500000D01*
X172000000Y111500000D02*
X178000000Y111500000D01*
X181000000Y116000000D02*
X224000000Y116000000D01*
X219912626Y48025126D02*
X219912626Y56412626D01*
X119000000Y116500000D02*
X94000000Y116500000D01*
X147935126Y86125126D02*
X145810000Y84000000D01*
X142500000Y116500000D02*
X144500000Y116500000D01*
X110000000Y65000000D02*
X102964002Y65000000D01*
X133500000Y115000000D02*
X130000000Y111500000D01*
X114000000Y86500000D02*
X110000000Y90500000D01*
X124500000Y90500000D02*
X120500000Y86500000D01*
X165287752Y45500000D02*
X173000000Y45500000D01*
X129500000Y90500000D02*
X124500000Y90500000D01*
X102964002Y65000000D02*
X100888876Y67075126D01*
X138000000Y85500000D02*
X134500000Y85500000D01*
X124000000Y111500000D02*
X119000000Y116500000D01*
X144500000Y116500000D02*
X145000000Y116000000D01*
X116000000Y33000000D02*
X111500000Y33000000D01*
X229500000Y110500000D02*
X234000000Y110500000D01*
X111500000Y33000000D02*
X108750000Y30250000D01*
X108750000Y30250000D02*
X102750000Y30250000D01*
X292494002Y44500000D02*
X335000000Y44500000D01*
X122500000Y26500000D02*
X116000000Y33000000D01*
X225000000Y60000000D02*
X257500000Y60000000D01*
X159237500Y44500000D02*
X162762626Y48025126D01*
X136662752Y26500000D02*
X134187626Y28975126D01*
X90000000Y112500000D02*
X85400000Y112500000D01*
X335450000Y44500000D02*
X335000000Y44500000D01*
X191500000Y47500000D02*
X197000000Y53000000D01*
X134187626Y28975126D02*
X131712500Y26500000D01*
X222000000Y58500000D02*
X223500000Y58500000D01*
X187500000Y47500000D02*
X191500000Y47500000D01*
X130000000Y111500000D02*
X124000000Y111500000D01*
X84500000Y25500000D02*
X77000000Y33000000D01*
X67500000Y25500000D02*
X61462752Y25500000D01*
X94000000Y116500000D02*
X90000000Y112500000D01*
X202000000Y53000000D02*
X209500000Y45500000D01*
X197000000Y53000000D02*
X202000000Y53000000D01*
X120500000Y86500000D02*
X114000000Y86500000D01*
X139500000Y84000000D02*
X138000000Y85500000D01*
X142500000Y116500000D02*
X140500000Y116500000D01*
X142500000Y84000000D02*
X139500000Y84000000D01*
X139000000Y115000000D02*
X133500000Y115000000D01*
X173000000Y45500000D02*
X179500000Y52000000D01*
X257500000Y60000000D02*
X259949874Y57550126D01*
X140500000Y116500000D02*
X139000000Y115000000D01*
X217387500Y45500000D02*
X219912626Y48025126D01*
X180500000Y114000000D02*
X180500000Y115500000D01*
X178000000Y111500000D02*
X180500000Y114000000D01*
X162762626Y48025126D02*
X165287752Y45500000D01*
X240080000Y116580000D02*
X240080000Y151500000D01*
X142500000Y44500000D02*
X159237500Y44500000D01*
X77000000Y33000000D02*
X75000000Y33000000D01*
X338975126Y48025126D02*
X335450000Y44500000D01*
X209500000Y45500000D02*
X217387500Y45500000D01*
X279443876Y57550126D02*
X292494002Y44500000D01*
X61462752Y25500000D02*
X57987626Y28975126D01*
X259949874Y57550126D02*
X279443876Y57550126D01*
X145000000Y116000000D02*
X167500000Y116000000D01*
X145810000Y84000000D02*
X142500000Y84000000D01*
X142500000Y26500000D02*
X136662752Y26500000D01*
X223500000Y58500000D02*
X225000000Y60000000D01*
X179500000Y52000000D02*
X183000000Y52000000D01*
X75000000Y33000000D02*
X67500000Y25500000D01*
X219912626Y56412626D02*
X222000000Y58500000D01*
X167500000Y116000000D02*
X172000000Y111500000D01*
X180500000Y115500000D02*
X181000000Y116000000D01*
X102750000Y30250000D02*
X98000000Y25500000D01*
%TO.N,/12*%
X65000000Y4000000D02*
X147312500Y4000000D01*
X240000000Y102000000D02*
X239000000Y103000000D01*
X29506502Y26500000D02*
X27031376Y28975126D01*
X197500000Y51500000D02*
X201000000Y51500000D01*
X265480000Y123980000D02*
X259500000Y118000000D01*
X85500000Y26500000D02*
X78000000Y34000000D01*
X208000000Y44500000D02*
X235437500Y44500000D01*
X238962626Y48025126D02*
X241487752Y45500000D01*
X96500000Y43000000D02*
X88000000Y51500000D01*
X121500000Y102500000D02*
X118500000Y105500000D01*
X174000000Y83500000D02*
X169610252Y83500000D01*
X180500000Y108000000D02*
X179500000Y107000000D01*
X68500000Y28000000D02*
X65000000Y28000000D01*
X88000000Y51500000D02*
X83500000Y51500000D01*
X54500000Y33500000D02*
X47500000Y26500000D01*
X197500000Y83500000D02*
X196000000Y85000000D01*
X96087626Y28975126D02*
X93612500Y26500000D01*
X201000000Y51500000D02*
X208000000Y44500000D01*
X246490615Y51990615D02*
X249500000Y55000000D01*
X65000000Y28000000D02*
X63500000Y28000000D01*
X272000000Y31656502D02*
X274681376Y28975126D01*
X169610252Y83500000D02*
X166985126Y86125126D01*
X135500000Y102500000D02*
X121500000Y102500000D01*
X189500000Y108000000D02*
X180500000Y108000000D01*
X191500000Y45500000D02*
X184337752Y45500000D01*
X235437500Y44500000D02*
X238962626Y48025126D01*
X241487752Y45500000D02*
X245500000Y45500000D01*
X205085126Y86125126D02*
X202460000Y83500000D01*
X272000000Y39000000D02*
X272000000Y31656502D01*
X83500000Y51500000D02*
X77500000Y45500000D01*
X265480000Y151500000D02*
X265480000Y123980000D01*
X118500000Y105500000D02*
X114900000Y105500000D01*
X196000000Y50000000D02*
X191500000Y45500000D01*
X67512626Y48025126D02*
X64987500Y45500000D01*
X191500000Y86500000D02*
X187000000Y91000000D01*
X181812626Y48025126D02*
X176787500Y43000000D01*
X190500000Y107000000D02*
X189500000Y108000000D01*
X77500000Y45500000D02*
X70037752Y45500000D01*
X196000000Y107000000D02*
X190500000Y107000000D01*
X196000000Y50000000D02*
X197500000Y51500000D01*
X171500000Y107000000D02*
X167500000Y103000000D01*
X141000000Y108000000D02*
X135500000Y102500000D01*
X194500000Y86500000D02*
X191500000Y86500000D01*
X249500000Y102000000D02*
X240000000Y102000000D01*
X58000000Y33500000D02*
X54500000Y33500000D01*
X249500000Y55000000D02*
X256000000Y55000000D01*
X245500000Y45500000D02*
X246490615Y46490615D01*
X256000000Y55000000D02*
X272000000Y39000000D01*
X246490615Y46490615D02*
X246490615Y51990615D01*
X74500000Y34000000D02*
X68500000Y28000000D01*
X47500000Y26500000D02*
X29506502Y26500000D01*
X259500000Y112000000D02*
X249500000Y102000000D01*
X167500000Y103000000D02*
X158250000Y103000000D01*
X184337752Y45500000D02*
X181812626Y48025126D01*
X63500000Y28000000D02*
X58000000Y33500000D01*
X181500000Y91000000D02*
X174000000Y83500000D01*
X158250000Y103000000D02*
X153250000Y108000000D01*
X196000000Y85000000D02*
X194500000Y86500000D01*
X179500000Y107000000D02*
X171500000Y107000000D01*
X202460000Y83500000D02*
X197500000Y83500000D01*
X93612500Y26500000D02*
X85500000Y26500000D01*
X176787500Y43000000D02*
X96500000Y43000000D01*
X200000000Y103000000D02*
X196000000Y107000000D01*
X147312500Y4000000D02*
X153237626Y9925126D01*
X153250000Y108000000D02*
X141000000Y108000000D01*
X70037752Y45500000D02*
X67512626Y48025126D01*
X259500000Y118000000D02*
X259500000Y112000000D01*
X239000000Y103000000D02*
X200000000Y103000000D01*
X187000000Y91000000D02*
X181500000Y91000000D01*
X78000000Y34000000D02*
X74500000Y34000000D01*
%TO.N,/5*%
X96000000Y115000000D02*
X90000000Y109000000D01*
X247700000Y116700000D02*
X246500000Y115500000D01*
X317350000Y64500000D02*
X319925126Y67075126D01*
X194500000Y81500000D02*
X214000000Y81500000D01*
X134000000Y114000000D02*
X130500000Y110500000D01*
X230500000Y85000000D02*
X236500000Y85000000D01*
X109835126Y86125126D02*
X113460252Y82500000D01*
X77037626Y28962374D02*
X77037626Y28975126D01*
X276500000Y109000000D02*
X275500000Y108000000D01*
X254500000Y71000000D02*
X258000000Y67500000D01*
X182000000Y115000000D02*
X181500000Y114500000D01*
X246500000Y115500000D02*
X240500000Y115500000D01*
X275500000Y100500000D02*
X276500000Y99500000D01*
X100000000Y24500000D02*
X81500000Y24500000D01*
X100000000Y115000000D02*
X96000000Y115000000D01*
X81500000Y24500000D02*
X77037626Y28962374D01*
X100000000Y24500000D02*
X244012500Y24500000D01*
X236814002Y64500000D02*
X243000000Y64500000D01*
X214000000Y81500000D02*
X222500000Y90000000D01*
X167000000Y115000000D02*
X141750000Y115000000D01*
X141750000Y115000000D02*
X140750000Y114000000D01*
X249500000Y71000000D02*
X254500000Y71000000D01*
X298000000Y64500000D02*
X317350000Y64500000D01*
X229000000Y109500000D02*
X223500000Y115000000D01*
X171500000Y110500000D02*
X167000000Y115000000D01*
X223500000Y115000000D02*
X182000000Y115000000D01*
X26400000Y112500000D02*
X30500000Y112500000D01*
X295000000Y67500000D02*
X298000000Y64500000D01*
X244500000Y90000000D02*
X249500000Y85000000D01*
X130500000Y110500000D02*
X123500000Y110500000D01*
X186500000Y89500000D02*
X194500000Y81500000D01*
X305000000Y104000000D02*
X300000000Y109000000D01*
X300000000Y109000000D02*
X276500000Y109000000D01*
X290500000Y99500000D02*
X292500000Y97500000D01*
X225500000Y90000000D02*
X230500000Y85000000D01*
X270000000Y83500000D02*
X278660000Y83500000D01*
X140750000Y114000000D02*
X134000000Y114000000D01*
X278660000Y83500000D02*
X281285126Y86125126D01*
X240500000Y115500000D02*
X234500000Y109500000D01*
X249500000Y85000000D02*
X256000000Y85000000D01*
X113460252Y82500000D02*
X175000000Y82500000D01*
X222500000Y90000000D02*
X225500000Y90000000D01*
X234500000Y109500000D02*
X229000000Y109500000D01*
X292500000Y97500000D02*
X292500000Y85500000D01*
X123500000Y110500000D02*
X119000000Y115000000D01*
X107460252Y88500000D02*
X109835126Y86125126D01*
X181500000Y113500000D02*
X178500000Y110500000D01*
X217764002Y64500000D02*
X215188876Y67075126D01*
X100000000Y88500000D02*
X107460252Y88500000D01*
X182000000Y89500000D02*
X186500000Y89500000D01*
X236500000Y85000000D02*
X241500000Y90000000D01*
X231663750Y64500000D02*
X217764002Y64500000D01*
X305000000Y82000252D02*
X305000000Y104000000D01*
X256000000Y85000000D02*
X261000000Y90000000D01*
X283910252Y83500000D02*
X281285126Y86125126D01*
X234238876Y67075126D02*
X236814002Y64500000D01*
X178500000Y110500000D02*
X171500000Y110500000D01*
X143712626Y48025126D02*
X140187500Y44500000D01*
X34000000Y109000000D02*
X36000000Y109000000D01*
X276500000Y99500000D02*
X290500000Y99500000D01*
X263500000Y90000000D02*
X270000000Y83500000D01*
X244012500Y24500000D02*
X248487626Y28975126D01*
X247700000Y151500000D02*
X247700000Y116700000D01*
X261000000Y90000000D02*
X263500000Y90000000D01*
X290500000Y83500000D02*
X283910252Y83500000D01*
X241500000Y90000000D02*
X244500000Y90000000D01*
X175000000Y82500000D02*
X182000000Y89500000D01*
X90000000Y109000000D02*
X36000000Y109000000D01*
X30500000Y112500000D02*
X34000000Y109000000D01*
X243000000Y64500000D02*
X249500000Y71000000D01*
X275500000Y108000000D02*
X275500000Y100500000D01*
X292500000Y85500000D02*
X290500000Y83500000D01*
X140187500Y44500000D02*
X100000000Y44500000D01*
X119000000Y115000000D02*
X100000000Y115000000D01*
X258000000Y67500000D02*
X295000000Y67500000D01*
X319925126Y67075126D02*
X305000000Y82000252D01*
X234238876Y67075126D02*
X231663750Y64500000D01*
X181500000Y114500000D02*
X181500000Y113500000D01*
%TO.N,/10*%
X50560330Y82500000D02*
X49560330Y81500000D01*
X16500000Y70462752D02*
X19887626Y67075126D01*
X49560330Y81500000D02*
X19000000Y81500000D01*
X246500000Y105500000D02*
X243650000Y105500000D01*
X103000000Y26500000D02*
X112662500Y26500000D01*
X256500000Y119200000D02*
X256500000Y113000000D01*
X256500000Y113000000D02*
X249000000Y105500000D01*
X168500000Y78500000D02*
X169500000Y79500000D01*
X103000000Y79000000D02*
X104000000Y79000000D01*
X101000000Y79000000D02*
X91000000Y89000000D01*
X19000000Y81500000D02*
X16500000Y79000000D01*
X105612626Y48025126D02*
X103137752Y50500000D01*
X169500000Y79500000D02*
X236560000Y79500000D01*
X149762500Y25500000D02*
X153237626Y28975126D01*
X206912500Y25500000D02*
X156712752Y25500000D01*
X243185126Y86125126D02*
X245810252Y83500000D01*
X103137752Y50500000D02*
X103000000Y50500000D01*
X118612752Y25500000D02*
X149762500Y25500000D01*
X156712752Y25500000D02*
X153237626Y28975126D01*
X210387626Y28975126D02*
X206912500Y25500000D01*
X104500000Y79500000D02*
X160500000Y79500000D01*
X103000000Y2500000D02*
X60650252Y2500000D01*
X245810252Y83500000D02*
X246500000Y83500000D01*
X104000000Y79000000D02*
X104500000Y79500000D01*
X60650252Y2500000D02*
X53225126Y9925126D01*
X249000000Y105500000D02*
X246500000Y105500000D01*
X112662500Y26500000D02*
X115137626Y28975126D01*
X82500000Y83500000D02*
X74360252Y83500000D01*
X16500000Y79000000D02*
X16500000Y70462752D01*
X115137626Y28975126D02*
X118612752Y25500000D01*
X74360252Y83500000D02*
X71735126Y86125126D01*
X71735126Y86125126D02*
X68110000Y82500000D01*
X91000000Y89000000D02*
X88000000Y89000000D01*
X161500000Y78500000D02*
X168500000Y78500000D01*
X260400000Y151500000D02*
X260400000Y123100000D01*
X260400000Y123100000D02*
X256500000Y119200000D01*
X88000000Y89000000D02*
X82500000Y83500000D01*
X236560000Y79500000D02*
X243185126Y86125126D01*
X160500000Y79500000D02*
X161500000Y78500000D01*
X103000000Y79000000D02*
X101000000Y79000000D01*
X68110000Y82500000D02*
X50560330Y82500000D01*
%TO.N,/13*%
X199000000Y102000000D02*
X195500000Y105500000D01*
X238500000Y101000000D02*
X237500000Y102000000D01*
X90543876Y44043876D02*
X90293876Y44293876D01*
X181000000Y83500000D02*
X183410000Y83500000D01*
X36260252Y83500000D02*
X33635126Y86125126D01*
X102000000Y81500000D02*
X91500000Y92000000D01*
X53000000Y90500000D02*
X48000000Y90500000D01*
X237500000Y102000000D02*
X199000000Y102000000D01*
X92587752Y42000000D02*
X194837500Y42000000D01*
X22268876Y48025126D02*
X26794002Y43500000D01*
X144400000Y105500000D02*
X153500000Y105500000D01*
X81000000Y86500000D02*
X77000000Y86500000D01*
X268020000Y151500000D02*
X268020000Y124300330D01*
X90500000Y92000000D02*
X86500000Y92000000D01*
X86562626Y48025126D02*
X90543876Y44043876D01*
X77000000Y86500000D02*
X73000000Y90500000D01*
X41000000Y83500000D02*
X36260252Y83500000D01*
X180000000Y82500000D02*
X179000000Y81500000D01*
X73000000Y90500000D02*
X68000000Y90500000D01*
X194837500Y42000000D02*
X200862626Y48025126D01*
X200862626Y48025126D02*
X205387752Y43500000D01*
X82037500Y43500000D02*
X86562626Y48025126D01*
X180000000Y82500000D02*
X181000000Y83500000D01*
X115863750Y63000000D02*
X119938876Y67075126D01*
X268020000Y124300330D02*
X261000000Y117280330D01*
X90543876Y44043876D02*
X92587752Y42000000D01*
X261000000Y111500000D02*
X250500000Y101000000D01*
X48000000Y90500000D02*
X41000000Y83500000D01*
X26794002Y43500000D02*
X82037500Y43500000D01*
X153500000Y105500000D02*
X157000000Y102000000D01*
X261000000Y117280330D02*
X261000000Y111500000D01*
X179000000Y81500000D02*
X102000000Y81500000D01*
X91500000Y92000000D02*
X90500000Y92000000D01*
X90500000Y63000000D02*
X115863750Y63000000D01*
X205387752Y43500000D02*
X253487500Y43500000D01*
X183410000Y83500000D02*
X186035126Y86125126D01*
X86500000Y92000000D02*
X81000000Y86500000D01*
X68000000Y90500000D02*
X62000000Y84500000D01*
X157000000Y102000000D02*
X168000000Y102000000D01*
X62000000Y84500000D02*
X59000000Y84500000D01*
X180000000Y105500000D02*
X184650000Y105500000D01*
X253487500Y43500000D02*
X258012626Y48025126D01*
X250500000Y101000000D02*
X238500000Y101000000D01*
X168000000Y102000000D02*
X171500000Y105500000D01*
X59000000Y84500000D02*
X53000000Y90500000D01*
X195500000Y105500000D02*
X184650000Y105500000D01*
X171500000Y105500000D02*
X180000000Y105500000D01*
%TO.N,/4*%
X243500000Y93500000D02*
X231510000Y93500000D01*
X242663750Y75500000D02*
X245500000Y75500000D01*
X226659748Y93500000D02*
X223000000Y93500000D01*
X229084874Y91074874D02*
X226659748Y93500000D01*
X227387500Y55500000D02*
X224862374Y52974874D01*
X245160000Y93000000D02*
X246209748Y93000000D01*
X244000000Y93000000D02*
X245160000Y93000000D01*
X245500000Y75500000D02*
X254763498Y75500000D01*
X217000000Y87500000D02*
X208500000Y87500000D01*
X174360000Y93500000D02*
X171934874Y91074874D01*
X267184874Y91074874D02*
X264759748Y93500000D01*
X236500000Y55500000D02*
X227387500Y55500000D01*
X231510000Y93500000D02*
X229084874Y91074874D01*
X202500000Y93500000D02*
X193410000Y93500000D01*
X250560000Y93500000D02*
X248134874Y91074874D01*
X190984874Y91074874D02*
X188559748Y93500000D01*
X246209748Y93000000D02*
X248134874Y91074874D01*
X264759748Y93500000D02*
X250560000Y93500000D01*
X208500000Y87500000D02*
X202500000Y93500000D01*
X245160000Y49160000D02*
X242840000Y49160000D01*
X244000000Y93000000D02*
X243500000Y93500000D01*
X223000000Y93500000D02*
X217000000Y87500000D01*
X254763498Y75500000D02*
X258238624Y72024874D01*
X245160000Y151500000D02*
X245160000Y123160000D01*
X242840000Y49160000D02*
X236500000Y55500000D01*
X245160000Y123160000D02*
X245000000Y123000000D01*
X188559748Y93500000D02*
X174360000Y93500000D01*
X193410000Y93500000D02*
X190984874Y91074874D01*
X239188624Y72024874D02*
X242663750Y75500000D01*
%TO.N,/15*%
X264000000Y110500000D02*
X264000000Y115750000D01*
X62937374Y34062626D02*
X59500000Y37500000D01*
X81987374Y33924874D02*
X85562500Y37500000D01*
X273100000Y124850000D02*
X273100000Y151500000D01*
X217000000Y99000000D02*
X252500000Y99000000D01*
X170500000Y102500000D02*
X196000000Y102500000D01*
X120000000Y74500000D02*
X122413498Y74500000D01*
X211000000Y101000000D02*
X213500000Y98500000D01*
X147413750Y75500000D02*
X159513498Y75500000D01*
X68437248Y57000000D02*
X72462374Y52974874D01*
X124888624Y72024874D02*
X128363750Y75500000D01*
X67738624Y72024874D02*
X71213750Y75500000D01*
X216500000Y98500000D02*
X217000000Y99000000D01*
X168000000Y100000000D02*
X170500000Y102500000D01*
X71213750Y75500000D02*
X98750000Y75500000D01*
X106250000Y68000000D02*
X107000000Y68000000D01*
X143938624Y72024874D02*
X147413750Y75500000D01*
X252500000Y99000000D02*
X264000000Y110500000D01*
X116512248Y37500000D02*
X120087374Y33924874D01*
X62937374Y33924874D02*
X66512500Y37500000D01*
X264000000Y115750000D02*
X273100000Y124850000D01*
X140463498Y75500000D02*
X143938624Y72024874D01*
X59500000Y74500000D02*
X65263498Y74500000D01*
X78412248Y37500000D02*
X81987374Y33924874D01*
X111500000Y72500000D02*
X118000000Y72500000D01*
X165013498Y70000000D02*
X168000000Y70000000D01*
X213500000Y98500000D02*
X216500000Y98500000D01*
X196000000Y102500000D02*
X197500000Y101000000D01*
X66512500Y37500000D02*
X78412248Y37500000D01*
X107000000Y68000000D02*
X111500000Y72500000D01*
X62937374Y33924874D02*
X62937374Y34062626D01*
X162988624Y72024874D02*
X165013498Y70000000D01*
X159513498Y75500000D02*
X162988624Y72024874D01*
X197500000Y101000000D02*
X211000000Y101000000D01*
X85562500Y37500000D02*
X116512248Y37500000D01*
X122413498Y74500000D02*
X124888624Y72024874D01*
X59500000Y57000000D02*
X68437248Y57000000D01*
X65263498Y74500000D02*
X67738624Y72024874D01*
X98750000Y75500000D02*
X106250000Y68000000D01*
X128363750Y75500000D02*
X140463498Y75500000D01*
X118000000Y72500000D02*
X120000000Y74500000D01*
%TO.N,/9*%
X82000000Y59000000D02*
X76500000Y64500000D01*
X244000000Y15000000D02*
X249000000Y10000000D01*
X262235126Y86125126D02*
X269860252Y78500000D01*
X295000000Y103500000D02*
X293000000Y105500000D01*
X120500000Y46000000D02*
X120000000Y46500000D01*
X298000000Y50900252D02*
X300875126Y48025126D01*
X250000000Y32500000D02*
X243500000Y32500000D01*
X231912752Y26500000D02*
X229437626Y28975126D01*
X170500000Y78500000D02*
X169500000Y77500000D01*
X269860252Y78500000D02*
X292000000Y78500000D01*
X124662626Y48025126D02*
X122637500Y46000000D01*
X105500000Y78500000D02*
X104500000Y77500000D01*
X160500000Y77500000D02*
X159500000Y78500000D01*
X124500000Y63500000D02*
X138500000Y63500000D01*
X104500000Y77500000D02*
X99410252Y77500000D01*
X140000000Y62000000D02*
X174500000Y62000000D01*
X292000000Y78500000D02*
X295000000Y81500000D01*
X242000000Y15000000D02*
X244000000Y15000000D01*
X219912626Y9925126D02*
X222337752Y7500000D01*
X169500000Y77500000D02*
X160500000Y77500000D01*
X222337752Y7500000D02*
X237000000Y7500000D01*
X196138876Y67075126D02*
X200714002Y62500000D01*
X240000000Y10500000D02*
X240000000Y13000000D01*
X295000000Y81500000D02*
X295000000Y103500000D01*
X260500000Y84390000D02*
X262235126Y86125126D01*
X256000000Y26500000D02*
X250000000Y32500000D01*
X257860000Y78500000D02*
X259000000Y78500000D01*
X298000000Y62000000D02*
X298000000Y50900252D01*
X276000000Y66000000D02*
X294000000Y66000000D01*
X237000000Y7500000D02*
X240000000Y10500000D01*
X257860000Y151500000D02*
X257860000Y123140000D01*
X174500000Y62000000D02*
X176000000Y63500000D01*
X272500000Y62500000D02*
X276000000Y66000000D01*
X240000000Y13000000D02*
X242000000Y15000000D01*
X200714002Y62500000D02*
X260000000Y62500000D01*
X257860000Y78500000D02*
X170500000Y78500000D01*
X176000000Y63500000D02*
X192563750Y63500000D01*
X260000000Y62500000D02*
X272500000Y62500000D01*
X76500000Y64500000D02*
X65364002Y64500000D01*
X121500000Y46000000D02*
X120500000Y46000000D01*
X257860000Y123140000D02*
X258000000Y123000000D01*
X237500000Y26500000D02*
X231912752Y26500000D01*
X294000000Y66000000D02*
X298000000Y62000000D01*
X260500000Y80000000D02*
X260500000Y84390000D01*
X99410252Y77500000D02*
X90785126Y86125126D01*
X159500000Y78500000D02*
X105500000Y78500000D01*
X293000000Y105500000D02*
X279525000Y105500000D01*
X65364002Y64500000D02*
X62788876Y67075126D01*
X120000000Y59000000D02*
X82000000Y59000000D01*
X138500000Y63500000D02*
X140000000Y62000000D01*
X243500000Y32500000D02*
X237500000Y26500000D01*
X120000000Y59000000D02*
X124500000Y63500000D01*
X249000000Y10000000D02*
X260000000Y10000000D01*
X192563750Y63500000D02*
X196138876Y67075126D01*
X122637500Y46000000D02*
X121500000Y46000000D01*
X259000000Y78500000D02*
X260500000Y80000000D01*
X260000000Y26500000D02*
X256000000Y26500000D01*
%TD*%
%TA.AperFunction,Conductor*%
%TO.N,Net-(D1-A)*%
G36*
X329531463Y111896770D02*
G01*
X330696233Y111314677D01*
X331505057Y110910466D01*
X331510926Y110903702D01*
X331510293Y110894770D01*
X331505057Y110889534D01*
X329531466Y109903232D01*
X329522534Y109902599D01*
X329519216Y109904338D01*
X328529680Y110646490D01*
X328525118Y110654195D01*
X328525000Y110655850D01*
X328525000Y111144150D01*
X328528427Y111152423D01*
X328529680Y111153510D01*
X329519218Y111895664D01*
X329527891Y111897885D01*
X329531463Y111896770D01*
G37*
%TD.AperFunction*%
%TD*%
%TA.AperFunction,Conductor*%
%TO.N,Net-(D1-K)*%
G36*
X329531463Y108096770D02*
G01*
X330696233Y107514677D01*
X331505057Y107110466D01*
X331510926Y107103702D01*
X331510293Y107094770D01*
X331505057Y107089534D01*
X329531466Y106103232D01*
X329522534Y106102599D01*
X329519216Y106104338D01*
X328529680Y106846490D01*
X328525118Y106854195D01*
X328525000Y106855850D01*
X328525000Y107344150D01*
X328528427Y107352423D01*
X328529680Y107353510D01*
X329519218Y108095664D01*
X329527891Y108097885D01*
X329531463Y108096770D01*
G37*
%TD.AperFunction*%
%TD*%
%TA.AperFunction,Conductor*%
%TO.N,Net-(J1-Pin_22)*%
G36*
X270704090Y9736877D02*
G01*
X271949754Y9396821D01*
X271956833Y9391336D01*
X271958255Y9387189D01*
X272133118Y8163151D01*
X272130896Y8154476D01*
X272129809Y8153223D01*
X271784529Y7807943D01*
X271776256Y7804516D01*
X271774601Y7804634D01*
X270550563Y7979497D01*
X270542858Y7984059D01*
X270540931Y7987998D01*
X270017314Y9906070D01*
X270018441Y9914953D01*
X270025520Y9920438D01*
X270031682Y9920438D01*
X270704090Y9736877D01*
G37*
%TD.AperFunction*%
%TD*%
%TA.AperFunction,Conductor*%
%TO.N,/6*%
G36*
X212406673Y113496189D02*
G01*
X214133209Y112510160D01*
X214138694Y112503081D01*
X214137567Y112494198D01*
X214133209Y112489840D01*
X212406673Y111503812D01*
X212397790Y111502685D01*
X212393851Y111504612D01*
X211404680Y112246490D01*
X211400118Y112254195D01*
X211400000Y112255850D01*
X211400000Y112744150D01*
X211403427Y112752423D01*
X211404680Y112753510D01*
X212393852Y113495390D01*
X212402526Y113497611D01*
X212406673Y113496189D01*
G37*
%TD.AperFunction*%
%TD*%
%TA.AperFunction,Conductor*%
%TO.N,/6*%
G36*
X186406148Y113495389D02*
G01*
X187395320Y112753510D01*
X187399882Y112745805D01*
X187400000Y112744150D01*
X187400000Y112255850D01*
X187396573Y112247577D01*
X187395320Y112246490D01*
X186406148Y111504612D01*
X186397473Y111502390D01*
X186393326Y111503812D01*
X184666790Y112489840D01*
X184661305Y112496919D01*
X184662432Y112505802D01*
X184666790Y112510160D01*
X186393327Y113496190D01*
X186402209Y113497316D01*
X186406148Y113495389D01*
G37*
%TD.AperFunction*%
%TD*%
%TA.AperFunction,Conductor*%
%TO.N,/6*%
G36*
X325566338Y33736625D02*
G01*
X326812002Y33396569D01*
X326819081Y33391084D01*
X326820503Y33386937D01*
X326995366Y32162899D01*
X326993144Y32154224D01*
X326992057Y32152971D01*
X326646777Y31807691D01*
X326638504Y31804264D01*
X326636849Y31804382D01*
X325412811Y31979245D01*
X325405106Y31983807D01*
X325403179Y31987746D01*
X324879562Y33905818D01*
X324880689Y33914701D01*
X324887768Y33920186D01*
X324893930Y33920186D01*
X325566338Y33736625D01*
G37*
%TD.AperFunction*%
%TD*%
%TA.AperFunction,Conductor*%
%TO.N,/6*%
G36*
X158878838Y14686625D02*
G01*
X160124502Y14346569D01*
X160131581Y14341084D01*
X160133003Y14336937D01*
X160307866Y13112899D01*
X160305644Y13104224D01*
X160304557Y13102971D01*
X159959277Y12757691D01*
X159951004Y12754264D01*
X159949349Y12754382D01*
X158725311Y12929245D01*
X158717606Y12933807D01*
X158715679Y12937746D01*
X158192062Y14855818D01*
X158193189Y14864701D01*
X158200268Y14870186D01*
X158206430Y14870186D01*
X158878838Y14686625D01*
G37*
%TD.AperFunction*%
%TD*%
%TA.AperFunction,Conductor*%
%TO.N,/6*%
G36*
X325650748Y73021834D02*
G01*
X327635049Y72277721D01*
X327641592Y72271607D01*
X327642641Y72266766D01*
X327642641Y71781613D01*
X327639214Y71773340D01*
X327636812Y71771493D01*
X326356100Y71028560D01*
X326347224Y71027372D01*
X326343666Y71028994D01*
X324884158Y72017906D01*
X324879231Y72025384D01*
X324881035Y72034155D01*
X324881435Y72034711D01*
X325637364Y73018011D01*
X325645123Y73022480D01*
X325650748Y73021834D01*
G37*
%TD.AperFunction*%
%TD*%
%TA.AperFunction,Conductor*%
%TO.N,/6*%
G36*
X215906148Y113495389D02*
G01*
X216895320Y112753510D01*
X216899882Y112745805D01*
X216900000Y112744150D01*
X216900000Y112255850D01*
X216896573Y112247577D01*
X216895320Y112246490D01*
X215906148Y111504612D01*
X215897473Y111502390D01*
X215893326Y111503812D01*
X214166790Y112489840D01*
X214161305Y112496919D01*
X214162432Y112505802D01*
X214166790Y112510160D01*
X215893327Y113496190D01*
X215902209Y113497316D01*
X215906148Y113495389D01*
G37*
%TD.AperFunction*%
%TD*%
%TA.AperFunction,Conductor*%
%TO.N,/6*%
G36*
X343919635Y52971470D02*
G01*
X343923958Y52963628D01*
X343923958Y52961034D01*
X343749100Y51392888D01*
X343744777Y51385046D01*
X343739127Y51382603D01*
X342516451Y51207935D01*
X342507776Y51210157D01*
X342506523Y51211244D01*
X342161243Y51556524D01*
X342157816Y51564797D01*
X342157934Y51566452D01*
X342332602Y52789130D01*
X342337164Y52796833D01*
X342342886Y52799101D01*
X343911033Y52973959D01*
X343919635Y52971470D01*
G37*
%TD.AperFunction*%
%TD*%
%TA.AperFunction,Conductor*%
%TO.N,/6*%
G36*
X326291971Y35689592D02*
G01*
X326293224Y35688505D01*
X326638504Y35343225D01*
X326641931Y35334952D01*
X326641813Y35333297D01*
X326467145Y34110621D01*
X326462583Y34102916D01*
X326456860Y34100648D01*
X324888714Y33925790D01*
X324880112Y33928279D01*
X324875789Y33936121D01*
X324875789Y33938715D01*
X324893958Y34101651D01*
X325050647Y35506862D01*
X325054970Y35514703D01*
X325060617Y35517145D01*
X326283297Y35691814D01*
X326291971Y35689592D01*
G37*
%TD.AperFunction*%
%TD*%
%TA.AperFunction,Conductor*%
%TO.N,/6*%
G36*
X241906673Y113496189D02*
G01*
X243633209Y112510160D01*
X243638694Y112503081D01*
X243637567Y112494198D01*
X243633209Y112489840D01*
X241906673Y111503812D01*
X241897790Y111502685D01*
X241893851Y111504612D01*
X240904680Y112246490D01*
X240900118Y112254195D01*
X240900000Y112255850D01*
X240900000Y112744150D01*
X240903427Y112752423D01*
X240904680Y112753510D01*
X241893852Y113495390D01*
X241902526Y113497611D01*
X241906673Y113496189D01*
G37*
%TD.AperFunction*%
%TD*%
%TA.AperFunction,Conductor*%
%TO.N,/6*%
G36*
X345341971Y54739592D02*
G01*
X345343224Y54738505D01*
X345688504Y54393225D01*
X345691931Y54384952D01*
X345691813Y54383297D01*
X345517145Y53160621D01*
X345512583Y53152916D01*
X345506860Y53150648D01*
X343938714Y52975790D01*
X343930112Y52978279D01*
X343925789Y52986121D01*
X343925789Y52988715D01*
X343943958Y53151651D01*
X344100647Y54556862D01*
X344104970Y54564703D01*
X344110617Y54567145D01*
X345333297Y54741814D01*
X345341971Y54739592D01*
G37*
%TD.AperFunction*%
%TD*%
%TA.AperFunction,Conductor*%
%TO.N,/6*%
G36*
X306516338Y52786625D02*
G01*
X307762002Y52446569D01*
X307769081Y52441084D01*
X307770503Y52436937D01*
X307945366Y51212899D01*
X307943144Y51204224D01*
X307942057Y51202971D01*
X307596777Y50857691D01*
X307588504Y50854264D01*
X307586849Y50854382D01*
X306362811Y51029245D01*
X306355106Y51033807D01*
X306353179Y51037746D01*
X305829562Y52955818D01*
X305830689Y52964701D01*
X305837768Y52970186D01*
X305843930Y52970186D01*
X306516338Y52786625D01*
G37*
%TD.AperFunction*%
%TD*%
%TA.AperFunction,Conductor*%
%TO.N,/6*%
G36*
X342162894Y55095368D02*
G01*
X343386935Y54920505D01*
X343394640Y54915943D01*
X343396567Y54912004D01*
X343920185Y52993931D01*
X343919058Y52985048D01*
X343911979Y52979563D01*
X343905817Y52979563D01*
X341987744Y53503181D01*
X341980665Y53508666D01*
X341979243Y53512813D01*
X341804381Y54736850D01*
X341806603Y54745525D01*
X341807683Y54746771D01*
X342152971Y55092059D01*
X342161243Y55095485D01*
X342162894Y55095368D01*
G37*
%TD.AperFunction*%
%TD*%
%TA.AperFunction,Conductor*%
%TO.N,/6*%
G36*
X245406148Y113495389D02*
G01*
X246395320Y112753510D01*
X246399882Y112745805D01*
X246400000Y112744150D01*
X246400000Y112255850D01*
X246396573Y112247577D01*
X246395320Y112246490D01*
X245406148Y111504612D01*
X245397473Y111502390D01*
X245393326Y111503812D01*
X243666790Y112489840D01*
X243661305Y112496919D01*
X243662432Y112505802D01*
X243666790Y112510160D01*
X245393327Y113496190D01*
X245402209Y113497316D01*
X245406148Y113495389D01*
G37*
%TD.AperFunction*%
%TD*%
%TA.AperFunction,Conductor*%
%TO.N,/16*%
G36*
X99275394Y36045368D02*
G01*
X100499435Y35870505D01*
X100507140Y35865943D01*
X100509067Y35862004D01*
X101032685Y33943931D01*
X101031558Y33935048D01*
X101024479Y33929563D01*
X101018317Y33929563D01*
X99100244Y34453181D01*
X99093165Y34458666D01*
X99091743Y34462813D01*
X98916881Y35686850D01*
X98919103Y35695525D01*
X98920183Y35696771D01*
X99265471Y36042059D01*
X99273743Y36045485D01*
X99275394Y36045368D01*
G37*
%TD.AperFunction*%
%TD*%
%TA.AperFunction,Conductor*%
%TO.N,/16*%
G36*
X150079471Y54739592D02*
G01*
X150080724Y54738505D01*
X150426004Y54393225D01*
X150429431Y54384952D01*
X150429313Y54383297D01*
X150254645Y53160621D01*
X150250083Y53152916D01*
X150244360Y53150648D01*
X148676214Y52975790D01*
X148667612Y52978279D01*
X148663289Y52986121D01*
X148663289Y52988715D01*
X148681458Y53151651D01*
X148838147Y54556862D01*
X148842470Y54564703D01*
X148848117Y54567145D01*
X150070797Y54741814D01*
X150079471Y54739592D01*
G37*
%TD.AperFunction*%
%TD*%
%TA.AperFunction,Conductor*%
%TO.N,/16*%
G36*
X127850394Y55095368D02*
G01*
X129074435Y54920505D01*
X129082140Y54915943D01*
X129084067Y54912004D01*
X129607685Y52993931D01*
X129606558Y52985048D01*
X129599479Y52979563D01*
X129593317Y52979563D01*
X127675244Y53503181D01*
X127668165Y53508666D01*
X127666743Y53512813D01*
X127491881Y54736850D01*
X127494103Y54745525D01*
X127495183Y54746771D01*
X127840471Y55092059D01*
X127848743Y55095485D01*
X127850394Y55095368D01*
G37*
%TD.AperFunction*%
%TD*%
%TA.AperFunction,Conductor*%
%TO.N,/16*%
G36*
X182730088Y71836625D02*
G01*
X183975752Y71496569D01*
X183982831Y71491084D01*
X183984253Y71486937D01*
X184159116Y70262899D01*
X184156894Y70254224D01*
X184155807Y70252971D01*
X183810527Y69907691D01*
X183802254Y69904264D01*
X183800599Y69904382D01*
X182576561Y70079245D01*
X182568856Y70083807D01*
X182566929Y70087746D01*
X182043312Y72005818D01*
X182044439Y72014701D01*
X182051518Y72020186D01*
X182057680Y72020186D01*
X182730088Y71836625D01*
G37*
%TD.AperFunction*%
%TD*%
%TA.AperFunction,Conductor*%
%TO.N,/16*%
G36*
X108800394Y55095368D02*
G01*
X110024435Y54920505D01*
X110032140Y54915943D01*
X110034067Y54912004D01*
X110557685Y52993931D01*
X110556558Y52985048D01*
X110549479Y52979563D01*
X110543317Y52979563D01*
X108625244Y53503181D01*
X108618165Y53508666D01*
X108616743Y53512813D01*
X108441881Y54736850D01*
X108444103Y54745525D01*
X108445183Y54746771D01*
X108790471Y55092059D01*
X108798743Y55095485D01*
X108800394Y55095368D01*
G37*
%TD.AperFunction*%
%TD*%
%TA.AperFunction,Conductor*%
%TO.N,/16*%
G36*
X87480088Y71836625D02*
G01*
X88725752Y71496569D01*
X88732831Y71491084D01*
X88734253Y71486937D01*
X88909116Y70262899D01*
X88906894Y70254224D01*
X88905807Y70252971D01*
X88560527Y69907691D01*
X88552254Y69904264D01*
X88550599Y69904382D01*
X87326561Y70079245D01*
X87318856Y70083807D01*
X87316929Y70087746D01*
X86793312Y72005818D01*
X86794439Y72014701D01*
X86801518Y72020186D01*
X86807680Y72020186D01*
X87480088Y71836625D01*
G37*
%TD.AperFunction*%
%TD*%
%TA.AperFunction,Conductor*%
%TO.N,/16*%
G36*
X180276644Y74145368D02*
G01*
X181500685Y73970505D01*
X181508390Y73965943D01*
X181510317Y73962004D01*
X182033935Y72043931D01*
X182032808Y72035048D01*
X182025729Y72029563D01*
X182019567Y72029563D01*
X180101494Y72553181D01*
X180094415Y72558666D01*
X180092993Y72562813D01*
X179918131Y73786850D01*
X179920353Y73795525D01*
X179921433Y73796771D01*
X180266721Y74142059D01*
X180274993Y74145485D01*
X180276644Y74145368D01*
G37*
%TD.AperFunction*%
%TD*%
%TA.AperFunction,Conductor*%
%TO.N,/16*%
G36*
X111979471Y54739592D02*
G01*
X111980724Y54738505D01*
X112326004Y54393225D01*
X112329431Y54384952D01*
X112329313Y54383297D01*
X112154645Y53160621D01*
X112150083Y53152916D01*
X112144360Y53150648D01*
X110576214Y52975790D01*
X110567612Y52978279D01*
X110563289Y52986121D01*
X110563289Y52988715D01*
X110581458Y53151651D01*
X110738147Y54556862D01*
X110742470Y54564703D01*
X110748117Y54567145D01*
X111970797Y54741814D01*
X111979471Y54739592D01*
G37*
%TD.AperFunction*%
%TD*%
%TA.AperFunction,Conductor*%
%TO.N,/16*%
G36*
X92929471Y54739592D02*
G01*
X92930724Y54738505D01*
X93276004Y54393225D01*
X93279431Y54384952D01*
X93279313Y54383297D01*
X93104645Y53160621D01*
X93100083Y53152916D01*
X93094360Y53150648D01*
X91526214Y52975790D01*
X91517612Y52978279D01*
X91513289Y52986121D01*
X91513289Y52988715D01*
X91531458Y53151651D01*
X91688147Y54556862D01*
X91692470Y54564703D01*
X91698117Y54567145D01*
X92920797Y54741814D01*
X92929471Y54739592D01*
G37*
%TD.AperFunction*%
%TD*%
%TA.AperFunction,Conductor*%
%TO.N,/16*%
G36*
X165950394Y55095368D02*
G01*
X167174435Y54920505D01*
X167182140Y54915943D01*
X167184067Y54912004D01*
X167707685Y52993931D01*
X167706558Y52985048D01*
X167699479Y52979563D01*
X167693317Y52979563D01*
X165775244Y53503181D01*
X165768165Y53508666D01*
X165766743Y53512813D01*
X165591881Y54736850D01*
X165594103Y54745525D01*
X165595183Y54746771D01*
X165940471Y55092059D01*
X165948743Y55095485D01*
X165950394Y55095368D01*
G37*
%TD.AperFunction*%
%TD*%
%TA.AperFunction,Conductor*%
%TO.N,/16*%
G36*
X146900394Y55095368D02*
G01*
X148124435Y54920505D01*
X148132140Y54915943D01*
X148134067Y54912004D01*
X148657685Y52993931D01*
X148656558Y52985048D01*
X148649479Y52979563D01*
X148643317Y52979563D01*
X146725244Y53503181D01*
X146718165Y53508666D01*
X146716743Y53512813D01*
X146541881Y54736850D01*
X146544103Y54745525D01*
X146545183Y54746771D01*
X146890471Y55092059D01*
X146898743Y55095485D01*
X146900394Y55095368D01*
G37*
%TD.AperFunction*%
%TD*%
%TA.AperFunction,Conductor*%
%TO.N,/16*%
G36*
X92203838Y52786625D02*
G01*
X93449502Y52446569D01*
X93456581Y52441084D01*
X93458003Y52436937D01*
X93632866Y51212899D01*
X93630644Y51204224D01*
X93629557Y51202971D01*
X93284277Y50857691D01*
X93276004Y50854264D01*
X93274349Y50854382D01*
X92050311Y51029245D01*
X92042606Y51033807D01*
X92040679Y51037746D01*
X91517062Y52955818D01*
X91518189Y52964701D01*
X91525268Y52970186D01*
X91531430Y52970186D01*
X92203838Y52786625D01*
G37*
%TD.AperFunction*%
%TD*%
%TA.AperFunction,Conductor*%
%TO.N,/16*%
G36*
X130303838Y52786625D02*
G01*
X131549502Y52446569D01*
X131556581Y52441084D01*
X131558003Y52436937D01*
X131732866Y51212899D01*
X131730644Y51204224D01*
X131729557Y51202971D01*
X131384277Y50857691D01*
X131376004Y50854264D01*
X131374349Y50854382D01*
X130150311Y51029245D01*
X130142606Y51033807D01*
X130140679Y51037746D01*
X129617062Y52955818D01*
X129618189Y52964701D01*
X129625268Y52970186D01*
X129631430Y52970186D01*
X130303838Y52786625D01*
G37*
%TD.AperFunction*%
%TD*%
%TA.AperFunction,Conductor*%
%TO.N,/3*%
G36*
X177928838Y33736625D02*
G01*
X179174502Y33396569D01*
X179181581Y33391084D01*
X179183003Y33386937D01*
X179357866Y32162899D01*
X179355644Y32154224D01*
X179354557Y32152971D01*
X179009277Y31807691D01*
X179001004Y31804264D01*
X178999349Y31804382D01*
X177775311Y31979245D01*
X177767606Y31983807D01*
X177765679Y31987746D01*
X177242062Y33905818D01*
X177243189Y33914701D01*
X177250268Y33920186D01*
X177256430Y33920186D01*
X177928838Y33736625D01*
G37*
%TD.AperFunction*%
%TD*%
%TA.AperFunction,Conductor*%
%TO.N,/3*%
G36*
X202505721Y73789592D02*
G01*
X202506974Y73788505D01*
X202852254Y73443225D01*
X202855681Y73434952D01*
X202855563Y73433297D01*
X202680895Y72210621D01*
X202676333Y72202916D01*
X202670610Y72200648D01*
X201102464Y72025790D01*
X201093862Y72028279D01*
X201089539Y72036121D01*
X201089539Y72038715D01*
X201107708Y72201651D01*
X201264397Y73606862D01*
X201268720Y73614703D01*
X201274367Y73617145D01*
X202497047Y73791814D01*
X202505721Y73789592D01*
G37*
%TD.AperFunction*%
%TD*%
%TA.AperFunction,Conductor*%
%TO.N,/3*%
G36*
X185000394Y55095368D02*
G01*
X186224435Y54920505D01*
X186232140Y54915943D01*
X186234067Y54912004D01*
X186757685Y52993931D01*
X186756558Y52985048D01*
X186749479Y52979563D01*
X186743317Y52979563D01*
X184825244Y53503181D01*
X184818165Y53508666D01*
X184816743Y53512813D01*
X184641881Y54736850D01*
X184644103Y54745525D01*
X184645183Y54746771D01*
X184990471Y55092059D01*
X184998743Y55095485D01*
X185000394Y55095368D01*
G37*
%TD.AperFunction*%
%TD*%
%TA.AperFunction,Conductor*%
%TO.N,/3*%
G36*
X218376644Y74145368D02*
G01*
X219600685Y73970505D01*
X219608390Y73965943D01*
X219610317Y73962004D01*
X220133935Y72043931D01*
X220132808Y72035048D01*
X220125729Y72029563D01*
X220119567Y72029563D01*
X218201494Y72553181D01*
X218194415Y72558666D01*
X218192993Y72562813D01*
X218018131Y73786850D01*
X218020353Y73795525D01*
X218021433Y73796771D01*
X218366721Y74142059D01*
X218374993Y74145485D01*
X218376644Y74145368D01*
G37*
%TD.AperFunction*%
%TD*%
%TA.AperFunction,Conductor*%
%TO.N,/3*%
G36*
X206503838Y52786625D02*
G01*
X207749502Y52446569D01*
X207756581Y52441084D01*
X207758003Y52436937D01*
X207932866Y51212899D01*
X207930644Y51204224D01*
X207929557Y51202971D01*
X207584277Y50857691D01*
X207576004Y50854264D01*
X207574349Y50854382D01*
X206350311Y51029245D01*
X206342606Y51033807D01*
X206340679Y51037746D01*
X205817062Y52955818D01*
X205818189Y52964701D01*
X205825268Y52970186D01*
X205831430Y52970186D01*
X206503838Y52786625D01*
G37*
%TD.AperFunction*%
%TD*%
%TA.AperFunction,Conductor*%
%TO.N,/3*%
G36*
X204050394Y55095368D02*
G01*
X205274435Y54920505D01*
X205282140Y54915943D01*
X205284067Y54912004D01*
X205807685Y52993931D01*
X205806558Y52985048D01*
X205799479Y52979563D01*
X205793317Y52979563D01*
X203875244Y53503181D01*
X203868165Y53508666D01*
X203866743Y53512813D01*
X203691881Y54736850D01*
X203694103Y54745525D01*
X203695183Y54746771D01*
X204040471Y55092059D01*
X204048743Y55095485D01*
X204050394Y55095368D01*
G37*
%TD.AperFunction*%
%TD*%
%TA.AperFunction,Conductor*%
%TO.N,/3*%
G36*
X159604471Y35689592D02*
G01*
X159605724Y35688505D01*
X159951004Y35343225D01*
X159954431Y35334952D01*
X159954313Y35333297D01*
X159779645Y34110621D01*
X159775083Y34102916D01*
X159769360Y34100648D01*
X158201214Y33925790D01*
X158192612Y33928279D01*
X158188289Y33936121D01*
X158188289Y33938715D01*
X158206458Y34101651D01*
X158363147Y35506862D01*
X158367470Y35514703D01*
X158373117Y35517145D01*
X159595797Y35691814D01*
X159604471Y35689592D01*
G37*
%TD.AperFunction*%
%TD*%
%TA.AperFunction,Conductor*%
%TO.N,/3*%
G36*
X187453838Y52786625D02*
G01*
X188699502Y52446569D01*
X188706581Y52441084D01*
X188708003Y52436937D01*
X188882866Y51212899D01*
X188880644Y51204224D01*
X188879557Y51202971D01*
X188534277Y50857691D01*
X188526004Y50854264D01*
X188524349Y50854382D01*
X187300311Y51029245D01*
X187292606Y51033807D01*
X187290679Y51037746D01*
X186767062Y52955818D01*
X186768189Y52964701D01*
X186775268Y52970186D01*
X186781430Y52970186D01*
X187453838Y52786625D01*
G37*
%TD.AperFunction*%
%TD*%
%TA.AperFunction,Conductor*%
%TO.N,/3*%
G36*
X221555721Y73789592D02*
G01*
X221556974Y73788505D01*
X221902254Y73443225D01*
X221905681Y73434952D01*
X221905563Y73433297D01*
X221730895Y72210621D01*
X221726333Y72202916D01*
X221720610Y72200648D01*
X220152464Y72025790D01*
X220143862Y72028279D01*
X220139539Y72036121D01*
X220139539Y72038715D01*
X220157708Y72201651D01*
X220314397Y73606862D01*
X220318720Y73614703D01*
X220324367Y73617145D01*
X221547047Y73791814D01*
X221555721Y73789592D01*
G37*
%TD.AperFunction*%
%TD*%
%TA.AperFunction,Conductor*%
%TO.N,/3*%
G36*
X175475394Y36045368D02*
G01*
X176699435Y35870505D01*
X176707140Y35865943D01*
X176709067Y35862004D01*
X177232685Y33943931D01*
X177231558Y33935048D01*
X177224479Y33929563D01*
X177218317Y33929563D01*
X175300244Y34453181D01*
X175293165Y34458666D01*
X175291743Y34462813D01*
X175116881Y35686850D01*
X175119103Y35695525D01*
X175120183Y35696771D01*
X175465471Y36042059D01*
X175473743Y36045485D01*
X175475394Y36045368D01*
G37*
%TD.AperFunction*%
%TD*%
%TA.AperFunction,Conductor*%
%TO.N,/3*%
G36*
X199326644Y74145368D02*
G01*
X200550685Y73970505D01*
X200558390Y73965943D01*
X200560317Y73962004D01*
X201083935Y72043931D01*
X201082808Y72035048D01*
X201075729Y72029563D01*
X201069567Y72029563D01*
X199151494Y72553181D01*
X199144415Y72558666D01*
X199142993Y72562813D01*
X198968131Y73786850D01*
X198970353Y73795525D01*
X198971433Y73796771D01*
X199316721Y74142059D01*
X199324993Y74145485D01*
X199326644Y74145368D01*
G37*
%TD.AperFunction*%
%TD*%
%TA.AperFunction,Conductor*%
%TO.N,/3*%
G36*
X107255721Y73789592D02*
G01*
X107256974Y73788505D01*
X107602254Y73443225D01*
X107605681Y73434952D01*
X107605563Y73433297D01*
X107430895Y72210621D01*
X107426333Y72202916D01*
X107420610Y72200648D01*
X105852464Y72025790D01*
X105843862Y72028279D01*
X105839539Y72036121D01*
X105839539Y72038715D01*
X105857708Y72201651D01*
X106014397Y73606862D01*
X106018720Y73614703D01*
X106024367Y73617145D01*
X107247047Y73791814D01*
X107255721Y73789592D01*
G37*
%TD.AperFunction*%
%TD*%
%TA.AperFunction,Conductor*%
%TO.N,/3*%
G36*
X50105721Y73789592D02*
G01*
X50106974Y73788505D01*
X50452254Y73443225D01*
X50455681Y73434952D01*
X50455563Y73433297D01*
X50280895Y72210621D01*
X50276333Y72202916D01*
X50270610Y72200648D01*
X48702464Y72025790D01*
X48693862Y72028279D01*
X48689539Y72036121D01*
X48689539Y72038715D01*
X48707708Y72201651D01*
X48864397Y73606862D01*
X48868720Y73614703D01*
X48874367Y73617145D01*
X50097047Y73791814D01*
X50105721Y73789592D01*
G37*
%TD.AperFunction*%
%TD*%
%TA.AperFunction,Conductor*%
%TO.N,/3*%
G36*
X104076644Y74145368D02*
G01*
X105300685Y73970505D01*
X105308390Y73965943D01*
X105310317Y73962004D01*
X105833935Y72043931D01*
X105832808Y72035048D01*
X105825729Y72029563D01*
X105819567Y72029563D01*
X103901494Y72553181D01*
X103894415Y72558666D01*
X103892993Y72562813D01*
X103718131Y73786850D01*
X103720353Y73795525D01*
X103721433Y73796771D01*
X104066721Y74142059D01*
X104074993Y74145485D01*
X104076644Y74145368D01*
G37*
%TD.AperFunction*%
%TD*%
%TA.AperFunction,Conductor*%
%TO.N,/14*%
G36*
X93972894Y93195368D02*
G01*
X95196935Y93020505D01*
X95204640Y93015943D01*
X95206567Y93012004D01*
X95730185Y91093931D01*
X95729058Y91085048D01*
X95721979Y91079563D01*
X95715817Y91079563D01*
X93797744Y91603181D01*
X93790665Y91608666D01*
X93789243Y91612813D01*
X93614381Y92836850D01*
X93616603Y92845525D01*
X93617683Y92846771D01*
X93962971Y93192059D01*
X93971243Y93195485D01*
X93972894Y93195368D01*
G37*
%TD.AperFunction*%
%TD*%
%TA.AperFunction,Conductor*%
%TO.N,/14*%
G36*
X210726338Y90886625D02*
G01*
X211972002Y90546569D01*
X211979081Y90541084D01*
X211980503Y90536937D01*
X212155366Y89312899D01*
X212153144Y89304224D01*
X212152057Y89302971D01*
X211806777Y88957691D01*
X211798504Y88954264D01*
X211796849Y88954382D01*
X210572811Y89129245D01*
X210565106Y89133807D01*
X210563179Y89137746D01*
X210039562Y91055818D01*
X210040689Y91064701D01*
X210047768Y91070186D01*
X210053930Y91070186D01*
X210726338Y90886625D01*
G37*
%TD.AperFunction*%
%TD*%
%TA.AperFunction,Conductor*%
%TO.N,/14*%
G36*
X97151971Y92839592D02*
G01*
X97153224Y92838505D01*
X97498504Y92493225D01*
X97501931Y92484952D01*
X97501813Y92483297D01*
X97327145Y91260621D01*
X97322583Y91252916D01*
X97316860Y91250648D01*
X95748714Y91075790D01*
X95740112Y91078279D01*
X95735789Y91086121D01*
X95735789Y91088715D01*
X95753958Y91251651D01*
X95910647Y92656862D01*
X95914970Y92664703D01*
X95920617Y92667145D01*
X97143297Y92841814D01*
X97151971Y92839592D01*
G37*
%TD.AperFunction*%
%TD*%
%TA.AperFunction,Conductor*%
%TO.N,/14*%
G36*
X40001971Y92839592D02*
G01*
X40003224Y92838505D01*
X40348504Y92493225D01*
X40351931Y92484952D01*
X40351813Y92483297D01*
X40177145Y91260621D01*
X40172583Y91252916D01*
X40166860Y91250648D01*
X38598714Y91075790D01*
X38590112Y91078279D01*
X38585789Y91086121D01*
X38585789Y91088715D01*
X38603958Y91251651D01*
X38760647Y92656862D01*
X38764970Y92664703D01*
X38770617Y92667145D01*
X39993297Y92841814D01*
X40001971Y92839592D01*
G37*
%TD.AperFunction*%
%TD*%
%TA.AperFunction,Conductor*%
%TO.N,/14*%
G36*
X131895933Y93247692D02*
G01*
X133288656Y93012092D01*
X133296241Y93007333D01*
X133297974Y93003699D01*
X133830371Y91094605D01*
X133829292Y91085715D01*
X133822244Y91080192D01*
X133816083Y91080158D01*
X131890414Y91594283D01*
X131883305Y91599728D01*
X131881732Y91605593D01*
X131882287Y92750003D01*
X131882287Y93236155D01*
X131885714Y93244428D01*
X131893987Y93247855D01*
X131895933Y93247692D01*
G37*
%TD.AperFunction*%
%TD*%
%TA.AperFunction,Conductor*%
%TO.N,/14*%
G36*
X150945933Y93247692D02*
G01*
X152338656Y93012092D01*
X152346241Y93007333D01*
X152347974Y93003699D01*
X152880371Y91094605D01*
X152879292Y91085715D01*
X152872244Y91080192D01*
X152866083Y91080158D01*
X150940414Y91594283D01*
X150933305Y91599728D01*
X150931732Y91605593D01*
X150932287Y92750003D01*
X150932287Y93236155D01*
X150935714Y93244428D01*
X150943987Y93247855D01*
X150945933Y93247692D01*
G37*
%TD.AperFunction*%
%TD*%
%TA.AperFunction,Conductor*%
%TO.N,/14*%
G36*
X116201971Y92839592D02*
G01*
X116203224Y92838505D01*
X116548504Y92493225D01*
X116551931Y92484952D01*
X116551813Y92483297D01*
X116377145Y91260621D01*
X116372583Y91252916D01*
X116366860Y91250648D01*
X114798714Y91075790D01*
X114790112Y91078279D01*
X114785789Y91086121D01*
X114785789Y91088715D01*
X114803958Y91251651D01*
X114960647Y92656862D01*
X114964970Y92664703D01*
X114970617Y92667145D01*
X116193297Y92841814D01*
X116201971Y92839592D01*
G37*
%TD.AperFunction*%
%TD*%
%TA.AperFunction,Conductor*%
%TO.N,/14*%
G36*
X135251971Y92839592D02*
G01*
X135253224Y92838505D01*
X135598504Y92493225D01*
X135601931Y92484952D01*
X135601813Y92483297D01*
X135427145Y91260621D01*
X135422583Y91252916D01*
X135416860Y91250648D01*
X133848714Y91075790D01*
X133840112Y91078279D01*
X133835789Y91086121D01*
X133835789Y91088715D01*
X133853958Y91251651D01*
X134010647Y92656862D01*
X134014970Y92664703D01*
X134020617Y92667145D01*
X135243297Y92841814D01*
X135251971Y92839592D01*
G37*
%TD.AperFunction*%
%TD*%
%TA.AperFunction,Conductor*%
%TO.N,/14*%
G36*
X78101971Y92839592D02*
G01*
X78103224Y92838505D01*
X78448504Y92493225D01*
X78451931Y92484952D01*
X78451813Y92483297D01*
X78277145Y91260621D01*
X78272583Y91252916D01*
X78266860Y91250648D01*
X76698714Y91075790D01*
X76690112Y91078279D01*
X76685789Y91086121D01*
X76685789Y91088715D01*
X76703958Y91251651D01*
X76860647Y92656862D01*
X76864970Y92664703D01*
X76870617Y92667145D01*
X78093297Y92841814D01*
X78101971Y92839592D01*
G37*
%TD.AperFunction*%
%TD*%
%TA.AperFunction,Conductor*%
%TO.N,/14*%
G36*
X112845933Y93247692D02*
G01*
X114238656Y93012092D01*
X114246241Y93007333D01*
X114247974Y93003699D01*
X114780371Y91094605D01*
X114779292Y91085715D01*
X114772244Y91080192D01*
X114766083Y91080158D01*
X112840414Y91594283D01*
X112833305Y91599728D01*
X112831732Y91605593D01*
X112832287Y92750003D01*
X112832287Y93236155D01*
X112835714Y93244428D01*
X112843987Y93247855D01*
X112845933Y93247692D01*
G37*
%TD.AperFunction*%
%TD*%
%TA.AperFunction,Conductor*%
%TO.N,/14*%
G36*
X59051971Y92839592D02*
G01*
X59053224Y92838505D01*
X59398504Y92493225D01*
X59401931Y92484952D01*
X59401813Y92483297D01*
X59227145Y91260621D01*
X59222583Y91252916D01*
X59216860Y91250648D01*
X57648714Y91075790D01*
X57640112Y91078279D01*
X57635789Y91086121D01*
X57635789Y91088715D01*
X57653958Y91251651D01*
X57810647Y92656862D01*
X57814970Y92664703D01*
X57820617Y92667145D01*
X59043297Y92841814D01*
X59051971Y92839592D01*
G37*
%TD.AperFunction*%
%TD*%
%TA.AperFunction,Conductor*%
%TO.N,/14*%
G36*
X55695933Y93247692D02*
G01*
X57088656Y93012092D01*
X57096241Y93007333D01*
X57097974Y93003699D01*
X57630371Y91094605D01*
X57629292Y91085715D01*
X57622244Y91080192D01*
X57616083Y91080158D01*
X55690414Y91594283D01*
X55683305Y91599728D01*
X55681732Y91605593D01*
X55682287Y92750003D01*
X55682287Y93236155D01*
X55685714Y93244428D01*
X55693987Y93247855D01*
X55695933Y93247692D01*
G37*
%TD.AperFunction*%
%TD*%
%TA.AperFunction,Conductor*%
%TO.N,/14*%
G36*
X208272894Y93195368D02*
G01*
X209496935Y93020505D01*
X209504640Y93015943D01*
X209506567Y93012004D01*
X210030185Y91093931D01*
X210029058Y91085048D01*
X210021979Y91079563D01*
X210015817Y91079563D01*
X208097744Y91603181D01*
X208090665Y91608666D01*
X208089243Y91612813D01*
X207914381Y92836850D01*
X207916603Y92845525D01*
X207917683Y92846771D01*
X208262971Y93192059D01*
X208271243Y93195485D01*
X208272894Y93195368D01*
G37*
%TD.AperFunction*%
%TD*%
%TA.AperFunction,Conductor*%
%TO.N,/14*%
G36*
X154301971Y92839592D02*
G01*
X154303224Y92838505D01*
X154648504Y92493225D01*
X154651931Y92484952D01*
X154651813Y92483297D01*
X154477145Y91260621D01*
X154472583Y91252916D01*
X154466860Y91250648D01*
X152898714Y91075790D01*
X152890112Y91078279D01*
X152885789Y91086121D01*
X152885789Y91088715D01*
X152903958Y91251651D01*
X153060647Y92656862D01*
X153064970Y92664703D01*
X153070617Y92667145D01*
X154293297Y92841814D01*
X154301971Y92839592D01*
G37*
%TD.AperFunction*%
%TD*%
%TA.AperFunction,Conductor*%
%TO.N,/14*%
G36*
X74745933Y93247692D02*
G01*
X76138656Y93012092D01*
X76146241Y93007333D01*
X76147974Y93003699D01*
X76680371Y91094605D01*
X76679292Y91085715D01*
X76672244Y91080192D01*
X76666083Y91080158D01*
X74740414Y91594283D01*
X74733305Y91599728D01*
X74731732Y91605593D01*
X74732287Y92750003D01*
X74732287Y93236155D01*
X74735714Y93244428D01*
X74743987Y93247855D01*
X74745933Y93247692D01*
G37*
%TD.AperFunction*%
%TD*%
%TA.AperFunction,Conductor*%
%TO.N,/17*%
G36*
X54103838Y52786625D02*
G01*
X55349502Y52446569D01*
X55356581Y52441084D01*
X55358003Y52436937D01*
X55532866Y51212899D01*
X55530644Y51204224D01*
X55529557Y51202971D01*
X55184277Y50857691D01*
X55176004Y50854264D01*
X55174349Y50854382D01*
X53950311Y51029245D01*
X53942606Y51033807D01*
X53940679Y51037746D01*
X53417062Y52955818D01*
X53418189Y52964701D01*
X53425268Y52970186D01*
X53431430Y52970186D01*
X54103838Y52786625D01*
G37*
%TD.AperFunction*%
%TD*%
%TA.AperFunction,Conductor*%
%TO.N,/17*%
G36*
X194525394Y36045368D02*
G01*
X195749435Y35870505D01*
X195757140Y35865943D01*
X195759067Y35862004D01*
X196282685Y33943931D01*
X196281558Y33935048D01*
X196274479Y33929563D01*
X196268317Y33929563D01*
X194350244Y34453181D01*
X194343165Y34458666D01*
X194341743Y34462813D01*
X194166881Y35686850D01*
X194169103Y35695525D01*
X194170183Y35696771D01*
X194515471Y36042059D01*
X194523743Y36045485D01*
X194525394Y36045368D01*
G37*
%TD.AperFunction*%
%TD*%
%TA.AperFunction,Conductor*%
%TO.N,/17*%
G36*
X197704471Y35689592D02*
G01*
X197705724Y35688505D01*
X198051004Y35343225D01*
X198054431Y35334952D01*
X198054313Y35333297D01*
X197879645Y34110621D01*
X197875083Y34102916D01*
X197869360Y34100648D01*
X196301214Y33925790D01*
X196292612Y33928279D01*
X196288289Y33936121D01*
X196288289Y33938715D01*
X196306458Y34101651D01*
X196463147Y35506862D01*
X196467470Y35514703D01*
X196473117Y35517145D01*
X197695797Y35691814D01*
X197704471Y35689592D01*
G37*
%TD.AperFunction*%
%TD*%
%TA.AperFunction,Conductor*%
%TO.N,/17*%
G36*
X232625394Y36045368D02*
G01*
X233849435Y35870505D01*
X233857140Y35865943D01*
X233859067Y35862004D01*
X234382685Y33943931D01*
X234381558Y33935048D01*
X234374479Y33929563D01*
X234368317Y33929563D01*
X232450244Y34453181D01*
X232443165Y34458666D01*
X232441743Y34462813D01*
X232266881Y35686850D01*
X232269103Y35695525D01*
X232270183Y35696771D01*
X232615471Y36042059D01*
X232623743Y36045485D01*
X232625394Y36045368D01*
G37*
%TD.AperFunction*%
%TD*%
%TA.AperFunction,Conductor*%
%TO.N,/17*%
G36*
X251675394Y36045368D02*
G01*
X252899435Y35870505D01*
X252907140Y35865943D01*
X252909067Y35862004D01*
X253432685Y33943931D01*
X253431558Y33935048D01*
X253424479Y33929563D01*
X253418317Y33929563D01*
X251500244Y34453181D01*
X251493165Y34458666D01*
X251491743Y34462813D01*
X251316881Y35686850D01*
X251319103Y35695525D01*
X251320183Y35696771D01*
X251665471Y36042059D01*
X251673743Y36045485D01*
X251675394Y36045368D01*
G37*
%TD.AperFunction*%
%TD*%
%TA.AperFunction,Conductor*%
%TO.N,/17*%
G36*
X242150394Y55095368D02*
G01*
X243374435Y54920505D01*
X243382140Y54915943D01*
X243384067Y54912004D01*
X243907685Y52993931D01*
X243906558Y52985048D01*
X243899479Y52979563D01*
X243893317Y52979563D01*
X241975244Y53503181D01*
X241968165Y53508666D01*
X241966743Y53512813D01*
X241791881Y54736850D01*
X241794103Y54745525D01*
X241795183Y54746771D01*
X242140471Y55092059D01*
X242148743Y55095485D01*
X242150394Y55095368D01*
G37*
%TD.AperFunction*%
%TD*%
%TA.AperFunction,Conductor*%
%TO.N,/17*%
G36*
X140554471Y35689592D02*
G01*
X140555724Y35688505D01*
X140901004Y35343225D01*
X140904431Y35334952D01*
X140904313Y35333297D01*
X140729645Y34110621D01*
X140725083Y34102916D01*
X140719360Y34100648D01*
X139151214Y33925790D01*
X139142612Y33928279D01*
X139138289Y33936121D01*
X139138289Y33938715D01*
X139156458Y34101651D01*
X139313147Y35506862D01*
X139317470Y35514703D01*
X139323117Y35517145D01*
X140545797Y35691814D01*
X140554471Y35689592D01*
G37*
%TD.AperFunction*%
%TD*%
%TA.AperFunction,Conductor*%
%TO.N,/17*%
G36*
X261200394Y55095368D02*
G01*
X262424435Y54920505D01*
X262432140Y54915943D01*
X262434067Y54912004D01*
X262957685Y52993931D01*
X262956558Y52985048D01*
X262949479Y52979563D01*
X262943317Y52979563D01*
X261025244Y53503181D01*
X261018165Y53508666D01*
X261016743Y53512813D01*
X260841881Y54736850D01*
X260844103Y54745525D01*
X260845183Y54746771D01*
X261190471Y55092059D01*
X261198743Y55095485D01*
X261200394Y55095368D01*
G37*
%TD.AperFunction*%
%TD*%
%TA.AperFunction,Conductor*%
%TO.N,/17*%
G36*
X264379471Y54739592D02*
G01*
X264380724Y54738505D01*
X264726004Y54393225D01*
X264729431Y54384952D01*
X264729313Y54383297D01*
X264554645Y53160621D01*
X264550083Y53152916D01*
X264544360Y53150648D01*
X262976214Y52975790D01*
X262967612Y52978279D01*
X262963289Y52986121D01*
X262963289Y52988715D01*
X262981458Y53151651D01*
X263138147Y54556862D01*
X263142470Y54564703D01*
X263148117Y54567145D01*
X264370797Y54741814D01*
X264379471Y54739592D01*
G37*
%TD.AperFunction*%
%TD*%
%TA.AperFunction,Conductor*%
%TO.N,/17*%
G36*
X137375394Y36045368D02*
G01*
X138599435Y35870505D01*
X138607140Y35865943D01*
X138609067Y35862004D01*
X139132685Y33943931D01*
X139131558Y33935048D01*
X139124479Y33929563D01*
X139118317Y33929563D01*
X137200244Y34453181D01*
X137193165Y34458666D01*
X137191743Y34462813D01*
X137016881Y35686850D01*
X137019103Y35695525D01*
X137020183Y35696771D01*
X137365471Y36042059D01*
X137373743Y36045485D01*
X137375394Y36045368D01*
G37*
%TD.AperFunction*%
%TD*%
%TA.AperFunction,Conductor*%
%TO.N,/17*%
G36*
X254854471Y35689592D02*
G01*
X254855724Y35688505D01*
X255201004Y35343225D01*
X255204431Y35334952D01*
X255204313Y35333297D01*
X255029645Y34110621D01*
X255025083Y34102916D01*
X255019360Y34100648D01*
X253451214Y33925790D01*
X253442612Y33928279D01*
X253438289Y33936121D01*
X253438289Y33938715D01*
X253456458Y34101651D01*
X253613147Y35506862D01*
X253617470Y35514703D01*
X253623117Y35517145D01*
X254845797Y35691814D01*
X254854471Y35689592D01*
G37*
%TD.AperFunction*%
%TD*%
%TA.AperFunction,Conductor*%
%TO.N,/17*%
G36*
X213575394Y36045368D02*
G01*
X214799435Y35870505D01*
X214807140Y35865943D01*
X214809067Y35862004D01*
X215332685Y33943931D01*
X215331558Y33935048D01*
X215324479Y33929563D01*
X215318317Y33929563D01*
X213400244Y34453181D01*
X213393165Y34458666D01*
X213391743Y34462813D01*
X213216881Y35686850D01*
X213219103Y35695525D01*
X213220183Y35696771D01*
X213565471Y36042059D01*
X213573743Y36045485D01*
X213575394Y36045368D01*
G37*
%TD.AperFunction*%
%TD*%
%TA.AperFunction,Conductor*%
%TO.N,/17*%
G36*
X216754471Y35689592D02*
G01*
X216755724Y35688505D01*
X217101004Y35343225D01*
X217104431Y35334952D01*
X217104313Y35333297D01*
X216929645Y34110621D01*
X216925083Y34102916D01*
X216919360Y34100648D01*
X215351214Y33925790D01*
X215342612Y33928279D01*
X215338289Y33936121D01*
X215338289Y33938715D01*
X215356458Y34101651D01*
X215513147Y35506862D01*
X215517470Y35514703D01*
X215523117Y35517145D01*
X216745797Y35691814D01*
X216754471Y35689592D01*
G37*
%TD.AperFunction*%
%TD*%
%TA.AperFunction,Conductor*%
%TO.N,/17*%
G36*
X235804471Y35689592D02*
G01*
X235805724Y35688505D01*
X236151004Y35343225D01*
X236154431Y35334952D01*
X236154313Y35333297D01*
X235979645Y34110621D01*
X235975083Y34102916D01*
X235969360Y34100648D01*
X234401214Y33925790D01*
X234392612Y33928279D01*
X234388289Y33936121D01*
X234388289Y33938715D01*
X234406458Y34101651D01*
X234563147Y35506862D01*
X234567470Y35514703D01*
X234573117Y35517145D01*
X235795797Y35691814D01*
X235804471Y35689592D01*
G37*
%TD.AperFunction*%
%TD*%
%TA.AperFunction,Conductor*%
%TO.N,/7*%
G36*
X286926338Y90886625D02*
G01*
X288172002Y90546569D01*
X288179081Y90541084D01*
X288180503Y90536937D01*
X288355366Y89312899D01*
X288353144Y89304224D01*
X288352057Y89302971D01*
X288006777Y88957691D01*
X287998504Y88954264D01*
X287996849Y88954382D01*
X286772811Y89129245D01*
X286765106Y89133807D01*
X286763179Y89137746D01*
X286239562Y91055818D01*
X286240689Y91064701D01*
X286247768Y91070186D01*
X286253930Y91070186D01*
X286926338Y90886625D01*
G37*
%TD.AperFunction*%
%TD*%
%TA.AperFunction,Conductor*%
%TO.N,/7*%
G36*
X18312894Y93195368D02*
G01*
X19536935Y93020505D01*
X19544640Y93015943D01*
X19546567Y93012004D01*
X20070185Y91093931D01*
X20069058Y91085048D01*
X20061979Y91079563D01*
X20055817Y91079563D01*
X18137744Y91603181D01*
X18130665Y91608666D01*
X18129243Y91612813D01*
X17954381Y92836850D01*
X17956603Y92845525D01*
X17957683Y92846771D01*
X18302971Y93192059D01*
X18311243Y93195485D01*
X18312894Y93195368D01*
G37*
%TD.AperFunction*%
%TD*%
%TA.AperFunction,Conductor*%
%TO.N,/7*%
G36*
X142656673Y113496189D02*
G01*
X144383209Y112510160D01*
X144388694Y112503081D01*
X144387567Y112494198D01*
X144383209Y112489840D01*
X142656673Y111503812D01*
X142647790Y111502685D01*
X142643851Y111504612D01*
X141654680Y112246490D01*
X141650118Y112254195D01*
X141650000Y112255850D01*
X141650000Y112744150D01*
X141653427Y112752423D01*
X141654680Y112753510D01*
X142643852Y113495390D01*
X142652526Y113497611D01*
X142656673Y113496189D01*
G37*
%TD.AperFunction*%
%TD*%
%TA.AperFunction,Conductor*%
%TO.N,/7*%
G36*
X250053838Y14686625D02*
G01*
X251299502Y14346569D01*
X251306581Y14341084D01*
X251308003Y14336937D01*
X251482866Y13112899D01*
X251480644Y13104224D01*
X251479557Y13102971D01*
X251134277Y12757691D01*
X251126004Y12754264D01*
X251124349Y12754382D01*
X249900311Y12929245D01*
X249892606Y12933807D01*
X249890679Y12937746D01*
X249367062Y14855818D01*
X249368189Y14864701D01*
X249375268Y14870186D01*
X249381430Y14870186D01*
X250053838Y14686625D01*
G37*
%TD.AperFunction*%
%TD*%
%TA.AperFunction,Conductor*%
%TO.N,/7*%
G36*
X21491971Y92839592D02*
G01*
X21493224Y92838505D01*
X21838504Y92493225D01*
X21841931Y92484952D01*
X21841813Y92483297D01*
X21667145Y91260621D01*
X21662583Y91252916D01*
X21656860Y91250648D01*
X20088714Y91075790D01*
X20080112Y91078279D01*
X20075789Y91086121D01*
X20075789Y91088715D01*
X20093958Y91251651D01*
X20250647Y92656862D01*
X20254970Y92664703D01*
X20260617Y92667145D01*
X21483297Y92841814D01*
X21491971Y92839592D01*
G37*
%TD.AperFunction*%
%TD*%
%TA.AperFunction,Conductor*%
%TO.N,/7*%
G36*
X277781673Y113496189D02*
G01*
X279508209Y112510160D01*
X279513694Y112503081D01*
X279512567Y112494198D01*
X279508209Y112489840D01*
X277781673Y111503812D01*
X277772790Y111502685D01*
X277768851Y111504612D01*
X276779680Y112246490D01*
X276775118Y112254195D01*
X276775000Y112255850D01*
X276775000Y112744150D01*
X276778427Y112752423D01*
X276779680Y112753510D01*
X277768852Y113495390D01*
X277777526Y113497611D01*
X277781673Y113496189D01*
G37*
%TD.AperFunction*%
%TD*%
%TA.AperFunction,Conductor*%
%TO.N,/7*%
G36*
X285085088Y62311625D02*
G01*
X286330752Y61971569D01*
X286337831Y61966084D01*
X286339253Y61961937D01*
X286514116Y60737899D01*
X286511894Y60729224D01*
X286510807Y60727971D01*
X286165527Y60382691D01*
X286157254Y60379264D01*
X286155599Y60379382D01*
X284931561Y60554245D01*
X284923856Y60558807D01*
X284921929Y60562746D01*
X284398312Y62480818D01*
X284399439Y62489701D01*
X284406518Y62495186D01*
X284412680Y62495186D01*
X285085088Y62311625D01*
G37*
%TD.AperFunction*%
%TD*%
%TA.AperFunction,Conductor*%
%TO.N,/7*%
G36*
X281281148Y113495389D02*
G01*
X282270320Y112753510D01*
X282274882Y112745805D01*
X282275000Y112744150D01*
X282275000Y112255850D01*
X282271573Y112247577D01*
X282270320Y112246490D01*
X281281148Y111504612D01*
X281272473Y111502390D01*
X281268326Y111503812D01*
X279541790Y112489840D01*
X279536305Y112496919D01*
X279537432Y112505802D01*
X279541790Y112510160D01*
X281268327Y113496190D01*
X281277209Y113497316D01*
X281281148Y113495389D01*
G37*
%TD.AperFunction*%
%TD*%
%TA.AperFunction,Conductor*%
%TO.N,/7*%
G36*
X25528838Y71836625D02*
G01*
X26774502Y71496569D01*
X26781581Y71491084D01*
X26783003Y71486937D01*
X26957866Y70262899D01*
X26955644Y70254224D01*
X26954557Y70252971D01*
X26609277Y69907691D01*
X26601004Y69904264D01*
X26599349Y69904382D01*
X25375311Y70079245D01*
X25367606Y70083807D01*
X25365679Y70087746D01*
X24842062Y72005818D01*
X24843189Y72014701D01*
X24850268Y72020186D01*
X24856430Y72020186D01*
X25528838Y71836625D01*
G37*
%TD.AperFunction*%
%TD*%
%TA.AperFunction,Conductor*%
%TO.N,/7*%
G36*
X116656148Y113495389D02*
G01*
X117645320Y112753510D01*
X117649882Y112745805D01*
X117650000Y112744150D01*
X117650000Y112255850D01*
X117646573Y112247577D01*
X117645320Y112246490D01*
X116656148Y111504612D01*
X116647473Y111502390D01*
X116643326Y111503812D01*
X114916790Y112489840D01*
X114911305Y112496919D01*
X114912432Y112505802D01*
X114916790Y112510160D01*
X116643327Y113496190D01*
X116652209Y113497316D01*
X116656148Y113495389D01*
G37*
%TD.AperFunction*%
%TD*%
%TA.AperFunction,Conductor*%
%TO.N,/7*%
G36*
X146156148Y113495389D02*
G01*
X147145320Y112753510D01*
X147149882Y112745805D01*
X147150000Y112744150D01*
X147150000Y112255850D01*
X147146573Y112247577D01*
X147145320Y112246490D01*
X146156148Y111504612D01*
X146147473Y111502390D01*
X146143326Y111503812D01*
X144416790Y112489840D01*
X144411305Y112496919D01*
X144412432Y112505802D01*
X144416790Y112510160D01*
X146143327Y113496190D01*
X146152209Y113497316D01*
X146156148Y113495389D01*
G37*
%TD.AperFunction*%
%TD*%
%TA.AperFunction,Conductor*%
%TO.N,/8*%
G36*
X85144498Y15871834D02*
G01*
X87128799Y15127721D01*
X87135342Y15121607D01*
X87136391Y15116766D01*
X87136391Y14631613D01*
X87132964Y14623340D01*
X87130562Y14621493D01*
X85849850Y13878560D01*
X85840974Y13877372D01*
X85837416Y13878994D01*
X84377908Y14867906D01*
X84372981Y14875384D01*
X84374785Y14884155D01*
X84375185Y14884711D01*
X85131114Y15868011D01*
X85138873Y15872480D01*
X85144498Y15871834D01*
G37*
%TD.AperFunction*%
%TD*%
%TA.AperFunction,Conductor*%
%TO.N,/8*%
G36*
X280322588Y33736625D02*
G01*
X281568252Y33396569D01*
X281575331Y33391084D01*
X281576753Y33386937D01*
X281751616Y32162899D01*
X281749394Y32154224D01*
X281748307Y32152971D01*
X281403027Y31807691D01*
X281394754Y31804264D01*
X281393099Y31804382D01*
X280169061Y31979245D01*
X280161356Y31983807D01*
X280159429Y31987746D01*
X279635812Y33905818D01*
X279636939Y33914701D01*
X279644018Y33920186D01*
X279650180Y33920186D01*
X280322588Y33736625D01*
G37*
%TD.AperFunction*%
%TD*%
%TA.AperFunction,Conductor*%
%TO.N,/8*%
G36*
X226279471Y16639592D02*
G01*
X226280724Y16638505D01*
X226626004Y16293225D01*
X226629431Y16284952D01*
X226629313Y16283297D01*
X226454645Y15060621D01*
X226450083Y15052916D01*
X226444360Y15050648D01*
X224876214Y14875790D01*
X224867612Y14878279D01*
X224863289Y14886121D01*
X224863289Y14888715D01*
X224881458Y15051651D01*
X225038147Y16456862D01*
X225042470Y16464703D01*
X225048117Y16467145D01*
X226270797Y16641814D01*
X226279471Y16639592D01*
G37*
%TD.AperFunction*%
%TD*%
%TA.AperFunction,Conductor*%
%TO.N,/8*%
G36*
X223100394Y16995368D02*
G01*
X224324435Y16820505D01*
X224332140Y16815943D01*
X224334067Y16812004D01*
X224857685Y14893931D01*
X224856558Y14885048D01*
X224849479Y14879563D01*
X224843317Y14879563D01*
X222925244Y15403181D01*
X222918165Y15408666D01*
X222916743Y15412813D01*
X222741881Y16636850D01*
X222744103Y16645525D01*
X222745183Y16646771D01*
X223090471Y16992059D01*
X223098743Y16995485D01*
X223100394Y16995368D01*
G37*
%TD.AperFunction*%
%TD*%
%TA.AperFunction,Conductor*%
%TO.N,/8*%
G36*
X28156148Y106495389D02*
G01*
X29145320Y105753510D01*
X29149882Y105745805D01*
X29150000Y105744150D01*
X29150000Y105255850D01*
X29146573Y105247577D01*
X29145320Y105246490D01*
X28156148Y104504612D01*
X28147473Y104502390D01*
X28143326Y104503812D01*
X26416790Y105489840D01*
X26411305Y105496919D01*
X26412432Y105505802D01*
X26416790Y105510160D01*
X28143327Y106496190D01*
X28152209Y106497316D01*
X28156148Y106495389D01*
G37*
%TD.AperFunction*%
%TD*%
%TA.AperFunction,Conductor*%
%TO.N,/8*%
G36*
X82606644Y16995368D02*
G01*
X83830685Y16820505D01*
X83838390Y16815943D01*
X83840317Y16812004D01*
X84363935Y14893931D01*
X84362808Y14885048D01*
X84355729Y14879563D01*
X84349567Y14879563D01*
X82431494Y15403181D01*
X82424415Y15408666D01*
X82422993Y15412813D01*
X82248131Y16636850D01*
X82250353Y16645525D01*
X82251433Y16646771D01*
X82596721Y16992059D01*
X82604993Y16995485D01*
X82606644Y16995368D01*
G37*
%TD.AperFunction*%
%TD*%
%TA.AperFunction,Conductor*%
%TO.N,/8*%
G36*
X54156673Y106496189D02*
G01*
X55883209Y105510160D01*
X55888694Y105503081D01*
X55887567Y105494198D01*
X55883209Y105489840D01*
X54156673Y104503812D01*
X54147790Y104502685D01*
X54143851Y104504612D01*
X53154680Y105246490D01*
X53150118Y105254195D01*
X53150000Y105255850D01*
X53150000Y105744150D01*
X53153427Y105752423D01*
X53154680Y105753510D01*
X54143852Y106495390D01*
X54152526Y106497611D01*
X54156673Y106496189D01*
G37*
%TD.AperFunction*%
%TD*%
%TA.AperFunction,Conductor*%
%TO.N,/8*%
G36*
X87156148Y106495389D02*
G01*
X88145320Y105753510D01*
X88149882Y105745805D01*
X88150000Y105744150D01*
X88150000Y105255850D01*
X88146573Y105247577D01*
X88145320Y105246490D01*
X87156148Y104504612D01*
X87147473Y104502390D01*
X87143326Y104503812D01*
X85416790Y105489840D01*
X85411305Y105496919D01*
X85412432Y105505802D01*
X85416790Y105510160D01*
X87143327Y106496190D01*
X87152209Y106497316D01*
X87156148Y106495389D01*
G37*
%TD.AperFunction*%
%TD*%
%TA.AperFunction,Conductor*%
%TO.N,/8*%
G36*
X83656673Y106496189D02*
G01*
X85383209Y105510160D01*
X85388694Y105503081D01*
X85387567Y105494198D01*
X85383209Y105489840D01*
X83656673Y104503812D01*
X83647790Y104502685D01*
X83643851Y104504612D01*
X82654680Y105246490D01*
X82650118Y105254195D01*
X82650000Y105255850D01*
X82650000Y105744150D01*
X82653427Y105752423D01*
X82654680Y105753510D01*
X83643852Y106495390D01*
X83652526Y106497611D01*
X83656673Y106496189D01*
G37*
%TD.AperFunction*%
%TD*%
%TA.AperFunction,Conductor*%
%TO.N,/8*%
G36*
X57656148Y106495389D02*
G01*
X58645320Y105753510D01*
X58649882Y105745805D01*
X58650000Y105744150D01*
X58650000Y105255850D01*
X58646573Y105247577D01*
X58645320Y105246490D01*
X57656148Y104504612D01*
X57647473Y104502390D01*
X57643326Y104503812D01*
X55916790Y105489840D01*
X55911305Y105496919D01*
X55912432Y105505802D01*
X55916790Y105510160D01*
X57643327Y106496190D01*
X57652209Y106497316D01*
X57656148Y106495389D01*
G37*
%TD.AperFunction*%
%TD*%
%TA.AperFunction,Conductor*%
%TO.N,/8*%
G36*
X25456644Y55095368D02*
G01*
X26680685Y54920505D01*
X26688390Y54915943D01*
X26690317Y54912004D01*
X27213935Y52993931D01*
X27212808Y52985048D01*
X27205729Y52979563D01*
X27199567Y52979563D01*
X25281494Y53503181D01*
X25274415Y53508666D01*
X25272993Y53512813D01*
X25098131Y54736850D01*
X25100353Y54745525D01*
X25101433Y54746771D01*
X25446721Y55092059D01*
X25454993Y55095485D01*
X25456644Y55095368D01*
G37*
%TD.AperFunction*%
%TD*%
%TA.AperFunction,Conductor*%
%TO.N,/8*%
G36*
X30219144Y36045368D02*
G01*
X31443185Y35870505D01*
X31450890Y35865943D01*
X31452817Y35862004D01*
X31976435Y33943931D01*
X31975308Y33935048D01*
X31968229Y33929563D01*
X31962067Y33929563D01*
X30043994Y34453181D01*
X30036915Y34458666D01*
X30035493Y34462813D01*
X29860631Y35686850D01*
X29862853Y35695525D01*
X29863933Y35696771D01*
X30209221Y36042059D01*
X30217493Y36045485D01*
X30219144Y36045368D01*
G37*
%TD.AperFunction*%
%TD*%
%TA.AperFunction,Conductor*%
%TO.N,/8*%
G36*
X33744748Y35542309D02*
G01*
X33748175Y35534036D01*
X33748053Y35532352D01*
X33545269Y34138530D01*
X33540687Y34130836D01*
X33535219Y34128614D01*
X31995633Y33925786D01*
X31986983Y33928103D01*
X31982505Y33935858D01*
X31982453Y33938441D01*
X32128051Y35534118D01*
X32132216Y35542045D01*
X32139691Y35544754D01*
X33250000Y35545736D01*
X33736475Y35545736D01*
X33744748Y35542309D01*
G37*
%TD.AperFunction*%
%TD*%
%TA.AperFunction,Conductor*%
%TO.N,/8*%
G36*
X24656673Y106496189D02*
G01*
X26383209Y105510160D01*
X26388694Y105503081D01*
X26387567Y105494198D01*
X26383209Y105489840D01*
X24656673Y104503812D01*
X24647790Y104502685D01*
X24643851Y104504612D01*
X23654680Y105246490D01*
X23650118Y105254195D01*
X23650000Y105255850D01*
X23650000Y105744150D01*
X23653427Y105752423D01*
X23654680Y105753510D01*
X24643852Y106495390D01*
X24652526Y106497611D01*
X24656673Y106496189D01*
G37*
%TD.AperFunction*%
%TD*%
%TA.AperFunction,Conductor*%
%TO.N,/8*%
G36*
X56412894Y16995368D02*
G01*
X57636935Y16820505D01*
X57644640Y16815943D01*
X57646567Y16812004D01*
X58170185Y14893931D01*
X58169058Y14885048D01*
X58161979Y14879563D01*
X58155817Y14879563D01*
X56237744Y15403181D01*
X56230665Y15408666D01*
X56229243Y15412813D01*
X56054381Y16636850D01*
X56056603Y16645525D01*
X56057683Y16646771D01*
X56402971Y16992059D01*
X56411243Y16995485D01*
X56412894Y16995368D01*
G37*
%TD.AperFunction*%
%TD*%
%TA.AperFunction,Conductor*%
%TO.N,/8*%
G36*
X27213548Y52970957D02*
G01*
X27217615Y52962979D01*
X27217531Y52960387D01*
X26997707Y51438114D01*
X26993133Y51430415D01*
X26987596Y51428179D01*
X25592705Y51251667D01*
X25584067Y51254028D01*
X25579629Y51261805D01*
X25579536Y51263274D01*
X25579536Y51750000D01*
X25580226Y52834692D01*
X25583658Y52842963D01*
X25591003Y52846349D01*
X27205032Y52973723D01*
X27213548Y52970957D01*
G37*
%TD.AperFunction*%
%TD*%
%TA.AperFunction,Conductor*%
%TO.N,/8*%
G36*
X59591971Y16639592D02*
G01*
X59593224Y16638505D01*
X59938504Y16293225D01*
X59941931Y16284952D01*
X59941813Y16283297D01*
X59767145Y15060621D01*
X59762583Y15052916D01*
X59756860Y15050648D01*
X58188714Y14875790D01*
X58180112Y14878279D01*
X58175789Y14886121D01*
X58175789Y14888715D01*
X58193958Y15051651D01*
X58350647Y16456862D01*
X58354970Y16464703D01*
X58360617Y16467145D01*
X59583297Y16641814D01*
X59591971Y16639592D01*
G37*
%TD.AperFunction*%
%TD*%
%TA.AperFunction,Conductor*%
%TO.N,/11*%
G36*
X52679887Y86121722D02*
G01*
X52684210Y86113880D01*
X52684210Y86111286D01*
X52509352Y84543140D01*
X52505029Y84535298D01*
X52499379Y84532855D01*
X51276703Y84358187D01*
X51268028Y84360409D01*
X51266775Y84361496D01*
X50921495Y84706776D01*
X50918068Y84715049D01*
X50918186Y84716704D01*
X51092854Y85939382D01*
X51097416Y85947085D01*
X51103138Y85949353D01*
X52671285Y86124211D01*
X52679887Y86121722D01*
G37*
%TD.AperFunction*%
%TD*%
%TA.AperFunction,Conductor*%
%TO.N,/11*%
G36*
X53376590Y85936877D02*
G01*
X54622254Y85596821D01*
X54629333Y85591336D01*
X54630755Y85587189D01*
X54805618Y84363151D01*
X54803396Y84354476D01*
X54802309Y84353223D01*
X54457029Y84007943D01*
X54448756Y84004516D01*
X54447101Y84004634D01*
X53223063Y84179497D01*
X53215358Y84184059D01*
X53213431Y84187998D01*
X52689814Y86106070D01*
X52690941Y86114953D01*
X52698020Y86120438D01*
X52704182Y86120438D01*
X53376590Y85936877D01*
G37*
%TD.AperFunction*%
%TD*%
%TA.AperFunction,Conductor*%
%TO.N,/11*%
G36*
X80110340Y9736877D02*
G01*
X81356004Y9396821D01*
X81363083Y9391336D01*
X81364505Y9387189D01*
X81539368Y8163151D01*
X81537146Y8154476D01*
X81536059Y8153223D01*
X81190779Y7807943D01*
X81182506Y7804516D01*
X81180851Y7804634D01*
X79956813Y7979497D01*
X79949108Y7984059D01*
X79947181Y7987998D01*
X79423564Y9906070D01*
X79424691Y9914953D01*
X79431770Y9920438D01*
X79437932Y9920438D01*
X80110340Y9736877D01*
G37*
%TD.AperFunction*%
%TD*%
%TA.AperFunction,Conductor*%
%TO.N,/11*%
G36*
X224129887Y86121722D02*
G01*
X224134210Y86113880D01*
X224134210Y86111286D01*
X223959352Y84543140D01*
X223955029Y84535298D01*
X223949379Y84532855D01*
X222726703Y84358187D01*
X222718028Y84360409D01*
X222716775Y84361496D01*
X222371495Y84706776D01*
X222368068Y84715049D01*
X222368186Y84716704D01*
X222542854Y85939382D01*
X222547416Y85947085D01*
X222553138Y85949353D01*
X224121285Y86124211D01*
X224129887Y86121722D01*
G37*
%TD.AperFunction*%
%TD*%
%TA.AperFunction,Conductor*%
%TO.N,/11*%
G36*
X191332387Y28971722D02*
G01*
X191336710Y28963880D01*
X191336710Y28961286D01*
X191161852Y27393140D01*
X191157529Y27385298D01*
X191151879Y27382855D01*
X189929203Y27208187D01*
X189920528Y27210409D01*
X189919275Y27211496D01*
X189573995Y27556776D01*
X189570568Y27565049D01*
X189570686Y27566704D01*
X189745354Y28789382D01*
X189749916Y28797085D01*
X189755638Y28799353D01*
X191323785Y28974211D01*
X191332387Y28971722D01*
G37*
%TD.AperFunction*%
%TD*%
%TA.AperFunction,Conductor*%
%TO.N,/11*%
G36*
X172282387Y28971722D02*
G01*
X172286710Y28963880D01*
X172286710Y28961286D01*
X172111852Y27393140D01*
X172107529Y27385298D01*
X172101879Y27382855D01*
X170879203Y27208187D01*
X170870528Y27210409D01*
X170869275Y27211496D01*
X170523995Y27556776D01*
X170520568Y27565049D01*
X170520686Y27566704D01*
X170695354Y28789382D01*
X170699916Y28797085D01*
X170705638Y28799353D01*
X172273785Y28974211D01*
X172282387Y28971722D01*
G37*
%TD.AperFunction*%
%TD*%
%TA.AperFunction,Conductor*%
%TO.N,/11*%
G36*
X172979090Y28786877D02*
G01*
X174224754Y28446821D01*
X174231833Y28441336D01*
X174233255Y28437189D01*
X174408118Y27213151D01*
X174405896Y27204476D01*
X174404809Y27203223D01*
X174059529Y26857943D01*
X174051256Y26854516D01*
X174049601Y26854634D01*
X172825563Y27029497D01*
X172817858Y27034059D01*
X172815931Y27037998D01*
X172292314Y28956070D01*
X172293441Y28964953D01*
X172300520Y28970438D01*
X172306682Y28970438D01*
X172979090Y28786877D01*
G37*
%TD.AperFunction*%
%TD*%
%TA.AperFunction,Conductor*%
%TO.N,/11*%
G36*
X15816590Y85936877D02*
G01*
X17062254Y85596821D01*
X17069333Y85591336D01*
X17070755Y85587189D01*
X17245618Y84363151D01*
X17243396Y84354476D01*
X17242309Y84353223D01*
X16897029Y84007943D01*
X16888756Y84004516D01*
X16887101Y84004634D01*
X15663063Y84179497D01*
X15655358Y84184059D01*
X15653431Y84187998D01*
X15129814Y86106070D01*
X15130941Y86114953D01*
X15138020Y86120438D01*
X15144182Y86120438D01*
X15816590Y85936877D01*
G37*
%TD.AperFunction*%
%TD*%
%TA.AperFunction,Conductor*%
%TO.N,/11*%
G36*
X158033637Y67071722D02*
G01*
X158037960Y67063880D01*
X158037960Y67061286D01*
X157863102Y65493140D01*
X157858779Y65485298D01*
X157853129Y65482855D01*
X156630453Y65308187D01*
X156621778Y65310409D01*
X156620525Y65311496D01*
X156275245Y65656776D01*
X156271818Y65665049D01*
X156271936Y65666704D01*
X156446604Y66889382D01*
X156451166Y66897085D01*
X156456888Y66899353D01*
X158025035Y67074211D01*
X158033637Y67071722D01*
G37*
%TD.AperFunction*%
%TD*%
%TA.AperFunction,Conductor*%
%TO.N,/11*%
G36*
X82530340Y66886877D02*
G01*
X83776004Y66546821D01*
X83783083Y66541336D01*
X83784505Y66537189D01*
X83959368Y65313151D01*
X83957146Y65304476D01*
X83956059Y65303223D01*
X83610779Y64957943D01*
X83602506Y64954516D01*
X83600851Y64954634D01*
X82376813Y65129497D01*
X82369108Y65134059D01*
X82367181Y65137998D01*
X81843564Y67056070D01*
X81844691Y67064953D01*
X81851770Y67070438D01*
X81857932Y67070438D01*
X82530340Y66886877D01*
G37*
%TD.AperFunction*%
%TD*%
%TA.AperFunction,Conductor*%
%TO.N,/11*%
G36*
X158730340Y66886877D02*
G01*
X159976004Y66546821D01*
X159983083Y66541336D01*
X159984505Y66537189D01*
X160159368Y65313151D01*
X160157146Y65304476D01*
X160156059Y65303223D01*
X159810779Y64957943D01*
X159802506Y64954516D01*
X159800851Y64954634D01*
X158576813Y65129497D01*
X158569108Y65134059D01*
X158567181Y65137998D01*
X158043564Y67056070D01*
X158044691Y67064953D01*
X158051770Y67070438D01*
X158057932Y67070438D01*
X158730340Y66886877D01*
G37*
%TD.AperFunction*%
%TD*%
%TA.AperFunction,Conductor*%
%TO.N,/11*%
G36*
X215906148Y106495389D02*
G01*
X216895320Y105753510D01*
X216899882Y105745805D01*
X216900000Y105744150D01*
X216900000Y105255850D01*
X216896573Y105247577D01*
X216895320Y105246490D01*
X215906148Y104504612D01*
X215897473Y104502390D01*
X215893326Y104503812D01*
X214166790Y105489840D01*
X214161305Y105496919D01*
X214162432Y105505802D01*
X214166790Y105510160D01*
X215893327Y106496190D01*
X215902209Y106497316D01*
X215906148Y106495389D01*
G37*
%TD.AperFunction*%
%TD*%
%TA.AperFunction,Conductor*%
%TO.N,/1*%
G36*
X129576590Y85936877D02*
G01*
X130822254Y85596821D01*
X130829333Y85591336D01*
X130830755Y85587189D01*
X131005618Y84363151D01*
X131003396Y84354476D01*
X131002309Y84353223D01*
X130657029Y84007943D01*
X130648756Y84004516D01*
X130647101Y84004634D01*
X129423063Y84179497D01*
X129415358Y84184059D01*
X129413431Y84187998D01*
X128889814Y86106070D01*
X128890941Y86114953D01*
X128898020Y86120438D01*
X128904182Y86120438D01*
X129576590Y85936877D01*
G37*
%TD.AperFunction*%
%TD*%
%TA.AperFunction,Conductor*%
%TO.N,/1*%
G36*
X253283637Y67071722D02*
G01*
X253287960Y67063880D01*
X253287960Y67061286D01*
X253113102Y65493140D01*
X253108779Y65485298D01*
X253103129Y65482855D01*
X251880453Y65308187D01*
X251871778Y65310409D01*
X251870525Y65311496D01*
X251525245Y65656776D01*
X251521818Y65665049D01*
X251521936Y65666704D01*
X251696604Y66889382D01*
X251701166Y66897085D01*
X251706888Y66899353D01*
X253275035Y67074211D01*
X253283637Y67071722D01*
G37*
%TD.AperFunction*%
%TD*%
%TA.AperFunction,Conductor*%
%TO.N,/1*%
G36*
X43733637Y67071722D02*
G01*
X43737960Y67063880D01*
X43737960Y67061286D01*
X43563102Y65493140D01*
X43558779Y65485298D01*
X43553129Y65482855D01*
X42330453Y65308187D01*
X42321778Y65310409D01*
X42320525Y65311496D01*
X41975245Y65656776D01*
X41971818Y65665049D01*
X41971936Y65666704D01*
X42146604Y66889382D01*
X42151166Y66897085D01*
X42156888Y66899353D01*
X43725035Y67074211D01*
X43733637Y67071722D01*
G37*
%TD.AperFunction*%
%TD*%
%TA.AperFunction,Conductor*%
%TO.N,/1*%
G36*
X177780340Y66886877D02*
G01*
X179026004Y66546821D01*
X179033083Y66541336D01*
X179034505Y66537189D01*
X179209368Y65313151D01*
X179207146Y65304476D01*
X179206059Y65303223D01*
X178860779Y64957943D01*
X178852506Y64954516D01*
X178850851Y64954634D01*
X177626813Y65129497D01*
X177619108Y65134059D01*
X177617181Y65137998D01*
X177093564Y67056070D01*
X177094691Y67064953D01*
X177101770Y67070438D01*
X177107932Y67070438D01*
X177780340Y66886877D01*
G37*
%TD.AperFunction*%
%TD*%
%TA.AperFunction,Conductor*%
%TO.N,/1*%
G36*
X177083637Y67071722D02*
G01*
X177087960Y67063880D01*
X177087960Y67061286D01*
X176913102Y65493140D01*
X176908779Y65485298D01*
X176903129Y65482855D01*
X175680453Y65308187D01*
X175671778Y65310409D01*
X175670525Y65311496D01*
X175325245Y65656776D01*
X175321818Y65665049D01*
X175321936Y65666704D01*
X175496604Y66889382D01*
X175501166Y66897085D01*
X175506888Y66899353D01*
X177075035Y67074211D01*
X177083637Y67071722D01*
G37*
%TD.AperFunction*%
%TD*%
%TA.AperFunction,Conductor*%
%TO.N,/1*%
G36*
X245104090Y9736877D02*
G01*
X246349754Y9396821D01*
X246356833Y9391336D01*
X246358255Y9387189D01*
X246533118Y8163151D01*
X246530896Y8154476D01*
X246529809Y8153223D01*
X246184529Y7807943D01*
X246176256Y7804516D01*
X246174601Y7804634D01*
X244950563Y7979497D01*
X244942858Y7984059D01*
X244940931Y7987998D01*
X244417314Y9906070D01*
X244418441Y9914953D01*
X244425520Y9920438D01*
X244431682Y9920438D01*
X245104090Y9736877D01*
G37*
%TD.AperFunction*%
%TD*%
%TA.AperFunction,Conductor*%
%TO.N,/1*%
G36*
X253980340Y66886877D02*
G01*
X255226004Y66546821D01*
X255233083Y66541336D01*
X255234505Y66537189D01*
X255409368Y65313151D01*
X255407146Y65304476D01*
X255406059Y65303223D01*
X255060779Y64957943D01*
X255052506Y64954516D01*
X255050851Y64954634D01*
X253826813Y65129497D01*
X253819108Y65134059D01*
X253817181Y65137998D01*
X253293564Y67056070D01*
X253294691Y67064953D01*
X253301770Y67070438D01*
X253307932Y67070438D01*
X253980340Y66886877D01*
G37*
%TD.AperFunction*%
%TD*%
%TA.AperFunction,Conductor*%
%TO.N,/1*%
G36*
X139680340Y66886877D02*
G01*
X140926004Y66546821D01*
X140933083Y66541336D01*
X140934505Y66537189D01*
X141109368Y65313151D01*
X141107146Y65304476D01*
X141106059Y65303223D01*
X140760779Y64957943D01*
X140752506Y64954516D01*
X140750851Y64954634D01*
X139526813Y65129497D01*
X139519108Y65134059D01*
X139517181Y65137998D01*
X138993564Y67056070D01*
X138994691Y67064953D01*
X139001770Y67070438D01*
X139007932Y67070438D01*
X139680340Y66886877D01*
G37*
%TD.AperFunction*%
%TD*%
%TA.AperFunction,Conductor*%
%TO.N,/1*%
G36*
X138983867Y67071114D02*
G01*
X138988060Y67063201D01*
X138988017Y67060610D01*
X138790259Y65515860D01*
X138785810Y65508089D01*
X138780403Y65505777D01*
X137386899Y65295158D01*
X137378206Y65297310D01*
X137373581Y65304978D01*
X137373450Y65306727D01*
X137373450Y65793125D01*
X137374406Y66911189D01*
X137377840Y66919456D01*
X137384999Y66922824D01*
X138975308Y67073744D01*
X138983867Y67071114D01*
G37*
%TD.AperFunction*%
%TD*%
%TA.AperFunction,Conductor*%
%TO.N,/1*%
G36*
X44430340Y66886877D02*
G01*
X45676004Y66546821D01*
X45683083Y66541336D01*
X45684505Y66537189D01*
X45859368Y65313151D01*
X45857146Y65304476D01*
X45856059Y65303223D01*
X45510779Y64957943D01*
X45502506Y64954516D01*
X45500851Y64954634D01*
X44276813Y65129497D01*
X44269108Y65134059D01*
X44267181Y65137998D01*
X43743564Y67056070D01*
X43744691Y67064953D01*
X43751770Y67070438D01*
X43757932Y67070438D01*
X44430340Y66886877D01*
G37*
%TD.AperFunction*%
%TD*%
%TA.AperFunction,Conductor*%
%TO.N,/1*%
G36*
X57656148Y113495389D02*
G01*
X58645320Y112753510D01*
X58649882Y112745805D01*
X58650000Y112744150D01*
X58650000Y112255850D01*
X58646573Y112247577D01*
X58645320Y112246490D01*
X57656148Y111504612D01*
X57647473Y111502390D01*
X57643326Y111503812D01*
X55916790Y112489840D01*
X55911305Y112496919D01*
X55912432Y112505802D01*
X55916790Y112510160D01*
X57643327Y113496190D01*
X57652209Y113497316D01*
X57656148Y113495389D01*
G37*
%TD.AperFunction*%
%TD*%
%TA.AperFunction,Conductor*%
%TO.N,/1*%
G36*
X46700646Y50145620D02*
G01*
X47924687Y49970757D01*
X47932392Y49966195D01*
X47934319Y49962256D01*
X48457937Y48044183D01*
X48456810Y48035300D01*
X48449731Y48029815D01*
X48443569Y48029815D01*
X46525496Y48553433D01*
X46518417Y48558918D01*
X46516995Y48563065D01*
X46342133Y49787102D01*
X46344355Y49795777D01*
X46345435Y49797023D01*
X46690723Y50142311D01*
X46698995Y50145737D01*
X46700646Y50145620D01*
G37*
%TD.AperFunction*%
%TD*%
%TA.AperFunction,Conductor*%
%TO.N,/1*%
G36*
X319919887Y28971722D02*
G01*
X319924210Y28963880D01*
X319924210Y28961286D01*
X319749352Y27393140D01*
X319745029Y27385298D01*
X319739379Y27382855D01*
X318516703Y27208187D01*
X318508028Y27210409D01*
X318506775Y27211496D01*
X318161495Y27556776D01*
X318158068Y27565049D01*
X318158186Y27566704D01*
X318332854Y28789382D01*
X318337416Y28797085D01*
X318343138Y28799353D01*
X319911285Y28974211D01*
X319919887Y28971722D01*
G37*
%TD.AperFunction*%
%TD*%
%TA.AperFunction,Conductor*%
%TO.N,Net-(J1-Pin_21)*%
G36*
X275653838Y14686625D02*
G01*
X276899502Y14346569D01*
X276906581Y14341084D01*
X276908003Y14336937D01*
X277082866Y13112899D01*
X277080644Y13104224D01*
X277079557Y13102971D01*
X276734277Y12757691D01*
X276726004Y12754264D01*
X276724349Y12754382D01*
X275500311Y12929245D01*
X275492606Y12933807D01*
X275490679Y12937746D01*
X274967062Y14855818D01*
X274968189Y14864701D01*
X274975268Y14870186D01*
X274981430Y14870186D01*
X275653838Y14686625D01*
G37*
%TD.AperFunction*%
%TD*%
%TA.AperFunction,Conductor*%
%TO.N,/2*%
G36*
X220162791Y50789466D02*
G01*
X220165473Y50785301D01*
X220909585Y48801001D01*
X220909281Y48792052D01*
X220905761Y48787617D01*
X219922474Y48031698D01*
X219913826Y48029373D01*
X219906067Y48033843D01*
X219905657Y48034411D01*
X219391736Y48792893D01*
X218916744Y49493921D01*
X218914941Y49502690D01*
X218916309Y49506349D01*
X219659245Y50787064D01*
X219666360Y50792501D01*
X219669365Y50792893D01*
X220154518Y50792893D01*
X220162791Y50789466D01*
G37*
%TD.AperFunction*%
%TD*%
%TA.AperFunction,Conductor*%
%TO.N,/2*%
G36*
X147929887Y86121722D02*
G01*
X147934210Y86113880D01*
X147934210Y86111286D01*
X147759352Y84543140D01*
X147755029Y84535298D01*
X147749379Y84532855D01*
X146526703Y84358187D01*
X146518028Y84360409D01*
X146516775Y84361496D01*
X146171495Y84706776D01*
X146168068Y84715049D01*
X146168186Y84716704D01*
X146342854Y85939382D01*
X146347416Y85947085D01*
X146353138Y85949353D01*
X147921285Y86124211D01*
X147929887Y86121722D01*
G37*
%TD.AperFunction*%
%TD*%
%TA.AperFunction,Conductor*%
%TO.N,/2*%
G36*
X101580340Y66886877D02*
G01*
X102826004Y66546821D01*
X102833083Y66541336D01*
X102834505Y66537189D01*
X103009368Y65313151D01*
X103007146Y65304476D01*
X103006059Y65303223D01*
X102660779Y64957943D01*
X102652506Y64954516D01*
X102650851Y64954634D01*
X101426813Y65129497D01*
X101419108Y65134059D01*
X101417181Y65137998D01*
X100893564Y67056070D01*
X100894691Y67064953D01*
X100901770Y67070438D01*
X100907932Y67070438D01*
X101580340Y66886877D01*
G37*
%TD.AperFunction*%
%TD*%
%TA.AperFunction,Conductor*%
%TO.N,/2*%
G36*
X162757387Y48021722D02*
G01*
X162761710Y48013880D01*
X162761710Y48011286D01*
X162586852Y46443140D01*
X162582529Y46435298D01*
X162576879Y46432855D01*
X161354203Y46258187D01*
X161345528Y46260409D01*
X161344275Y46261496D01*
X160998995Y46606776D01*
X160995568Y46615049D01*
X160995686Y46616704D01*
X161170354Y47839382D01*
X161174916Y47847085D01*
X161180638Y47849353D01*
X162748785Y48024211D01*
X162757387Y48021722D01*
G37*
%TD.AperFunction*%
%TD*%
%TA.AperFunction,Conductor*%
%TO.N,/2*%
G36*
X134879090Y28786877D02*
G01*
X136124754Y28446821D01*
X136131833Y28441336D01*
X136133255Y28437189D01*
X136308118Y27213151D01*
X136305896Y27204476D01*
X136304809Y27203223D01*
X135959529Y26857943D01*
X135951256Y26854516D01*
X135949601Y26854634D01*
X134725563Y27029497D01*
X134717858Y27034059D01*
X134715931Y27037998D01*
X134192314Y28956070D01*
X134193441Y28964953D01*
X134200520Y28970438D01*
X134206682Y28970438D01*
X134879090Y28786877D01*
G37*
%TD.AperFunction*%
%TD*%
%TA.AperFunction,Conductor*%
%TO.N,/2*%
G36*
X87156148Y113495389D02*
G01*
X88145320Y112753510D01*
X88149882Y112745805D01*
X88150000Y112744150D01*
X88150000Y112255850D01*
X88146573Y112247577D01*
X88145320Y112246490D01*
X87156148Y111504612D01*
X87147473Y111502390D01*
X87143326Y111503812D01*
X85416790Y112489840D01*
X85411305Y112496919D01*
X85412432Y112505802D01*
X85416790Y112510160D01*
X87143327Y113496190D01*
X87152209Y113497316D01*
X87156148Y113495389D01*
G37*
%TD.AperFunction*%
%TD*%
%TA.AperFunction,Conductor*%
%TO.N,/2*%
G36*
X134182387Y28971722D02*
G01*
X134186710Y28963880D01*
X134186710Y28961286D01*
X134011852Y27393140D01*
X134007529Y27385298D01*
X134001879Y27382855D01*
X132779203Y27208187D01*
X132770528Y27210409D01*
X132769275Y27211496D01*
X132423995Y27556776D01*
X132420568Y27565049D01*
X132420686Y27566704D01*
X132595354Y28789382D01*
X132599916Y28797085D01*
X132605638Y28799353D01*
X134173785Y28974211D01*
X134182387Y28971722D01*
G37*
%TD.AperFunction*%
%TD*%
%TA.AperFunction,Conductor*%
%TO.N,/2*%
G36*
X219907387Y48021722D02*
G01*
X219911710Y48013880D01*
X219911710Y48011286D01*
X219736852Y46443140D01*
X219732529Y46435298D01*
X219726879Y46432855D01*
X218504203Y46258187D01*
X218495528Y46260409D01*
X218494275Y46261496D01*
X218148995Y46606776D01*
X218145568Y46615049D01*
X218145686Y46616704D01*
X218320354Y47839382D01*
X218324916Y47847085D01*
X218330638Y47849353D01*
X219898785Y48024211D01*
X219907387Y48021722D01*
G37*
%TD.AperFunction*%
%TD*%
%TA.AperFunction,Conductor*%
%TO.N,/2*%
G36*
X163454090Y47836877D02*
G01*
X164699754Y47496821D01*
X164706833Y47491336D01*
X164708255Y47487189D01*
X164883118Y46263151D01*
X164880896Y46254476D01*
X164879809Y46253223D01*
X164534529Y45907943D01*
X164526256Y45904516D01*
X164524601Y45904634D01*
X163300563Y46079497D01*
X163292858Y46084059D01*
X163290931Y46087998D01*
X162767314Y48006070D01*
X162768441Y48014953D01*
X162775520Y48020438D01*
X162781682Y48020438D01*
X163454090Y47836877D01*
G37*
%TD.AperFunction*%
%TD*%
%TA.AperFunction,Conductor*%
%TO.N,/2*%
G36*
X338969887Y48021722D02*
G01*
X338974210Y48013880D01*
X338974210Y48011286D01*
X338799352Y46443140D01*
X338795029Y46435298D01*
X338789379Y46432855D01*
X337566703Y46258187D01*
X337558028Y46260409D01*
X337556775Y46261496D01*
X337211495Y46606776D01*
X337208068Y46615049D01*
X337208186Y46616704D01*
X337382854Y47839382D01*
X337387416Y47847085D01*
X337393138Y47849353D01*
X338961285Y48024211D01*
X338969887Y48021722D01*
G37*
%TD.AperFunction*%
%TD*%
%TA.AperFunction,Conductor*%
%TO.N,/2*%
G36*
X280135340Y57361877D02*
G01*
X281381004Y57021821D01*
X281388083Y57016336D01*
X281389505Y57012189D01*
X281564368Y55788151D01*
X281562146Y55779476D01*
X281561059Y55778223D01*
X281215779Y55432943D01*
X281207506Y55429516D01*
X281205851Y55429634D01*
X279981813Y55604497D01*
X279974108Y55609059D01*
X279972181Y55612998D01*
X279448564Y57531070D01*
X279449691Y57539953D01*
X279456770Y57545438D01*
X279462932Y57545438D01*
X280135340Y57361877D01*
G37*
%TD.AperFunction*%
%TD*%
%TA.AperFunction,Conductor*%
%TO.N,/2*%
G36*
X58679090Y28786877D02*
G01*
X59924754Y28446821D01*
X59931833Y28441336D01*
X59933255Y28437189D01*
X60108118Y27213151D01*
X60105896Y27204476D01*
X60104809Y27203223D01*
X59759529Y26857943D01*
X59751256Y26854516D01*
X59749601Y26854634D01*
X58525563Y27029497D01*
X58517858Y27034059D01*
X58515931Y27037998D01*
X57992314Y28956070D01*
X57993441Y28964953D01*
X58000520Y28970438D01*
X58006682Y28970438D01*
X58679090Y28786877D01*
G37*
%TD.AperFunction*%
%TD*%
%TA.AperFunction,Conductor*%
%TO.N,/2*%
G36*
X277975080Y58546009D02*
G01*
X279434591Y57557095D01*
X279439518Y57549617D01*
X279437714Y57540846D01*
X279437304Y57540278D01*
X278681385Y56556991D01*
X278673626Y56552521D01*
X278668001Y56553167D01*
X276683701Y57297279D01*
X276677158Y57303393D01*
X276676109Y57308234D01*
X276676109Y57793388D01*
X276679536Y57801661D01*
X276681934Y57803506D01*
X277962651Y58546442D01*
X277971525Y58547629D01*
X277975080Y58546009D01*
G37*
%TD.AperFunction*%
%TD*%
%TA.AperFunction,Conductor*%
%TO.N,/12*%
G36*
X27722840Y28786877D02*
G01*
X28968504Y28446821D01*
X28975583Y28441336D01*
X28977005Y28437189D01*
X29151868Y27213151D01*
X29149646Y27204476D01*
X29148559Y27203223D01*
X28803279Y26857943D01*
X28795006Y26854516D01*
X28793351Y26854634D01*
X27569313Y27029497D01*
X27561608Y27034059D01*
X27559681Y27037998D01*
X27036064Y28956070D01*
X27037191Y28964953D01*
X27044270Y28970438D01*
X27050432Y28970438D01*
X27722840Y28786877D01*
G37*
%TD.AperFunction*%
%TD*%
%TA.AperFunction,Conductor*%
%TO.N,/12*%
G36*
X239654090Y47836877D02*
G01*
X240899754Y47496821D01*
X240906833Y47491336D01*
X240908255Y47487189D01*
X241083118Y46263151D01*
X241080896Y46254476D01*
X241079809Y46253223D01*
X240734529Y45907943D01*
X240726256Y45904516D01*
X240724601Y45904634D01*
X239500563Y46079497D01*
X239492858Y46084059D01*
X239490931Y46087998D01*
X238967314Y48006070D01*
X238968441Y48014953D01*
X238975520Y48020438D01*
X238981682Y48020438D01*
X239654090Y47836877D01*
G37*
%TD.AperFunction*%
%TD*%
%TA.AperFunction,Conductor*%
%TO.N,/12*%
G36*
X96082387Y28971722D02*
G01*
X96086710Y28963880D01*
X96086710Y28961286D01*
X95911852Y27393140D01*
X95907529Y27385298D01*
X95901879Y27382855D01*
X94679203Y27208187D01*
X94670528Y27210409D01*
X94669275Y27211496D01*
X94323995Y27556776D01*
X94320568Y27565049D01*
X94320686Y27566704D01*
X94495354Y28789382D01*
X94499916Y28797085D01*
X94505638Y28799353D01*
X96073785Y28974211D01*
X96082387Y28971722D01*
G37*
%TD.AperFunction*%
%TD*%
%TA.AperFunction,Conductor*%
%TO.N,/12*%
G36*
X272919396Y31095620D02*
G01*
X274143437Y30920757D01*
X274151142Y30916195D01*
X274153069Y30912256D01*
X274676687Y28994183D01*
X274675560Y28985300D01*
X274668481Y28979815D01*
X274662319Y28979815D01*
X272744246Y29503433D01*
X272737167Y29508918D01*
X272735745Y29513065D01*
X272560883Y30737102D01*
X272563105Y30745777D01*
X272564185Y30747023D01*
X272909473Y31092311D01*
X272917745Y31095737D01*
X272919396Y31095620D01*
G37*
%TD.AperFunction*%
%TD*%
%TA.AperFunction,Conductor*%
%TO.N,/12*%
G36*
X167676590Y85936877D02*
G01*
X168922254Y85596821D01*
X168929333Y85591336D01*
X168930755Y85587189D01*
X169105618Y84363151D01*
X169103396Y84354476D01*
X169102309Y84353223D01*
X168757029Y84007943D01*
X168748756Y84004516D01*
X168747101Y84004634D01*
X167523063Y84179497D01*
X167515358Y84184059D01*
X167513431Y84187998D01*
X166989814Y86106070D01*
X166990941Y86114953D01*
X166998020Y86120438D01*
X167004182Y86120438D01*
X167676590Y85936877D01*
G37*
%TD.AperFunction*%
%TD*%
%TA.AperFunction,Conductor*%
%TO.N,/12*%
G36*
X238957387Y48021722D02*
G01*
X238961710Y48013880D01*
X238961710Y48011286D01*
X238786852Y46443140D01*
X238782529Y46435298D01*
X238776879Y46432855D01*
X237554203Y46258187D01*
X237545528Y46260409D01*
X237544275Y46261496D01*
X237198995Y46606776D01*
X237195568Y46615049D01*
X237195686Y46616704D01*
X237370354Y47839382D01*
X237374916Y47847085D01*
X237380638Y47849353D01*
X238948785Y48024211D01*
X238957387Y48021722D01*
G37*
%TD.AperFunction*%
%TD*%
%TA.AperFunction,Conductor*%
%TO.N,/12*%
G36*
X205079887Y86121722D02*
G01*
X205084210Y86113880D01*
X205084210Y86111286D01*
X204909352Y84543140D01*
X204905029Y84535298D01*
X204899379Y84532855D01*
X203676703Y84358187D01*
X203668028Y84360409D01*
X203666775Y84361496D01*
X203321495Y84706776D01*
X203318068Y84715049D01*
X203318186Y84716704D01*
X203492854Y85939382D01*
X203497416Y85947085D01*
X203503138Y85949353D01*
X205071285Y86124211D01*
X205079887Y86121722D01*
G37*
%TD.AperFunction*%
%TD*%
%TA.AperFunction,Conductor*%
%TO.N,/12*%
G36*
X116656148Y106495389D02*
G01*
X117645320Y105753510D01*
X117649882Y105745805D01*
X117650000Y105744150D01*
X117650000Y105255850D01*
X117646573Y105247577D01*
X117645320Y105246490D01*
X116656148Y104504612D01*
X116647473Y104502390D01*
X116643326Y104503812D01*
X114916790Y105489840D01*
X114911305Y105496919D01*
X114912432Y105505802D01*
X114916790Y105510160D01*
X116643327Y106496190D01*
X116652209Y106497316D01*
X116656148Y106495389D01*
G37*
%TD.AperFunction*%
%TD*%
%TA.AperFunction,Conductor*%
%TO.N,/12*%
G36*
X67507387Y48021722D02*
G01*
X67511710Y48013880D01*
X67511710Y48011286D01*
X67336852Y46443140D01*
X67332529Y46435298D01*
X67326879Y46432855D01*
X66104203Y46258187D01*
X66095528Y46260409D01*
X66094275Y46261496D01*
X65748995Y46606776D01*
X65745568Y46615049D01*
X65745686Y46616704D01*
X65920354Y47839382D01*
X65924916Y47847085D01*
X65930638Y47849353D01*
X67498785Y48024211D01*
X67507387Y48021722D01*
G37*
%TD.AperFunction*%
%TD*%
%TA.AperFunction,Conductor*%
%TO.N,/12*%
G36*
X181807387Y48021722D02*
G01*
X181811710Y48013880D01*
X181811710Y48011286D01*
X181636852Y46443140D01*
X181632529Y46435298D01*
X181626879Y46432855D01*
X180404203Y46258187D01*
X180395528Y46260409D01*
X180394275Y46261496D01*
X180048995Y46606776D01*
X180045568Y46615049D01*
X180045686Y46616704D01*
X180220354Y47839382D01*
X180224916Y47847085D01*
X180230638Y47849353D01*
X181798785Y48024211D01*
X181807387Y48021722D01*
G37*
%TD.AperFunction*%
%TD*%
%TA.AperFunction,Conductor*%
%TO.N,/12*%
G36*
X182504090Y47836877D02*
G01*
X183749754Y47496821D01*
X183756833Y47491336D01*
X183758255Y47487189D01*
X183933118Y46263151D01*
X183930896Y46254476D01*
X183929809Y46253223D01*
X183584529Y45907943D01*
X183576256Y45904516D01*
X183574601Y45904634D01*
X182350563Y46079497D01*
X182342858Y46084059D01*
X182340931Y46087998D01*
X181817314Y48006070D01*
X181818441Y48014953D01*
X181825520Y48020438D01*
X181831682Y48020438D01*
X182504090Y47836877D01*
G37*
%TD.AperFunction*%
%TD*%
%TA.AperFunction,Conductor*%
%TO.N,/12*%
G36*
X153232387Y9921722D02*
G01*
X153236710Y9913880D01*
X153236710Y9911286D01*
X153061852Y8343140D01*
X153057529Y8335298D01*
X153051879Y8332855D01*
X151829203Y8158187D01*
X151820528Y8160409D01*
X151819275Y8161496D01*
X151473995Y8506776D01*
X151470568Y8515049D01*
X151470686Y8516704D01*
X151645354Y9739382D01*
X151649916Y9747085D01*
X151655638Y9749353D01*
X153223785Y9924211D01*
X153232387Y9921722D01*
G37*
%TD.AperFunction*%
%TD*%
%TA.AperFunction,Conductor*%
%TO.N,/12*%
G36*
X68204090Y47836877D02*
G01*
X69449754Y47496821D01*
X69456833Y47491336D01*
X69458255Y47487189D01*
X69633118Y46263151D01*
X69630896Y46254476D01*
X69629809Y46253223D01*
X69284529Y45907943D01*
X69276256Y45904516D01*
X69274601Y45904634D01*
X68050563Y46079497D01*
X68042858Y46084059D01*
X68040931Y46087998D01*
X67517314Y48006070D01*
X67518441Y48014953D01*
X67525520Y48020438D01*
X67531682Y48020438D01*
X68204090Y47836877D01*
G37*
%TD.AperFunction*%
%TD*%
%TA.AperFunction,Conductor*%
%TO.N,/5*%
G36*
X319919887Y67071722D02*
G01*
X319924210Y67063880D01*
X319924210Y67061286D01*
X319749352Y65493140D01*
X319745029Y65485298D01*
X319739379Y65482855D01*
X318516703Y65308187D01*
X318508028Y65310409D01*
X318506775Y65311496D01*
X318161495Y65656776D01*
X318158068Y65665049D01*
X318158186Y65666704D01*
X318332854Y66889382D01*
X318337416Y66897085D01*
X318343138Y66899353D01*
X319911285Y67074211D01*
X319919887Y67071722D01*
G37*
%TD.AperFunction*%
%TD*%
%TA.AperFunction,Conductor*%
%TO.N,/5*%
G36*
X110526590Y85936877D02*
G01*
X111772254Y85596821D01*
X111779333Y85591336D01*
X111780755Y85587189D01*
X111955618Y84363151D01*
X111953396Y84354476D01*
X111952309Y84353223D01*
X111607029Y84007943D01*
X111598756Y84004516D01*
X111597101Y84004634D01*
X110373063Y84179497D01*
X110365358Y84184059D01*
X110363431Y84187998D01*
X109839814Y86106070D01*
X109840941Y86114953D01*
X109848020Y86120438D01*
X109854182Y86120438D01*
X110526590Y85936877D01*
G37*
%TD.AperFunction*%
%TD*%
%TA.AperFunction,Conductor*%
%TO.N,/5*%
G36*
X77056668Y28970390D02*
G01*
X78970707Y28442784D01*
X78977772Y28437282D01*
X78979184Y28433135D01*
X79151757Y27206761D01*
X79149516Y27198091D01*
X79148444Y27196858D01*
X78803164Y26851578D01*
X78794891Y26848151D01*
X78793212Y26848272D01*
X77571502Y27025418D01*
X77563806Y27029997D01*
X77561886Y27033944D01*
X77181574Y28440742D01*
X77042265Y28956058D01*
X77043414Y28964937D01*
X77050507Y28970405D01*
X77056668Y28970390D01*
G37*
%TD.AperFunction*%
%TD*%
%TA.AperFunction,Conductor*%
%TO.N,/5*%
G36*
X28156148Y113495389D02*
G01*
X29145320Y112753510D01*
X29149882Y112745805D01*
X29150000Y112744150D01*
X29150000Y112255850D01*
X29146573Y112247577D01*
X29145320Y112246490D01*
X28156148Y111504612D01*
X28147473Y111502390D01*
X28143326Y111503812D01*
X26416790Y112489840D01*
X26411305Y112496919D01*
X26412432Y112505802D01*
X26416790Y112510160D01*
X28143327Y113496190D01*
X28152209Y113497316D01*
X28156148Y113495389D01*
G37*
%TD.AperFunction*%
%TD*%
%TA.AperFunction,Conductor*%
%TO.N,/5*%
G36*
X281279887Y86121722D02*
G01*
X281284210Y86113880D01*
X281284210Y86111286D01*
X281109352Y84543140D01*
X281105029Y84535298D01*
X281099379Y84532855D01*
X279876703Y84358187D01*
X279868028Y84360409D01*
X279866775Y84361496D01*
X279521495Y84706776D01*
X279518068Y84715049D01*
X279518186Y84716704D01*
X279692854Y85939382D01*
X279697416Y85947085D01*
X279703138Y85949353D01*
X281271285Y86124211D01*
X281279887Y86121722D01*
G37*
%TD.AperFunction*%
%TD*%
%TA.AperFunction,Conductor*%
%TO.N,/5*%
G36*
X108073146Y88245620D02*
G01*
X109297187Y88070757D01*
X109304892Y88066195D01*
X109306819Y88062256D01*
X109830437Y86144183D01*
X109829310Y86135300D01*
X109822231Y86129815D01*
X109816069Y86129815D01*
X107897996Y86653433D01*
X107890917Y86658918D01*
X107889495Y86663065D01*
X107714633Y87887102D01*
X107716855Y87895777D01*
X107717935Y87897023D01*
X108063223Y88242311D01*
X108071495Y88245737D01*
X108073146Y88245620D01*
G37*
%TD.AperFunction*%
%TD*%
%TA.AperFunction,Conductor*%
%TO.N,/5*%
G36*
X215880340Y66886877D02*
G01*
X217126004Y66546821D01*
X217133083Y66541336D01*
X217134505Y66537189D01*
X217309368Y65313151D01*
X217307146Y65304476D01*
X217306059Y65303223D01*
X216960779Y64957943D01*
X216952506Y64954516D01*
X216950851Y64954634D01*
X215726813Y65129497D01*
X215719108Y65134059D01*
X215717181Y65137998D01*
X215193564Y67056070D01*
X215194691Y67064953D01*
X215201770Y67070438D01*
X215207932Y67070438D01*
X215880340Y66886877D01*
G37*
%TD.AperFunction*%
%TD*%
%TA.AperFunction,Conductor*%
%TO.N,/5*%
G36*
X281976590Y85936877D02*
G01*
X283222254Y85596821D01*
X283229333Y85591336D01*
X283230755Y85587189D01*
X283405618Y84363151D01*
X283403396Y84354476D01*
X283402309Y84353223D01*
X283057029Y84007943D01*
X283048756Y84004516D01*
X283047101Y84004634D01*
X281823063Y84179497D01*
X281815358Y84184059D01*
X281813431Y84187998D01*
X281289814Y86106070D01*
X281290941Y86114953D01*
X281298020Y86120438D01*
X281304182Y86120438D01*
X281976590Y85936877D01*
G37*
%TD.AperFunction*%
%TD*%
%TA.AperFunction,Conductor*%
%TO.N,/5*%
G36*
X234930340Y66886877D02*
G01*
X236176004Y66546821D01*
X236183083Y66541336D01*
X236184505Y66537189D01*
X236359368Y65313151D01*
X236357146Y65304476D01*
X236356059Y65303223D01*
X236010779Y64957943D01*
X236002506Y64954516D01*
X236000851Y64954634D01*
X234776813Y65129497D01*
X234769108Y65134059D01*
X234767181Y65137998D01*
X234243564Y67056070D01*
X234244691Y67064953D01*
X234251770Y67070438D01*
X234257932Y67070438D01*
X234930340Y66886877D01*
G37*
%TD.AperFunction*%
%TD*%
%TA.AperFunction,Conductor*%
%TO.N,/5*%
G36*
X143707387Y48021722D02*
G01*
X143711710Y48013880D01*
X143711710Y48011286D01*
X143536852Y46443140D01*
X143532529Y46435298D01*
X143526879Y46432855D01*
X142304203Y46258187D01*
X142295528Y46260409D01*
X142294275Y46261496D01*
X141948995Y46606776D01*
X141945568Y46615049D01*
X141945686Y46616704D01*
X142120354Y47839382D01*
X142124916Y47847085D01*
X142130638Y47849353D01*
X143698785Y48024211D01*
X143707387Y48021722D01*
G37*
%TD.AperFunction*%
%TD*%
%TA.AperFunction,Conductor*%
%TO.N,/5*%
G36*
X248482387Y28971722D02*
G01*
X248486710Y28963880D01*
X248486710Y28961286D01*
X248311852Y27393140D01*
X248307529Y27385298D01*
X248301879Y27382855D01*
X247079203Y27208187D01*
X247070528Y27210409D01*
X247069275Y27211496D01*
X246723995Y27556776D01*
X246720568Y27565049D01*
X246720686Y27566704D01*
X246895354Y28789382D01*
X246899916Y28797085D01*
X246905638Y28799353D01*
X248473785Y28974211D01*
X248482387Y28971722D01*
G37*
%TD.AperFunction*%
%TD*%
%TA.AperFunction,Conductor*%
%TO.N,/5*%
G36*
X318163146Y69195620D02*
G01*
X319387187Y69020757D01*
X319394892Y69016195D01*
X319396819Y69012256D01*
X319920437Y67094183D01*
X319919310Y67085300D01*
X319912231Y67079815D01*
X319906069Y67079815D01*
X317987996Y67603433D01*
X317980917Y67608918D01*
X317979495Y67613065D01*
X317804633Y68837102D01*
X317806855Y68845777D01*
X317807935Y68847023D01*
X318153223Y69192311D01*
X318161495Y69195737D01*
X318163146Y69195620D01*
G37*
%TD.AperFunction*%
%TD*%
%TA.AperFunction,Conductor*%
%TO.N,/5*%
G36*
X234233637Y67071722D02*
G01*
X234237960Y67063880D01*
X234237960Y67061286D01*
X234063102Y65493140D01*
X234058779Y65485298D01*
X234053129Y65482855D01*
X232830453Y65308187D01*
X232821778Y65310409D01*
X232820525Y65311496D01*
X232475245Y65656776D01*
X232471818Y65665049D01*
X232471936Y65666704D01*
X232646604Y66889382D01*
X232651166Y66897085D01*
X232656888Y66899353D01*
X234225035Y67074211D01*
X234233637Y67071722D01*
G37*
%TD.AperFunction*%
%TD*%
%TA.AperFunction,Conductor*%
%TO.N,/10*%
G36*
X18125646Y69195620D02*
G01*
X19349687Y69020757D01*
X19357392Y69016195D01*
X19359319Y69012256D01*
X19882937Y67094183D01*
X19881810Y67085300D01*
X19874731Y67079815D01*
X19868569Y67079815D01*
X17950496Y67603433D01*
X17943417Y67608918D01*
X17941995Y67613065D01*
X17767133Y68837102D01*
X17769355Y68845777D01*
X17770435Y68847023D01*
X18115723Y69192311D01*
X18123995Y69195737D01*
X18125646Y69195620D01*
G37*
%TD.AperFunction*%
%TD*%
%TA.AperFunction,Conductor*%
%TO.N,/10*%
G36*
X245406148Y106495389D02*
G01*
X246395320Y105753510D01*
X246399882Y105745805D01*
X246400000Y105744150D01*
X246400000Y105255850D01*
X246396573Y105247577D01*
X246395320Y105246490D01*
X245406148Y104504612D01*
X245397473Y104502390D01*
X245393326Y104503812D01*
X243666790Y105489840D01*
X243661305Y105496919D01*
X243662432Y105505802D01*
X243666790Y105510160D01*
X245393327Y106496190D01*
X245402209Y106497316D01*
X245406148Y106495389D01*
G37*
%TD.AperFunction*%
%TD*%
%TA.AperFunction,Conductor*%
%TO.N,/10*%
G36*
X103850646Y50145620D02*
G01*
X105074687Y49970757D01*
X105082392Y49966195D01*
X105084319Y49962256D01*
X105607937Y48044183D01*
X105606810Y48035300D01*
X105599731Y48029815D01*
X105593569Y48029815D01*
X103675496Y48553433D01*
X103668417Y48558918D01*
X103666995Y48563065D01*
X103492133Y49787102D01*
X103494355Y49795777D01*
X103495435Y49797023D01*
X103840723Y50142311D01*
X103848995Y50145737D01*
X103850646Y50145620D01*
G37*
%TD.AperFunction*%
%TD*%
%TA.AperFunction,Conductor*%
%TO.N,/10*%
G36*
X153232387Y28971722D02*
G01*
X153236710Y28963880D01*
X153236710Y28961286D01*
X153061852Y27393140D01*
X153057529Y27385298D01*
X153051879Y27382855D01*
X151829203Y27208187D01*
X151820528Y27210409D01*
X151819275Y27211496D01*
X151473995Y27556776D01*
X151470568Y27565049D01*
X151470686Y27566704D01*
X151645354Y28789382D01*
X151649916Y28797085D01*
X151655638Y28799353D01*
X153223785Y28974211D01*
X153232387Y28971722D01*
G37*
%TD.AperFunction*%
%TD*%
%TA.AperFunction,Conductor*%
%TO.N,/10*%
G36*
X243876590Y85936877D02*
G01*
X245122254Y85596821D01*
X245129333Y85591336D01*
X245130755Y85587189D01*
X245305618Y84363151D01*
X245303396Y84354476D01*
X245302309Y84353223D01*
X244957029Y84007943D01*
X244948756Y84004516D01*
X244947101Y84004634D01*
X243723063Y84179497D01*
X243715358Y84184059D01*
X243713431Y84187998D01*
X243189814Y86106070D01*
X243190941Y86114953D01*
X243198020Y86120438D01*
X243204182Y86120438D01*
X243876590Y85936877D01*
G37*
%TD.AperFunction*%
%TD*%
%TA.AperFunction,Conductor*%
%TO.N,/10*%
G36*
X153929090Y28786877D02*
G01*
X155174754Y28446821D01*
X155181833Y28441336D01*
X155183255Y28437189D01*
X155358118Y27213151D01*
X155355896Y27204476D01*
X155354809Y27203223D01*
X155009529Y26857943D01*
X155001256Y26854516D01*
X154999601Y26854634D01*
X153775563Y27029497D01*
X153767858Y27034059D01*
X153765931Y27037998D01*
X153242314Y28956070D01*
X153243441Y28964953D01*
X153250520Y28970438D01*
X153256682Y28970438D01*
X153929090Y28786877D01*
G37*
%TD.AperFunction*%
%TD*%
%TA.AperFunction,Conductor*%
%TO.N,/10*%
G36*
X210382387Y28971722D02*
G01*
X210386710Y28963880D01*
X210386710Y28961286D01*
X210211852Y27393140D01*
X210207529Y27385298D01*
X210201879Y27382855D01*
X208979203Y27208187D01*
X208970528Y27210409D01*
X208969275Y27211496D01*
X208623995Y27556776D01*
X208620568Y27565049D01*
X208620686Y27566704D01*
X208795354Y28789382D01*
X208799916Y28797085D01*
X208805638Y28799353D01*
X210373785Y28974211D01*
X210382387Y28971722D01*
G37*
%TD.AperFunction*%
%TD*%
%TA.AperFunction,Conductor*%
%TO.N,/10*%
G36*
X53916590Y9736877D02*
G01*
X55162254Y9396821D01*
X55169333Y9391336D01*
X55170755Y9387189D01*
X55345618Y8163151D01*
X55343396Y8154476D01*
X55342309Y8153223D01*
X54997029Y7807943D01*
X54988756Y7804516D01*
X54987101Y7804634D01*
X53763063Y7979497D01*
X53755358Y7984059D01*
X53753431Y7987998D01*
X53229814Y9906070D01*
X53230941Y9914953D01*
X53238020Y9920438D01*
X53244182Y9920438D01*
X53916590Y9736877D01*
G37*
%TD.AperFunction*%
%TD*%
%TA.AperFunction,Conductor*%
%TO.N,/10*%
G36*
X115132387Y28971722D02*
G01*
X115136710Y28963880D01*
X115136710Y28961286D01*
X114961852Y27393140D01*
X114957529Y27385298D01*
X114951879Y27382855D01*
X113729203Y27208187D01*
X113720528Y27210409D01*
X113719275Y27211496D01*
X113373995Y27556776D01*
X113370568Y27565049D01*
X113370686Y27566704D01*
X113545354Y28789382D01*
X113549916Y28797085D01*
X113555638Y28799353D01*
X115123785Y28974211D01*
X115132387Y28971722D01*
G37*
%TD.AperFunction*%
%TD*%
%TA.AperFunction,Conductor*%
%TO.N,/10*%
G36*
X115829090Y28786877D02*
G01*
X117074754Y28446821D01*
X117081833Y28441336D01*
X117083255Y28437189D01*
X117258118Y27213151D01*
X117255896Y27204476D01*
X117254809Y27203223D01*
X116909529Y26857943D01*
X116901256Y26854516D01*
X116899601Y26854634D01*
X115675563Y27029497D01*
X115667858Y27034059D01*
X115665931Y27037998D01*
X115142314Y28956070D01*
X115143441Y28964953D01*
X115150520Y28970438D01*
X115156682Y28970438D01*
X115829090Y28786877D01*
G37*
%TD.AperFunction*%
%TD*%
%TA.AperFunction,Conductor*%
%TO.N,/10*%
G36*
X72426590Y85936877D02*
G01*
X73672254Y85596821D01*
X73679333Y85591336D01*
X73680755Y85587189D01*
X73855618Y84363151D01*
X73853396Y84354476D01*
X73852309Y84353223D01*
X73507029Y84007943D01*
X73498756Y84004516D01*
X73497101Y84004634D01*
X72273063Y84179497D01*
X72265358Y84184059D01*
X72263431Y84187998D01*
X71739814Y86106070D01*
X71740941Y86114953D01*
X71748020Y86120438D01*
X71754182Y86120438D01*
X72426590Y85936877D01*
G37*
%TD.AperFunction*%
%TD*%
%TA.AperFunction,Conductor*%
%TO.N,/10*%
G36*
X71729887Y86121722D02*
G01*
X71734210Y86113880D01*
X71734210Y86111286D01*
X71559352Y84543140D01*
X71555029Y84535298D01*
X71549379Y84532855D01*
X70326703Y84358187D01*
X70318028Y84360409D01*
X70316775Y84361496D01*
X69971495Y84706776D01*
X69968068Y84715049D01*
X69968186Y84716704D01*
X70142854Y85939382D01*
X70147416Y85947085D01*
X70153138Y85949353D01*
X71721285Y86124211D01*
X71729887Y86121722D01*
G37*
%TD.AperFunction*%
%TD*%
%TA.AperFunction,Conductor*%
%TO.N,/10*%
G36*
X243179887Y86121722D02*
G01*
X243184210Y86113880D01*
X243184210Y86111286D01*
X243009352Y84543140D01*
X243005029Y84535298D01*
X242999379Y84532855D01*
X241776703Y84358187D01*
X241768028Y84360409D01*
X241766775Y84361496D01*
X241421495Y84706776D01*
X241418068Y84715049D01*
X241418186Y84716704D01*
X241592854Y85939382D01*
X241597416Y85947085D01*
X241603138Y85949353D01*
X243171285Y86124211D01*
X243179887Y86121722D01*
G37*
%TD.AperFunction*%
%TD*%
%TA.AperFunction,Conductor*%
%TO.N,/13*%
G36*
X34326590Y85936877D02*
G01*
X35572254Y85596821D01*
X35579333Y85591336D01*
X35580755Y85587189D01*
X35755618Y84363151D01*
X35753396Y84354476D01*
X35752309Y84353223D01*
X35407029Y84007943D01*
X35398756Y84004516D01*
X35397101Y84004634D01*
X34173063Y84179497D01*
X34165358Y84184059D01*
X34163431Y84187998D01*
X33639814Y86106070D01*
X33640941Y86114953D01*
X33648020Y86120438D01*
X33654182Y86120438D01*
X34326590Y85936877D01*
G37*
%TD.AperFunction*%
%TD*%
%TA.AperFunction,Conductor*%
%TO.N,/13*%
G36*
X22960340Y47836877D02*
G01*
X24206004Y47496821D01*
X24213083Y47491336D01*
X24214505Y47487189D01*
X24389368Y46263151D01*
X24387146Y46254476D01*
X24386059Y46253223D01*
X24040779Y45907943D01*
X24032506Y45904516D01*
X24030851Y45904634D01*
X22806813Y46079497D01*
X22799108Y46084059D01*
X22797181Y46087998D01*
X22273564Y48006070D01*
X22274691Y48014953D01*
X22281770Y48020438D01*
X22287932Y48020438D01*
X22960340Y47836877D01*
G37*
%TD.AperFunction*%
%TD*%
%TA.AperFunction,Conductor*%
%TO.N,/13*%
G36*
X146156148Y106495389D02*
G01*
X147145320Y105753510D01*
X147149882Y105745805D01*
X147150000Y105744150D01*
X147150000Y105255850D01*
X147146573Y105247577D01*
X147145320Y105246490D01*
X146156148Y104504612D01*
X146147473Y104502390D01*
X146143326Y104503812D01*
X144416790Y105489840D01*
X144411305Y105496919D01*
X144412432Y105505802D01*
X144416790Y105510160D01*
X146143327Y106496190D01*
X146152209Y106497316D01*
X146156148Y106495389D01*
G37*
%TD.AperFunction*%
%TD*%
%TA.AperFunction,Conductor*%
%TO.N,/13*%
G36*
X87254090Y47836877D02*
G01*
X88499754Y47496821D01*
X88506833Y47491336D01*
X88508255Y47487189D01*
X88683118Y46263151D01*
X88680896Y46254476D01*
X88679809Y46253223D01*
X88334529Y45907943D01*
X88326256Y45904516D01*
X88324601Y45904634D01*
X87100563Y46079497D01*
X87092858Y46084059D01*
X87090931Y46087998D01*
X86567314Y48006070D01*
X86568441Y48014953D01*
X86575520Y48020438D01*
X86581682Y48020438D01*
X87254090Y47836877D01*
G37*
%TD.AperFunction*%
%TD*%
%TA.AperFunction,Conductor*%
%TO.N,/13*%
G36*
X200857387Y48021722D02*
G01*
X200861710Y48013880D01*
X200861710Y48011286D01*
X200686852Y46443140D01*
X200682529Y46435298D01*
X200676879Y46432855D01*
X199454203Y46258187D01*
X199445528Y46260409D01*
X199444275Y46261496D01*
X199098995Y46606776D01*
X199095568Y46615049D01*
X199095686Y46616704D01*
X199270354Y47839382D01*
X199274916Y47847085D01*
X199280638Y47849353D01*
X200848785Y48024211D01*
X200857387Y48021722D01*
G37*
%TD.AperFunction*%
%TD*%
%TA.AperFunction,Conductor*%
%TO.N,/13*%
G36*
X201554090Y47836877D02*
G01*
X202799754Y47496821D01*
X202806833Y47491336D01*
X202808255Y47487189D01*
X202983118Y46263151D01*
X202980896Y46254476D01*
X202979809Y46253223D01*
X202634529Y45907943D01*
X202626256Y45904516D01*
X202624601Y45904634D01*
X201400563Y46079497D01*
X201392858Y46084059D01*
X201390931Y46087998D01*
X200867314Y48006070D01*
X200868441Y48014953D01*
X200875520Y48020438D01*
X200881682Y48020438D01*
X201554090Y47836877D01*
G37*
%TD.AperFunction*%
%TD*%
%TA.AperFunction,Conductor*%
%TO.N,/13*%
G36*
X86557387Y48021722D02*
G01*
X86561710Y48013880D01*
X86561710Y48011286D01*
X86386852Y46443140D01*
X86382529Y46435298D01*
X86376879Y46432855D01*
X85154203Y46258187D01*
X85145528Y46260409D01*
X85144275Y46261496D01*
X84798995Y46606776D01*
X84795568Y46615049D01*
X84795686Y46616704D01*
X84970354Y47839382D01*
X84974916Y47847085D01*
X84980638Y47849353D01*
X86548785Y48024211D01*
X86557387Y48021722D01*
G37*
%TD.AperFunction*%
%TD*%
%TA.AperFunction,Conductor*%
%TO.N,/13*%
G36*
X119933637Y67071722D02*
G01*
X119937960Y67063880D01*
X119937960Y67061286D01*
X119763102Y65493140D01*
X119758779Y65485298D01*
X119753129Y65482855D01*
X118530453Y65308187D01*
X118521778Y65310409D01*
X118520525Y65311496D01*
X118175245Y65656776D01*
X118171818Y65665049D01*
X118171936Y65666704D01*
X118346604Y66889382D01*
X118351166Y66897085D01*
X118356888Y66899353D01*
X119925035Y67074211D01*
X119933637Y67071722D01*
G37*
%TD.AperFunction*%
%TD*%
%TA.AperFunction,Conductor*%
%TO.N,/13*%
G36*
X186029887Y86121722D02*
G01*
X186034210Y86113880D01*
X186034210Y86111286D01*
X185859352Y84543140D01*
X185855029Y84535298D01*
X185849379Y84532855D01*
X184626703Y84358187D01*
X184618028Y84360409D01*
X184616775Y84361496D01*
X184271495Y84706776D01*
X184268068Y84715049D01*
X184268186Y84716704D01*
X184442854Y85939382D01*
X184447416Y85947085D01*
X184453138Y85949353D01*
X186021285Y86124211D01*
X186029887Y86121722D01*
G37*
%TD.AperFunction*%
%TD*%
%TA.AperFunction,Conductor*%
%TO.N,/13*%
G36*
X182906673Y106496189D02*
G01*
X184633209Y105510160D01*
X184638694Y105503081D01*
X184637567Y105494198D01*
X184633209Y105489840D01*
X182906673Y104503812D01*
X182897790Y104502685D01*
X182893851Y104504612D01*
X181904680Y105246490D01*
X181900118Y105254195D01*
X181900000Y105255850D01*
X181900000Y105744150D01*
X181903427Y105752423D01*
X181904680Y105753510D01*
X182893852Y106495390D01*
X182902526Y106497611D01*
X182906673Y106496189D01*
G37*
%TD.AperFunction*%
%TD*%
%TA.AperFunction,Conductor*%
%TO.N,/13*%
G36*
X258007387Y48021722D02*
G01*
X258011710Y48013880D01*
X258011710Y48011286D01*
X257836852Y46443140D01*
X257832529Y46435298D01*
X257826879Y46432855D01*
X256604203Y46258187D01*
X256595528Y46260409D01*
X256594275Y46261496D01*
X256248995Y46606776D01*
X256245568Y46615049D01*
X256245686Y46616704D01*
X256420354Y47839382D01*
X256424916Y47847085D01*
X256430638Y47849353D01*
X257998785Y48024211D01*
X258007387Y48021722D01*
G37*
%TD.AperFunction*%
%TD*%
%TA.AperFunction,Conductor*%
%TO.N,/13*%
G36*
X186406148Y106495389D02*
G01*
X187395320Y105753510D01*
X187399882Y105745805D01*
X187400000Y105744150D01*
X187400000Y105255850D01*
X187396573Y105247577D01*
X187395320Y105246490D01*
X186406148Y104504612D01*
X186397473Y104502390D01*
X186393326Y104503812D01*
X184666790Y105489840D01*
X184661305Y105496919D01*
X184662432Y105505802D01*
X184666790Y105510160D01*
X186393327Y106496190D01*
X186402209Y106497316D01*
X186406148Y106495389D01*
G37*
%TD.AperFunction*%
%TD*%
%TA.AperFunction,Conductor*%
%TO.N,/4*%
G36*
X227322894Y93195368D02*
G01*
X228546935Y93020505D01*
X228554640Y93015943D01*
X228556567Y93012004D01*
X229080185Y91093931D01*
X229079058Y91085048D01*
X229071979Y91079563D01*
X229065817Y91079563D01*
X227147744Y91603181D01*
X227140665Y91608666D01*
X227139243Y91612813D01*
X226964381Y92836850D01*
X226966603Y92845525D01*
X226967683Y92846771D01*
X227312971Y93192059D01*
X227321243Y93195485D01*
X227322894Y93195368D01*
G37*
%TD.AperFunction*%
%TD*%
%TA.AperFunction,Conductor*%
%TO.N,/4*%
G36*
X226279471Y54739592D02*
G01*
X226280724Y54738505D01*
X226626004Y54393225D01*
X226629431Y54384952D01*
X226629313Y54383297D01*
X226454645Y53160621D01*
X226450083Y53152916D01*
X226444360Y53150648D01*
X224876214Y52975790D01*
X224867612Y52978279D01*
X224863289Y52986121D01*
X224863289Y52988715D01*
X224881458Y53151651D01*
X225038147Y54556862D01*
X225042470Y54564703D01*
X225048117Y54567145D01*
X226270797Y54741814D01*
X226279471Y54739592D01*
G37*
%TD.AperFunction*%
%TD*%
%TA.AperFunction,Conductor*%
%TO.N,/4*%
G36*
X173351971Y92839592D02*
G01*
X173353224Y92838505D01*
X173698504Y92493225D01*
X173701931Y92484952D01*
X173701813Y92483297D01*
X173527145Y91260621D01*
X173522583Y91252916D01*
X173516860Y91250648D01*
X171948714Y91075790D01*
X171940112Y91078279D01*
X171935789Y91086121D01*
X171935789Y91088715D01*
X171953958Y91251651D01*
X172110647Y92656862D01*
X172114970Y92664703D01*
X172120617Y92667145D01*
X173343297Y92841814D01*
X173351971Y92839592D01*
G37*
%TD.AperFunction*%
%TD*%
%TA.AperFunction,Conductor*%
%TO.N,/4*%
G36*
X265422894Y93195368D02*
G01*
X266646935Y93020505D01*
X266654640Y93015943D01*
X266656567Y93012004D01*
X267180185Y91093931D01*
X267179058Y91085048D01*
X267171979Y91079563D01*
X267165817Y91079563D01*
X265247744Y91603181D01*
X265240665Y91608666D01*
X265239243Y91612813D01*
X265064381Y92836850D01*
X265066603Y92845525D01*
X265067683Y92846771D01*
X265412971Y93192059D01*
X265421243Y93195485D01*
X265422894Y93195368D01*
G37*
%TD.AperFunction*%
%TD*%
%TA.AperFunction,Conductor*%
%TO.N,/4*%
G36*
X230501971Y92839592D02*
G01*
X230503224Y92838505D01*
X230848504Y92493225D01*
X230851931Y92484952D01*
X230851813Y92483297D01*
X230677145Y91260621D01*
X230672583Y91252916D01*
X230666860Y91250648D01*
X229098714Y91075790D01*
X229090112Y91078279D01*
X229085789Y91086121D01*
X229085789Y91088715D01*
X229103958Y91251651D01*
X229260647Y92656862D01*
X229264970Y92664703D01*
X229270617Y92667145D01*
X230493297Y92841814D01*
X230501971Y92839592D01*
G37*
%TD.AperFunction*%
%TD*%
%TA.AperFunction,Conductor*%
%TO.N,/4*%
G36*
X249551971Y92839592D02*
G01*
X249553224Y92838505D01*
X249898504Y92493225D01*
X249901931Y92484952D01*
X249901813Y92483297D01*
X249727145Y91260621D01*
X249722583Y91252916D01*
X249716860Y91250648D01*
X248148714Y91075790D01*
X248140112Y91078279D01*
X248135789Y91086121D01*
X248135789Y91088715D01*
X248153958Y91251651D01*
X248310647Y92656862D01*
X248314970Y92664703D01*
X248320617Y92667145D01*
X249543297Y92841814D01*
X249551971Y92839592D01*
G37*
%TD.AperFunction*%
%TD*%
%TA.AperFunction,Conductor*%
%TO.N,/4*%
G36*
X189222894Y93195368D02*
G01*
X190446935Y93020505D01*
X190454640Y93015943D01*
X190456567Y93012004D01*
X190980185Y91093931D01*
X190979058Y91085048D01*
X190971979Y91079563D01*
X190965817Y91079563D01*
X189047744Y91603181D01*
X189040665Y91608666D01*
X189039243Y91612813D01*
X188864381Y92836850D01*
X188866603Y92845525D01*
X188867683Y92846771D01*
X189212971Y93192059D01*
X189221243Y93195485D01*
X189222894Y93195368D01*
G37*
%TD.AperFunction*%
%TD*%
%TA.AperFunction,Conductor*%
%TO.N,/4*%
G36*
X246195933Y93247692D02*
G01*
X247588656Y93012092D01*
X247596241Y93007333D01*
X247597974Y93003699D01*
X248130371Y91094605D01*
X248129292Y91085715D01*
X248122244Y91080192D01*
X248116083Y91080158D01*
X246190414Y91594283D01*
X246183305Y91599728D01*
X246181732Y91605593D01*
X246182287Y92750003D01*
X246182287Y93236155D01*
X246185714Y93244428D01*
X246193987Y93247855D01*
X246195933Y93247692D01*
G37*
%TD.AperFunction*%
%TD*%
%TA.AperFunction,Conductor*%
%TO.N,/4*%
G36*
X256476644Y74145368D02*
G01*
X257700685Y73970505D01*
X257708390Y73965943D01*
X257710317Y73962004D01*
X258233935Y72043931D01*
X258232808Y72035048D01*
X258225729Y72029563D01*
X258219567Y72029563D01*
X256301494Y72553181D01*
X256294415Y72558666D01*
X256292993Y72562813D01*
X256118131Y73786850D01*
X256120353Y73795525D01*
X256121433Y73796771D01*
X256466721Y74142059D01*
X256474993Y74145485D01*
X256476644Y74145368D01*
G37*
%TD.AperFunction*%
%TD*%
%TA.AperFunction,Conductor*%
%TO.N,/4*%
G36*
X192401971Y92839592D02*
G01*
X192403224Y92838505D01*
X192748504Y92493225D01*
X192751931Y92484952D01*
X192751813Y92483297D01*
X192577145Y91260621D01*
X192572583Y91252916D01*
X192566860Y91250648D01*
X190998714Y91075790D01*
X190990112Y91078279D01*
X190985789Y91086121D01*
X190985789Y91088715D01*
X191003958Y91251651D01*
X191160647Y92656862D01*
X191164970Y92664703D01*
X191170617Y92667145D01*
X192393297Y92841814D01*
X192401971Y92839592D01*
G37*
%TD.AperFunction*%
%TD*%
%TA.AperFunction,Conductor*%
%TO.N,/4*%
G36*
X240605721Y73789592D02*
G01*
X240606974Y73788505D01*
X240952254Y73443225D01*
X240955681Y73434952D01*
X240955563Y73433297D01*
X240780895Y72210621D01*
X240776333Y72202916D01*
X240770610Y72200648D01*
X239202464Y72025790D01*
X239193862Y72028279D01*
X239189539Y72036121D01*
X239189539Y72038715D01*
X239207708Y72201651D01*
X239364397Y73606862D01*
X239368720Y73614703D01*
X239374367Y73617145D01*
X240597047Y73791814D01*
X240605721Y73789592D01*
G37*
%TD.AperFunction*%
%TD*%
%TA.AperFunction,Conductor*%
%TO.N,/15*%
G36*
X61244414Y36114086D02*
G01*
X62443712Y35914965D01*
X62451311Y35910229D01*
X62453160Y35906203D01*
X62933210Y33944073D01*
X62931847Y33935223D01*
X62924625Y33929928D01*
X62918462Y33930093D01*
X61043550Y34496388D01*
X61036621Y34502060D01*
X61035316Y34506196D01*
X60885606Y35755873D01*
X60888025Y35764495D01*
X60888942Y35765530D01*
X61234229Y36110817D01*
X61242501Y36114243D01*
X61244414Y36114086D01*
G37*
%TD.AperFunction*%
%TD*%
%TA.AperFunction,Conductor*%
%TO.N,/15*%
G36*
X83404471Y35689592D02*
G01*
X83405724Y35688505D01*
X83751004Y35343225D01*
X83754431Y35334952D01*
X83754313Y35333297D01*
X83579645Y34110621D01*
X83575083Y34102916D01*
X83569360Y34100648D01*
X82001214Y33925790D01*
X81992612Y33928279D01*
X81988289Y33936121D01*
X81988289Y33938715D01*
X82006458Y34101651D01*
X82163147Y35506862D01*
X82167470Y35514703D01*
X82173117Y35517145D01*
X83395797Y35691814D01*
X83404471Y35689592D01*
G37*
%TD.AperFunction*%
%TD*%
%TA.AperFunction,Conductor*%
%TO.N,/15*%
G36*
X70700394Y55095368D02*
G01*
X71924435Y54920505D01*
X71932140Y54915943D01*
X71934067Y54912004D01*
X72457685Y52993931D01*
X72456558Y52985048D01*
X72449479Y52979563D01*
X72443317Y52979563D01*
X70525244Y53503181D01*
X70518165Y53508666D01*
X70516743Y53512813D01*
X70341881Y54736850D01*
X70344103Y54745525D01*
X70345183Y54746771D01*
X70690471Y55092059D01*
X70698743Y55095485D01*
X70700394Y55095368D01*
G37*
%TD.AperFunction*%
%TD*%
%TA.AperFunction,Conductor*%
%TO.N,/15*%
G36*
X126305721Y73789592D02*
G01*
X126306974Y73788505D01*
X126652254Y73443225D01*
X126655681Y73434952D01*
X126655563Y73433297D01*
X126480895Y72210621D01*
X126476333Y72202916D01*
X126470610Y72200648D01*
X124902464Y72025790D01*
X124893862Y72028279D01*
X124889539Y72036121D01*
X124889539Y72038715D01*
X124907708Y72201651D01*
X125064397Y73606862D01*
X125068720Y73614703D01*
X125074367Y73617145D01*
X126297047Y73791814D01*
X126305721Y73789592D01*
G37*
%TD.AperFunction*%
%TD*%
%TA.AperFunction,Conductor*%
%TO.N,/15*%
G36*
X69155721Y73789592D02*
G01*
X69156974Y73788505D01*
X69502254Y73443225D01*
X69505681Y73434952D01*
X69505563Y73433297D01*
X69330895Y72210621D01*
X69326333Y72202916D01*
X69320610Y72200648D01*
X67752464Y72025790D01*
X67743862Y72028279D01*
X67739539Y72036121D01*
X67739539Y72038715D01*
X67757708Y72201651D01*
X67914397Y73606862D01*
X67918720Y73614703D01*
X67924367Y73617145D01*
X69147047Y73791814D01*
X69155721Y73789592D01*
G37*
%TD.AperFunction*%
%TD*%
%TA.AperFunction,Conductor*%
%TO.N,/15*%
G36*
X145355721Y73789592D02*
G01*
X145356974Y73788505D01*
X145702254Y73443225D01*
X145705681Y73434952D01*
X145705563Y73433297D01*
X145530895Y72210621D01*
X145526333Y72202916D01*
X145520610Y72200648D01*
X143952464Y72025790D01*
X143943862Y72028279D01*
X143939539Y72036121D01*
X143939539Y72038715D01*
X143957708Y72201651D01*
X144114397Y73606862D01*
X144118720Y73614703D01*
X144124367Y73617145D01*
X145347047Y73791814D01*
X145355721Y73789592D01*
G37*
%TD.AperFunction*%
%TD*%
%TA.AperFunction,Conductor*%
%TO.N,/15*%
G36*
X118325394Y36045368D02*
G01*
X119549435Y35870505D01*
X119557140Y35865943D01*
X119559067Y35862004D01*
X120082685Y33943931D01*
X120081558Y33935048D01*
X120074479Y33929563D01*
X120068317Y33929563D01*
X118150244Y34453181D01*
X118143165Y34458666D01*
X118141743Y34462813D01*
X117966881Y35686850D01*
X117969103Y35695525D01*
X117970183Y35696771D01*
X118315471Y36042059D01*
X118323743Y36045485D01*
X118325394Y36045368D01*
G37*
%TD.AperFunction*%
%TD*%
%TA.AperFunction,Conductor*%
%TO.N,/15*%
G36*
X64354471Y35689592D02*
G01*
X64355724Y35688505D01*
X64701004Y35343225D01*
X64704431Y35334952D01*
X64704313Y35333297D01*
X64529645Y34110621D01*
X64525083Y34102916D01*
X64519360Y34100648D01*
X62951214Y33925790D01*
X62942612Y33928279D01*
X62938289Y33936121D01*
X62938289Y33938715D01*
X62956458Y34101651D01*
X63113147Y35506862D01*
X63117470Y35514703D01*
X63123117Y35517145D01*
X64345797Y35691814D01*
X64354471Y35689592D01*
G37*
%TD.AperFunction*%
%TD*%
%TA.AperFunction,Conductor*%
%TO.N,/15*%
G36*
X142176644Y74145368D02*
G01*
X143400685Y73970505D01*
X143408390Y73965943D01*
X143410317Y73962004D01*
X143933935Y72043931D01*
X143932808Y72035048D01*
X143925729Y72029563D01*
X143919567Y72029563D01*
X142001494Y72553181D01*
X141994415Y72558666D01*
X141992993Y72562813D01*
X141818131Y73786850D01*
X141820353Y73795525D01*
X141821433Y73796771D01*
X142166721Y74142059D01*
X142174993Y74145485D01*
X142176644Y74145368D01*
G37*
%TD.AperFunction*%
%TD*%
%TA.AperFunction,Conductor*%
%TO.N,/15*%
G36*
X80225394Y36045368D02*
G01*
X81449435Y35870505D01*
X81457140Y35865943D01*
X81459067Y35862004D01*
X81982685Y33943931D01*
X81981558Y33935048D01*
X81974479Y33929563D01*
X81968317Y33929563D01*
X80050244Y34453181D01*
X80043165Y34458666D01*
X80041743Y34462813D01*
X79866881Y35686850D01*
X79869103Y35695525D01*
X79870183Y35696771D01*
X80215471Y36042059D01*
X80223743Y36045485D01*
X80225394Y36045368D01*
G37*
%TD.AperFunction*%
%TD*%
%TA.AperFunction,Conductor*%
%TO.N,/15*%
G36*
X163680088Y71836625D02*
G01*
X164925752Y71496569D01*
X164932831Y71491084D01*
X164934253Y71486937D01*
X165109116Y70262899D01*
X165106894Y70254224D01*
X165105807Y70252971D01*
X164760527Y69907691D01*
X164752254Y69904264D01*
X164750599Y69904382D01*
X163526561Y70079245D01*
X163518856Y70083807D01*
X163516929Y70087746D01*
X162993312Y72005818D01*
X162994439Y72014701D01*
X163001518Y72020186D01*
X163007680Y72020186D01*
X163680088Y71836625D01*
G37*
%TD.AperFunction*%
%TD*%
%TA.AperFunction,Conductor*%
%TO.N,/15*%
G36*
X161226644Y74145368D02*
G01*
X162450685Y73970505D01*
X162458390Y73965943D01*
X162460317Y73962004D01*
X162983935Y72043931D01*
X162982808Y72035048D01*
X162975729Y72029563D01*
X162969567Y72029563D01*
X161051494Y72553181D01*
X161044415Y72558666D01*
X161042993Y72562813D01*
X160868131Y73786850D01*
X160870353Y73795525D01*
X160871433Y73796771D01*
X161216721Y74142059D01*
X161224993Y74145485D01*
X161226644Y74145368D01*
G37*
%TD.AperFunction*%
%TD*%
%TA.AperFunction,Conductor*%
%TO.N,/15*%
G36*
X123126644Y74145368D02*
G01*
X124350685Y73970505D01*
X124358390Y73965943D01*
X124360317Y73962004D01*
X124883935Y72043931D01*
X124882808Y72035048D01*
X124875729Y72029563D01*
X124869567Y72029563D01*
X122951494Y72553181D01*
X122944415Y72558666D01*
X122942993Y72562813D01*
X122768131Y73786850D01*
X122770353Y73795525D01*
X122771433Y73796771D01*
X123116721Y74142059D01*
X123124993Y74145485D01*
X123126644Y74145368D01*
G37*
%TD.AperFunction*%
%TD*%
%TA.AperFunction,Conductor*%
%TO.N,/15*%
G36*
X65976644Y74145368D02*
G01*
X67200685Y73970505D01*
X67208390Y73965943D01*
X67210317Y73962004D01*
X67733935Y72043931D01*
X67732808Y72035048D01*
X67725729Y72029563D01*
X67719567Y72029563D01*
X65801494Y72553181D01*
X65794415Y72558666D01*
X65792993Y72562813D01*
X65618131Y73786850D01*
X65620353Y73795525D01*
X65621433Y73796771D01*
X65966721Y74142059D01*
X65974993Y74145485D01*
X65976644Y74145368D01*
G37*
%TD.AperFunction*%
%TD*%
%TA.AperFunction,Conductor*%
%TO.N,/9*%
G36*
X262926590Y85936877D02*
G01*
X264172254Y85596821D01*
X264179333Y85591336D01*
X264180755Y85587189D01*
X264355618Y84363151D01*
X264353396Y84354476D01*
X264352309Y84353223D01*
X264007029Y84007943D01*
X263998756Y84004516D01*
X263997101Y84004634D01*
X262773063Y84179497D01*
X262765358Y84184059D01*
X262763431Y84187998D01*
X262239814Y86106070D01*
X262240941Y86114953D01*
X262248020Y86120438D01*
X262254182Y86120438D01*
X262926590Y85936877D01*
G37*
%TD.AperFunction*%
%TD*%
%TA.AperFunction,Conductor*%
%TO.N,/9*%
G36*
X299113146Y50145620D02*
G01*
X300337187Y49970757D01*
X300344892Y49966195D01*
X300346819Y49962256D01*
X300870437Y48044183D01*
X300869310Y48035300D01*
X300862231Y48029815D01*
X300856069Y48029815D01*
X298937996Y48553433D01*
X298930917Y48558918D01*
X298929495Y48563065D01*
X298754633Y49787102D01*
X298756855Y49795777D01*
X298757935Y49797023D01*
X299103223Y50142311D01*
X299111495Y50145737D01*
X299113146Y50145620D01*
G37*
%TD.AperFunction*%
%TD*%
%TA.AperFunction,Conductor*%
%TO.N,/9*%
G36*
X230129090Y28786877D02*
G01*
X231374754Y28446821D01*
X231381833Y28441336D01*
X231383255Y28437189D01*
X231558118Y27213151D01*
X231555896Y27204476D01*
X231554809Y27203223D01*
X231209529Y26857943D01*
X231201256Y26854516D01*
X231199601Y26854634D01*
X229975563Y27029497D01*
X229967858Y27034059D01*
X229965931Y27037998D01*
X229442314Y28956070D01*
X229443441Y28964953D01*
X229450520Y28970438D01*
X229456682Y28970438D01*
X230129090Y28786877D01*
G37*
%TD.AperFunction*%
%TD*%
%TA.AperFunction,Conductor*%
%TO.N,/9*%
G36*
X124657387Y48021722D02*
G01*
X124661710Y48013880D01*
X124661710Y48011286D01*
X124486852Y46443140D01*
X124482529Y46435298D01*
X124476879Y46432855D01*
X123254203Y46258187D01*
X123245528Y46260409D01*
X123244275Y46261496D01*
X122898995Y46606776D01*
X122895568Y46615049D01*
X122895686Y46616704D01*
X123070354Y47839382D01*
X123074916Y47847085D01*
X123080638Y47849353D01*
X124648785Y48024211D01*
X124657387Y48021722D01*
G37*
%TD.AperFunction*%
%TD*%
%TA.AperFunction,Conductor*%
%TO.N,/9*%
G36*
X220604090Y9736877D02*
G01*
X221849754Y9396821D01*
X221856833Y9391336D01*
X221858255Y9387189D01*
X222033118Y8163151D01*
X222030896Y8154476D01*
X222029809Y8153223D01*
X221684529Y7807943D01*
X221676256Y7804516D01*
X221674601Y7804634D01*
X220450563Y7979497D01*
X220442858Y7984059D01*
X220440931Y7987998D01*
X219917314Y9906070D01*
X219918441Y9914953D01*
X219925520Y9920438D01*
X219931682Y9920438D01*
X220604090Y9736877D01*
G37*
%TD.AperFunction*%
%TD*%
%TA.AperFunction,Conductor*%
%TO.N,/9*%
G36*
X196830340Y66886877D02*
G01*
X198076004Y66546821D01*
X198083083Y66541336D01*
X198084505Y66537189D01*
X198259368Y65313151D01*
X198257146Y65304476D01*
X198256059Y65303223D01*
X197910779Y64957943D01*
X197902506Y64954516D01*
X197900851Y64954634D01*
X196676813Y65129497D01*
X196669108Y65134059D01*
X196667181Y65137998D01*
X196143564Y67056070D01*
X196144691Y67064953D01*
X196151770Y67070438D01*
X196157932Y67070438D01*
X196830340Y66886877D01*
G37*
%TD.AperFunction*%
%TD*%
%TA.AperFunction,Conductor*%
%TO.N,/9*%
G36*
X262229887Y86121722D02*
G01*
X262234210Y86113880D01*
X262234210Y86111286D01*
X262059352Y84543140D01*
X262055029Y84535298D01*
X262049379Y84532855D01*
X260826703Y84358187D01*
X260818028Y84360409D01*
X260816775Y84361496D01*
X260471495Y84706776D01*
X260468068Y84715049D01*
X260468186Y84716704D01*
X260642854Y85939382D01*
X260647416Y85947085D01*
X260653138Y85949353D01*
X262221285Y86124211D01*
X262229887Y86121722D01*
G37*
%TD.AperFunction*%
%TD*%
%TA.AperFunction,Conductor*%
%TO.N,/9*%
G36*
X91476590Y85936877D02*
G01*
X92722254Y85596821D01*
X92729333Y85591336D01*
X92730755Y85587189D01*
X92905618Y84363151D01*
X92903396Y84354476D01*
X92902309Y84353223D01*
X92557029Y84007943D01*
X92548756Y84004516D01*
X92547101Y84004634D01*
X91323063Y84179497D01*
X91315358Y84184059D01*
X91313431Y84187998D01*
X90789814Y86106070D01*
X90790941Y86114953D01*
X90798020Y86120438D01*
X90804182Y86120438D01*
X91476590Y85936877D01*
G37*
%TD.AperFunction*%
%TD*%
%TA.AperFunction,Conductor*%
%TO.N,/9*%
G36*
X281281148Y106495389D02*
G01*
X282270320Y105753510D01*
X282274882Y105745805D01*
X282275000Y105744150D01*
X282275000Y105255850D01*
X282271573Y105247577D01*
X282270320Y105246490D01*
X281281148Y104504612D01*
X281272473Y104502390D01*
X281268326Y104503812D01*
X279541790Y105489840D01*
X279536305Y105496919D01*
X279537432Y105505802D01*
X279541790Y105510160D01*
X281268327Y106496190D01*
X281277209Y106497316D01*
X281281148Y106495389D01*
G37*
%TD.AperFunction*%
%TD*%
%TA.AperFunction,Conductor*%
%TO.N,/9*%
G36*
X63480340Y66886877D02*
G01*
X64726004Y66546821D01*
X64733083Y66541336D01*
X64734505Y66537189D01*
X64909368Y65313151D01*
X64907146Y65304476D01*
X64906059Y65303223D01*
X64560779Y64957943D01*
X64552506Y64954516D01*
X64550851Y64954634D01*
X63326813Y65129497D01*
X63319108Y65134059D01*
X63317181Y65137998D01*
X62793564Y67056070D01*
X62794691Y67064953D01*
X62801770Y67070438D01*
X62807932Y67070438D01*
X63480340Y66886877D01*
G37*
%TD.AperFunction*%
%TD*%
%TA.AperFunction,Conductor*%
%TO.N,/9*%
G36*
X196133637Y67071722D02*
G01*
X196137960Y67063880D01*
X196137960Y67061286D01*
X195963102Y65493140D01*
X195958779Y65485298D01*
X195953129Y65482855D01*
X194730453Y65308187D01*
X194721778Y65310409D01*
X194720525Y65311496D01*
X194375245Y65656776D01*
X194371818Y65665049D01*
X194371936Y65666704D01*
X194546604Y66889382D01*
X194551166Y66897085D01*
X194556888Y66899353D01*
X196125035Y67074211D01*
X196133637Y67071722D01*
G37*
%TD.AperFunction*%
%TD*%
M02*
